<svg id="Layer_1" xmlns="http://www.w3.org/2000/svg" viewBox="-105 197 400 400"><style>.st0{fill:#231F20;}</style><path class="st0" d="M179.5 411.4c-.2-.2-20.8-16-45-47.7-12.5-16.4-19.8-31.4-23.8-41.1-4.3-10.5-5.6-17.3-5.6-17.4-.3-1.4-1.5-2.4-2.9-2.4H89.6c-1.5 0-2.7 1.1-2.9 2.5-.1.6-1.5 7.3-5.6 17.6-4 9.8-11.3 25-23.8 41.4C33.2 395.8 12 410.9 11.8 411c-.7.5-1.2 1.3-1.3 2.3s.3 1.8 1 2.4c.2.2 24.2 22.6 38.2 50.3 14.1 27.9 20.6 49.3 20.7 49.5.4 1.3 1.5 2.1 2.9 2.1h45c1.3 0 2.5-.8 2.9-2.1.1-.2 6.9-21 20.7-49 14-27.7 38-50.4 38.2-50.6.6-.6 1-1.5.9-2.3-.4-.9-.8-1.8-1.5-2.2zm-43.4 52.5c-11.5 23.3-18.3 41.7-20.3 47.7H75.1c-2-6.2-8.6-25-20.4-48.4-11.9-23.5-30.2-42.8-36.9-49.5 6.7-5.2 24.2-20 43.9-45.8 20.9-27.4 28.1-51.5 30-59.1h.5V376c-5.3 1.6-9.1 6.4-9.1 12.2 0 7 5.7 12.7 12.7 12.7s12.7-5.7 12.7-12.7c0-6.2-4.4-11.3-10.3-12.5v-66.9h1.4c1.9 7.5 9.1 31.1 30 58.5 19.8 25.9 37 41.3 43.5 46.6-6.6 6.8-25 26.3-37 50zm-40.2-82.4c3.7 0 6.7 3 6.7 6.7s-3 6.7-6.7 6.7-6.7-3-6.7-6.7 3-6.7 6.7-6.7zm50 146h-100c-1.7 0-3 1.3-3 3V565c0 1.7 1.3 3 3 3h100c1.7 0 3-1.3 3-3v-34.4c0-1.8-1.4-3.1-3-3.1zm-3 34.5h-94v-28.4h94V562zm48.9-325.3c-7 0-12.7 5.7-12.7 12.7v.5h-60.8v-20.8c0-1.7-1.3-3-3-3H78.2c-1.7 0-3 1.3-3 3v20.8H10.9v-.5c0-7-5.7-12.7-12.7-12.7s-12.7 5.7-12.7 12.7 5.7 12.7 12.7 12.7c4.7 0 8.7-2.5 11-6.3.3.1.5.1.8.1h65.2v10.2c0 1.7 1.3 3 3 3h37.1c1.7 0 3-1.3 3-3v-10.2h62.6c2.2 3.7 6.3 6.2 10.9 6.2 7 0 12.7-5.7 12.7-12.7s-5.7-12.7-12.7-12.7zM-1.8 256.1c-3.7 0-6.7-3-6.7-6.7s3-6.7 6.7-6.7 6.7 3 6.7 6.7-3 6.7-6.7 6.7zm114.1 7.1H81.2v-31.1h31.1v31.1zm79.5-7.1c-3.7 0-6.7-3-6.7-6.7s3-6.7 6.7-6.7 6.7 3 6.7 6.7-3 6.7-6.7 6.7z"/></svg>