<svg xmlns="http://www.w3.org/2000/svg" viewBox="95 -163.9 219 341.9"><path d="M289 21.4c-.2-.2-20.8-16-45-47.7-12.5-16.4-19.8-31.4-23.8-41.1-4.3-10.5-5.6-17.3-5.6-17.4-.3-1.4-1.5-2.4-2.9-2.4h-12.6c-1.5 0-2.7 1.1-2.9 2.5-.1.6-1.5 7.3-5.6 17.6-4 9.8-11.3 25-23.8 41.4-24.1 31.5-45.3 46.6-45.5 46.7-.7.5-1.2 1.3-1.3 2.3s.3 1.8 1 2.4c.2.2 24.2 22.6 38.2 50.3 14.1 27.9 20.6 49.3 20.7 49.5.4 1.3 1.5 2.1 2.9 2.1h45c1.3 0 2.5-.8 2.9-2.1.1-.2 6.9-21 20.7-49 14-27.7 38-50.4 38.2-50.6.6-.6 1-1.5.9-2.3-.4-.8-.8-1.7-1.5-2.2zm-43.4 52.5c-11.5 23.3-18.3 41.7-20.3 47.7h-40.7c-2-6.2-8.6-25-20.4-48.4-11.9-23.5-30.2-42.8-36.9-49.5 6.7-5.2 24.2-20 43.9-45.8 20.9-27.4 28.1-51.5 30-59.1h.5V-14c-5.3 1.6-9.1 6.4-9.1 12.2 0 7 5.7 12.7 12.7 12.7S218 5.2 218-1.8c0-6.2-4.4-11.3-10.3-12.5v-66.9h1.4c1.9 7.5 9.1 31.1 30 58.5 19.8 25.9 37 41.3 43.5 46.6-6.6 6.9-25 26.4-37 50zM205.4-8.5c3.7 0 6.7 3 6.7 6.7s-3 6.7-6.7 6.7-6.7-3-6.7-6.7 3-6.7 6.7-6.7zm50 146h-100c-1.7 0-3 1.3-3 3V175c0 1.7 1.3 3 3 3h100c1.7 0 3-1.3 3-3v-34.4c0-1.8-1.4-3.1-3-3.1zm-3 34.5h-94v-28.4h94V172zm48.9-325.2c-7 0-12.7 5.7-12.7 12.7v.5h-60.8v-20.8c0-1.7-1.3-3-3-3h-37.1c-1.7 0-3 1.3-3 3v20.8h-64.3v-.5c0-7-5.7-12.7-12.7-12.7S95-147.5 95-140.5s5.7 12.7 12.7 12.7c4.7 0 8.7-2.5 11-6.3.3.1.5.1.8.1h65.2v10.2c0 1.7 1.3 3 3 3h37.1c1.7 0 3-1.3 3-3V-134h62.6c2.2 3.7 6.3 6.2 10.9 6.2 7 0 12.7-5.7 12.7-12.7s-5.7-12.7-12.7-12.7zm-193.6 19.4c-3.7 0-6.7-3-6.7-6.7s3-6.7 6.7-6.7 6.7 3 6.7 6.7-3 6.7-6.7 6.7zm114.1 7.1h-31.1v-31.1h31.1v31.1zm79.5-7.1c-3.7 0-6.7-3-6.7-6.7s3-6.7 6.7-6.7 6.7 3 6.7 6.7-3 6.7-6.7 6.7z" fill="#FFF"/></svg>