<svg xmlns="http://www.w3.org/2000/svg" viewBox="-6 -1 16 16"><path d="M2-1c-4.4 0-8 3.6-8 8s3.6 8 8 8 8-3.6 8-8-3.6-8-8-8zm6 8v.6c-1-.3-1.9-.5-3-.5h-.5c-.1-.5-.3-1-.5-1.5 1-.5 2-1.2 2.8-2.1C7.6 4.5 8 5.7 8 7zM5.7 2.3c-.8.7-1.6 1.4-2.6 1.8C2.4 3 1.5 2 .4 1.2.9 1.1 1.4 1 2 1c1.4 0 2.6.5 3.7 1.3zm-7.1-.2c1.2.7 2.2 1.6 2.9 2.7-1.7.5-3.4.5-5.1 0 .5-1.1 1.2-2 2.2-2.7zM-4 7v-.6c1 .3 2 .4 3 .4 1.1 0 2.3-.2 3.3-.5.2.4.3.7.5 1.1-2.1.5-4 1.7-5.4 3.4C-3.5 9.8-4 8.4-4 7zm2.6 4.9C-.3 10.5 1.3 9.5 3.1 9v.9c0 1-.2 2-.5 3H2c-1.3.1-2.4-.3-3.4-1zm6 .5c.2-.8.3-1.6.3-2.4 0-.4 0-.8-.1-1.1H5c.9 0 1.7.1 2.6.4-.6 1.3-1.7 2.5-3 3.1z"/></svg>