<?xml version="1.0" encoding="utf-8"?>
<!-- Generator: Adobe Illustrator 19.1.0, SVG Export Plug-In . SVG Version: 6.00 Build 0)  -->
<svg version="1.1" id="Layer_1" xmlns="http://www.w3.org/2000/svg" xmlns:xlink="http://www.w3.org/1999/xlink" x="0px" y="0px"
	 viewBox="0 0 16 16" style="enable-background:new 0 0 16 16;" xml:space="preserve">
<g id="Instagram_1">
	<path d="M1.9,0h-1C0.3,0,0,0.6,0,1.1v1v6v6v1C0,15.7,0.3,16,0.9,16h1h12h1c0.6,0,1.1-0.3,1.1-0.9v-1v-6v-6v-1C16,0.6,15.4,0,14.9,0
		h-1H1.9z M7.9,6.1c1.1,0,2,0.9,2,2s-0.9,2-2,2s-2-0.9-2-2S6.8,6.1,7.9,6.1z M14,14H2V8h1.9c0,2,1.8,4,4,4s4-2,4-4H14V14z M14,5h-3
		V2h3V5z"/>
</g>
</svg>
