<svg id="Layer_1" xmlns="http://www.w3.org/2000/svg" viewBox="0 0 110 36.1"><style>.st0{fill:#48A7C8;}</style><path class="st0" d="M109.8 15.6c-.8-.6-1.3-1.1-3.2.6-.9.8-2.1 1.9-3.2 3.1-1.2 1-2.7 2-3.8 2-2.3 0 0-3.7 2-5.9s2-2.4 1.6-2.8c-.4-.4-1.4-1.5-3.1.2-1.7 1.7-4.8 6.2-6.5 6.2-.6 0-1-.8-.3-3.1.6-.5 1.3-1.1 2-1.8 5.3-5.1 5-8.4 4.3-8.8-.7-.4-2.4-2.1-5.6 3.2-1.7 2.7-2.7 5.6-3 7.8-.4.3-.7.6-1.1.8-3.4 2.4-3.6-.6-3-3.7.4-.3.7-.6 1.1-1 5.4-4.8 5.3-8.4 5-9-.3-.6-1.9-1.5-3.3-.2s-4.3 4-5.3 8.8c-.2 1-.3 1.8-.4 2.5-1.7 1.4-2.9 1.9-4.2 1.9-.9 0-1.5-.7-1.7-1.7 2.7-1.6 5.6-4.4 5.5-6.1-.1-1.7-1.5-2.5-3.4-2.2-3 .5-5.1 4.6-5.1 7.3 0 .5.1.9.2 1.3l-.9.3c-1.3.3-2.2-.2-2.6-.6 1.3-1.1 2.1-2.5 2-3.5-.3-2-2-3.1-4.3-2.8 2.4-2.8 3.3-4.6 3.4-6 .1-1.6-.6-2.2-3-2.2-1.5 0-5.7 6.8-5.4 11.7-1 1-2 1.8-2.6 2-2 .6-1.3-2.3-.4-3.8.6-1.2 1.2-1.8 1-2.3-.6-1.1-1.4-.6-2.4-.8-.7 0-1.1-.1-1.6-.3 0-1.2-.5-1.6-1.1-1.6-.6 0-1.2.3-1.5 1.1-.2.6 0 1.1.6 1.5-.7 2.8-2.5 8-5.7 8-1.2 0-1.8-.5-2.2-1.3 1.7-1.2 3.2-2.4 3.9-3.4 1.1-1.6 2-4.2.1-4.8-1.8-.6-3.2-.4-5 2-1 1.4-1.6 2.6-1.6 4.8 0 .7.2 1.4.5 1.9-1 .6-2 1.1-2.9 1.1-1 0-1.5-.9-1.7-2.3 1.5-2.4 3-5.4 3.5-7 1.4-4.1 1.2-5.1.6-5.9-.3-.4-2.2-1.2-3.7-.2-1.1.8-2.3 4.3-2.7 8.4-.4-.3-.9-.5-1.4-.5-2 0-4.4 1.5-5 6-.1.6-.1 1.1 0 1.5-1.2 1.2-3.1 3-2.3-.5.3-1.4.5-2.4.6-3.4.1-1.3-.8-2.5-2.4-1.7-1.8 1-3.6 4.1-3.6 4.1s.7-2.8.6-3c-.2-.4-1.3-.3-1.7.1-.4.4-.7 1.6-1.3 3.2-.9 2.6-2 5.8-3.8 5.8-.4 0-.8-.6-1-1.5.9-1.4 1.6-3 2.3-4.3 1.8-3.2 2.9-7.3 2.4-8.8-.4-1.1-2.9-1.8-4.5.8-1.6 2.5-3 6-3 10.1 0 1.5.2 2.6.5 3.5-1.3 1.8-2.9 3-4.5 3-3.1 0-2.7-5.5-1.9-9.6.8-.6 1.5-1.3 2.2-2.2 4-5 .8-5.7.2-5.7-.8-.1-2.7-.6-4.3 5-.3 1.1-.5 2.2-.6 3.3C1 17.1 2.9 11.3 3 10.8c.1-.5-.2-1-1.5-.1s-2.1 2.7-.8 4.6c.9 1.2 3.6 1.4 6.5.2-.2 4.5 1 8.8 4.1 9 2.4.2 4.2-1.1 5.7-3 .5.6 1.2.9 1.8.9 1.8 0 3.5-2.1 4.7-5.6 0 0-.3 2.6-.4 3.3-.1.7.2.7.8.5 1-.3 1.1 0 1.2-1.6.2-2.2 1.1-3.9 2.2-5.4 1.1-1.6 2.3-2.4 2.3.1 0 2-1.1 5.3 1 5.3 1.1 0 2.4-1.1 3.2-2 1 1.4 3.5 1.2 5.5-.1.3-.2.6-.5 1-.8 1.3 2.1 4.1 1.3 6.1 0 .2-.2.5-.3.7-.5 2.2 2.1 7.4 1.4 10-4.1.6-1.3 1-2.4 1.3-3.2 2.7.3.4 3.3.2 5.2-.3 3 1.8 3.9 6.1.2.1.5.3 1 .6 1.4 1.3 2 3.5 1.9 5.4.8l-.1.1s1.2 1.6 5.2.2c.9 1.2 2.4 1.7 3.3 1.7.9 0 2.4-.2 5-2.1.1 2.1 1 3 2.4 3.4.7.2 2.1.2 4.5-1.4 0 1.3.3 2.3.9 2.5 1.8.7 2.7.2 5.7-2.5-.9 1.6-1.6 3.3-.1 4.1 1 .5 2.3.5 3.7.1-.5.5-.9 1.1-1.3 1.6-.5.7-1 1.4-1.4 2.1-1.4-.7-3.3-1.3-5.8-2.1-10.1-3-45.5-11.8-78.1 4.2 0 0-1.6.6-1 1.6.6 1 .9 3 6 .4 13.8-7 27.4-8.9 38.9-8.9 20.8 0 33.5 4.1 38.9 6.2.1 0 .2.1.2.1-.9 1.5-1.5 3.1-2.1 4.7-.9 2.8 1.3 4.4 2.8 4.4 2.4 0 4.7-2.5 4.6-5.4 0-1.4-.3-2.7-2.6-4.2 1.3-1.9 3-4 5.4-6.2.8-.7 1.5-1.3 2-1.8.2-.2.4-.3.4-.3 1.8-2 2.2-2.4 1.7-2.8zM12.5 7.2c.4 0 .9 2.7-2.3 5.2.3-1.2.5-2.1.7-2.5.6-2 1.1-2.7 1.6-2.7zm7.6 2c2.2-4.4 1.8-.9 1.4.4-.2.6-1.4 4.1-3.1 7.4 0-2.4.5-5.4 1.7-7.8zm24.8-7.4c1.1.5-.4 4.6-2.9 8.9.4-4.1 2.1-9.2 2.9-8.9zm-9 11.4c.7-3.6 2.5-3.8 3.4-3.1.1.1.2.1.2.2 0 .7-.1 1.4-.1 2.2 0 .7 0 1.2.1 1.7-2.5 3.2-4.3 2.2-3.6-1zm15.8-5.4c1 0 1 1.5-1.2 3.7-.7.6-1.4 1.3-2.1 1.9-.3-2.3 1.4-5.6 3.3-5.6zm19.8-5.6c.5 1.7-2 4-3.6 5.9-.3.3-.6.7-.9 1.1.1-.7.3-1.2.4-1.5.5-1.3 3.7-7.2 4.1-5.5zm-3.1 13.4c-1.5 0-1.9-1.7-1.8-3.6 1.2-2.5 3.1-2.7 4.3-1.9 1.4.9.8 5.5-2.5 5.5zM78.8 11C80 9 81.2 8.2 82 8.5c.5.2-.5 3.3-4.1 5.5 0-1 .3-2.1.9-3zm12.7-6.4s.9 1.4-3.3 5.9c-.3.3-.6.6-.8.9.1-.4.2-.7.4-1 1.2-3.3 3.1-5.8 3.7-5.8zm3.6 6.6c2.9-5.9 4.2-4.1 2.8-2.1-.9 1.2-2 2.8-3.9 4.6.3-.8.6-1.6 1.1-2.5zm5.9 21.9c-1 2.2-2.7 2.1-3.2 1.5-.5-.6-.8-1.8.5-4.6.3-.7.6-1.3 1-2 2.5 1.5 2.5 3.3 1.7 5.1z"/></svg>