<svg xmlns="http://www.w3.org/2000/svg" viewBox="181 -134.6 392.5 282.6"><path d="M335.4 17.3c5.9 0 10.6-4.8 10.6-10.6 0-5.9-4.8-10.6-10.6-10.6S324.8.8 324.8 6.6c-.1 5.8 4.7 10.7 10.6 10.7zm0-15.4c2.6 0 4.6 2.1 4.6 4.6s-2.1 4.6-4.6 4.6-4.6-2.1-4.6-4.6 2-4.6 4.6-4.6zm45.3 15.4c5.9 0 10.6-4.8 10.6-10.6 0-5.9-4.8-10.6-10.6-10.6S370.1.9 370.1 6.7c-.1 5.7 4.7 10.6 10.6 10.6zm0-15.4c2.6 0 4.6 2.1 4.6 4.6s-2.1 4.6-4.6 4.6-4.6-2.1-4.6-4.6 2-4.6 4.6-4.6zm38.5 15.4c5.9 0 10.6-4.8 10.6-10.6 0-5.9-4.8-10.6-10.6-10.6S408.6.9 408.6 6.7c0 5.7 4.7 10.6 10.6 10.6zm0-15.4c2.6 0 4.6 2.1 4.6 4.6s-2.1 4.6-4.6 4.6c-2.6 0-4.6-2.1-4.6-4.6s2-4.6 4.6-4.6z" fill="#FFF"/><path d="M538.1-134.6H264.8c-19.5 0-35.3 15.8-35.3 35.3v18.8h-25.8c-12.5 0-22.7 10.2-22.7 22.7V76.7c0 12.5 10.2 22.7 22.7 22.7h25.8v13.2c0 19.5 15.9 35.4 35.4 35.4h273.2c19.5 0 35.4-15.9 35.4-35.4V-99.3c0-19.5-15.7-35.3-35.4-35.3zM235.5-99.3c0-16.2 13.1-29.3 29.3-29.3H538c16.2 0 29.4 13.2 29.4 29.4v57.3H235.5v-57.4zm-31.7 24.8h25.8l-.2 35.2v.7l-.1 14.3h-41.1c-.4 0-.8.1-1.1.2v-33.7c-.1-9.2 7.4-16.7 16.7-16.7zm0 167.9c-9.2 0-16.7-7.5-16.7-16.7v-95.2c.3.1.7.2 1.1.2h41l-.8 111.6-24.6.1zm334.3 48.5H264.8c-16.2 0-29.4-13.2-29.4-29.4V-36h331.9v148.5c.2 16.2-13 29.3-29.2 29.4z" fill="#FFF"/><path d="M418.7 4.8H295.1c-1.7 0-3 1.3-3 3s1.3 3 3 3h123.5c1.7 0 3-1.3 3-3s-1.3-3-2.9-3zm0 32.5H295.1c-1.7 0-3 1.3-3 3s1.3 3 3 3h123.5c1.7 0 3-1.3 3-3 0-1.8-1.3-3-2.9-3zm-47.1 32.2h-76.5c-1.7 0-3 1.3-3 3s1.3 3 3 3h76.5c1.7 0 3-1.3 3-3s-1.3-3-3-3zM225.4-48c3.9 0 7.1-3.2 7.1-7.1s-3.2-7.1-7.1-7.1c-3.9 0-7.1 3.2-7.1 7.1s3.2 7.1 7.1 7.1zM535.2 1.9l-.3-.3c-.5-.7-1.4-1.2-2.4-1.2h-64.7c-.2 0-.4 0-.6.1-.1 0-.2.1-.3.1s-.2.1-.3.1-.2.1-.3.2c-.1 0-.1.1-.2.1-.3.2-.6.5-.8.8 0 .1-.1.1-.1.2-.1.1-.1.2-.2.3 0 .1-.1.2-.1.3s-.1.2-.1.3c0 .2-.1.4-.1.6v66.2c0 .1.1.2.1.3s.1.2.1.3.1.2.2.3c0 .1.1.1.1.2.1.2.2.3.4.4.1.1.3.3.5.4.1 0 .1.1.2.1.1.1.2.1.3.2.1 0 .2.1.3.1s.2.1.3.1c.2 0 .4.1.6.1h64.7c.6 0 1.2-.2 1.6-.5.4-.1.8-.4 1.1-.7 1.1-1.1 1.2-2.7.3-3.9V5.9c.8-1.3.8-3-.3-4zm-38.8 34.4l-25.6 25.5V10.6l25.6 25.7zM475.1 6.5h51.4l-25.7 25.6-25.7-25.6zm25.6 34L526.2 66h-51.1l25.6-25.5zm4.2-4.1l24.6-24.5V61l-24.6-24.6z" fill="#FFF"/></svg>