<svg id="Layer_1" xmlns="http://www.w3.org/2000/svg" viewBox="0 0 301.8 153.4"><path style="fill:#C62A20" d="M164.3 40.6C140 18.2 139.1 1.2 164.6.9c-38.3-6.7-55.4 27.1-27.1 54.3 24.3 22.4 25.2 39.4-.3 39.7h.3-5s8.1 1.7 17.3.8c6.2-.3 11.2-2 15.7-4.5.3 0 .3-.3.6-.3s.3-.3.6-.3c.3-.3.6-.3.8-.6.3-.3.6-.3.8-.6 0 0 .3 0 .3-.3 13.3-9.9 14.4-30.6-4.3-48.5z"/><path style="fill:#C62A20" d="M143.3 55.1C126.8 52 119.5 66.3 131.8 78c10.3 9.5 10.9 16.8 0 16.8 16.5 3.1 23.8-11.5 11.5-22.9-10.7-9.5-10.9-16.8 0-16.8z"/><g><path style="fill:#EFEDED" d="M13 136.7c-.9-.5-2.1-1.2-3.3-1.7-2.1-.9-3.3-1.5-3.9-2.1-1.2-1-1.7-2.1-1.7-3.4 0-1.4.5-2.6 1.5-3.4 1-.9 2.2-1.2 3.8-1.2 1.4 0 2.6.3 3.6.9.7.3 1.4 1 1.9 1.9l.2.2 2.2-1-.5-.3c-1.5-2.6-3.9-3.9-7.5-3.9-2.1 0-3.9.7-5.5 1.9-1.5 1.2-2.2 2.9-2.2 5.1 0 2.1.7 3.8 2.2 5.1.9.9 2.4 1.7 4.8 2.7 1.2.5 2.2 1 2.9 1.4.7.3 1.4.9 1.7 1.2 1.4 1.2 2.1 2.7 2.1 4.6s-.5 3.4-1.7 4.5c-1.2 1-2.7 1.5-4.6 1.5-3.6 0-5.7-1.5-6.5-5l-.2-.3-2.3.8.2.3c1.4 4.3 4.3 6.5 8.9 6.5 1.5 0 2.7-.2 3.8-.5 3.3-1.2 5-3.8 5-7.5 0-2.4-.9-4.5-2.4-6-.8-1.1-1.6-1.7-2.5-2.3zm8.8-14H24v29.6h-2.2v-29.6zm7.2 0v2.4h15.4l-16.6 27.2h20.6v-2.4H31.9l16.8-27.2m2.9 0v2.4H67l-16.6 27.2h20.4v-2.4H54.5l16.6-27.2m5.8 0h-2.4v29.6H85v-2.4h-8.1m12.2-27.2h2.2v29.6h-2.2v-29.6zm29.5 24.7l-21.8-25.5v30.5h2.4v-24l21.6 25v-30.7h-2.2m24.7 17.3h9.6c-.3 2.4-1.4 4.5-3.1 6.5-2.4 2.6-5.7 3.9-9.6 3.9-3.8 0-6.9-1.2-9.3-3.6-2.4-2.4-3.6-5.5-3.6-9.3 0-3.8 1.2-6.9 3.6-9.3 2.4-2.4 5.5-3.6 9.3-3.6 4.6 0 8.2 1.7 10.6 5.3l.2.3 1.9-1.4-.2-.3c-3.1-4.1-7.2-6.2-12.5-6.2-4.5 0-8.1 1.4-11 4.3-2.9 2.9-4.3 6.5-4.3 11s1.4 8.2 4.3 11c2.7 2.7 6.5 4.3 11 4.3 4.6 0 8.6-1.5 11.3-4.5 2.6-2.7 3.9-6.2 3.9-10.3v-.3h-12.2v2.2zm33.7-17.3h-7.4v29.6h2.2v-14.6h5.1c2.2 0 4.3-.7 5.8-2.1 1.5-1.4 2.4-3.3 2.4-5.5s-.9-4.1-2.4-5.5c-1.4-1.2-3.3-1.9-5.7-1.9zm-4.9 2.2h5.1c1.7 0 3.1.5 4.1 1.4 1.2 1 1.7 2.2 1.7 3.9 0 1.7-.5 2.9-1.7 3.9-1.2.9-2.6 1.4-4.3 1.4h-5.1v-10.6h.2zm19.8-2.2h-2.4v29.6H200v-2.4h-8.1m10.2 2.4h2.4l3.4-8.7h12.7l3.3 8.7h2.4l-12-31.2-12.2 31.2zm12.1-25.1l5.5 14.1h-11l5.5-14.1zm14.4-2.3h6.3v27.4h2.4v-27.4h6.3v-2.2h-15.1m17.9 2.2h6.5v27.4h2.2v-27.4h6.5v-2.2h-15.3m19.2 29.6H280v-2.4h-12.2v-12.5H280v-2.6h-12.2v-9.9H280v-2.2h-14.6m27 15.1c1 0 1.9-.2 2.7-.3 1-.3 1.9-.7 2.7-1.4.7-.7 1.4-1.4 1.7-2.4.3-1 .7-2.1.7-3.4 0-1.2-.2-2.2-.7-3.3-.5-.9-1-1.7-1.7-2.4s-1.5-1.2-2.6-1.4c-1-.3-2.1-.5-3.3-.5h-7v29.6h2.2v-14.6h2.6l9.3 14.6h2.7l-9.3-14.5zm-5.2-12.9h4.8c.9 0 1.5.2 2.4.3.7.2 1.4.5 1.9 1 .5.3 1 1 1.2 1.5.3.7.5 1.4.5 2.2 0 1.7-.5 3.1-1.5 3.9-1 .9-2.4 1.4-3.9 1.4h-5.1v-10.5c-.1.2-.3.2-.3.2z"/></g></svg>
