<svg xmlns="http://www.w3.org/2000/svg" viewBox="325.4 -27 176.1 67.5"><linearGradient id="a" gradientUnits="userSpaceOnUse" x1="413.45" y1="4.783" x2="413.45" y2="39.002" gradientTransform="matrix(1 0 0 -1 0 12)"><stop offset="0" stop-color="#8B2219"/><stop offset=".816" stop-color="#ED3024"/></linearGradient><path d="M418.2-12.5c-8.7-8-9-14.1.1-14.2-13.7-2.4-19.8 9.7-9.7 19.4 8.7 8 9 14.1-.1 14.2h.1-1.8s2.9.6 6.2.3c2.2-.1 4-.7 5.6-1.6.1 0 .1-.1.2-.1s.1-.1.2-.1c.1-.1.2-.1.3-.2.1-.1.2-.1.3-.2 0 0 .1 0 .1-.1 4.8-3.6 5.2-11-1.5-17.4z" fill="url(#a)"/><linearGradient id="b" gradientUnits="userSpaceOnUse" x1="413.45" y1="4.991" x2="413.45" y2="19.458" gradientTransform="matrix(1 0 0 -1 0 12)"><stop offset="0" stop-color="#8B2219"/><stop offset=".816" stop-color="#ED3024"/></linearGradient><path d="M415.5-7.3c-5.9-1.1-8.5 4-4.1 8.2 3.7 3.4 3.9 6 0 6 5.9 1.1 8.5-4.1 4.1-8.2-3.8-3.4-3.9-6 0-6z" fill="url(#b)"/><g><path d="M333 30.8c-.5-.3-1.2-.7-1.9-1-1.2-.5-1.9-.9-2.3-1.2-.7-.6-1-1.2-1-2s.3-1.5.9-2c.6-.5 1.3-.7 2.2-.7.8 0 1.5.2 2.1.5.4.2.8.6 1.1 1.1l.1.1 1.3-.6-.3-.2c-.9-1.5-2.3-2.3-4.4-2.3-1.2 0-2.3.4-3.2 1.1-.9.7-1.3 1.7-1.3 3 0 1.2.4 2.2 1.3 3 .5.5 1.4 1 2.8 1.6.7.3 1.3.6 1.7.8.4.2.8.5 1 .7.8.7 1.2 1.6 1.2 2.7s-.3 2-1 2.6c-.7.6-1.6.9-2.7.9-2.1 0-3.3-.9-3.8-2.9l-.1-.2-1.3.5.1.2c.8 2.5 2.5 3.8 5.2 3.8.9 0 1.6-.1 2.2-.3 1.9-.7 2.9-2.2 2.9-4.4 0-1.4-.5-2.6-1.4-3.5-.4-.6-.9-1-1.4-1.3zm5.1-8.2h1.3v17.3h-1.3V22.6zm4.2 0V24h9l-9.7 15.9h12v-1.4H344l9.8-15.9m1.7 0V24h9l-9.7 15.9h11.9v-1.4h-9.5l9.7-15.9m3.4 0h-1.4v17.3h6.1v-1.4h-4.7m7.1-15.9h1.3v17.3h-1.3V22.6zM394.6 37l-12.7-14.9v17.8h1.4v-14l12.6 14.6V22.6h-1.3M409 32.7h5.6c-.2 1.4-.8 2.6-1.8 3.8-1.4 1.5-3.3 2.3-5.6 2.3-2.2 0-4-.7-5.4-2.1-1.4-1.4-2.1-3.2-2.1-5.4s.7-4 2.1-5.4c1.4-1.4 3.2-2.1 5.4-2.1 2.7 0 4.8 1 6.2 3.1l.1.2 1.1-.8-.1-.2c-1.8-2.4-4.2-3.6-7.3-3.6-2.6 0-4.7.8-6.4 2.5-1.7 1.7-2.5 3.8-2.5 6.4s.8 4.8 2.5 6.4c1.6 1.6 3.8 2.5 6.4 2.5 2.7 0 5-.9 6.6-2.6 1.5-1.6 2.3-3.6 2.3-6v-.2H409v1.2zm19.7-10.1h-4.3v17.3h1.3v-8.5h3c1.3 0 2.5-.4 3.4-1.2s1.4-1.9 1.4-3.2c0-1.3-.5-2.4-1.4-3.2-.9-.8-2-1.2-3.4-1.2zm-2.9 1.3h3c1 0 1.8.3 2.4.8.7.6 1 1.3 1 2.3s-.3 1.7-1 2.3c-.7.5-1.5.8-2.5.8h-3v-6.2h.1zm11.6-1.3H436v17.3h6.1v-1.4h-4.7m5.9 1.4h1.4l2-5.1h7.4l1.9 5.1h1.4l-7-18.2-7.1 18.2zm7.1-14.7l3.2 8.2h-6.4l3.2-8.2zm8.4-1.3h3.7v16h1.4v-16h3.7v-1.3h-8.8m10.4 1.3h3.8v16h1.3v-16h3.8v-1.3h-8.9m11.1 17.3h8.5v-1.4h-7.1v-7.3h7.1v-1.5h-7.1v-5.8h7.1v-1.3h-8.5m15.7 8.8c.6 0 1.1-.1 1.6-.2.6-.2 1.1-.4 1.6-.8.4-.4.8-.8 1-1.4.2-.6.4-1.2.4-2 0-.7-.1-1.3-.4-1.9-.3-.5-.6-1-1-1.4s-.9-.7-1.5-.8c-.6-.2-1.2-.3-1.9-.3h-4.1v17.3h1.3v-8.5h1.5l5.4 8.5h1.6l-5.5-8.5zm-3-7.5h2.8c.5 0 .9.1 1.4.2.4.1.8.3 1.1.6.3.2.6.6.7.9.2.4.3.8.3 1.3 0 1-.3 1.8-.9 2.3-.6.5-1.4.8-2.3.8h-3v-6.1h-.1z" fill="#F7F7F7"/></g></svg>