<svg xmlns="http://www.w3.org/2000/svg" version="1.1" id="Layer_1" viewBox="0 0 560 82.7">
<g>
	<g>
		<path fill="#AFAFB0" d="M112,19.9h13.6c4.6,0,8.3,1.5,10.6,3.8c2,2,3.2,4.9,3.2,8v0.1c0,6.6-4.4,10.6-10.5,11.7L140.7,61h-3.6
			l-11.4-16.9H115V61H112V19.9z M124.7,41.4c7.6,0,11.8-3.7,11.8-9.5v-0.1c0-5.9-4.2-9.2-11.1-9.2H115v18.8H124.7z"/>
		<path fill="#AFAFB0" d="M159.6,45.9v-26h2.9v25.8c0,8.5,4.4,13.2,11.6,13.2c7,0,11.4-4.4,11.4-13v-26h2.9v25.8
			c0,10.3-5.9,16-14.5,16C165.4,61.6,159.6,55.9,159.6,45.9z"/>
		<path fill="#AFAFB0" d="M210.1,19.9h2.8l23.7,35.4V19.9h2.8V61H237l-24.1-36.2V61h-2.8V19.9z"/>
		<path fill="#AFAFB0" d="M287.7,19.9h2.9V61h-2.9V19.9z"/>
		<path fill="#AFAFB0" d="M322.3,22.6h-12v-2.7h26.9v2.7h-12V61h-2.9V22.6z"/>
		<path fill="#AFAFB0" d="M380.7,40.7v-0.4c0-12,7-21,17.4-21s17.3,9,17.3,21v0.4c0,12-7,21-17.3,21S380.7,52.6,380.7,40.7z
			 M412.4,40.7v-0.4c0-10.6-6.1-18.3-14.3-18.3c-8.3,0-14.3,7.7-14.3,18.3v0.4c0,10.6,6.1,18.3,14.4,18.3
			C406.3,58.9,412.4,51.2,412.4,40.7z"/>
		<path fill="#AFAFB0" d="M435.9,19.9h2.8l23.7,35.4V19.9h2.8V61h-2.3l-24.1-36.2V61h-2.8V19.9z"/>
		<path fill="#AFAFB0" d="M485.8,40.6v-0.3c0-12.4,7.7-21,17.8-21c5.5,0,9.1,2.1,12.3,5l-1.9,2.2c-2.8-2.6-6-4.5-10.5-4.5
			c-8.3,0-14.7,7.6-14.7,18.3v0.2c0,10.8,6.4,18.4,14.7,18.4c4.4,0,7.7-1.8,10.8-4.8l1.8,2.1c-3.3,3.2-7.2,5.5-12.7,5.5
			C493.4,61.6,485.8,53.2,485.8,40.6z"/>
		<path fill="#AFAFB0" d="M535.1,19.9h24.6v2.7H538v16.3h19.5v2.7H538v16.7h22V61h-24.9V19.9z"/>
	</g>
	<g>
		<path fill="#A12E32" d="M56.4,0L42.6,7.8c1.7,1.1,2.7,2.8,2.7,4.8c0,2.8-2.2,5.1-5.1,5.7c-0.5,0.1-1,0.2-1.5,0.2
			c-0.2,0-0.4,0-0.5,0c-0.2,0-0.5,0-0.7-0.1c-0.3,0-0.6-0.1-0.9-0.2c-0.6-0.2-1.1-0.4-1.6-0.7c-0.2-0.1-0.4-0.3-0.6-0.4
			c-1.4-1.1-2.2-2.7-2.2-4.4c0-2.3,1.4-4.2,3.5-5.2L28.2,0l-7.5,7.4c2.1,1,3.5,2.9,3.5,5.2c0,1.4-0.5,2.6-1.4,3.6
			c-0.4,0.5-0.9,0.9-1.5,1.2c-0.7,0.5-1.6,0.8-2.5,1c-0.2,0-0.4,0.1-0.7,0.1c-0.2,0-0.4,0-0.5,0c-0.5,0-0.9,0-1.3-0.1
			c-0.1,0-0.1,0-0.2,0c-2.9-0.6-5-2.9-5-5.7c0-2,1.1-3.7,2.7-4.8L0,0l12,26.1h32.6L56.4,0z"/>
		<path fill="#A12E32" d="M56.5,49.1c0-4.6-2.1-8.5-4.8-10.9c-0.6-0.5-1.2-1-1.9-1.4c-0.2-0.1-0.4-0.3-0.7-0.4
			c-0.1,0-0.1-0.1-0.2-0.1c-0.6-0.3-1.8-0.8-1.9-0.8c-1.9-0.6-4.8-1.1-7.2-1.1l-24.5,0c0.4,0.4,11.2,13.7,11.9,14.5
			c0.5,0.6,1.7,1.4,2.3,0.6c0,0-0.4-0.2-0.8-0.9c-0.4-0.7-0.9-1.5-1-2.5c-0.2-1.3,0.2-2.7,1.8-4.1c3.3-2.4,7.3,1,7.3,1
			s2,1.8,4.3,3.7c2.3,1.9,5,4,6.2,4.3c0,0,0,0,0.1,0c0,0,0,0-0.1,0c-2.4,0.6-10.5,8-10.5,8s-0.4,0.3-1,0.7L52.8,80l2.3,2.7V68.2
			l-5.7-6.6C52.9,59.2,56.5,56,56.5,49.1z"/>
	</g>
</g>
</svg>
