<svg viewBox="0 0 62 63" xmlns="http://www.w3.org/2000/svg"><title>illo-glasses</title><g fill="none" fill-rule="evenodd"><g fill="#C9D1EE"><path d="M30.543 51.536l-7.03 7.03c-2.996 2.996-7.81 3.138-10.975.32l-6.92-6.153c-1.288-1.147-1.347-3.143-.127-4.363l16.055-16.054c1.367-1.367 3.65-1.103 4.67.54l5.467 8.803c1.96 3.157 1.488 7.25-1.14 9.876M51.064 31.015l7.03-7.03c2.996-2.996 3.137-7.808.32-10.974L52.26 6.09c-1.147-1.287-3.143-1.346-4.363-.126L31.843 22.018c-1.367 1.367-1.103 3.65.54 4.67l8.804 5.467c3.158 1.96 7.25 1.488 9.877-1.14"/></g><path d="M5.305 52.187h24.59l3.31-5.25h-27.9v5.25zM9.69 45.308h22.642v-2.624H9.69v2.624zM28.893 37.746v2h-13.87v-2h13.87zM32.885 24.607h24.59l3.31-5.25h-27.9v5.25zM37.27 17.728h22.642v-2.625H37.27v2.625zM56.473 10.166v2h-13.87v-2h13.87z" fill="#FFF"/><path d="M53.506 8.133l-7.072 19.33M7.84 53.8l19.065-6.808" stroke="#5D74B6" stroke-width="3" stroke-linecap="round" stroke-linejoin="round"/><g stroke="#425896" stroke-linecap="round" stroke-linejoin="round"><path d="M45.953 33.814c.673 3.438 2.84 6.528 6.118 8.28M33.256 46.51c3.438.674 6.528 2.84 8.282 6.12" stroke-width="3"/><path d="M4.657 52.033l-3.182 3.182 2.828 2.828 3.182-3.182M51.562 5.128l3.182-3.182 2.828 2.83-3.182 3.18M25.665 31.524l5.657-5.657M27.99 34.355s.12-1.532 2.123-3.535 3.535-2.122 3.535-2.122" stroke-width="2"/><path d="M30.543 51.536l-7.03 7.03c-2.996 2.996-7.81 3.138-10.975.32l-6.92-6.153c-1.288-1.147-1.347-3.143-.127-4.363l16.055-16.054c1.367-1.367 3.65-1.103 4.67.54l5.467 8.803c1.96 3.157 1.488 7.25-1.14 9.876zM51.064 31.015l7.03-7.03c2.996-2.996 3.137-7.808.32-10.974L52.26 6.09c-1.147-1.287-3.143-1.346-4.363-.126L31.843 22.018c-1.367 1.367-1.103 3.65.54 4.67l8.804 5.467c3.158 1.96 7.25 1.488 9.877-1.14z" stroke-width="3"/></g></g></svg>
