<svg width="67" height="69" viewBox="0 0 67 69" xmlns="http://www.w3.org/2000/svg"><title>illo-pen</title><g fill="none" fill-rule="evenodd"><path d="M64.742 57.828l-7.07 7.07-20.86-20.15 1.767-1.77-25.533-25.253-.49-1.977-5.774-5.775-2.298-2.298L2.54 5.73l2.786-3.05 3.17 3.283 1.41.062 7.357 7.358.708-.707 25.582 25.58 1.146-.977 20.044 20.548z" fill="#FFF"/><path d="M34.316 38.588l4.66-4.66 4.188 4.188-4.66 4.66-4.188-4.188zM10.396 13.254l3.246-3.246 3.623 3.624-3.245 3.246-3.624-3.624zM2.574 5.432l2.804-2.804 3.624 3.624-2.804 2.804-3.624-3.624z" fill="#C9D1EE"/><path d="M3.12 3.483L1 1.363M54.033 60.052l6.364-6.364" stroke="#8C9DD0" stroke-width="2" stroke-linecap="round" stroke-linejoin="round"/><g stroke-width="3" stroke-linecap="round" stroke-linejoin="round"><path d="M56.383 64.318L53.2 67.5 38 52.297" stroke="#7A88C4"/><path d="M48.908 41.387l16.617 16.617-7.375 7.375-20.713-20.714 7.375-7.375" stroke="#4969C5"/></g><path d="M22.215 17.168l21.36 21.36-4.9 4.9L13.07 17.825l4.9-4.9" stroke="#4969C5" stroke-width="3" stroke-linecap="round" stroke-linejoin="round"/><path d="M13.73 10.097l3.536 3.536-3.486 3.485L6.532 9.87l3.486-3.485" stroke="#4969C5" stroke-width="3" stroke-linecap="round" stroke-linejoin="round"/><path d="M7.63 4.882l1.946 1.945L6.974 9.43 2.73 5.185l2.603-2.602" stroke="#4969C5" stroke-width="2" stroke-linecap="round" stroke-linejoin="round"/></g></svg>