<?xml version="1.0" encoding="UTF-8" standalone="no"?>
<svg width="112px" height="95px" viewBox="0 0 112 95" version="1.1" xmlns="http://www.w3.org/2000/svg" xmlns:xlink="http://www.w3.org/1999/xlink">
    <!-- Generator: Sketch 3.6.1 (26313) - http://www.bohemiancoding.com/sketch -->
    <title>illo-hat</title>
    <desc>Created with Sketch.</desc>
    <defs></defs>
    <g id="Page-1" stroke="none" stroke-width="1" fill="none" fill-rule="evenodd">
        <g id="Desktop-HD-Copy" transform="translate(-658.000000, -3775.000000)">
            <g id="Web-vs.-Mobile" transform="translate(97.000000, 3408.000000)">
                <g id="Illos" transform="translate(48.000000, 84.000000)">
                    <g id="illo-hat" transform="translate(514.500000, 284.000000)">
                        <path d="M54.7311,0.3749 L0.4431,24.8289 L21.8901,34.5569 L21.8901,52.5569 C24.2531,57.1949 26.5151,59.8069 28.8901,61.3959 L28.8901,69.7909 C26.8901,70.5839 24.7611,74.2039 24.7441,74.5569 C24.7231,74.9729 24.3071,88.7439 24.3071,88.7439 C24.3071,88.7439 27.8901,93.6819 33.8901,90.8069 L33.8901,74.5569 C33.8901,74.5569 33.8901,71.4079 30.8901,70.7019 L30.8901,64.5909 C38.2811,68.4529 46.0161,70.4179 52.5721,70.4179 C82.3281,70.4179 86.8901,51.5569 86.8901,51.5569 L86.8901,34.2729 L107.9761,24.8649 L54.7311,0.3749 Z" id="Fill-1" fill="#FFFFFF"></path>
                        <path d="M86.748,34.4318 L86.748,43.6438 L54.654,57.9578 L37.442,49.8288 L37.442,66.5438 L33.088,64.6818 L33.088,47.7728 L22.067,42.5678 L22.067,34.2728 L34.306,39.7318 L54.654,48.8078 L86.748,34.4318 Z" id="Fill-3" fill="#C9D1EE"></path>
                        <path d="M25.2123,35.6758 L0.5003,24.6538 L54.6533,0.4998 L108.8073,24.6538 L54.6533,48.8068 L34.6103,39.8678" id="Stroke-5" stroke="#425896" stroke-width="3" stroke-linecap="round" stroke-linejoin="round"></path>
                        <path d="M35.485,66.1803 C40.874,68.6193 47.496,70.0563 54.654,70.0563 C72.741,70.0563 87.404,60.8783 87.404,49.5563 L87.404,39.2003" id="Stroke-7" stroke="#425896" stroke-width="3" stroke-linecap="round" stroke-linejoin="round"></path>
                        <path d="M21.9037,39.2001 L21.9037,49.5571 C21.9037,50.7421 22.0647,51.9051 22.3737,53.0361 C22.9047,54.9801 23.8727,56.8301 25.2127,58.5461" id="Stroke-9" stroke="#425896" stroke-width="3" stroke-linecap="round" stroke-linejoin="round"></path>
                        <path d="M60.0452,23.4655 C60.0452,25.3315 57.4892,26.8435 54.3362,26.8435 C51.1822,26.8435 48.6262,25.3315 48.6262,23.4655 C48.6262,21.5995 51.1822,20.0875 54.3362,20.0875 C57.4892,20.0875 60.0452,21.5995 60.0452,23.4655 L60.0452,23.4655 Z" id="Stroke-11" stroke="#4969C5" stroke-width="3" stroke-linecap="round" stroke-linejoin="round"></path>
                        <path d="M25.4736,90.0568 L25.4736,74.9738 C25.4736,72.5338 27.4506,70.5568 29.8906,70.5568 C32.3296,70.5568 34.3066,72.5338 34.3066,74.9738 L34.3066,91.0568" id="Stroke-13" stroke="#8C9DD0" stroke-width="2" stroke-linecap="round" stroke-linejoin="round"></path>
                        <path d="M29.8902,74.0651 L29.8902,92.0651" id="Stroke-15" stroke="#8C9DD0" stroke-width="2" stroke-linecap="round" stroke-linejoin="round"></path>
                        <path d="M50.2236,26.3901 L29.9296,35.4421 L29.8066,66.5441" id="Stroke-17" stroke="#4969C5" stroke-width="3" stroke-linecap="round" stroke-linejoin="round"></path>
                    </g>
                </g>
            </g>
        </g>
    </g>
</svg>