<?xml version="1.0" encoding="UTF-8" standalone="no"?>
<svg width="82px" height="82px" viewBox="0 0 82 82" version="1.1" xmlns="http://www.w3.org/2000/svg" xmlns:xlink="http://www.w3.org/1999/xlink">
    <!-- Generator: Sketch 3.6.1 (26313) - http://www.bohemiancoding.com/sketch -->
    <title>illo-calculator</title>
    <desc>Created with Sketch.</desc>
    <defs></defs>
    <g id="Page-1" stroke="none" stroke-width="1" fill="none" fill-rule="evenodd">
        <g id="Desktop-HD-Copy" transform="translate(-528.000000, -3697.000000)">
            <g id="Web-vs.-Mobile" transform="translate(97.000000, 3408.000000)">
                <g id="Illos" transform="translate(48.000000, 84.000000)">
                    <g id="illo-calculator" transform="translate(384.000000, 206.000000)">
                        <path d="M33.8913,78.0855 L1.0893,45.2835 L44.9303,1.4425 L77.7323,34.2445 L33.8913,78.0855 Z" id="Fill-1" fill="#FFFFFF"></path>
                        <path d="M61.2366,41.7267 L37.1946,17.6847 L45.7656,9.1137 L69.8076,33.1557 L61.2366,41.7267 Z" id="Fill-2" fill="#C9D1EE"></path>
                        <path d="M53.4783,17.559 L53.5543,33.616 L55.7213,35.855 L55.7213,19.533 L53.4783,17.559 Z" id="Fill-4" fill="#FFFFFF"></path>
                        <path d="M57.746,21.8016 L57.834,37.8586 L60.722,40.8046 L60.722,24.4826 L57.746,21.8016 Z" id="Fill-5" fill="#FFFFFF"></path>
                        <path d="M63.7217,28.1361 L63.7217,38.7431 L69.2127,33.6271 L63.7217,28.1361 Z" id="Fill-6" fill="#FFFFFF"></path>
                        <path d="M42.8422,12.8408 L42.7682,22.6158 L47.5222,27.3698 L47.5522,11.8428 L45.4012,9.6928 L42.8422,12.8408 Z" id="Fill-7" fill="#FFFFFF"></path>
                        <g id="Group-22" transform="translate(0.000000, 0.174700)">
                            <path d="M33.2737,69.515 L29.5617,65.803 L40.3447,55.019 L44.0567,58.732 L33.2737,69.515 Z" id="Fill-8" fill="#C9D1EE"></path>
                            <path d="M47.2979,55.4907 L43.5859,51.7787 L47.2979,48.0657 L51.0099,51.7787 L47.2979,55.4907 Z" id="Fill-10" fill="#C9D1EE"></path>
                            <path d="M34.0397,28.0903 L30.3277,24.3783 L34.0397,20.6653 L37.7517,24.3783 L34.0397,28.0903 Z" id="Fill-12" fill="#C9D1EE"></path>
                            <path d="M40.8161,34.8668 L37.1041,31.1548 L40.8161,27.4418 L44.5281,31.1548 L40.8161,34.8668 Z" id="Fill-14" fill="#C9D1EE"></path>
                            <path d="M47.5926,41.6432 L43.8806,37.9312 L47.5926,34.2182 L51.3046,37.9312 L47.5926,41.6432 Z" id="Fill-16" fill="#C9D1EE"></path>
                            <path d="M54.369,48.4196 L50.657,44.7076 L54.369,40.9946 L58.081,44.7076 L54.369,48.4196 Z" id="Fill-18" fill="#C9D1EE"></path>
                            <path d="M4.8327,41.3653 L45.8727,0.3253 L78.6747,33.1273 L33.3017,78.5003 L0.4997,45.6983" id="Stroke-20" stroke="#425896" stroke-width="3" stroke-linecap="round" stroke-linejoin="round"></path>
                        </g>
                        <path d="M40.0234,14.8567 L45.7654,9.1147 L69.8074,33.1557 L61.2364,41.7267 L37.1954,17.6847" id="Stroke-23" stroke="#5D74B6" stroke-width="2" stroke-linecap="round" stroke-linejoin="round"></path>
                        <path d="M18.4244,36.4557 L20.0154,34.8647 L23.7274,38.5767 L20.0154,42.2897 L16.3034,38.5767" id="Stroke-24" stroke="#5D74B6" stroke-width="2" stroke-linecap="round" stroke-linejoin="round"></path>
                        <path d="M25.2009,43.2321 L26.7919,41.6411 L30.5039,45.3531 L26.7919,49.0661 L23.0799,45.3531" id="Stroke-25" stroke="#5D74B6" stroke-width="2" stroke-linecap="round" stroke-linejoin="round"></path>
                        <path d="M31.9773,50.0085 L33.5683,48.4175 L37.2803,52.1295 L33.5683,55.8425 L29.8563,52.1295" id="Stroke-26" stroke="#5D74B6" stroke-width="2" stroke-linecap="round" stroke-linejoin="round"></path>
                        <path d="M31.6827,63.8561 L40.3447,55.1941 L44.0567,58.9061 L33.2737,69.6901 L29.5617,65.9771" id="Stroke-27" stroke="#5D74B6" stroke-width="2" stroke-linecap="round" stroke-linejoin="round"></path>
                        <path d="M11.3533,43.5267 L12.9443,41.9357 L23.4333,52.4247 L19.7203,56.1367 L9.2323,45.6477" id="Stroke-28" stroke="#5D74B6" stroke-width="2" stroke-linecap="round" stroke-linejoin="round"></path>
                        <path d="M24.9062,57.0796 L26.4972,55.4886 L30.2092,59.2006 L26.4972,62.9136 L22.7852,59.2006" id="Stroke-29" stroke="#5D74B6" stroke-width="2" stroke-linecap="round" stroke-linejoin="round"></path>
                        <path d="M25.3776,29.5025 L26.9686,27.9115 L30.6806,31.6235 L26.9686,35.3365 L23.2566,31.6235" id="Stroke-30" stroke="#5D74B6" stroke-width="2" stroke-linecap="round" stroke-linejoin="round"></path>
                        <path d="M32.1541,36.2789 L33.7451,34.6879 L37.4571,38.3999 L33.7451,42.1129 L30.0331,38.3999" id="Stroke-31" stroke="#5D74B6" stroke-width="2" stroke-linecap="round" stroke-linejoin="round"></path>
                        <path d="M38.9305,43.0553 L40.5215,41.4643 L44.2335,45.1763 L40.5215,48.8893 L36.8095,45.1763" id="Stroke-32" stroke="#5D74B6" stroke-width="2" stroke-linecap="round" stroke-linejoin="round"></path>
                        <path d="M45.707,49.8318 L47.298,48.2408 L51.01,51.9528 L47.298,55.6658 L43.586,51.9528" id="Stroke-33" stroke="#5D74B6" stroke-width="2" stroke-linecap="round" stroke-linejoin="round"></path>
                        <path d="M32.4487,22.4314 L34.0397,20.8404 L37.7517,24.5524 L34.0397,28.2654 L30.3277,24.5524" id="Stroke-34" stroke="#5D74B6" stroke-width="2" stroke-linecap="round" stroke-linejoin="round"></path>
                        <path d="M39.2251,29.2078 L40.8161,27.6168 L44.5281,31.3288 L40.8161,35.0418 L37.1041,31.3288" id="Stroke-35" stroke="#5D74B6" stroke-width="2" stroke-linecap="round" stroke-linejoin="round"></path>
                        <path d="M46.0016,35.9843 L47.5926,34.3933 L51.3046,38.1053 L47.5926,41.8183 L43.8806,38.1053" id="Stroke-36" stroke="#5D74B6" stroke-width="2" stroke-linecap="round" stroke-linejoin="round"></path>
                        <path d="M52.778,42.7607 L54.369,41.1697 L58.081,44.8817 L54.369,48.5947 L50.657,44.8817" id="Stroke-37" stroke="#5D74B6" stroke-width="2" stroke-linecap="round" stroke-linejoin="round"></path>
                    </g>
                </g>
            </g>
        </g>
    </g>
</svg>