<svg viewBox="0 0 71 71" xmlns="http://www.w3.org/2000/svg"><title>illo-pencil</title><g fill="none" fill-rule="evenodd"><path d="M1.143 7.766l8.922 9.464 46.492 46.492 12.038 5.672-4.525-11.948-53.654-55.07L7.943.967l-6.8 6.8z" fill="#FFF"/><path d="M13.247 5.21L5.21 13.246l-2.832-2.832c-1.17-1.17-1.17-3.066 0-4.236l3.8-3.802c1.17-1.17 3.068-1.17 4.238 0l2.83 2.83z" stroke="#4969C5" stroke-width="3" stroke-linecap="round" stroke-linejoin="round"/><path d="M63.805 65.313l2.12-2.12 2.594 5.42-5.547-2.035.832-1.265z" fill-opacity=".3" fill="#4969C5"/><path d="M63.805 58.242l-6.093 6.093-47.73-47.73 6.093-6.093 47.73 47.73z" fill="#C9D1EE"/><path d="M16.43 16.523L60.976 61.07" stroke="#8C9DD0" stroke-width="2" stroke-linecap="round" stroke-linejoin="round"/><path d="M57.446 64.07l-43.93-43.93M16.605 9.982L64.07 57.447l5.332 12.05-7.715-3.502" stroke="#425896" stroke-width="3" stroke-linecap="round" stroke-linejoin="round"/><path d="M9.275 17.313L5.21 13.247l8.037-8.038 4.066 4.065-4.502 4.502" stroke="#425896" stroke-width="3" stroke-linecap="round" stroke-linejoin="round"/></g></svg>
