<?xml version="1.0" encoding="UTF-8" standalone="no"?>
<svg width="105px" height="180px" viewBox="0 0 105 180" version="1.1" xmlns="http://www.w3.org/2000/svg" xmlns:xlink="http://www.w3.org/1999/xlink">
    <!-- Generator: Sketch 3.6.1 (26313) - http://www.bohemiancoding.com/sketch -->
    <title>illo-headphones</title>
    <desc>Created with Sketch.</desc>
    <defs></defs>
    <g id="Page-1" stroke="none" stroke-width="1" fill="none" fill-rule="evenodd">
        <g id="Desktop-HD-Copy" transform="translate(-1224.000000, -3544.000000)">
            <g id="Web-vs.-Mobile" transform="translate(97.000000, 3408.000000)">
                <g id="Illos" transform="translate(48.000000, 84.000000)">
                    <g id="illo-headphones" transform="translate(1127.848824, 144.840202) rotate(-345.000000) translate(-1127.848824, -144.840202) translate(1077.848824, 53.840202)">
                        <path d="M4.9469,69.5862 L4.9469,60.5632 L8.4699,60.5632 L9.9469,60.5632 L9.9469,57.8362 L17.7919,53.2532 L21.1719,74.5862 L20.2899,79.8362 L9.9469,73.0032 L9.9469,69.8362 L4.9469,69.5862 Z" id="Fill-1" fill="#FFFFFF"></path>
                        <path d="M75.9469,69.5862 L75.9469,60.5632 L71.0529,60.5632 L70.9469,60.5632 L70.9469,57.8362 L62.4169,53.2532 L58.6929,74.5862 L60.0899,79.8362 L70.9469,73.0032 L70.9469,69.8362 L75.9469,69.5862 Z" id="Fill-2" fill="#FFFFFF"></path>
                        <path d="M94.706,88.961 L99.136,88.961 L99.136,73.503 L94.706,73.503 L94.706,88.961 Z" id="Fill-3" fill="#FFFFFF"></path>
                        <path d="M3.5983,23.4801 C3.5983,23.4801 14.2193,0.5001 40.0943,0.5001 C65.9693,0.5001 79.0033,25.3131 79.0033,29.8241 L72.8773,29.7871 C72.8773,29.7871 66.7193,6.3361 40.0943,6.3361 C13.4693,6.3361 7.2993,29.8251 7.2993,29.8251 L1.8543,29.8361 C1.8543,29.8361 2.2273,26.7911 3.5983,23.4801" id="Fill-4" fill="#C9D1EE"></path>
                        <path d="M4.9345,65.9126 L4.9345,60.8366 L9.4295,60.8366 L9.4295,69.5866 L4.9345,69.5866" id="Stroke-6" stroke="#5D74B6" stroke-width="2" stroke-linecap="round" stroke-linejoin="round"></path>
                        <g id="Group-11" transform="translate(17.000000, 49.276000)" fill="#C9D1EE">
                            <path d="M32.4583,2.2094 C32.4583,2.2094 37.9473,-0.9396 44.9473,2.4354 L44.9473,29.5604 C44.9473,29.5604 39.4523,33.0604 32.4523,29.3104 L32.4583,2.2094 Z" id="Fill-7"></path>
                            <path d="M0.4583,2.2094 C0.4583,2.2094 6.9473,-0.9396 13.9473,2.4354 L13.9473,29.5604 C13.9473,29.5604 7.4523,33.0604 0.4523,29.3104 L0.4583,2.2094 Z" id="Fill-9"></path>
                        </g>
                        <path d="M9.9696,58.4611 L9.9696,71.9611" id="Stroke-12" stroke="#5D74B6" stroke-width="2" stroke-linecap="round" stroke-linejoin="round"></path>
                        <g id="Group-47" transform="translate(-0.000000, 0.276000)" stroke-linecap="round" stroke-linejoin="round">
                            <path d="M1.8637,35.8182 C1.5167,38.1702 1.2227,40.4252 0.9977,42.6452 C0.3227,49.3052 0.2667,55.6532 1.2527,63.3932" id="Stroke-13" stroke="#425896" stroke-width="3"></path>
                            <path d="M78.5,35.8182 C78.847,38.1702 79.141,40.4252 79.366,42.6452 C80.041,49.3052 80.097,55.6532 79.111,63.3932" id="Stroke-15" stroke="#425896" stroke-width="3"></path>
                            <path d="M70.7729,24.6158 C64.9829,13.5848 53.4179,6.0598 40.0949,6.0598 C24.8679,6.0598 11.9359,15.8898 7.2989,29.5488 L1.1859,29.5488" id="Stroke-17" stroke="#5D74B6" stroke-width="3"></path>
                            <path d="M2.8539,24.8403 C9.0189,10.3693 23.3719,0.2243 40.0949,0.2243 C58.5779,0.2243 74.1669,12.6183 79.0039,29.5483 L72.8769,29.5483" id="Stroke-19" stroke="#5D74B6" stroke-width="3"></path>
                            <path d="M16.8749,53.2572 L14.1569,54.9562 L10.4469,57.2272 L10.4469,68.2872" id="Stroke-21" stroke="#4969C5" stroke-width="3"></path>
                            <path d="M14.2766,74.8405 L10.4466,72.7265 L10.4466,61.2875" id="Stroke-23" stroke="#4969C5" stroke-width="3"></path>
                            <path d="M17.4469,71.2877 L17.4469,50.8497 C17.4469,50.7897 17.5479,50.7397 17.7079,50.6797 C20.3779,49.7997 21.9179,49.3097 24.1679,49.3097 C26.6879,49.3097 29.4469,49.9197 31.4469,50.9997 L31.4469,78.3797 C29.4469,79.4497 26.5679,80.0597 24.0479,80.0597 C21.8579,80.0597 19.4889,79.5997 17.5889,78.7697 C17.4189,78.6997 17.4279,78.4987 17.2679,78.4187" id="Stroke-25" stroke="#425896" stroke-width="3"></path>
                            <path d="M74.9697,65.6366 L74.9697,60.5606 L70.4747,60.5606 L70.4747,69.3106 L74.9697,69.3106" id="Stroke-27" stroke="#5D74B6" stroke-width="2"></path>
                            <path d="M63.2943,53.2572 L66.3743,54.9562 L70.4473,57.2272 L70.4473,68.2872" id="Stroke-29" stroke="#4969C5" stroke-width="3"></path>
                            <path d="M66.6172,74.8405 L70.4472,72.7265 L70.4472,61.2875" id="Stroke-31" stroke="#4969C5" stroke-width="3"></path>
                            <path d="M49.2083,78.3339 C51.2083,79.4039 53.7203,80.0369 56.2403,80.0369 C58.4303,80.0369 61.4473,79.7159 63.4473,78.3799 L63.4473,50.8499 C61.4473,50.0809 58.7333,49.3099 56.4833,49.3099 C53.9633,49.3099 51.4473,49.9199 49.4473,50.9999 L49.4473,72.2879" id="Stroke-33" stroke="#425896" stroke-width="3"></path>
                            <path d="M59.4523,131.426 C65.4553,129.536 71.3243,127.185 76.7183,124.076 C85.4083,119.068 92.6103,111.379 95.3763,101.441 C96.2193,98.408 96.7263,95.305 97.0293,92.178" id="Stroke-35" stroke="#5D74B6" stroke-width="2"></path>
                            <path d="M11.8845,79.5601 C12.0225,85.3081 13.8445,91.1451 16.4875,96.2051 C20.5235,103.9321 27.1085,109.2491 34.6085,113.4131 C42.9595,118.0491 50.8915,120.5651 57.1355,128.4781 C64.4175,137.7081 67.0285,151.4121 64.1535,162.7511 C60.6535,176.5551 46.2335,185.1881 32.5505,178.9221 C32.0785,178.7061 31.6145,178.4731 31.1605,178.2231 C19.5995,171.8651 16.0245,155.9661 24.5685,145.6241 C30.3535,138.6221 39.4165,136.5501 47.8225,134.5721 C51.4755,133.7131 53.0465,133.3281 55.0325,132.7481" id="Stroke-37" stroke="#5D74B6" stroke-width="2"></path>
                            <path d="M70.6712,79.5601 C70.5332,85.3081 68.7112,91.1451 66.0682,96.2051 C62.0322,103.9321 54.4472,110.2491 46.9472,114.4131" id="Stroke-39" stroke="#5D74B6" stroke-width="2"></path>
                            <path d="M94.7065,84.6851 L94.7065,72.8101 L99.7195,72.8101 L99.7195,88.6851 L94.7065,88.6851" id="Stroke-41" stroke="#4969C5" stroke-width="2"></path>
                            <path d="M94.9469,69.2877 L99.9469,69.2877" id="Stroke-43" stroke="#8C9DD0" stroke-width="2"></path>
                            <path d="M97.4469,65.2877 L97.4469,57.2877" id="Stroke-45" stroke="#5D74B6" stroke-width="3"></path>
                        </g>
                    </g>
                </g>
            </g>
        </g>
    </g>
</svg>