<svg width="98" height="98" viewBox="0 0 98 98" xmlns="http://www.w3.org/2000/svg"><title>illo-notebook</title><g fill="none" fill-rule="evenodd"><path d="M2.17 55.042l40.304 40.305L91.96 45.83S105.07 21 88.853 1H54.73l-3.783 3.817s-2.242-3.045-7.5-2.383L3.358 42.53c-5.552 5.55 1.54 9.75 1.54 9.75L2.17 55.04z" fill="#FFF"/><path d="M51.32 5.224l40.972 40.97L42.47 96.017 1.5 55.046 51.32 5.223z" stroke="#4969C5" stroke-width="3" stroke-linecap="round" stroke-linejoin="round"/><path d="M9.585 51.454c-2.157 1.025-4.814.66-6.62-1.106-2.316-2.266-2.356-5.98-.09-8.294.23-.235.474-.447.73-.635M15.058 45.98c-2.157 1.026-4.814.662-6.62-1.105-2.316-2.266-2.356-5.98-.09-8.294.23-.234.474-.446.73-.634M20.53 40.508c-2.156 1.025-4.813.66-6.62-1.106-2.315-2.266-2.355-5.98-.09-8.294.23-.235.475-.447.73-.635M26.004 35.035c-2.157 1.025-4.814.66-6.62-1.106-2.316-2.267-2.356-5.98-.09-8.295.23-.235.474-.447.73-.635M31.477 29.562c-2.157 1.025-4.814.66-6.62-1.106-2.316-2.266-2.356-5.98-.09-8.294.23-.235.474-.447.73-.635M36.95 24.09c-2.157 1.024-4.814.66-6.62-1.107-2.316-2.266-2.356-5.98-.09-8.294.23-.236.474-.448.73-.636M42.423 18.616c-2.157 1.025-4.814.66-6.62-1.106-2.316-2.266-2.356-5.98-.09-8.294.23-.235.474-.447.73-.635M47.894 13.008c-2.118.86-4.636.43-6.354-1.288-2.29-2.29-2.29-6.004 0-8.295 1.827-1.827 4.56-2.197 6.754-1.108" stroke="#425896" stroke-width="2" stroke-linecap="round" stroke-linejoin="round"/><path d="M55.022 1.5h34" stroke="#4969C5" stroke-width="3" stroke-linecap="round" stroke-linejoin="round"/><path d="M95.205 39.183L63.43 11.03 96.18 28.172M91.4 7.528L61.567 5.544l33.99 11.988" stroke="#5D74B6" stroke-width="2" stroke-linecap="round" stroke-linejoin="round"/><path d="M53.788 18.98l-41.72 41.718M46.717 20.393L77.83 51.508M42.474 24.636L73.587 55.75M38.232 28.88L69.345 59.99M33.99 33.12L65.1 64.235M29.746 37.364L60.86 68.477M25.504 41.607L56.617 72.72M21.26 45.85L52.375 76.96M17.018 50.092L48.13 81.205M12.776 54.335L43.89 85.448" stroke="#C9D1EE" stroke-width="2" stroke-linecap="round" stroke-linejoin="round"/></g></svg>