<?xml version="1.0" encoding="UTF-8" standalone="no"?>
<svg width="115px" height="105px" viewBox="0 0 115 105" version="1.1" xmlns="http://www.w3.org/2000/svg" xmlns:xlink="http://www.w3.org/1999/xlink">
    <!-- Generator: Sketch 3.6.1 (26313) - http://www.bohemiancoding.com/sketch -->
    <title>illo-book</title>
    <desc>Created with Sketch.</desc>
    <defs></defs>
    <g id="Page-1" stroke="none" stroke-width="1" fill="none" fill-rule="evenodd">
        <g id="Desktop-HD-Copy" transform="translate(-369.000000, -3777.000000)">
            <g id="Web-vs.-Mobile" transform="translate(97.000000, 3408.000000)">
                <g id="Illos" transform="translate(48.000000, 84.000000)">
                    <g id="illo-book" transform="translate(225.000000, 286.000000)">
                        <path d="M71.4229,102.099 L112.4349,61.199 L59.3659,8.222 C59.3659,8.222 31.2869,-12.404 0.2869,14.643 L0.2869,48.23 L54.4519,102.099 L71.4229,102.099 Z" id="Fill-1" fill="#FFFFFF"></path>
                        <path d="M1.4193,49.099 L54.4523,102.228 L70.7153,101.569 L81.3223,90.986 L28.9963,38.576 L18.3903,49.099 L1.4193,49.099 Z" id="Fill-3" fill="#C9D1EE"></path>
                        <path d="M18.3899,48.5837 L59.4019,7.5717 L112.4349,60.6047 L75.3119,97.7277" id="Stroke-5" stroke="#4969C5" stroke-width="3" stroke-linecap="round" stroke-linejoin="round"></path>
                        <path d="M6.0155,54.5941 L53.7455,101.9991 L71.4995,101.9991 L18.3895,48.9991 L0.4995,48.9991 L0.4995,14.6421" id="Stroke-7" stroke="#4969C5" stroke-width="3" stroke-linecap="round" stroke-linejoin="round"></path>
                        <path d="M48.7463,1.9639 L14.8543,42.9269 L36.0673,0.5009" id="Stroke-9" stroke="#7A88C4" stroke-width="3" stroke-linecap="round" stroke-linejoin="round"></path>
                        <path d="M24.7539,1.9147 L7.0759,43.6337 L10.3239,7.1877" id="Stroke-11" stroke="#7A88C4" stroke-width="3" stroke-linecap="round" stroke-linejoin="round"></path>
                        <path d="M47.7348,47.523 L67.5338,27.724" id="Stroke-13" stroke="#8C9DD0" stroke-width="3" stroke-linecap="round" stroke-linejoin="round"></path>
                        <path d="M55.1595,49.2908 L69.3015,35.1488" id="Stroke-15" stroke="#8C9DD0" stroke-width="2" stroke-linecap="round" stroke-linejoin="round"></path>
                        <path d="M77.7869,71.9182 L91.9289,57.7762" id="Stroke-17" stroke="#8C9DD0" stroke-width="2" stroke-linecap="round" stroke-linejoin="round"></path>
                    </g>
                </g>
            </g>
        </g>
    </g>
</svg>