<?xml version="1.0" encoding="UTF-8" standalone="no"?>
<svg width="104px" height="113px" viewBox="0 0 104 113" version="1.1" xmlns="http://www.w3.org/2000/svg" xmlns:xlink="http://www.w3.org/1999/xlink">
    <!-- Generator: Sketch 3.6.1 (26313) - http://www.bohemiancoding.com/sketch -->
    <title>illo-calendar</title>
    <desc>Created with Sketch.</desc>
    <defs>
        <path id="path-1" d="M2.84217094e-14,97 L89,97 L89,0.086 L2.84217094e-14,0.086 L2.84217094e-14,97 Z"></path>
    </defs>
    <g id="Page-1" stroke="none" stroke-width="1" fill="none" fill-rule="evenodd">
        <g id="Desktop-HD-Copy" transform="translate(-234.000000, -3617.000000)">
            <g id="Web-vs.-Mobile" transform="translate(97.000000, 3408.000000)">
                <g id="Illos" transform="translate(48.000000, 84.000000)">
                    <g id="illo-calendar" transform="translate(142.665832, 178.847813) rotate(-345.000000) translate(-142.665832, -178.847813) translate(98.165832, 129.847813)">
                        <path d="M2.1667,15.1323 L79.1667,15.1323 L87.4307,23.8683 L87.4307,96.1323 L9.1667,96.1323 L1.3337,88.2993 L2.1667,15.1323 Z" id="Fill-1" fill="#FFFFFF"></path>
                        <g id="Group-6" transform="translate(2.000000, 14.913500)">
                            <path d="M0.5,19.117 L77.417,19.117 L77.417,0.955 L0.5,0.955 L0.5,19.117 Z" id="Fill-2" fill="#C9D1EE"></path>
                            <path d="M85.5,8.9544 L85.5,81.5004 L7.5,81.5004" id="Stroke-4" stroke="#4969C5" stroke-width="3" stroke-linecap="round" stroke-linejoin="round"></path>
                        </g>
                        <path d="M83.5,19.8679 L83.5,92.4139 L5.5,92.4139" id="Stroke-7" stroke="#8C9DD0" stroke-width="2" stroke-linecap="round" stroke-linejoin="round"></path>
                        <path d="M42.1666,15.8679 L64.8546,15.8679" id="Stroke-8" stroke="#4969C5" stroke-width="3" stroke-linecap="round" stroke-linejoin="round"></path>
                        <path d="M13.105,15.8679 L36.167,15.8679" id="Stroke-9" stroke="#4969C5" stroke-width="3" stroke-linecap="round" stroke-linejoin="round"></path>
                        <g id="Group-42" transform="translate(-0.000000, 0.913500)">
                            <path d="M1.5,80.5 L1.5,14.954 L7.105,14.954" id="Stroke-10" stroke="#4969C5" stroke-width="3" stroke-linecap="round" stroke-linejoin="round"></path>
                            <path d="M70.8542,14.9544 L79.5002,14.9544 L79.5002,87.5004 L1.5002,87.5004" id="Stroke-12" stroke="#4969C5" stroke-width="3" stroke-linecap="round" stroke-linejoin="round"></path>
                            <path d="M16.1667,24.6667 C16.1667,27.1517 14.1517,29.1667 11.6667,29.1667 C9.1817,29.1667 7.1667,27.1517 7.1667,24.6667 C7.1667,22.1817 9.1817,20.1667 11.6667,20.1667 C14.1517,20.1667 16.1667,22.1817 16.1667,24.6667 L16.1667,24.6667 Z" id="Stroke-14" stroke="#8C9DD0" stroke-width="2" stroke-linecap="round" stroke-linejoin="round"></path>
                            <path d="M74.1667,24.6667 C74.1667,27.1517 72.1517,29.1667 69.6667,29.1667 C67.1817,29.1667 65.1667,27.1517 65.1667,24.6667 C65.1667,22.1817 67.1817,20.1667 69.6667,20.1667 C72.1517,20.1667 74.1667,22.1817 74.1667,24.6667 L74.1667,24.6667 Z" id="Stroke-16" stroke="#8C9DD0" stroke-width="2" stroke-linecap="round" stroke-linejoin="round"></path>
                            <path d="M11.5353,24.6758 C9.2373,22.3198 7.7573,18.6248 7.7573,14.4698 C7.7573,7.3548 12.0973,1.5868 17.4523,1.5868 C21.6083,1.5868 25.1543,5.0628 26.5323,9.9478" id="Stroke-18" stroke="#425896" stroke-width="3" stroke-linecap="round" stroke-linejoin="round"></path>
                            <path d="M45.1667,24.6667 C45.1667,27.1517 43.1517,29.1667 40.6667,29.1667 C38.1817,29.1667 36.1667,27.1517 36.1667,24.6667 C36.1667,22.1817 38.1817,20.1667 40.6667,20.1667 C43.1517,20.1667 45.1667,22.1817 45.1667,24.6667 L45.1667,24.6667 Z" id="Stroke-20" stroke="#8C9DD0" stroke-width="2" stroke-linecap="round" stroke-linejoin="round"></path>
                            <path d="M40.5353,24.6758 C38.2373,22.3198 36.7573,18.6248 36.7573,14.4698 C36.7573,7.3548 41.0973,1.5868 46.4523,1.5868 C50.6083,1.5868 54.1543,5.0628 55.5323,9.9478" id="Stroke-22" stroke="#425896" stroke-width="3" stroke-linecap="round" stroke-linejoin="round"></path>
                            <path d="M69.3534,24.6728 C67.0574,22.3168 65.5784,18.6228 65.5784,14.4698 C65.5784,7.3548 69.9184,1.5868 75.2724,1.5868 C80.2204,1.5868 84.3014,6.5108 84.8934,12.8718" id="Stroke-24" stroke="#425896" stroke-width="3" stroke-linecap="round" stroke-linejoin="round"></path>
                            <g id="Group-41">
                                <path id="Stroke-26" stroke="#C9D1EE" stroke-width="2" stroke-linecap="round" stroke-linejoin="round" d="M11.4302,53.2188 L69.4302,53.2188 L11.4302,53.2188 L11.4302,53.2188 Z"></path>
                                <path d="M11.4302,65.2188 L69.4302,65.2188" id="Stroke-28" stroke="#C9D1EE" stroke-width="2" stroke-linecap="round" stroke-linejoin="round"></path>
                                <path d="M22.4302,76.2188 L22.4302,41.2188" id="Stroke-30" stroke="#C9D1EE" stroke-width="2" stroke-linecap="round" stroke-linejoin="round"></path>
                                <path d="M34.4302,76.2188 L34.4302,41.2188" id="Stroke-32" stroke="#C9D1EE" stroke-width="2" stroke-linecap="round" stroke-linejoin="round"></path>
                                <path d="M46.4302,76.2188 L46.4302,41.2188" id="Stroke-34" stroke="#C9D1EE" stroke-width="2" stroke-linecap="round" stroke-linejoin="round"></path>
                                <path d="M58.4302,76.2188 L58.4302,41.2188" id="Stroke-36" stroke="#C9D1EE" stroke-width="2" stroke-linecap="round" stroke-linejoin="round"></path>
                                <mask id="mask-2" fill="white">
                                    <use xlink:href="#path-1"></use>
                                </mask>
                                <g id="Clip-39"></g>
                                <path d="M10.167,77.2 L69.667,77.2 L69.667,41.5 L10.167,41.5 L10.167,77.2 Z" id="Stroke-38" stroke="#C9D1EE" stroke-width="2" stroke-linecap="round" stroke-linejoin="round" mask="url(#mask-2)"></path>
                                <path d="M22.688,54 L33.688,54 L33.688,42 L22.688,42 L22.688,54 Z" id="Fill-40" fill="#C9D1EE" mask="url(#mask-2)"></path>
                            </g>
                        </g>
                    </g>
                </g>
            </g>
        </g>
    </g>
</svg>