<svg width="172" height="188" viewBox="0 0 172 188" xmlns="http://www.w3.org/2000/svg"><title>illo-backpack</title><g fill="none" fill-rule="evenodd"><path d="M87.632 32.564l-11.59 3.106C67.764 9.935 74.16 7.36 74.16 7.36c9.986 1.81 13.47 25.204 13.47 25.204M29.764 129.98l.606-4.743s-14.443-50.54-14.455-58.88c-.012-8.34 5.625-10.088 5.625-10.088 12.27-.948 18.565 8.925 20.158 11.865-5 13.33-1.99 24.607-1.99 24.607l16.004 60.175c-4.814-.966-9.82-3.89-14.735-6.312-6.656-3.28-11.213-16.624-11.213-16.624M153.86 85.448s-6.28-35.55-29.753-46.49c-8.678-4.045-17.22-6.44-25.68-6.878-1.136-4.64-3.653-14.887-4.518-18.116C91.502 4.986 82.06-.283 73.083 2.122c-8.978 2.406-14.52 11.69-12.115 20.668l4.844 18.08c-3.557 2.183-6.834 4.72-10.354 7.775-2.58 2.24-4.71 4.535-6.577 6.866-2.346-2.472-5.16-5.02-8.312-6.914-8.734-5.252-17.33-7.09-30.307 2.427C-2.71 60.538 3.947 81.53 3.947 81.53l13.09 48.078 3.758 3.828s1.764 12.816 16.95 22.464c9.57 6.08 16.37 7.453 20.53 7.52l3.927 14.656s1.283 12.08 23.982 5.997c22.7-6.082 76.477-21.483 76.477-21.483s8.37-2.137 7.28-15.767c-1.087-13.63-16.08-61.376-16.08-61.376" fill="#FFF"/><path d="M73.6 7.57s4.487-.17 6.74 3.108C83.25 6.792 89.4 8.25 89.4 8.25s-3.122-5.537-8.38-6.087c-5.258-.55-7.42 5.406-7.42 5.406M42.127 68.335s-4.284-6.407-10.677-9.776c-7.083-3.735-16.317-3.857-15.617 10.035 0 0 6.377 25.952 9.48 37.544 3.102 11.59 6.958 22.718 2.686 25.814-4.273 3.098-7.656 1.95-11.525-.896L2.305 78.174s-5.93-26.335 17.63-32.647c15.825-4.24 28.672 10.55 28.672 10.55s-4.615 4.212-6.48 12.258" fill="#C9D1EE"/><path d="M53.946 162.818c-13.57-2.835-25.582-13.18-30.786-23.946M51.132 152.313c-11.44-4.052-15.684-11.525-18.72-16.752" stroke="#7A88C4" stroke-width="3" stroke-linecap="round" stroke-linejoin="round"/><path d="M79.048 185.985l80.194-21.488c8.11-2.173 12.86-10.58 10.53-18.648l-2.196-7.397-65.503 17.55-10.353-38.636-4.796 1.285c-5.348 1.434-8.513 6.938-7.062 12.282l7.857 28.916-29.114 7.8 2.07 7.73c2.145 8 10.28 12.773 18.282 10.63" fill="#C9D1EE"/><path d="M88.578 182.914l70.816-18.975c8-2.145 12.75-10.37 10.606-18.372L150.454 72.62c-4.322-16.132-15.526-28.635-29.62-35.377-11.795-5.643-25.615-7.25-39.118-3.574M61.6 43.595c-4.502 3.366-8.81 7.492-12.818 12.435-7.786 9.606-11.395 27.354-8.195 39.296l21.23 79.23c2.144 8.002 10.37 12.75 18.37 10.606" stroke="#425896" stroke-width="3" stroke-linecap="round" stroke-linejoin="round"/><path d="M105.485 37.39c-6.183-.533-12.55 0-18.844 1.736-28.134 7.762-43.94 37.042-36.385 65.234l15.477 57.76" stroke="#7A88C4" stroke-width="2" stroke-linecap="round" stroke-linejoin="round"/><path d="M128.197 48.582c-17.995-9.616-42.102-7.79-60.928 12.248-9.434 10.04-12.808 24.35-9.243 37.657l17.985 67.12c1.496 5.585 7.238 8.9 12.823 7.403l40.75-10.92" stroke="#4969C5" stroke-width="3" stroke-linecap="round" stroke-linejoin="round"/><path d="M94.33 94.34l-5.432-20.274 27.837-7.458 5.432 20.274-22.69 6.08M87.903 160.32l-5.265-19.9-2.677-10.094c-1.41-5.33 1.755-10.795 7.08-12.222l50.253-13.465c5.334-1.43 10.818 1.735 12.248 7.07l8.024 29.943L93.7 158.766M90.062 117.84l4.658 17.388M96.532 141.99l3.882 14.488M87.864 138.618l63.75-17.082M86.278 27.72L83.443 17.14c-.865-3.226-2.61-5.98-4.91-8.073" stroke="#7A88C4" stroke-width="3" stroke-linecap="round" stroke-linejoin="round"/><path d="M76.647 37.55L66.17 40.355 61.522 23.01C59.12 14.044 64.442 4.824 73.41 2.42 82.38.016 91.598 5.34 94 14.308l3.096 11.55" stroke="#7A88C4" stroke-width="3" stroke-linecap="round" stroke-linejoin="round"/><path d="M78.962 1.885c-5.77 3.905-8.72 11.17-6.815 18.28l4.647 17.345" stroke="#7A88C4" stroke-width="3" stroke-linecap="round" stroke-linejoin="round"/><path d="M94.72 93.788l27.046-7.247-5.177-19.318-27.046 7.247 5.176 19.318z" fill="#C9D1EE"/><path d="M99.097 78.15l2.07 7.728M109.722 75.303l2.07 7.728" stroke="#FFF" stroke-width="3" stroke-linecap="round"/><path d="M44.81 52.22c-6.213-6.31-15.467-9.214-24.634-6.758C6.61 49.097-1.246 62.99 2.39 76.554l13.713 51.184c1.162 4.334 4.697 7.152 9.03 5.99 4.336-1.16 6.095-5.398 4.934-9.732L16.72 74.028s-2.004-5.573-.175-10.227" stroke="#4969C5" stroke-width="3" stroke-linecap="round" stroke-linejoin="round"/><path d="M6.95 78.373C4.436 68.997 10 59.36 19.375 56.85c6.283-1.685 12.683.258 16.978 4.546" stroke="#4969C5" stroke-width="3" stroke-linecap="round" stroke-linejoin="round"/></g></svg>