<svg viewBox="0 0 112 95" xmlns="http://www.w3.org/2000/svg"><title>illo-hat</title><g fill="none" fill-rule="evenodd"><path d="M56.23 1.375L1.944 25.83l21.447 9.727v18c2.363 4.638 4.625 7.25 7 8.84v8.394c-2 .794-4.13 4.414-4.146 4.767-.02.416-.437 14.187-.437 14.187s3.583 4.938 9.583 2.063v-16.25s0-3.15-3-3.855v-6.11c7.39 3.86 15.126 5.826 21.682 5.826 29.756 0 34.318-18.86 34.318-18.86V35.272l21.086-9.408L56.23 1.375z" fill="#FFF"/><path d="M88.248 35.432v9.212L56.154 58.958l-17.212-8.13v16.716l-4.354-1.862v-16.91l-11.02-5.204v-8.295l12.238 5.46 20.348 9.075 32.094-14.376z" fill="#C9D1EE"/><path d="M26.712 36.676L2 25.654 56.153 1.5l54.154 24.154-54.154 24.153-20.043-8.94M36.985 67.18c5.39 2.44 12.01 3.876 19.17 3.876 18.086 0 32.75-9.178 32.75-20.5V40.2M23.404 40.2v10.357c0 1.185.16 2.348.47 3.48.53 1.943 1.5 3.793 2.84 5.51" stroke="#425896" stroke-width="3" stroke-linecap="round" stroke-linejoin="round"/><path d="M61.545 24.465c0 1.866-2.556 3.378-5.71 3.378-3.153 0-5.71-1.512-5.71-3.378s2.557-3.378 5.71-3.378c3.154 0 5.71 1.512 5.71 3.378z" stroke="#4969C5" stroke-width="3" stroke-linecap="round" stroke-linejoin="round"/><path d="M26.974 91.057V75.974c0-2.44 1.977-4.417 4.417-4.417 2.44 0 4.417 1.977 4.417 4.417v16.083M31.39 75.065v18" stroke="#8C9DD0" stroke-width="2" stroke-linecap="round" stroke-linejoin="round"/><path d="M51.724 27.39L31.43 36.442l-.123 31.102" stroke="#4969C5" stroke-width="3" stroke-linecap="round" stroke-linejoin="round"/></g></svg>
