<?xml version="1.0" encoding="UTF-8" standalone="no"?>
<svg width="172px" height="188px" viewBox="0 0 172 188" version="1.1" xmlns="http://www.w3.org/2000/svg" xmlns:xlink="http://www.w3.org/1999/xlink">
    <!-- Generator: Sketch 3.6.1 (26313) - http://www.bohemiancoding.com/sketch -->
    <title>illo-backpack</title>
    <desc>Created with Sketch.</desc>
    <defs></defs>
    <g id="Page-1" stroke="none" stroke-width="1" fill="none" fill-rule="evenodd">
        <g id="Desktop-HD-Copy" transform="translate(-632.000000, -3942.000000)">
            <g id="Web-vs.-Mobile" transform="translate(97.000000, 3408.000000)">
                <g id="Illos" transform="translate(48.000000, 84.000000)">
                    <g id="illo-backpack" transform="translate(568.806299, 542.827115) rotate(-15.000000) translate(-568.806299, -542.827115) translate(495.806299, 452.827115)">
                        <path d="M94.2246,33.2982 L82.2246,33.2982 C80.8916,6.2982 87.7356,5.4652 87.7356,5.4652 C96.9146,9.7982 94.2246,33.2982 94.2246,33.2982 M13.1146,112.4182 L14.9276,107.9932 C14.9276,107.9932 14.0576,55.4362 16.2046,47.3772 C18.3516,39.3182 24.2496,39.0892 24.2496,39.0892 C36.3456,41.3502 39.8716,52.5162 40.6496,55.7682 C32.3696,67.3492 32.3576,79.0222 32.3576,79.0222 L32.2426,141.2892 C27.8426,139.1092 23.7646,134.9902 19.6436,131.3782 C14.0626,126.4872 13.1146,112.4182 13.1146,112.4182 M144.5076,101.5202 C144.5076,101.5202 147.6446,65.5562 127.8016,48.9132 C120.4666,42.7602 112.8346,38.2352 104.7776,35.6242 C104.8806,30.8482 105.1016,20.2992 105.1016,16.9562 C105.1016,7.6622 97.3446,0.1282 88.0506,0.1282 C78.7566,0.1282 70.9996,7.6622 70.9996,16.9562 L70.9996,35.6742 C66.9996,36.8622 63.1776,38.4642 58.9866,40.5042 C55.9136,42.0002 53.2646,43.6662 50.8566,45.4342 C49.2306,42.4382 47.1726,39.2502 44.6176,36.6032 C37.5396,29.2702 29.7106,25.2702 14.7146,31.1032 C-0.2804,36.9362 0.7176,58.9362 0.7176,58.9362 L0.9186,108.7642 L3.5576,113.4342 C3.5576,113.4342 1.9446,126.2702 14.1156,139.5202 C21.7866,147.8702 27.9996,150.9562 31.9996,152.0982 L31.9996,167.2702 C31.9996,167.2702 30.1126,179.2702 53.6126,179.2702 C77.1126,179.2702 133.0436,178.3122 133.0436,178.3122 C133.0436,178.3122 141.6796,178.4142 144.1566,164.9672 C146.6336,151.5202 144.5076,101.5202 144.5076,101.5202" id="Fill-1" fill="#FFFFFF"></path>
                        <path d="M87.1412,5.5232 C87.1412,5.5232 91.5182,6.5202 92.8442,10.2702 C96.6622,7.2702 102.2242,10.2702 102.2242,10.2702 C102.2242,10.2702 100.6422,4.1142 95.7062,2.2212 C90.7702,0.3292 87.1412,5.5232 87.1412,5.5232" id="Fill-3" fill="#C9D1EE"></path>
                        <path d="M41.0122,56.0727 C41.0122,56.0727 38.5322,48.7757 33.2292,43.8667 C27.3532,38.4267 18.4662,35.9187 15.5462,49.5187 C15.5462,49.5187 14.9892,76.2367 14.9852,88.2367 C14.9822,100.2367 15.8272,111.9827 10.8992,113.8677 C5.9712,115.7537 3.0002,113.7697 0.0002,110.0197 L0.0002,55.2697 C0.0002,55.2697 1.0882,28.2977 25.4782,28.2977 C41.8622,28.2977 50.4432,45.9097 50.4432,45.9097 C50.4432,45.9097 44.8952,48.7837 41.0122,56.0727" id="Fill-5" fill="#C9D1EE"></path>
                        <path d="M27.9746,150.395 C15.5996,144.145 6.6746,131.043 4.4346,119.297" id="Stroke-7" stroke="#7A88C4" stroke-width="3" stroke-linecap="round" stroke-linejoin="round"></path>
                        <path d="M27.9746,139.52 C17.9746,132.645 15.8086,124.328 14.2286,118.494" id="Stroke-9" stroke="#7A88C4" stroke-width="3" stroke-linecap="round" stroke-linejoin="round"></path>
                        <path d="M46.2246,179.27 L129.2476,179.27 C137.6446,179.27 144.4066,172.377 144.2446,163.982 L144.0386,156.27 L76.2246,156.27 L76.2246,116.27 L71.2596,116.27 C65.7226,116.27 61.2406,120.768 61.2596,126.305 L61.3646,156.27 L31.2246,156.27 L31.2246,164.27 C31.2246,172.554 37.8476,179.27 46.1316,179.27" id="Fill-11" fill="#C9D1EE"></path>
                        <path d="M56.2246,178.77 L129.5386,178.77 C137.8226,178.77 144.5386,172.054 144.5386,163.77 L144.5386,88.25 C144.5386,71.548 136.9526,56.571 125.0846,46.411 C115.1516,37.907 102.2186,32.777 88.2246,32.834" id="Stroke-13" stroke="#425896" stroke-width="3" stroke-linecap="round" stroke-linejoin="round"></path>
                        <path d="M66.2245,37.2157 C61.0045,39.3017 55.7745,42.1717 50.6245,45.9097 C40.6175,53.1727 32.5385,69.3817 32.5385,81.7457 L32.5385,163.7697 C32.5385,172.0547 39.2545,178.7697 47.5385,178.7697" id="Stroke-15" stroke="#425896" stroke-width="3" stroke-linecap="round" stroke-linejoin="round"></path>
                        <path d="M110.2201,42.5789 C104.3861,40.4649 98.0971,39.3309 91.5691,39.3799 C62.3831,39.5959 39.5391,63.7879 39.5391,92.9739 L39.5391,152.7699" id="Stroke-17" stroke="#7A88C4" stroke-width="2" stroke-linecap="round" stroke-linejoin="round"></path>
                        <path d="M129.2611,59.2696 C114.3681,45.3236 90.6101,40.8486 67.2391,55.3306 C55.5291,62.5866 48.5661,75.5366 48.5661,89.3126 L48.5661,158.7996 C48.5661,164.5826 53.2541,169.2696 59.0361,169.2696 L101.2241,169.2696" id="Stroke-19" stroke="#4969C5" stroke-width="3" stroke-linecap="round" stroke-linejoin="round"></path>
                        <path d="M84.7054,94.704 L84.7054,73.714 L113.5244,73.714 L113.5244,94.704 L90.0324,94.704" id="Stroke-21" stroke="#7A88C4" stroke-width="3" stroke-linecap="round" stroke-linejoin="round"></path>
                        <path d="M61.4212,156.77 L61.4852,136.187 L61.5122,125.744 C61.5272,120.231 66.0002,115.77 71.5122,115.77 L123.5392,115.77 C129.0612,115.77 133.5392,120.247 133.5392,125.77 L133.5392,156.77 L67.4212,156.77" id="Stroke-23" stroke="#7A88C4" stroke-width="3" stroke-linecap="round" stroke-linejoin="round"></path>
                        <path d="M74.5,116.2982 L74.5,134.2982" id="Stroke-25" stroke="#7A88C4" stroke-width="3" stroke-linecap="round" stroke-linejoin="round"></path>
                        <path d="M74.5,141.2982 L74.5,156.2982" id="Stroke-27" stroke="#7A88C4" stroke-width="3" stroke-linecap="round" stroke-linejoin="round"></path>
                        <path d="M67,135.7982 L133,135.7982" id="Stroke-29" stroke="#7A88C4" stroke-width="3" stroke-linecap="round" stroke-linejoin="round"></path>
                        <path d="M94.1704,28.2695 L94.1704,17.3135 C94.1704,13.9735 93.1974,10.8615 91.5184,8.2455" id="Stroke-31" stroke="#7A88C4" stroke-width="3" stroke-linecap="round" stroke-linejoin="round"></path>
                        <path d="M82.3235,35.27 L71.4765,35.27 L71.4765,17.313 C71.4765,8.028 79.0035,0.5 88.2885,0.5 C97.5745,0.5 105.1015,8.028 105.1015,17.313 L105.1015,29.27" id="Stroke-33" stroke="#7A88C4" stroke-width="3" stroke-linecap="round" stroke-linejoin="round"></path>
                        <path d="M93.7898,1.4203 C87.2048,3.6983 82.4758,9.9533 82.4758,17.3133 L82.4758,35.2703" id="Stroke-35" stroke="#7A88C4" stroke-width="3" stroke-linecap="round" stroke-linejoin="round"></path>
                        <path d="M85.225,94.27 L113.225,94.27 L113.225,74.27 L85.225,74.27 L85.225,94.27 Z" id="Fill-37" fill="#C9D1EE"></path>
                        <path d="M93.5,80.2982 L93.5,88.2982" id="Stroke-39" stroke="#FFFFFF" stroke-width="3" stroke-linecap="round"></path>
                        <path d="M104.5,80.2982 L104.5,88.2982" id="Stroke-41" stroke="#FFFFFF" stroke-width="3" stroke-linecap="round"></path>
                        <path d="M47.7752,41.2028 C43.4062,33.4968 35.2192,28.2978 25.7282,28.2978 C11.6842,28.2978 0.5002,39.6828 0.5002,53.7268 L0.5002,106.7158 C0.5002,111.2028 3.1862,114.8398 7.6732,114.8398 C12.1602,114.8398 14.9562,111.2028 14.9562,106.7158 L14.9982,54.9958 C14.9982,54.9958 14.5042,49.0938 17.4752,45.0718" id="Stroke-43" stroke="#4969C5" stroke-width="3" stroke-linecap="round" stroke-linejoin="round"></path>
                        <path d="M4.4348,56.6637 C4.4348,46.9577 12.3028,39.0897 22.0088,39.0897 C28.5138,39.0897 34.1928,42.6227 37.2318,47.8757" id="Stroke-45" stroke="#4969C5" stroke-width="3" stroke-linecap="round" stroke-linejoin="round"></path>
                    </g>
                </g>
            </g>
        </g>
    </g>
</svg>