<svg viewBox="0 0 97 96" xmlns="http://www.w3.org/2000/svg"><title>illo-pizza</title><g fill="none" fill-rule="evenodd"><g fill="#C9D1EE"><path d="M83.62 65.03s-7.458-19.945-20.865-31.304c-13.407-11.36-31.782-19.484-31.782-19.484s-4.96-4.88-.667-9.815c4.292-4.935 11.24-1.606 16.19 1.15 4.947 2.753 22.572 12.925 31.147 23.9C86.218 40.452 95.598 54.34 95.036 57.73c-.56 3.388-.74 5.982-4.213 7.434-3.475 1.453-7.202-.135-7.202-.135"/><path d="M83.756 59.242l-2 1.41L48.3 73.2s-1.634 5.29-1.105 5.04c.528-.25 38.028-13.875 38.028-13.875l-1.467-5.125zM40.116 80.492l-37.198 13.1 1.59-5.35 32.93-11.646 2.678 1.26v2.636z"/></g><path d="M29.782 71.02c-1.953 1.952-5.12 1.952-7.074 0-1.953-1.954-1.953-5.12 0-7.075 1.954-1.953 5.12-1.953 7.074 0 1.953 1.954 1.953 5.12 0 7.074M65.878 59.33c-2.935 2.936-7.695 2.936-10.63 0-2.936-2.934-2.936-7.694 0-10.63 2.935-2.935 7.695-2.935 10.63 0 2.935 2.936 2.935 7.696 0 10.63M45.69 50.017c-3.906 3.906-10.238 3.906-14.143 0-3.906-3.906-3.906-10.238 0-14.143 3.905-3.906 10.237-3.906 14.143 0 3.906 3.905 3.906 10.237 0 14.143" fill="#C9D1EE"/><path d="M36.62 81.778L1.5 94.156l27.6-76.133M83.756 65.164L51.633 76.486" stroke="#4969C5" stroke-width="3" stroke-linecap="round" stroke-linejoin="round"/><g stroke-linecap="round" stroke-linejoin="round"><path d="M34.734 16.143c23.21 11.298 35.722 20.81 47.022 44.022M29.784 12.607c-.948-2.002-1.094-3.785-.778-5.334.962-4.724 6.305-7.06 10.687-5.05 25.056 11.498 43.593 28.87 54.626 52.58 2.093 4.497-.454 10-5.315 10.992-1.58.323-3.383.182-5.385-.766" stroke="#4969C5" stroke-width="3"/><path d="M65.878 59.33c-2.935 2.936-7.695 2.936-10.63 0-2.936-2.934-2.936-7.694 0-10.63 2.935-2.935 7.695-2.935 10.63 0 2.935 2.936 2.935 7.696 0 10.63zM45.69 50.017c-3.906 3.906-10.238 3.906-14.143 0-3.906-3.906-3.906-10.238 0-14.143 3.905-3.906 10.237-3.906 14.143 0 3.906 3.905 3.906 10.237 0 14.143zM29.782 71.02c-1.953 1.952-5.12 1.952-7.074 0-1.953-1.954-1.953-5.12 0-7.075 1.954-1.953 5.12-1.953 7.074 0 1.953 1.954 1.953 5.12 0 7.074z" stroke="#5D74B6" stroke-width="2"/><path d="M14.44 72.043l-5.317 14.49 27.894-9.79c1.95-.685 3.994.763 3.994 2.83v3.535c0 1.656 1.344 3 3 3h.184c1.657 0 3-1.344 3-3v-7.585c0-1.26.79-2.39 1.977-2.82l27.115-9.842" stroke="#8C9DD0" stroke-width="2"/></g></g></svg>
