<?xml version="1.0" encoding="UTF-8" standalone="no"?>
<svg width="71px" height="71px" viewBox="0 0 71 71" version="1.1" xmlns="http://www.w3.org/2000/svg" xmlns:xlink="http://www.w3.org/1999/xlink">
    <!-- Generator: Sketch 3.6.1 (26313) - http://www.bohemiancoding.com/sketch -->
    <title>illo-pencil</title>
    <desc>Created with Sketch.</desc>
    <defs></defs>
    <g id="Page-1" stroke="none" stroke-width="1" fill="none" fill-rule="evenodd">
        <g id="Desktop-HD-Copy" transform="translate(-1035.000000, -3873.000000)">
            <g id="Web-vs.-Mobile" transform="translate(97.000000, 3408.000000)">
                <g id="Illos" transform="translate(48.000000, 84.000000)">
                    <g id="illo-pencil" transform="translate(891.000000, 381.000000)">
                        <path d="M0.143,7.7662 L9.065,17.2302 L55.557,63.7222 L67.595,69.3942 L63.07,57.4462 L9.416,2.3772 L6.943,0.9662 L0.143,7.7662 Z" id="Fill-1" fill="#FFFFFF"></path>
                        <g id="Group-16" transform="translate(0.000000, 0.996600)">
                            <path d="M12.2466,4.2122 L4.2086,12.2502 L1.3776,9.4182 C0.2076,8.2482 0.2076,6.3522 1.3776,5.1822 L5.1786,1.3812 C6.3486,0.2112 8.2456,0.2112 9.4156,1.3812 L12.2466,4.2122 L12.2466,4.2122 Z" id="Stroke-2" stroke="#4969C5" stroke-width="3" stroke-linecap="round" stroke-linejoin="round"></path>
                            <path d="M62.8048,64.3163 L64.9258,62.1953 L67.5188,67.6163 L61.9728,65.5813 L62.8048,64.3163 Z" id="Fill-4" fill-opacity="0.3" fill="#4969C5"></path>
                            <path d="M62.8048,57.2452 L56.7118,63.3382 L8.9818,15.6092 L15.0748,9.5152 L62.8048,57.2452 Z" id="Fill-6" fill="#C9D1EE"></path>
                            <path d="M15.4286,15.5259 L59.9766,60.0739" id="Stroke-8" stroke="#8C9DD0" stroke-width="2" stroke-linecap="round" stroke-linejoin="round"></path>
                            <path d="M56.4463,63.0733 L12.5173,19.1443" id="Stroke-10" stroke="#425896" stroke-width="3" stroke-linecap="round" stroke-linejoin="round"></path>
                            <path d="M15.6054,8.9852 L63.0704,56.4502 L68.4024,68.5002 L60.6874,64.9982" id="Stroke-12" stroke="#425896" stroke-width="3" stroke-linecap="round" stroke-linejoin="round"></path>
                            <path d="M8.2747,16.3159 L4.2087,12.2499 L12.2467,4.2119 L16.3127,8.2779 L11.8107,12.7799" id="Stroke-14" stroke="#425896" stroke-width="3" stroke-linecap="round" stroke-linejoin="round"></path>
                        </g>
                    </g>
                </g>
            </g>
        </g>
    </g>
</svg>