<?xml version="1.0" encoding="UTF-8" standalone="no"?>
<svg width="67px" height="69px" viewBox="0 0 67 69" version="1.1" xmlns="http://www.w3.org/2000/svg" xmlns:xlink="http://www.w3.org/1999/xlink">
    <!-- Generator: Sketch 3.6.1 (26313) - http://www.bohemiancoding.com/sketch -->
    <title>illo-pen</title>
    <desc>Created with Sketch.</desc>
    <defs></defs>
    <g id="Page-1" stroke="none" stroke-width="1" fill="none" fill-rule="evenodd">
        <g id="Desktop-HD-Copy" transform="translate(-145.000000, -3491.000000)">
            <g id="Web-vs.-Mobile" transform="translate(97.000000, 3408.000000)">
                <g id="Illos" transform="translate(48.000000, 84.000000)">
                    <g id="illo-pen" transform="translate(33.500000, 33.500000) rotate(-90.000000) translate(-33.500000, -33.500000) ">
                        <path d="M10.1719,64.742 L3.1009,57.671 L23.2529,36.811 L25.0209,38.579 L50.2749,13.047 L52.2519,12.557 L58.0269,6.783 L60.3249,4.485 L62.2699,2.54 L65.3209,5.326 L62.0369,8.495 L61.9749,9.906 L54.6169,17.263 L55.3239,17.971 L29.7429,43.552 L30.7209,44.698 L10.1719,64.742 Z" id="Fill-1" fill="#FFFFFF"></path>
                        <g id="Group-10" transform="translate(25.000000, 0.025400)">
                            <path d="M4.4118,34.2902 L9.0718,38.9502 L4.8838,43.1382 L0.2238,38.4782 L4.4118,34.2902 Z" id="Fill-2" fill="#C9D1EE"></path>
                            <path d="M29.7456,10.3705 L32.9916,13.6165 L29.3676,17.2395 L26.1216,13.9945 L29.7456,10.3705 Z" id="Fill-4" fill="#C9D1EE"></path>
                            <path d="M37.568,2.5482 L40.372,5.3522 L36.748,8.9762 L33.944,6.1722 L37.568,2.5482 Z" id="Fill-6" fill="#C9D1EE"></path>
                            <path d="M39.5167,3.0959 L41.6377,0.9749" id="Stroke-8" stroke="#8C9DD0" stroke-width="2" stroke-linecap="round" stroke-linejoin="round"></path>
                        </g>
                        <path d="M7.9481,54.033 L14.3121,60.397" id="Stroke-11" stroke="#8C9DD0" stroke-width="2" stroke-linecap="round" stroke-linejoin="round"></path>
                        <g id="Group-16" transform="translate(0.000000, 37.025400)" stroke-width="3" stroke-linecap="round" stroke-linejoin="round">
                            <path d="M3.682,19.3573 L0.5,16.1753 L15.703,0.9723" id="Stroke-12" stroke="#7A88C4"></path>
                            <path d="M26.6133,11.883 L9.9963,28.5 L2.6213,21.125 L23.3343,0.412 L30.7093,7.787" id="Stroke-14" stroke="#4969C5"></path>
                        </g>
                        <path d="M50.8317,22.2151 L29.4717,43.5751 L24.5717,38.6741 L50.1747,13.0721 L55.0747,17.9721" id="Stroke-17" stroke="#4969C5" stroke-width="3" stroke-linecap="round" stroke-linejoin="round"></path>
                        <path d="M57.9028,13.7299 L54.3668,17.2659 L50.8818,13.7799 L58.1288,6.5319 L61.6148,10.0179" id="Stroke-18" stroke="#4969C5" stroke-width="3" stroke-linecap="round" stroke-linejoin="round"></path>
                        <path d="M63.1177,7.6311 L61.1727,9.5761 L58.5707,6.9741 L62.8137,2.7311 L65.4157,5.3331" id="Stroke-19" stroke="#4969C5" stroke-width="2" stroke-linecap="round" stroke-linejoin="round"></path>
                    </g>
                </g>
            </g>
        </g>
    </g>
</svg>