<?xml version="1.0" encoding="UTF-8" standalone="no"?>
<svg width="97px" height="96px" viewBox="0 0 97 96" version="1.1" xmlns="http://www.w3.org/2000/svg" xmlns:xlink="http://www.w3.org/1999/xlink">
    <!-- Generator: Sketch 3.6.1 (26313) - http://www.bohemiancoding.com/sketch -->
    <title>illo-pizza</title>
    <desc>Created with Sketch.</desc>
    <defs></defs>
    <g id="Page-1" stroke="none" stroke-width="1" fill="none" fill-rule="evenodd">
        <g id="Desktop-HD-Copy" transform="translate(-833.000000, -3834.000000)">
            <g id="Web-vs.-Mobile" transform="translate(97.000000, 3408.000000)">
                <g id="Illos" transform="translate(48.000000, 84.000000)">
                    <g id="illo-pizza" transform="translate(689.000000, 342.000000)">
                        <g id="Group-16" transform="translate(0.000000, 1.655800)">
                            <g id="Group-7" transform="translate(1.000000, 0.000000)" fill="#C9D1EE">
                                <path d="M81.6207,63.3733 C81.6207,63.3733 74.1617,43.4293 60.7547,32.0703 C47.3477,20.7113 28.9727,12.5863 28.9727,12.5863 C28.9727,12.5863 24.0127,7.7063 28.3057,2.7713 C32.5977,-2.1637 39.5467,1.1653 44.4947,3.9203 C49.4427,6.6743 67.0677,16.8463 75.6427,27.8213 C84.2177,38.7963 93.5977,52.6853 93.0357,56.0733 C92.4747,59.4623 92.2967,62.0563 88.8227,63.5083 C85.3477,64.9613 81.6207,63.3733 81.6207,63.3733" id="Fill-1"></path>
                                <path d="M81.7559,57.5861 L79.7559,58.9951 L46.3009,71.5471 C46.3009,71.5471 44.6659,76.8361 45.1949,76.5861 C45.7229,76.3361 83.2229,62.7111 83.2229,62.7111 L81.7559,57.5861 Z" id="Fill-3"></path>
                                <path d="M38.1161,78.8361 L0.9181,91.9371 L2.5091,86.5861 L35.4391,74.9401 L38.1161,76.2011 L38.1161,78.8361 Z" id="Fill-5"></path>
                            </g>
                            <path d="M28.7817,69.3628 C26.8287,71.3158 23.6617,71.3158 21.7077,69.3628 C19.7547,67.4098 19.7547,64.2428 21.7077,62.2888 C23.6617,60.3358 26.8287,60.3358 28.7817,62.2888 C30.7347,64.2428 30.7347,67.4098 28.7817,69.3628" id="Fill-8" fill="#C9D1EE"></path>
                            <path d="M64.8781,57.6752 C61.9431,60.6102 57.1831,60.6102 54.2481,57.6752 C51.3121,54.7402 51.3121,49.9802 54.2481,47.0452 C57.1831,44.1092 61.9431,44.1092 64.8781,47.0452 C67.8131,49.9802 67.8131,54.7402 64.8781,57.6752" id="Fill-10" fill="#C9D1EE"></path>
                            <path d="M44.6904,48.3617 C40.7844,52.2677 34.4524,52.2677 30.5474,48.3617 C26.6414,44.4557 26.6414,38.1237 30.5474,34.2187 C34.4524,30.3127 40.7844,30.3127 44.6904,34.2187 C48.5964,38.1237 48.5964,44.4557 44.6904,48.3617" id="Fill-12" fill="#C9D1EE"></path>
                            <path d="M35.6187,80.1223 L0.4997,92.5003 L28.0987,16.3673" id="Stroke-14" stroke="#4969C5" stroke-width="3" stroke-linecap="round" stroke-linejoin="round"></path>
                        </g>
                        <path d="M82.7559,65.1644 L50.6329,76.4864" id="Stroke-17" stroke="#4969C5" stroke-width="3" stroke-linecap="round" stroke-linejoin="round"></path>
                        <g id="Group-30" transform="translate(8.000000, 0.655800)" stroke-linecap="round" stroke-linejoin="round">
                            <path d="M25.7341,15.4867 C48.9451,26.7857 61.4561,36.2977 72.7561,59.5087" id="Stroke-18" stroke="#4969C5" stroke-width="3"></path>
                            <path d="M20.7843,11.9512 C19.8363,9.9492 19.6903,8.1662 20.0063,6.6172 C20.9683,1.8932 26.3113,-0.4428 30.6933,1.5682 C55.7493,13.0652 74.2863,30.4372 85.3193,54.1462 C87.4133,58.6442 84.8663,64.1462 80.0053,65.1392 C78.4263,65.4622 76.6223,65.3212 74.6203,64.3732" id="Stroke-20" stroke="#4969C5" stroke-width="3"></path>
                            <path d="M56.8781,58.6752 C53.9431,61.6102 49.1831,61.6102 46.2481,58.6752 C43.3121,55.7402 43.3121,50.9802 46.2481,48.0452 C49.1831,45.1092 53.9431,45.1092 56.8781,48.0452 C59.8131,50.9802 59.8131,55.7402 56.8781,58.6752 L56.8781,58.6752 Z" id="Stroke-22" stroke="#5D74B6" stroke-width="2"></path>
                            <path d="M36.6904,49.3617 C32.7844,53.2677 26.4524,53.2677 22.5474,49.3617 C18.6414,45.4557 18.6414,39.1237 22.5474,35.2187 C26.4524,31.3127 32.7844,31.3127 36.6904,35.2187 C40.5964,39.1237 40.5964,45.4557 36.6904,49.3617 L36.6904,49.3617 Z" id="Stroke-24" stroke="#5D74B6" stroke-width="2"></path>
                            <path d="M20.7817,70.3628 C18.8287,72.3158 15.6617,72.3158 13.7077,70.3628 C11.7547,68.4098 11.7547,65.2428 13.7077,63.2888 C15.6617,61.3358 18.8287,61.3358 20.7817,63.2888 C22.7347,65.2428 22.7347,68.4098 20.7817,70.3628 L20.7817,70.3628 Z" id="Stroke-26" stroke="#5D74B6" stroke-width="2"></path>
                            <path d="M5.4391,71.3867 L0.1231,85.8767 L28.0171,76.0867 C29.9681,75.4017 32.0111,76.8497 32.0111,78.9177 L32.0111,82.4527 C32.0111,84.1087 33.3541,85.4527 35.0111,85.4527 L35.1941,85.4527 C36.8511,85.4527 38.1941,84.1087 38.1941,82.4527 L38.1941,74.8677 C38.1941,73.6057 38.9841,72.4777 40.1711,72.0477 L67.2851,62.2057" id="Stroke-28" stroke="#8C9DD0" stroke-width="2"></path>
                        </g>
                    </g>
                </g>
            </g>
        </g>
    </g>
</svg>