<svg viewBox="0 0 82 82" xmlns="http://www.w3.org/2000/svg"><title>illo-calculator</title><g fill="none" fill-rule="evenodd"><path d="M34.89 79.085L2.09 46.284l43.84-43.84 32.802 32.8-43.84 43.84z" fill="#FFF"/><path d="M62.237 42.727L38.195 18.685l8.57-8.57 24.043 24.04-8.57 8.572z" fill="#C9D1EE"/><path d="M54.478 18.56l.076 16.056 2.167 2.24V20.532L54.48 18.56zM58.746 22.802l.088 16.057 2.888 2.945V25.483l-2.976-2.68zM64.722 29.136v10.607l5.49-5.116-5.49-5.49zM43.842 13.84l-.074 9.776 4.754 4.754.03-15.527-2.15-2.15-2.56 3.148z" fill="#FFF"/><path d="M34.274 70.69l-3.712-3.712 10.783-10.784 3.712 3.713L34.274 70.69zM48.298 56.665l-3.712-3.712 3.712-3.713 3.712 3.713-3.712 3.712zM35.04 29.265l-3.712-3.712 3.712-3.713 3.712 3.713-3.712 3.712zM41.816 36.041l-3.712-3.71 3.712-3.713 3.712 3.713-3.712 3.712zM48.593 42.818l-3.712-3.712 3.713-3.713 3.712 3.713-3.712 3.712zM55.37 49.594l-3.713-3.712 3.712-3.713 3.71 3.712-3.71 3.712z" fill="#C9D1EE"/><path d="M5.833 42.54L46.873 1.5l32.802 32.802-45.373 45.373L1.5 46.873" stroke="#425896" stroke-width="3" stroke-linecap="round" stroke-linejoin="round"/><path d="M41.023 15.857l5.742-5.742 24.042 24.04-8.57 8.572-24.042-24.042M19.424 37.456l1.59-1.59 3.713 3.71-3.712 3.714-3.712-3.713M26.2 44.232l1.592-1.59 3.712 3.71-3.712 3.714-3.712-3.713M32.977 51.008l1.59-1.59 3.713 3.712-3.712 3.712-3.712-3.712M32.683 64.856l8.662-8.662 3.712 3.712L34.274 70.69l-3.712-3.713M12.353 44.527l1.59-1.59 10.49 10.488-3.713 3.712-10.488-10.49M25.906 58.08l1.59-1.59 3.713 3.71-3.713 3.714-3.712-3.713M26.378 30.503l1.59-1.59 3.713 3.71-3.71 3.714-3.713-3.714M33.154 37.28l1.59-1.592 3.713 3.712-3.712 3.713-3.712-3.713M39.93 44.055l1.592-1.59 3.712 3.71-3.712 3.714-3.712-3.714M46.707 50.832l1.59-1.59 3.713 3.71-3.712 3.714-3.712-3.713M33.45 23.43l1.59-1.59 3.712 3.712-3.712 3.713-3.712-3.713M40.225 30.208l1.59-1.59 3.713 3.71-3.712 3.714-3.712-3.713M47.002 36.984l1.59-1.59 3.713 3.71-3.712 3.714-3.712-3.713M53.778 43.76l1.59-1.59 3.713 3.712-3.71 3.713-3.713-3.713" stroke="#5D74B6" stroke-width="2" stroke-linecap="round" stroke-linejoin="round"/></g></svg>
