<svg width="67" height="65" viewBox="0 0 67 65" xmlns="http://www.w3.org/2000/svg"><title>illo-wallet</title><g fill="none" fill-rule="evenodd"><path d="M2.906 18.464l15.455-4.14-.586-6.056L41.798 1.83l1.553 5.797L54.943 4.52l.455 1.698 8.8 32.84-.63 3.528-19.782 5.3 3.56 13.288-1.154 2.446-34.565-6.074L1.76 20.288l1.146-1.824z" fill="#FFF"/><path d="M44.833 10.083l-25.276 6.773-1.714-6.4c-.376-1.4.456-2.84 1.857-3.215L39.903 1.83c1.4-.375 2.84.456 3.215 1.856l1.715 6.4zM47.162 18.777L21.887 25.55l-.42-1.57c-.376-1.4.456-2.84 1.856-3.216l20.204-5.413c1.4-.374 2.84.457 3.215 1.857l.42 1.57z" fill="#C9D1EE"/><path d="M19.3 15.89l-1.62-6.037c-.285-1.067.348-2.164 1.416-2.45l21.41-5.737c1.068-.286 2.165.347 2.45 1.414l1.618 6.037" stroke="#5D74B6" stroke-width="2" stroke-linecap="round" stroke-linejoin="round"/><path d="M10.36 52.222L1.797 20.257c-.325-1.214.396-2.463 1.61-2.79l9.427-2.524" stroke="#4969C5" stroke-width="3" stroke-linecap="round" stroke-linejoin="round"/><path d="M49.922 8.972l-35.74 9.576" stroke="#8C9DD0" stroke-width="2" stroke-linecap="round" stroke-linejoin="round"/><path d="M24.168 20.538l19.963-5.35c1.067-.285 2.164.348 2.45 1.415l.324 1.208" stroke="#5D74B6" stroke-width="2" stroke-linecap="round" stroke-linejoin="round"/><path d="M52.252 17.665l-19.32 5.176" stroke="#8C9DD0" stroke-width="2" stroke-linecap="round" stroke-linejoin="round"/><path d="M2.88 24.297l8.457 31.567c.304 1.132 1.238 1.984 2.392 2.182l31.12 5.322c2.157.37 3.97-1.62 3.404-3.733l-8.046-30.028c-.297-1.11-1.202-1.95-2.33-2.17l-29.814-5.75" stroke="#4969C5" stroke-width="3" stroke-linecap="round" stroke-linejoin="round"/><path d="M14.36 52.1l24.72 3.934c.716.113 1.31-.547 1.124-1.248l-5.95-22.2c-.1-.374-.407-.657-.787-.726L7.684 27.19" stroke="#8C9DD0" stroke-width="2" stroke-linecap="round" stroke-linejoin="round"/><path d="M48.573 5.366l4.594-1.23c1.215-.327 2.464.395 2.79 1.61l8.823 32.93c.326 1.214-.396 2.464-1.61 2.79l-13.32 3.568" stroke="#4969C5" stroke-width="3" stroke-linecap="round" stroke-linejoin="round"/></g></svg>