<svg viewBox="0 0 105 180" xmlns="http://www.w3.org/2000/svg"><title>illo-headphones</title><g fill="none" fill-rule="evenodd"><path d="M10.873 60.495l2.335-8.715 3.403.912 1.428.382.706-2.634 8.764-2.396-2.257 21.48-2.21 4.843-8.222-9.277.82-3.06-4.765-1.535zM79.454 78.872l2.335-8.716-4.728-1.267-.102-.028.705-2.634-7.053-6.635-9.118 19.643-.01 5.432 12.256-3.79.82-3.06 4.894 1.054zM92.56 102.44l4.278 1.148 4-14.93-4.278-1.148-4 14.93z" fill="#FFF"/><path d="M21.504 15.61S37.71-3.836 62.704 2.86c24.993 6.697 31.16 34.038 29.993 38.395l-5.907-1.62s.12-24.247-25.597-31.138c-25.717-6.89-37.757 14.2-37.757 14.2L18.174 21.3s1.148-2.845 3.33-5.69" fill="#C9D1EE"/><path d="M11.812 56.944l1.314-4.903 4.342 1.164-2.265 8.452-4.342-1.163" stroke="#5D74B6" stroke-width="2" stroke-linecap="round" stroke-linejoin="round"/><g fill="#C9D1EE"><path d="M58.553 54.532s6.117-1.62 12.005 3.45l-7.02 26.2s-6.214 1.96-12.005-3.474l7.02-26.176zM27.643 46.25s7.083-1.363 12.97 3.71l-7.02 26.2s-7.18 1.7-12.97-3.734l7.02-26.176z"/></g><path d="M18.604 51.05L15.11 64.09" stroke="#5D74B6" stroke-width="2" stroke-linecap="round" stroke-linejoin="round"/><g stroke-linecap="round" stroke-linejoin="round"><path d="M16.563 27.347c-.944 2.182-1.81 4.284-2.603 6.37-2.376 6.258-4.073 12.375-5.124 20.107M90.588 47.182c-.273 2.36-.573 4.616-.93 6.818-1.072 6.608-2.66 12.754-5.616 19.975" stroke="#425896" stroke-width="3"/><path d="M86.024 34.36c-2.738-12.153-11.96-22.415-24.83-25.863-14.708-3.94-29.744 2.207-37.758 14.2l-5.905-1.582" stroke="#5D74B6" stroke-width="3"/><path d="M20.36 17C30.06 4.616 46.55-1.47 62.705 2.86c17.853 4.784 29.703 20.79 29.994 38.396L86.78 39.67" stroke="#5D74B6" stroke-width="3"/><path d="M26.55 48.077l-3.066.937-4.17 1.234L16.45 60.93" stroke="#4969C5" stroke-width="3"/><path d="M18.454 68.252L15.3 65.22l2.962-11.05" stroke="#4969C5" stroke-width="3"/><path d="M22.435 65.64l5.29-19.74c.016-.06.126-.08.296-.097 2.808-.16 4.422-.234 6.596.348 2.434.653 4.94 1.957 6.593 3.518l-7.087 26.447c-2.21.516-5.148.36-7.582-.293-2.114-.566-4.283-1.624-5.904-2.917-.146-.112-.085-.304-.22-.422" stroke="#425896" stroke-width="3"/><path d="M79.46 75.07l1.315-4.903-4.342-1.163-2.265 8.452 4.342 1.163" stroke="#5D74B6" stroke-width="2"/><path d="M71.387 60.09l2.536 2.44 3.346 3.247-2.864 10.683" stroke="#4969C5" stroke-width="3"/><path d="M69.01 81.8l4.247-1.052 2.96-11.05" stroke="#4969C5" stroke-width="3"/><path d="M51.29 80.667c1.656 1.552 3.918 2.813 6.353 3.465 2.115.567 5.112 1.038 7.39.265l7.125-26.592c-1.733-1.26-4.155-2.707-6.328-3.29-2.434-.652-5.022-.714-7.234-.188l-5.51 20.562" stroke="#425896" stroke-width="3"/><path d="M47.445 134.602c6.287-.272 12.565-1.024 18.58-2.63 9.69-2.59 18.636-8.152 23.88-17.036 1.6-2.71 2.892-5.577 3.994-8.52" stroke="#5D74B6" stroke-width="2"/><path d="M14.922 72.192c-1.355 5.588-1.106 11.697.138 17.27 1.898 8.507 6.883 15.347 13.05 21.31 6.866 6.64 13.877 11.123 17.86 20.383 4.645 10.8 3.62 24.713-2.092 34.92-6.953 12.43-23.116 17.036-34.71 7.442-.4-.33-.79-.676-1.163-1.035-9.522-9.134-8.86-25.416 2.07-33.195 7.4-5.266 16.69-4.92 25.322-4.656 3.75.116 5.368.15 7.436.105M71.705 87.407c-1.62 5.516-4.892 10.683-8.754 14.886-5.897 6.42-14.86 10.558-23.18 12.64" stroke="#5D74B6" stroke-width="2"/><path d="M93.595 98.578l3.073-11.47 4.843 1.297-4.108 15.334-4.842-1.298" stroke="#4969C5" stroke-width="2"/><path d="M97.812 83.767l4.83 1.295" stroke="#8C9DD0" stroke-width="2"/><path d="M101.262 80.55l2.07-7.727" stroke="#5D74B6" stroke-width="3"/></g></g></svg>
