<svg width="104" height="113" viewBox="0 0 104 113" xmlns="http://www.w3.org/2000/svg" xmlns:xlink="http://www.w3.org/1999/xlink"><title>illo-calendar</title><defs><path id="a" d="M0 97h89V.086H0V97z"/></defs><g fill="none" fill-rule="evenodd"><path d="M21.54 10.177l74.377 19.93 5.72 10.577-18.702 69.8L7.338 90.23l-5.54-9.594 19.743-70.46z" fill="#FFF"/><path d="M16.97 28.518l74.297 19.908 4.7-17.544-74.295-19.907-4.7 17.543z" fill="#C9D1EE"/><path d="M101.705 40.7L82.93 110.776 7.586 90.587" stroke="#4969C5" stroke-width="3" stroke-linecap="round" stroke-linejoin="round"/><path d="M98.877 35.802L80.1 105.876 4.76 85.688" stroke="#8C9DD0" stroke-width="2" stroke-linecap="round" stroke-linejoin="round"/><path d="M59.987 21.24l21.915 5.873M31.916 13.72l22.276 5.968" stroke="#4969C5" stroke-width="3" stroke-linecap="round" stroke-linejoin="round"/><g><path d="M3.742 74.028l16.964-63.313 5.414 1.45M87.697 28.666l8.352 2.237-18.778 70.074L1.93 80.79" stroke="#4969C5" stroke-width="3" stroke-linecap="round" stroke-linejoin="round"/><path d="M32.36 23.893c-.644 2.4-3.112 3.825-5.512 3.182-2.4-.643-3.825-3.11-3.182-5.512.643-2.4 3.11-3.825 5.51-3.182 2.402.645 3.827 3.113 3.183 5.513zM88.383 38.904c-.643 2.4-3.11 3.825-5.51 3.182-2.402-.643-3.826-3.11-3.183-5.51.643-2.4 3.11-3.826 5.51-3.183 2.4.643 3.826 3.11 3.183 5.51z" stroke="#8C9DD0" stroke-width="2" stroke-linecap="round" stroke-linejoin="round"/><path d="M27.884 22.703c-1.61-2.87-2.084-6.823-1.008-10.836 1.84-6.873 7.526-11.32 12.7-9.935 4.013 1.076 6.54 5.35 6.605 10.426" stroke="#425896" stroke-width="3" stroke-linecap="round" stroke-linejoin="round"/><path d="M60.37 31.4c-.642 2.4-3.11 3.824-5.51 3.18-2.4-.643-3.825-3.11-3.182-5.51.643-2.4 3.11-3.826 5.51-3.183 2.402.643 3.826 3.11 3.183 5.512z" stroke="#8C9DD0" stroke-width="2" stroke-linecap="round" stroke-linejoin="round"/><path d="M55.895 30.21c-1.61-2.872-2.083-6.824-1.007-10.837 1.84-6.873 7.526-11.32 12.7-9.935 4.013 1.075 6.54 5.35 6.605 10.426M83.732 37.664c-1.608-2.87-2.08-6.82-1.005-10.832 1.84-6.872 7.526-11.32 12.698-9.935 4.78 1.28 7.447 7.093 6.372 13.39" stroke="#425896" stroke-width="3" stroke-linecap="round" stroke-linejoin="round"/><g transform="rotate(15 27.202 85.778)"><path stroke="#C9D1EE" stroke-width="2" stroke-linecap="round" stroke-linejoin="round" d="M11.43 53.22h58-58zM11.43 65.22h58M22.43 76.22v-35M34.43 76.22v-35M46.43 76.22v-35M58.43 76.22v-35"/><mask id="b" fill="#fff"><use xlink:href="#a"/></mask><path d="M10.167 77.2h59.5V41.5h-59.5v35.7z" stroke="#C9D1EE" stroke-width="2" stroke-linecap="round" stroke-linejoin="round" mask="url(#b)"/><path d="M22.688 54h11V42h-11v12z" fill="#C9D1EE" mask="url(#b)"/></g></g></g></svg>