<svg viewBox="0 0 115 105" xmlns="http://www.w3.org/2000/svg"><title>illo-book</title><g fill="none" fill-rule="evenodd"><path d="M72.423 103.1l41.012-40.9L60.365 9.22s-28.078-20.626-59.078 6.42V49.23l54.165 53.87h16.97z" fill="#FFF"/><path d="M2.42 50.1l53.032 53.128 16.263-.66 10.607-10.582-52.326-52.41L19.39 50.1H2.42z" fill="#C9D1EE"/><path d="M19.39 49.584L60.402 8.572l53.033 53.033-37.123 37.123" stroke="#4969C5" stroke-width="3" stroke-linecap="round" stroke-linejoin="round"/><path d="M7.016 55.594L54.745 103H72.5L19.39 50H1.5V15.64" stroke="#4969C5" stroke-width="3" stroke-linecap="round" stroke-linejoin="round"/><path d="M49.746 2.964L15.854 43.927 37.067 1.5M25.754 2.915L8.076 44.635l3.248-36.447" stroke="#7A88C4" stroke-width="3" stroke-linecap="round" stroke-linejoin="round"/><path d="M48.735 48.523l19.8-19.8" stroke="#8C9DD0" stroke-width="3" stroke-linecap="round" stroke-linejoin="round"/><path d="M56.16 50.29l14.142-14.14M78.787 72.918L92.93 58.776" stroke="#8C9DD0" stroke-width="2" stroke-linecap="round" stroke-linejoin="round"/></g></svg>
