<?xml version="1.0" encoding="UTF-8" standalone="no"?>
<svg width="62px" height="63px" viewBox="0 0 62 63" version="1.1" xmlns="http://www.w3.org/2000/svg" xmlns:xlink="http://www.w3.org/1999/xlink">
    <!-- Generator: Sketch 3.6.1 (26313) - http://www.bohemiancoding.com/sketch -->
    <title>illo-glasses</title>
    <desc>Created with Sketch.</desc>
    <defs></defs>
    <g id="Page-1" stroke="none" stroke-width="1" fill="none" fill-rule="evenodd">
        <g id="Desktop-HD-Copy" transform="translate(-835.000000, -3685.000000)">
            <g id="Web-vs.-Mobile" transform="translate(97.000000, 3408.000000)">
                <g id="Illos" transform="translate(48.000000, 84.000000)">
                    <g id="illo-glasses" transform="translate(726.830213, 229.830213) rotate(-45.000000) translate(-726.830213, -229.830213) translate(688.830213, 214.330213)">
                        <g id="Group-5" transform="translate(4.000000, 1.500000)" fill="#C9D1EE">
                            <path d="M19.1552,19.9528 L9.2122,19.9528 C4.9762,19.9528 1.4732,16.6498 1.2262,12.4198 L0.6852,3.1748 C0.5852,1.4528 1.9552,-0.0002 3.6802,-0.0002 L26.3842,-0.0002 C28.3172,-0.0002 29.7452,1.8008 29.3052,3.6828 L26.9452,13.7748 C26.0982,17.3938 22.8712,19.9528 19.1552,19.9528" id="Fill-1"></path>
                            <path d="M48.1765,19.9528 L58.1195,19.9528 C62.3555,19.9528 65.8585,16.6498 66.1055,12.4198 L66.6465,3.1748 C66.7465,1.4528 65.3765,-0.0002 63.6515,-0.0002 L40.9475,-0.0002 C39.0145,-0.0002 37.5865,1.8008 38.0265,3.6828 L40.3865,13.7748 C41.2335,17.3938 44.4605,19.9528 48.1765,19.9528" id="Fill-3"></path>
                        </g>
                        <path d="M4.85,4.0671 L22.237,21.4541 L28.29,20.0831 L8.562,0.3551 L4.85,4.0671 Z" id="Fill-6" fill="#FFFFFF"></path>
                        <path d="M12.8141,2.304 L28.8241,18.314 L30.6801,16.458 L14.6701,0.448 L12.8141,2.304 Z" id="Fill-7" fill="#FFFFFF"></path>
                        <path d="M31.7399,10.5352 L30.3259,11.9492 L20.5169,2.1412 L21.9319,0.7272 L31.7399,10.5352 Z" id="Fill-8" fill="#FFFFFF"></path>
                        <path d="M43.8533,4.0671 L61.2413,21.4541 L67.2943,20.0831 L47.5653,0.3551 L43.8533,4.0671 Z" id="Fill-9" fill="#FFFFFF"></path>
                        <path d="M51.8183,2.304 L67.8283,18.314 L69.6843,16.458 L53.6743,0.448 L51.8183,2.304 Z" id="Fill-10" fill="#FFFFFF"></path>
                        <path d="M70.7439,10.5352 L69.3299,11.9492 L59.5209,2.1412 L60.9359,0.7272 L70.7439,10.5352 Z" id="Fill-11" fill="#FFFFFF"></path>
                        <path d="M70.0833,7 L51.4153,15.667" id="Stroke-12" stroke="#5D74B6" stroke-width="3" stroke-linecap="round" stroke-linejoin="round"></path>
                        <path d="M5.5,7 L23.796,15.667" id="Stroke-13" stroke="#5D74B6" stroke-width="3" stroke-linecap="round" stroke-linejoin="round"></path>
                        <g id="Group-30" transform="translate(-0.000000, 1.500000)" stroke="#425896" stroke-linecap="round" stroke-linejoin="round">
                            <path d="M46.5841,18.3179 C44.6291,21.2249 43.9761,24.9419 45.0541,28.4999 L45.0541,28.4999" id="Stroke-14" stroke-width="3"></path>
                            <path d="M28.6273,18.3179 C30.5823,21.2249 31.2353,24.9419 30.1573,28.4999 L30.1573,28.4999" id="Stroke-16" stroke-width="3"></path>
                            <path d="M4.5,2 L2.27373675e-13,2 L2.27373675e-13,6 L4.5,6" id="Stroke-18" stroke-width="2"></path>
                            <path d="M70.8333,2 L75.3333,2 L75.3333,6 L70.8333,6" id="Stroke-20" stroke-width="2"></path>
                            <path d="M33.8577,2.3529 L41.8577,2.3529" id="Stroke-22" stroke-width="2"></path>
                            <path d="M33.5,6 C33.5,6 34.667,5 37.5,5 C40.333,5 41.5,6 41.5,6" id="Stroke-24" stroke-width="2"></path>
                            <path d="M23.1552,19.9528 L13.2122,19.9528 C8.9762,19.9528 5.4732,16.6498 5.2262,12.4198 L4.6852,3.1748 C4.5852,1.4528 5.9552,-0.0002 7.6802,-0.0002 L30.3842,-0.0002 C32.3172,-0.0002 33.7452,1.8008 33.3052,3.6828 L30.9452,13.7748 C30.0982,17.3938 26.8712,19.9528 23.1552,19.9528 L23.1552,19.9528 Z" id="Stroke-26" stroke-width="3"></path>
                            <path d="M52.1765,19.9528 L62.1195,19.9528 C66.3555,19.9528 69.8585,16.6498 70.1055,12.4198 L70.6465,3.1748 C70.7465,1.4528 69.3765,-0.0002 67.6515,-0.0002 L44.9475,-0.0002 C43.0145,-0.0002 41.5865,1.8008 42.0265,3.6828 L44.3865,13.7748 C45.2335,17.3938 48.4605,19.9528 52.1765,19.9528 L52.1765,19.9528 Z" id="Stroke-28" stroke-width="3"></path>
                        </g>
                    </g>
                </g>
            </g>
        </g>
    </g>
</svg>