<?xml version="1.0" encoding="UTF-8" standalone="no"?>
<svg width="98px" height="98px" viewBox="0 0 98 98" version="1.1" xmlns="http://www.w3.org/2000/svg" xmlns:xlink="http://www.w3.org/1999/xlink">
    <!-- Generator: Sketch 3.6.1 (26313) - http://www.bohemiancoding.com/sketch -->
    <title>illo-notebook</title>
    <desc>Created with Sketch.</desc>
    <defs></defs>
    <g id="Page-1" stroke="none" stroke-width="1" fill="none" fill-rule="evenodd">
        <g id="Desktop-HD-Copy" transform="translate(-1056.000000, -3711.000000)">
            <g id="Web-vs.-Mobile" transform="translate(97.000000, 3408.000000)">
                <g id="Illos" transform="translate(48.000000, 84.000000)">
                    <g id="illo-notebook" transform="translate(912.000000, 220.000000)">
                        <path d="M1.1692,54.0417 L41.4742,94.3467 L90.9592,44.8287 C90.9592,44.8287 104.0722,19.9997 87.8542,-0.0003 L53.7312,-0.0003 L49.9472,3.8167 C49.9472,3.8167 47.7052,0.7717 42.4462,1.4337 L2.3592,41.5297 C-3.1918,47.0807 3.8992,51.2787 3.8992,51.2787 L1.1692,54.0417 Z" id="Fill-1" fill="#FFFFFF"></path>
                        <path d="M50.3213,4.2237 L91.2923,45.1947 L41.4703,95.0157 L0.5003,54.0447 L50.3213,4.2237 L50.3213,4.2237 Z" id="Stroke-3" stroke="#4969C5" stroke-width="3" stroke-linecap="round" stroke-linejoin="round"></path>
                        <path d="M8.5849,50.454 C6.4279,51.479 3.7709,51.115 1.9639,49.348 C-0.3511,47.082 -0.3911,43.369 1.8739,41.054 C2.1039,40.819 2.3489,40.607 2.6049,40.419" id="Stroke-5" stroke="#425896" stroke-width="2" stroke-linecap="round" stroke-linejoin="round"></path>
                        <path d="M14.0579,44.981 C11.9009,46.006 9.2439,45.642 7.4369,43.875 C5.1219,41.609 5.0819,37.896 7.3469,35.581 C7.5769,35.346 7.8219,35.134 8.0779,34.946" id="Stroke-7" stroke="#425896" stroke-width="2" stroke-linecap="round" stroke-linejoin="round"></path>
                        <path d="M19.5309,39.508 C17.3739,40.533 14.7169,40.169 12.9099,38.402 C10.5949,36.136 10.5549,32.423 12.8199,30.108 C13.0499,29.873 13.2949,29.661 13.5509,29.473" id="Stroke-9" stroke="#425896" stroke-width="2" stroke-linecap="round" stroke-linejoin="round"></path>
                        <path d="M25.0039,34.035 C22.8469,35.06 20.1899,34.696 18.3829,32.929 C16.0679,30.663 16.0279,26.95 18.2929,24.635 C18.5229,24.4 18.7679,24.188 19.0239,24" id="Stroke-11" stroke="#425896" stroke-width="2" stroke-linecap="round" stroke-linejoin="round"></path>
                        <path d="M30.4769,28.562 C28.3199,29.587 25.6629,29.223 23.8559,27.456 C21.5409,25.19 21.5009,21.477 23.7659,19.162 C23.9959,18.927 24.2409,18.715 24.4969,18.527" id="Stroke-13" stroke="#425896" stroke-width="2" stroke-linecap="round" stroke-linejoin="round"></path>
                        <path d="M35.9499,23.089 C33.7929,24.114 31.1359,23.75 29.3289,21.983 C27.0139,19.717 26.9739,16.004 29.2389,13.689 C29.4689,13.454 29.7139,13.242 29.9699,13.054" id="Stroke-15" stroke="#425896" stroke-width="2" stroke-linecap="round" stroke-linejoin="round"></path>
                        <path d="M41.4229,17.616 C39.2659,18.641 36.6089,18.277 34.8019,16.51 C32.4869,14.244 32.4469,10.531 34.7119,8.216 C34.9419,7.981 35.1869,7.769 35.4429,7.581" id="Stroke-17" stroke="#425896" stroke-width="2" stroke-linecap="round" stroke-linejoin="round"></path>
                        <path d="M46.8937,12.0084 C44.7757,12.8674 42.2577,12.4374 40.5397,10.7204 C38.2487,8.4294 38.2487,4.7164 40.5397,2.4254 C42.3667,0.5984 45.1007,0.2284 47.2937,1.3174" id="Stroke-19" stroke="#425896" stroke-width="2" stroke-linecap="round" stroke-linejoin="round"></path>
                        <path d="M54.022,0.5 L88.022,0.5" id="Stroke-21" stroke="#4969C5" stroke-width="3" stroke-linecap="round" stroke-linejoin="round"></path>
                        <path d="M94.2052,38.1834 L62.4292,10.0304 L95.1822,27.1724" id="Stroke-23" stroke="#5D74B6" stroke-width="2" stroke-linecap="round" stroke-linejoin="round"></path>
                        <path d="M90.4015,6.5283 L60.5665,4.5443 L94.5565,16.5323" id="Stroke-25" stroke="#5D74B6" stroke-width="2" stroke-linecap="round" stroke-linejoin="round"></path>
                        <path d="M52.7879,17.9793 L11.0689,59.6983" id="Stroke-27" stroke="#C9D1EE" stroke-width="2" stroke-linecap="round" stroke-linejoin="round"></path>
                        <path d="M45.7169,19.3935 L76.8299,50.5065" id="Stroke-29" stroke="#C9D1EE" stroke-width="2" stroke-linecap="round" stroke-linejoin="round"></path>
                        <path d="M41.4742,23.6361 L72.5872,54.7491" id="Stroke-31" stroke="#C9D1EE" stroke-width="2" stroke-linecap="round" stroke-linejoin="round"></path>
                        <path d="M37.2316,27.8788 L68.3446,58.9918" id="Stroke-33" stroke="#C9D1EE" stroke-width="2" stroke-linecap="round" stroke-linejoin="round"></path>
                        <path d="M32.989,32.1214 L64.102,63.2344" id="Stroke-35" stroke="#C9D1EE" stroke-width="2" stroke-linecap="round" stroke-linejoin="round"></path>
                        <path d="M28.7463,36.3641 L59.8593,67.4771" id="Stroke-37" stroke="#C9D1EE" stroke-width="2" stroke-linecap="round" stroke-linejoin="round"></path>
                        <path d="M24.5037,40.6067 L55.6167,71.7197" id="Stroke-39" stroke="#C9D1EE" stroke-width="2" stroke-linecap="round" stroke-linejoin="round"></path>
                        <path d="M20.261,44.8494 L51.374,75.9624" id="Stroke-41" stroke="#C9D1EE" stroke-width="2" stroke-linecap="round" stroke-linejoin="round"></path>
                        <path d="M16.0184,49.092 L47.1314,80.205" id="Stroke-43" stroke="#C9D1EE" stroke-width="2" stroke-linecap="round" stroke-linejoin="round"></path>
                        <path d="M11.7758,53.3346 L42.8888,84.4476" id="Stroke-45" stroke="#C9D1EE" stroke-width="2" stroke-linecap="round" stroke-linejoin="round"></path>
                    </g>
                </g>
            </g>
        </g>
    </g>
</svg>