<svg xmlns="http://www.w3.org/2000/svg" preserveAspectRatio="xMidYMid" width="17" height="16" viewBox="0 0 17 16"><defs><style>.cls-1 { fill: #44c8f9; fill-rule: evenodd; }</style></defs><path d="M16.015 16H1c-.552 0-1-.447-1-1V1c0-.553.448-1 1-1h9.01c.552 0 1 .447 1 1v2h5.005c.553 0 1 .447 1 1v11c0 .553-.447 1-1 1zM9.008 4V2H2.002v12h7.006V4zm6.006 1H11.01v9h4.004V5zm-1 3H12.01V6h2.003v2zm0 3H12.01V9h2.003v2zm-9.01-6h-2V3h2v2zm0 3h-2V6h2v2zm0 3h-2V9h2v2zm3.003-6H6.005V3h2.002v2zm0 3H6.005V6h2.002v2zm0 3H6.005V9h2.002v2z" class="cls-1"/></svg>