<svg id="Layer_1" xmlns="http://www.w3.org/2000/svg" viewBox="0 0 851.8 468.2"><style>.st0{fill:#212626;}</style><path class="st0" d="M792.4 238.9c2.6 14.2 4.9 29.6 1.9 29.6-3.5 0-6.8-11-13-24.5-5.3-11.8-13.3-25-18.5-41.4-4.4-13.9-5.5-26.6-7.7-37.4-3.4-16.6-6.2-28.3-3.1-29.3 3-1 8.7 7.8 15.1 22.2 4.7 10.4 5.1 29.4 9.7 44.2 5.1 15.8 13.5 25 15.6 36.6zm-258.2 59.2c0 11.1-9 20-20 20s-20-9-20-20 9-20 20-20 20 9 20 20zm-12.3-6.9c0-2.5-2-4.6-4.6-4.6s-4.6 2-4.6 4.6 2 4.6 4.6 4.6 4.6-2.1 4.6-4.6zm221 94.7c-111.7 53.7-249.7 52.5-288.1 50.1-11-.7-18.9 14-25.6 20.8-6.7 6.7-23.8 13.4-31.1 11-7.3-2.4 12.8-36 12.8-36S384 419 371.8 416.5c-12.2-2.4-15.3 12.2-32.4 23.8-17.1 11.6-44.6 14.7-53.7 6.7-9.2-7.9 3.2-22.5 8.5-36 5.8-14.7 11.9-34.3 9.5-39.8-3-6.7-10.4 0-16.2 9.2-6.4 10.2-23.2 6.1-45.8-11-22.6-17.1-83.8-82.4-101.7-119.1-23.2-47.6-18.3-97.1-31.1-107.4-10.5-8.5-42.3-8.6-62.6-21.9C27.1 108.3 0 73.2 0 43.3c0-12.8 11.8-16.4 24.4-11.6 7.9 3.1 49.1 15.9 78.4 12.8 29.8-3.1 28.7 9.2 35.4 8.5 7.6-.7-.6-10.4 25.6-15.3C221.4 27 215.1-4.8 233.4.5c19.2 5.5 12.2 73.3-9.8 97.1-23.5 25.4-50.4 25.1-52.8 42.2-2.4 17.1 21.7 67.7 66.2 78.1s82.1-4.2 109.6-11.5 184.4-83 296.1-120.3 158.7-22.6 192.9 81.2 19.2 164.8-92.7 218.6zm33.2-64.7s-212.5 13.4-368.3 64.5c0 0-17.8 10-11.1 18.4 6.7 8.3 112.7 17.5 207-2.8 111.3-23.9 169-57.9 176.9-67.3 7.2-8.6-1.2-12.9-4.5-12.8zM799 183.8c-2.4-9.2-3.7-16.5-13.4-53.7-9.8-37.2-39.1-36-67.2-35.4-28.1.6-172.2 47-172.2 47-12.2 3.7-78.8 28.7-111.7 44s-116.6 56.2-177 53.7c-60.4-2.4-91.6-51.9-102.6-73.9-11-22-4.9-39.1 8.5-47.6s29-14.3 34.5-17.8c16.5-10.4 24.4-25.6 28.7-46.4 3.9-18.7 5.7-30.6 0-32.4-7.9-2.4-11.6 19.5-58 28.7-14.2 2.8-7.9 14-29.3 17.1-3.3.5-10.4-1.8-14.7-4.3-8.3-4.7-12.2-6.4-25-4.9-25 3.1-48.8-4.9-62.9-9.8-22.6-7.9-21.5 1.7-20.1 8.5.6 3.1 5.1 16.6 22.6 35.4 25.6 27.5 43.9 28.1 58.4 30.5 14.7 2.4 29.9 9.8 32.9 29.4 2.3 15.1 7.9 51.3 13.4 67.2s23.8 47.6 52.5 81.8 72 64.1 78.8 63.5c6.7-.6 13.1-10.8 14.4-12.3 2.8-3.1 14.7-7.3 22.6-2.4s12.8 11 10.1 28.2c-3.2 19.9-17.1 44.6-14.7 50.7 3.7 9.2 27.5-7.3 34.8-13.4 7.3-6.1 15.9-15.9 18.9-20.8s6.1-15.9 17.1-24.4c11-8.5 23.8-8.5 122.1-29.9s250.3-40.3 269.8-40.9 29.3-1.2 39.1-6.1c9.8-4.9 10.4-17.1 11-32.4S801.5 193 799 183.8z"/></svg>