<svg version="1.1" id="Layer_1" xmlns="http://www.w3.org/2000/svg" xmlns:xlink="http://www.w3.org/1999/xlink" x="0px" y="0px"
	 viewBox="-198 119.4 242.6 243.6" style="enable-background:new -198 119.4 242.6 243.6;" xml:space="preserve">
<path style="fill:#DA522A;" d="M-32.9,239.6c-4.7,0-9.1,2.6-11.3,6.9c-10.8,18-34.1,23.8-52,13s-23.8-34.1-13-52s34.1-23.8,52-13
	c5.4,3.2,9.8,7.7,13,13c3.1,6.3,10.6,8.9,16.9,5.8c6.3-3.1,8.9-10.6,5.8-16.9c-0.2-0.5-0.5-0.9-0.8-1.3
	c-17.6-30.1-56.4-40.3-86.5-22.6s-40.3,56.4-22.6,86.5c17.6,30.1,56.4,40.3,86.5,22.6c9.4-5.5,17.2-13.3,22.6-22.6
	c0.1-0.2,0.2-0.3,0.3-0.5l0,0l0,0c3.4-6.1,1.2-13.8-5-17.2C-28.7,240.1-30.8,239.6-32.9,239.6z"/>
<circle style="fill:#48484A;" cx="-76.7" cy="226.9" r="13.7"/>
<path style="fill:#425896;" d="M-38.7,119.4h-75.9c-7,0.2-12.5,6-12.3,13c0.2,6.7,5.6,12.1,12.3,12.3h75.9c7,0.2,12.8-5.4,12.9-12.4
	c0.2-7-5.4-12.8-12.4-12.9C-38.4,119.4-38.5,119.4-38.7,119.4z"/>
<path style="fill:#425896;" d="M-195.2,339.9c-0.8,0-1.5-0.3-2-0.8c-0.5-0.6-0.8-1.3-0.8-2.1c0-0.8,0.3-1.5,0.8-2
	c0.5-0.5,1.2-0.8,2-0.8h14.9c0.8,0,1.5,0.3,2,0.8c0.6,0.6,0.9,1.3,0.9,2.1c0,0.8-0.3,1.5-0.8,2c-0.5,0.5-1.3,0.8-2.1,0.8h-4.2v19.8
	c0,0.8-0.3,1.7-0.9,2.3c-0.6,0.6-1.4,1-2.2,1c-0.9,0-1.7-0.3-2.3-0.9c-0.6-0.6-1-1.4-1-2.3v-19.8H-195.2z"/>
<path style="fill:#425896;" d="M-167.6,359.8c0,0.8-0.3,1.7-0.9,2.3c-0.6,0.6-1.4,1-2.2,1c-0.9,0-1.7-0.3-2.3-0.9
	c-0.6-0.6-1-1.4-0.9-2.3v-22.7c0-0.9,0.3-1.7,0.9-2.3c0.6-0.6,1.4-1,2.3-1c0.9,0,1.7,0.3,2.2,1c0.6,0.6,0.9,1.5,0.9,2.3v8.1h12.1
	V337c0-0.9,0.3-1.7,0.9-2.3c1.2-1.3,3.3-1.3,4.5,0c0,0,0,0,0,0c0.6,0.6,0.9,1.5,0.9,2.3v22.7c0.1,1.8-1.3,3.3-3,3.4
	c-1.8,0.1-3.3-1.3-3.4-3c0-0.1,0-0.2,0-0.4v-8.9h-12.1V359.8L-167.6,359.8z"/>
<path style="fill:#425896;" d="M-129.8,356.8c0.8,0,1.5,0.3,2.1,0.9c0.6,0.5,0.9,1.3,0.9,2c0,0.8-0.3,1.5-0.9,2
	c-0.6,0.5-1.3,0.8-2.1,0.8h-10.4c-0.9,0-1.7-0.3-2.3-0.9c-0.6-0.6-1-1.5-0.9-2.3v-21.9c0-0.9,0.3-1.7,0.9-2.3c0.6-0.6,1.5-1,2.3-1
	h10.3c0.8,0,1.5,0.3,2,0.8c0.5,0.5,0.8,1.3,0.8,2c0,0.8-0.3,1.5-0.8,2.1c-0.5,0.6-1.2,0.9-2,0.9h-7.1v5.5h6.4c0.8,0,1.6,0.3,2.1,0.8
	c1.1,1.1,1.2,2.9,0.1,4c0,0,0,0-0.1,0.1c-0.6,0.5-1.3,0.8-2.1,0.8h-6.4v5.6L-129.8,356.8L-129.8,356.8z"/>
<path style="fill:#DA522A;" d="M-109,333.6c2.1-0.1,4.2,0.4,6.1,1.3c1.6,0.9,2.4,1.9,2.4,3.3c0,0.8-0.3,1.5-0.8,2
	c-0.5,0.5-1.1,0.9-1.8,0.9c-0.4,0-0.8-0.1-1.2-0.2l-1.9-0.7c-1-0.3-2-0.5-3-0.5c-2-0.1-4,0.8-5.2,2.4c-1.4,1.8-2.1,4-2,6.3
	c-0.1,2.3,0.6,4.5,2,6.2c1.3,1.5,3.2,2.4,5.3,2.3c1.4,0,2.7-0.3,3.9-0.8l1.1-0.5c0.4-0.2,0.8-0.3,1.3-0.3c0.8,0,1.5,0.3,2,0.9
	c0.5,0.6,0.8,1.3,0.8,2.1c0,1.3-0.9,2.5-2.6,3.4c-2,1-4.2,1.4-6.4,1.4c-3.8,0.1-7.5-1.4-10.1-4.1c-5.3-6.1-5.3-15.1,0-21.1
	C-116.5,335-112.8,333.5-109,333.6z"/>
<path style="fill:#DA522A;" d="M-91,360.8c-0.4,1.4-1.7,2.3-3.1,2.2c-0.8,0-1.6-0.3-2.2-0.9c-0.6-0.6-0.9-1.4-0.9-2.2
	c0-0.5,0.1-1.1,0.3-1.6l7.8-21c0.9-2.4,2.4-3.5,4.7-3.5s3.8,1.2,4.6,3.5l7.7,21c0.1,0.3,0.2,0.6,0.2,0.9c0.1,0.3,0.1,0.7,0.1,1
	c0,0.7-0.3,1.5-0.9,1.9c-0.6,0.5-1.4,0.8-2.2,0.8c-1.4,0.1-2.6-0.8-2.9-2.2l-1.1-3.6h-11L-91,360.8z M-88.1,351.4h7.2l-3.5-11
	L-88.1,351.4z"/>
<path style="fill:#DA522A;" d="M-62.2,359.9c-0.3,2-1.4,3-3.2,3c-0.9,0-1.7-0.3-2.4-0.9c-0.6-0.6-0.9-1.5-0.9-2.4
	c0-0.2,0-0.4,0.1-0.6l3.7-21.8c0.2-1,0.7-1.8,1.5-2.4c0.8-0.7,1.8-1,2.8-1c0.9,0,1.9,0.3,2.6,0.8c0.8,0.6,1.3,1.4,1.6,2.4l4.5,15
	l4.5-15c0.4-2,2.2-3.4,4.2-3.2c1,0,2,0.3,2.8,1c0.8,0.6,1.3,1.5,1.5,2.4l3.7,21.8l0.1,0.6c0,0.9-0.3,1.7-0.9,2.4
	c-0.6,0.6-1.4,1-2.3,1c-1.9,0-3-1-3.2-3l-2.3-15.7l-4.7,16.1c-0.2,0.8-0.5,1.5-1.1,2c-0.6,0.4-1.4,0.6-2.2,0.6c-1.6,0.1-3-1-3.3-2.6
	l-4.7-16.1L-62.2,359.9z"/>
<path style="fill:#DA522A;" d="M-24.1,359.7c0,1.8-1.4,3.2-3.2,3.2c-0.9,0-1.7-0.3-2.3-1c-0.6-0.6-1-1.5-0.9-2.3v-22.2
	c0-0.9,0.3-1.7,0.9-2.4c0.6-0.7,1.5-1,2.4-1h7.5c2.7-0.1,5.3,0.9,7.3,2.7c3.7,3.9,3.7,9.9,0.1,13.9c-1.9,1.8-4.4,2.7-7,2.6h-4.8
	L-24.1,359.7L-24.1,359.7z M-24.1,347.7h4.1c1,0,2-0.4,2.7-1.1c0.7-0.7,1.1-1.7,1.1-2.7c0-1-0.4-2-1.1-2.8c-0.7-0.8-1.6-1.2-2.7-1.2
	h-4.1L-24.1,347.7L-24.1,347.7z"/>
<path style="fill:#DA522A;" d="M7.1,363c-3.3,0.1-6.5-1.1-8.9-3.4c-2.3-2.3-3.6-5.4-3.5-8.6v-13.9c0-0.9,0.3-1.7,0.9-2.3
	c0.6-0.6,1.4-1,2.3-1c0.9,0,1.7,0.3,2.3,0.9c0.6,0.6,1,1.5,0.9,2.3v13.8c-0.1,1.7,0.5,3.3,1.6,4.6c2.5,2.3,6.3,2.3,8.8,0
	c1.1-1.3,1.7-3,1.6-4.6v-13.7c0-0.9,0.3-1.7,0.9-2.3c0.6-0.6,1.4-1,2.3-0.9c0.9,0,1.7,0.4,2.3,1c0.6,0.6,0.9,1.5,0.9,2.4V351
	c0.1,3.2-1.1,6.4-3.4,8.7C13.7,362,10.5,363.2,7.1,363z"/>
<path style="fill:#DA522A;" d="M24.4,358.3c0-0.8,0.3-1.6,0.8-2.2c0.5-0.6,1.2-0.9,2-0.9c0.3,0,0.5,0,0.8,0.1c0.1,0,0.9,0.3,2.4,0.8
	c1.2,0.5,2.5,0.7,3.8,0.8c1,0,2-0.2,2.8-0.8c0.7-0.5,1.1-1.3,1.1-2.2c0-0.4-0.1-0.9-0.3-1.3c-0.3-0.4-0.7-0.8-1.2-1
	c-0.9-0.4-1.9-0.7-2.9-1c-1.4-0.4-2.5-0.7-3.4-1c-4.4-1.6-5.6-4.5-5.6-7c-0.1-2.5,1-4.8,2.9-6.4c2.1-1.7,4.8-2.6,7.5-2.5
	c1.9-0.1,3.8,0.4,5.5,1.2c1.5,0.8,2.2,1.8,2.2,3c0,0.8-0.3,1.5-0.8,2.1c-0.5,0.6-1.2,0.9-2,0.9c-0.3,0-0.6,0-0.8-0.1
	c-0.2,0-0.6-0.2-1.2-0.4l-1.2-0.4c-0.7-0.2-1.5-0.4-2.3-0.4c-0.8,0-1.6,0.2-2.3,0.7c-0.6,0.4-0.9,1-0.9,1.7c0,0.5,0.2,1,0.6,1.3
	c0.4,0.3,0.8,0.5,1.3,0.7c0.4,0.2,1.3,0.4,2.6,0.8c1.1,0.3,2.1,0.6,3.2,1c4.9,1.9,5.8,4.8,5.8,7.7c0.1,2.6-1,5.1-3,6.8
	c-2.2,1.8-5,2.7-7.9,2.6c-2.3,0.1-4.6-0.4-6.7-1.3c-1.8-0.8-2.7-1.9-2.7-3.2L24.4,358.3L24.4,358.3z"/>
</svg>
