<svg id="Layer_1" data-name="Layer 1" xmlns="http://www.w3.org/2000/svg" viewBox="0 0 43.65 37.98"><defs><style>.cls-1{opacity:0.5;}.cls-2{fill:#c62b22;}</style></defs><title>code-components</title><g class="cls-1"><path class="cls-2" d="M0,18.29L19,8.38V12.6a1.66,1.66,0,0,1-.24.88,1.94,1.94,0,0,1-.79.68L9.26,18.62a7.92,7.92,0,0,1-1.16.49q-0.61.2-1.31,0.37,0.7,0.17,1.31.37a8,8,0,0,1,1.16.49L18,24.83a2,2,0,0,1,.79.68,1.66,1.66,0,0,1,.24.88v4.22L0,20.67v-2.4Z"/><path class="cls-2" d="M29.75,35.74a3.52,3.52,0,0,1-.55,1,3.3,3.3,0,0,1-.77.68,3.63,3.63,0,0,1-.91.42,3.26,3.26,0,0,1-.94.14h-2.5l14-35.86A3.38,3.38,0,0,1,39.26.54,3.13,3.13,0,0,1,41.13,0h2.52Z"/></g></svg>