<svg id="Layer_1" data-name="Layer 1" xmlns="http://www.w3.org/2000/svg" viewBox="0 0 53.91 15.77"><defs><style>.cls-1{opacity:0.5;}.cls-2{fill:#999494;}</style></defs><title>code-components</title><g class="cls-1"><path class="cls-2" d="M0.68,5.84A4.25,4.25,0,0,1,0,3.6,3.91,3.91,0,0,1,.5,1.68,5.62,5.62,0,0,1,2,0L2.74,0.47a0.34,0.34,0,0,1,.14.15,0.38,0.38,0,0,1,0,.17,0.37,0.37,0,0,1,0,.17,0.72,0.72,0,0,1-.09.14,4.31,4.31,0,0,0-.27.35,3.35,3.35,0,0,0-.27.44,2.88,2.88,0,0,0-.2.52A2.18,2.18,0,0,0,2,3a2.63,2.63,0,0,0,.11.73,3.21,3.21,0,0,0,.37.8,0.52,0.52,0,0,1,.09.28,0.46,0.46,0,0,1-.36.45Z"/><path class="cls-2" d="M4.84,15.61V5.35H6.29a0.78,0.78,0,0,1,.53.14A0.81,0.81,0,0,1,7,6L7.17,7.21a4.88,4.88,0,0,1,1.29-1.5,2.71,2.71,0,0,1,1.66-.55,2.15,2.15,0,0,1,1.26.35L11.1,7.36a0.38,0.38,0,0,1-.13.25,0.44,0.44,0,0,1-.27.08,1.68,1.68,0,0,1-.41-0.07A2.76,2.76,0,0,0,9.6,7.55,2.09,2.09,0,0,0,8.28,8a3.27,3.27,0,0,0-.93,1.24v6.39H4.84Z"/><path class="cls-2" d="M17.25,5.19A5,5,0,0,1,19,5.5a3.91,3.91,0,0,1,1.4.9,4.14,4.14,0,0,1,.92,1.46,5.51,5.51,0,0,1,.33,2,3.58,3.58,0,0,1,0,.46,0.74,0.74,0,0,1-.09.29,0.36,0.36,0,0,1-.17.15,0.74,0.74,0,0,1-.28,0H14.81a3.53,3.53,0,0,0,.85,2.32,2.65,2.65,0,0,0,2,.74,3.4,3.4,0,0,0,1-.14,4.83,4.83,0,0,0,.76-0.31L20,13.06a1,1,0,0,1,.48-0.14,0.53,0.53,0,0,1,.26.06,0.58,0.58,0,0,1,.19.17L21.64,14a4.12,4.12,0,0,1-.92.8,5.16,5.16,0,0,1-1.07.52,5.81,5.81,0,0,1-1.13.27,8.11,8.11,0,0,1-1.11.08,5.48,5.48,0,0,1-2-.35,4.45,4.45,0,0,1-1.6-1,4.92,4.92,0,0,1-1.07-1.72,6.65,6.65,0,0,1-.39-2.37,5.67,5.67,0,0,1,.34-2,4.75,4.75,0,0,1,1-1.61,4.59,4.59,0,0,1,1.55-1.08A5.11,5.11,0,0,1,17.25,5.19Zm0,1.77a2.28,2.28,0,0,0-1.69.61,3,3,0,0,0-.78,1.73h4.64a3.08,3.08,0,0,0-.13-0.9,2.08,2.08,0,0,0-.4-0.75,1.89,1.89,0,0,0-.68-0.5A2.31,2.31,0,0,0,17.3,7H17.25Z"/><path class="cls-2" d="M31.74,15.61H30.63a1.2,1.2,0,0,1-.53-0.13,0.67,0.67,0,0,1-.3-0.42l-0.22-.73a8.51,8.51,0,0,1-.77.61,4.61,4.61,0,0,1-.77.44,4,4,0,0,1-.85.27,5.11,5.11,0,0,1-1,.09,3.92,3.92,0,0,1-1.2-.18A2.58,2.58,0,0,1,24.05,15a2.4,2.4,0,0,1-.62-0.87,3.11,3.11,0,0,1-.22-1.21,2.4,2.4,0,0,1,.31-1.15,2.88,2.88,0,0,1,1-1A6.47,6.47,0,0,1,26.41,10a12.07,12.07,0,0,1,2.93-.3V9.14A2.29,2.29,0,0,0,28.9,7.6a1.59,1.59,0,0,0-1.27-.5,3.06,3.06,0,0,0-1,.14,3.85,3.85,0,0,0-.69.31l-0.55.31a1.11,1.11,0,0,1-.55.14,0.71,0.71,0,0,1-.43-0.13,1,1,0,0,1-.29-0.32l-0.45-.79a6.1,6.1,0,0,1,4.27-1.62,4.12,4.12,0,0,1,1.6.3,3.41,3.41,0,0,1,1.19.82,3.51,3.51,0,0,1,.75,1.25,4.83,4.83,0,0,1,.25,1.6v6.5Zm-4.8-1.54a3.33,3.33,0,0,0,.7-0.07,2.69,2.69,0,0,0,.61-0.21,3.24,3.24,0,0,0,.55-0.34A4.92,4.92,0,0,0,29.34,13V11.25a10,10,0,0,0-1.81.14,4.78,4.78,0,0,0-1.17.35,1.5,1.5,0,0,0-.62.49,1.1,1.1,0,0,0-.19.61,1.08,1.08,0,0,0,.39.94,1.66,1.66,0,0,0,1,.29h0Z"/><path class="cls-2" d="M41.38,7.48a1.23,1.23,0,0,1-.21.22,0.49,0.49,0,0,1-.31.08,0.68,0.68,0,0,1-.37-0.11L40.1,7.48a3.21,3.21,0,0,0-.59-0.26,2.74,2.74,0,0,0-.86-0.12,2.61,2.61,0,0,0-1.14.23A2.16,2.16,0,0,0,36.7,8a3,3,0,0,0-.49,1.06,5.73,5.73,0,0,0-.16,1.42A5.55,5.55,0,0,0,36.22,12a3.12,3.12,0,0,0,.5,1.07,2.17,2.17,0,0,0,.8.66,2.42,2.42,0,0,0,1.06.23,2.63,2.63,0,0,0,1-.15,3,3,0,0,0,.62-0.32l0.44-.32A0.66,0.66,0,0,1,41.06,13a0.5,0.5,0,0,1,.45.23l0.71,0.9a4.46,4.46,0,0,1-.89.8,4.81,4.81,0,0,1-1,.52,5,5,0,0,1-1.06.27,7.58,7.58,0,0,1-1.09.08,4.54,4.54,0,0,1-1.79-.35,4.17,4.17,0,0,1-1.47-1,5,5,0,0,1-1-1.66,6.43,6.43,0,0,1-.37-2.25,6.52,6.52,0,0,1,.33-2.1,4.75,4.75,0,0,1,1-1.67,4.38,4.38,0,0,1,1.56-1.1,5.37,5.37,0,0,1,2.14-.4,5.09,5.09,0,0,1,2,.37,4.92,4.92,0,0,1,1.56,1.06Z"/><path class="cls-2" d="M47.1,15.77a2.7,2.7,0,0,1-2-.76,2.9,2.9,0,0,1-.72-2.08V7.2h-1a0.47,0.47,0,0,1-.49-0.52v-1l1.65-.27,0.52-2.8a0.49,0.49,0,0,1,.19-0.31,0.59,0.59,0,0,1,.36-0.11h1.28V5.48h2.7V7.24h-2.7V12.8a1.09,1.09,0,0,0,.24.75,0.81,0.81,0,0,0,.64.27,1.16,1.16,0,0,0,.38,0l0.27-.12,0.21-.12a0.35,0.35,0,0,1,.18,0,0.29,0.29,0,0,1,.18,0,0.87,0.87,0,0,1,.15.17l0.74,1.2a3.74,3.74,0,0,1-1.24.68A4.62,4.62,0,0,1,47.1,15.77Z"/><path class="cls-2" d="M53.22,0.29a4.53,4.53,0,0,1,.52,1.12,4,4,0,0,1,.17,1.12,3.88,3.88,0,0,1-.5,1.91A5.82,5.82,0,0,1,52,6.12l-0.77-.47A0.34,0.34,0,0,1,51,5.5a0.38,0.38,0,0,1,0-.17A0.43,0.43,0,0,1,51.17,5l0.27-.35a3,3,0,0,0,.26-0.43,2.62,2.62,0,0,0,.2-0.51A2.32,2.32,0,0,0,52,3.12a2.65,2.65,0,0,0-.11-0.73,3.4,3.4,0,0,0-.37-0.81A0.46,0.46,0,0,1,51.77.86Z"/></g></svg>