<svg id="Layer_1" data-name="Layer 1" xmlns="http://www.w3.org/2000/svg" viewBox="0 0 17.85 33.97"><defs><style>.cls-1{opacity:0.5;}.cls-2{fill:#999494;}</style></defs><title>code-components</title><g class="cls-1"><path class="cls-2" d="M3.92,17A30.11,30.11,0,0,0,7.39,31a1.72,1.72,0,0,1,.17.43,1.65,1.65,0,0,1,0,.36,0.91,0.91,0,0,1-.18.58,1.53,1.53,0,0,1-.43.37L4.95,34a31.16,31.16,0,0,1-2.27-4.12A29.52,29.52,0,0,1,.28,21.4a35.09,35.09,0,0,1,0-8.83,29.68,29.68,0,0,1,.87-4.28,29.32,29.32,0,0,1,1.6-4.16A31.4,31.4,0,0,1,5,0L7,1.21a1.51,1.51,0,0,1,.43.37,0.88,0.88,0,0,1,.18.57A1.87,1.87,0,0,1,7.4,3,30.19,30.19,0,0,0,4.84,9.7,29.88,29.88,0,0,0,3.92,17Z"/><path class="cls-2" d="M14,17a29.93,29.93,0,0,0-.9-7.3A30.21,30.21,0,0,0,10.54,3a1.87,1.87,0,0,1-.21-0.84,0.88,0.88,0,0,1,.18-0.57,1.51,1.51,0,0,1,.43-0.37l2-1.19a31.4,31.4,0,0,1,2.23,4.13A29.32,29.32,0,0,1,16.7,8.3a29.68,29.68,0,0,1,.87,4.28A34.6,34.6,0,0,1,17.85,17a34.4,34.4,0,0,1-.28,4.41,29.48,29.48,0,0,1-2.4,8.44A31.16,31.16,0,0,1,12.9,34l-2-1.21a1.53,1.53,0,0,1-.43-0.37,0.91,0.91,0,0,1-.18-0.58,1.62,1.62,0,0,1,0-.36A1.72,1.72,0,0,1,10.46,31,30.09,30.09,0,0,0,14,17Z"/></g></svg>