<svg id="Layer_1" data-name="Layer 1" xmlns="http://www.w3.org/2000/svg" viewBox="0 0 15.52 16.59"><defs><style>.cls-1{opacity:0.5;}.cls-2{fill:#999494;}</style></defs><title>code-components</title><g class="cls-1"><path class="cls-2" d="M0,12.12a1.38,1.38,0,0,1,.1-0.53,1.28,1.28,0,0,1,.29-0.43,1.42,1.42,0,0,1,.44-0.29,1.37,1.37,0,0,1,.54-0.11,1.35,1.35,0,0,1,.53.11,1.32,1.32,0,0,1,.72.72,1.38,1.38,0,0,1,0,1.07,1.36,1.36,0,0,1-.29.43,1.31,1.31,0,0,1-.43.28,1.4,1.4,0,0,1-.53.1,1.42,1.42,0,0,1-.54-0.1,1.36,1.36,0,0,1-.44-0.28A1.27,1.27,0,0,1,.1,12.66,1.37,1.37,0,0,1,0,12.12Z"/><path class="cls-2" d="M6.94,4.11v9.55a4,4,0,0,1-.16,1.13,2.47,2.47,0,0,1-.5.93,2.35,2.35,0,0,1-.91.63A3.65,3.65,0,0,1,4,16.58a3.9,3.9,0,0,1-.58,0,3.43,3.43,0,0,1-.55-0.13l0.07-1.2A0.27,0.27,0,0,1,3.08,15a1.33,1.33,0,0,1,.45,0A2,2,0,0,0,4.1,14.9a0.82,0.82,0,0,0,.37-0.22,0.85,0.85,0,0,0,.2-0.39,2.63,2.63,0,0,0,.06-0.6V4.14H7v0ZM7.27,1.42A1.27,1.27,0,0,1,7.15,2a1.47,1.47,0,0,1-.77.74,1.39,1.39,0,0,1-.56.11A1.34,1.34,0,0,1,5.28,2.7,1.43,1.43,0,0,1,4.53,2a1.31,1.31,0,0,1-.11-0.54A1.39,1.39,0,0,1,4.53.86,1.42,1.42,0,0,1,4.83.41,1.44,1.44,0,0,1,5.28.11,1.34,1.34,0,0,1,5.82,0a1.39,1.39,0,0,1,.56.11,1.48,1.48,0,0,1,.46.3,1.46,1.46,0,0,1,.31.45,1.35,1.35,0,0,1,.13.56h0Z"/><path class="cls-2" d="M14.9,5.9a0.59,0.59,0,0,1-.19.2,0.49,0.49,0,0,1-.25.06,0.79,0.79,0,0,1-.35-0.09l-0.43-.2a3.85,3.85,0,0,0-.55-0.2,2.63,2.63,0,0,0-.73-0.09,1.71,1.71,0,0,0-1,.28,0.87,0.87,0,0,0-.38.73,0.69,0.69,0,0,0,.19.5,1.75,1.75,0,0,0,.51.36,4.94,4.94,0,0,0,.72.27L13.27,8c0.28,0.1.56,0.21,0.83,0.33a2.86,2.86,0,0,1,.72.47,2.07,2.07,0,0,1,.7,1.68,3.07,3.07,0,0,1-.24,1.23,2.71,2.71,0,0,1-.71,1,3.32,3.32,0,0,1-1.16.64,5,5,0,0,1-1.58.23,5.06,5.06,0,0,1-.93-0.08A5.52,5.52,0,0,1,10,13.25a4.81,4.81,0,0,1-.77-0.36,3.75,3.75,0,0,1-.63-0.45l0.51-.85a0.71,0.71,0,0,1,.23-0.23,0.66,0.66,0,0,1,.34-0.08,0.72,0.72,0,0,1,.39.12l0.43,0.25a3.86,3.86,0,0,0,.57.25,2.52,2.52,0,0,0,.83.12,2.15,2.15,0,0,0,.68-0.09,1.44,1.44,0,0,0,.47-0.25,0.93,0.93,0,0,0,.27-0.36,1.06,1.06,0,0,0,.09-0.42,0.75,0.75,0,0,0-.19-0.53A1.69,1.69,0,0,0,12.74,10,4.91,4.91,0,0,0,12,9.74l-0.84-.27a7.65,7.65,0,0,1-.84-0.34A2.84,2.84,0,0,1,9.6,8.64a2.22,2.22,0,0,1-.51-0.73,2.54,2.54,0,0,1-.19-1,2.67,2.67,0,0,1,.22-1.08,2.54,2.54,0,0,1,.66-0.9,3.27,3.27,0,0,1,1.09-.61,4.53,4.53,0,0,1,1.51-.23,4.61,4.61,0,0,1,1.74.31,3.92,3.92,0,0,1,1.3.83Z"/></g></svg>