<svg id="Layer_1" data-name="Layer 1" xmlns="http://www.w3.org/2000/svg" viewBox="0 0 38.62 8.48"><defs><style>.cls-1{opacity:0.5;}.cls-2{fill:#999494;}</style></defs><title>code-components</title><g class="cls-1"><path class="cls-2" d="M0.69,7V3.23l-0.4-.06A0.43,0.43,0,0,1,.08,3.08,0.24,0.24,0,0,1,0,2.89V2.44H0.69V2.1A2,2,0,0,1,.81,1.39,1.44,1.44,0,0,1,1.69.52,2.1,2.1,0,0,1,2.41.4,2,2,0,0,1,3,.48V1a0.16,0.16,0,0,1-.12.16,1,1,0,0,1-.26,0,1.34,1.34,0,0,0-.35,0A0.6,0.6,0,0,0,2,1.35a0.66,0.66,0,0,0-.16.28,1.39,1.39,0,0,0-.06.43V2.37H3V3.16H1.82V7H0.69Z"/><path class="cls-2" d="M4.67,2.44V5.37a1,1,0,0,0,.2.65,0.73,0.73,0,0,0,.59.23A1.17,1.17,0,0,0,6,6.12a1.88,1.88,0,0,0,.48-0.35V2.43H7.59V7H6.91a0.27,0.27,0,0,1-.28-0.2L6.55,6.44a3.22,3.22,0,0,1-.3.26,1.73,1.73,0,0,1-.33.2A1.79,1.79,0,0,1,5.55,7a1.83,1.83,0,0,1-.43,0A1.63,1.63,0,0,1,4.45,6.9,1.32,1.32,0,0,1,4,6.54,1.56,1.56,0,0,1,3.66,6a2.35,2.35,0,0,1-.1-0.71V2.34H4.67v0.1Z"/><path class="cls-2" d="M8.76,7V2.39H9.44a0.27,0.27,0,0,1,.28.2L9.8,3a2.46,2.46,0,0,1,.29-0.26,2.11,2.11,0,0,1,.33-0.2,1.65,1.65,0,0,1,.37-0.13,1.93,1.93,0,0,1,.43,0,1.65,1.65,0,0,1,.67.13,1.32,1.32,0,0,1,.49.36,1.59,1.59,0,0,1,.3.55,2.36,2.36,0,0,1,.1.71V7H11.67V4.07a1,1,0,0,0-.2-0.65,0.72,0.72,0,0,0-.59-0.23,1.16,1.16,0,0,0-.54.13,1.93,1.93,0,0,0-.48.36V7H8.76Z"/><path class="cls-2" d="M17.13,3.42l-0.1.1a0.23,0.23,0,0,1-.14,0,0.3,0.3,0,0,1-.17,0l-0.19-.12a1.37,1.37,0,0,0-.27-0.12,1.21,1.21,0,0,0-.38,0,1.17,1.17,0,0,0-.51.11,1,1,0,0,0-.37.3,1.36,1.36,0,0,0-.22.48,2.58,2.58,0,0,0-.07.64,2.49,2.49,0,0,0,.08.66,1.4,1.4,0,0,0,.23.48,1,1,0,0,0,.36.3,1.09,1.09,0,0,0,.48.1,1.18,1.18,0,0,0,.43-0.07A1.37,1.37,0,0,0,16.57,6l0.2-.14A0.3,0.3,0,0,1,17,5.83a0.23,0.23,0,0,1,.2.1l0.32,0.41a2,2,0,0,1-.4.36,2.15,2.15,0,0,1-.45.23,2.31,2.31,0,0,1-.48.12,3.35,3.35,0,0,1-.49,0,2,2,0,0,1-.81-0.16,1.88,1.88,0,0,1-.66-0.47,2.26,2.26,0,0,1-.45-0.75,2.89,2.89,0,0,1-.16-1,2.93,2.93,0,0,1,.15-0.94A2.15,2.15,0,0,1,14.16,3a2,2,0,0,1,.7-0.5,2.42,2.42,0,0,1,1-.18,2.29,2.29,0,0,1,.91.17,2.23,2.23,0,0,1,.7.48Z"/><path class="cls-2" d="M19.69,7.13a1.21,1.21,0,0,1-.92-0.34,1.3,1.3,0,0,1-.32-0.94V3.27H18a0.21,0.21,0,0,1-.22-0.2,0.21,0.21,0,0,1,0,0V2.6l0.74-.12,0.23-1.26a0.22,0.22,0,0,1,.08-0.14,0.26,0.26,0,0,1,.16,0h0.58V2.53h1.21V3.32H19.55v2.5a0.49,0.49,0,0,0,.11.34,0.36,0.36,0,0,0,.29.12h0.17l0.12,0,0.09,0h0.16l0.07,0.07,0.33,0.54a1.68,1.68,0,0,1-.56.31A2.09,2.09,0,0,1,19.69,7.13Z"/><path class="cls-2" d="M23,1.1a0.63,0.63,0,0,1-.06.27,0.73,0.73,0,0,1-.38.37,0.7,0.7,0,0,1-.28.06A0.67,0.67,0,0,1,22,1.74a0.73,0.73,0,0,1-.22-0.15,0.76,0.76,0,0,1-.15-0.22,0.66,0.66,0,0,1-.06-0.27A0.7,0.7,0,0,1,21.65.82,0.74,0.74,0,0,1,21.8.59,0.73,0.73,0,0,1,22,.44,0.67,0.67,0,0,1,22.29.38a0.7,0.7,0,0,1,.28.06A0.72,0.72,0,0,1,23,.82,0.67,0.67,0,0,1,23,1.1ZM22.84,2.45V7H21.73V2.39h1.11V2.45Z"/><path class="cls-2" d="M26.07,2.37a2.52,2.52,0,0,1,.94.17,2,2,0,0,1,.72.47,2.08,2.08,0,0,1,.46.75,3.09,3.09,0,0,1,0,2,2.12,2.12,0,0,1-.46.75A2,2,0,0,1,27,7a2.74,2.74,0,0,1-1.88,0,2,2,0,0,1-.72-0.48A2.15,2.15,0,0,1,24,5.76a3.06,3.06,0,0,1,0-2A2.11,2.11,0,0,1,24.41,3a2,2,0,0,1,.72-0.47A2.54,2.54,0,0,1,26.07,2.37Zm0,3.9a1,1,0,0,0,.85-0.39,1.94,1.94,0,0,0,.28-1.13,2,2,0,0,0-.28-1.14,1.13,1.13,0,0,0-1.71,0,2.44,2.44,0,0,0,0,2.27A1,1,0,0,0,26.07,6.27Z"/><path class="cls-2" d="M29.21,7V2.39h0.68a0.27,0.27,0,0,1,.28.2L30.25,3a2.46,2.46,0,0,1,.29-0.26,2.11,2.11,0,0,1,.33-0.2,1.65,1.65,0,0,1,.37-0.13,1.93,1.93,0,0,1,.43,0,1.65,1.65,0,0,1,.67.13,1.32,1.32,0,0,1,.49.36,1.59,1.59,0,0,1,.3.55,2.36,2.36,0,0,1,.1.71V7H32.12V4.07a1,1,0,0,0-.2-0.65,0.72,0.72,0,0,0-.59-0.23,1.16,1.16,0,0,0-.54.13,1.93,1.93,0,0,0-.48.36V7h-1.1Z"/><path class="cls-2" d="M35.18,4.24a7.51,7.51,0,0,0,.87,3.5,0.47,0.47,0,0,1,0,.11,0.46,0.46,0,0,1,0,.09,0.23,0.23,0,0,1,0,.15,0.37,0.37,0,0,1-.11.09l-0.5.3a7.75,7.75,0,0,1-.57-1,7.34,7.34,0,0,1-.6-2.11,8.69,8.69,0,0,1,0-2.21,7.29,7.29,0,0,1,.6-2.11,7.92,7.92,0,0,1,.57-1l0.5,0.3a0.37,0.37,0,0,1,.11.09,0.22,0.22,0,0,1,0,.14,0.47,0.47,0,0,1-.06.2,7.58,7.58,0,0,0-.64,1.68A7.46,7.46,0,0,0,35.18,4.24Z"/><path class="cls-2" d="M37.69,4.24A7.6,7.6,0,0,0,36.83.73a0.47,0.47,0,0,1-.06-0.2,0.22,0.22,0,0,1,0-.14A0.36,0.36,0,0,1,36.88.3l0.5-.3A8,8,0,0,1,38,1a7.37,7.37,0,0,1,.6,2.11,8.82,8.82,0,0,1,0,2.21A7.42,7.42,0,0,1,38,7.43a7.86,7.86,0,0,1-.57,1l-0.5-.3A0.36,0.36,0,0,1,36.77,8a0.23,0.23,0,0,1,0-.15,0.39,0.39,0,0,1,0-.09,0.43,0.43,0,0,1,0-.11A7.51,7.51,0,0,0,37.69,4.24Z"/></g></svg>