<svg id="Layer_1" data-name="Layer 1" xmlns="http://www.w3.org/2000/svg" viewBox="0 0 5.46 23.15"><defs><style>.cls-1{opacity:0.5;}.cls-2{fill:#999494;}</style></defs><title>code-components</title><g class="cls-1"><path class="cls-2" d="M0,2.72A2.75,2.75,0,0,1,.21,1.66,2.53,2.53,0,0,1,.79.8,2.84,2.84,0,0,1,1.66.22,2.72,2.72,0,0,1,2.74,0,2.68,2.68,0,0,1,3.8.22,2.65,2.65,0,0,1,5.24,1.66a2.69,2.69,0,0,1-.58,3,2.59,2.59,0,0,1-.86.57,2.78,2.78,0,0,1-1.06.21,2.82,2.82,0,0,1-1.08-.21A2.7,2.7,0,0,1,.79,4.64,2.54,2.54,0,0,1,.21,3.79,2.73,2.73,0,0,1,0,2.72ZM0.13,15.27a2.37,2.37,0,0,1,.72-1.72A2.43,2.43,0,0,1,1.68,13a2.91,2.91,0,0,1,1.06-.19,2.71,2.71,0,0,1,1.19.24,2.43,2.43,0,0,1,.85.67,2.78,2.78,0,0,1,.5,1,4.07,4.07,0,0,1,.16,1.16,6.9,6.9,0,0,1-.26,1.82,9.44,9.44,0,0,1-.77,1.91,11.16,11.16,0,0,1-2.93,3.51l-0.77-.7a0.83,0.83,0,0,1-.32-0.67,0.68,0.68,0,0,1,.1-0.32,1.41,1.41,0,0,1,.24-0.32l0.49-.53a7.62,7.62,0,0,0,.58-0.72A6.92,6.92,0,0,0,2.33,19a3.94,3.94,0,0,0,.35-1,2.51,2.51,0,0,1-1-.21,2.38,2.38,0,0,1-.8-0.57,2.63,2.63,0,0,1-.52-0.85A2.91,2.91,0,0,1,.13,15.27Z"/></g></svg>