<svg id="Layer_1" data-name="Layer 1" xmlns="http://www.w3.org/2000/svg" viewBox="0 0 45.53 14.26"><defs><style>.cls-1{opacity:0.5;}.cls-2{fill:#999494;}</style></defs><title>code-components</title><g class="cls-1"><path class="cls-2" d="M0,7.23L7.52,3.31V5a0.66,0.66,0,0,1-.1.35,0.75,0.75,0,0,1-.31.27L3.66,7.37a3.08,3.08,0,0,1-.46.19l-0.52.15L3.2,7.86a3.13,3.13,0,0,1,.46.19L7.11,9.83a0.76,0.76,0,0,1,.31.27,0.66,0.66,0,0,1,.1.35v1.67L0,8.19V7.24H0Z"/><path class="cls-2" d="M17.81,14.11a0.58,0.58,0,0,1-.6-0.43L17,12.74a5.85,5.85,0,0,1-.64.62,4.07,4.07,0,0,1-.72.48,3.76,3.76,0,0,1-.83.31,4,4,0,0,1-1,.11A3.17,3.17,0,0,1,11.22,13a4.6,4.6,0,0,1-.74-1.56,7.87,7.87,0,0,1-.26-2.13,6.64,6.64,0,0,1,.29-2,4.9,4.9,0,0,1,.85-1.62,4,4,0,0,1,1.32-1.07,3.81,3.81,0,0,1,1.73-.38,3.38,3.38,0,0,1,1.4.26,3.64,3.64,0,0,1,1,.7V0h2.35V14.13H17.73Zm-3.13-1.72a2.4,2.4,0,0,0,1.25-.3,3.69,3.69,0,0,0,1-.86V6.85a2.31,2.31,0,0,0-.87-0.68,2.56,2.56,0,0,0-1-.2,2.27,2.27,0,0,0-1,.2,1.89,1.89,0,0,0-.73.6,3,3,0,0,0-.46,1,5.9,5.9,0,0,0-.16,1.47,6.51,6.51,0,0,0,.14,1.45,2.85,2.85,0,0,0,.39,1,1.5,1.5,0,0,0,.63.54,2,2,0,0,0,.81.16h0Z"/><path class="cls-2" d="M24.63,1.52a1.34,1.34,0,0,1-.12.57,1.55,1.55,0,0,1-.81.78,1.46,1.46,0,0,1-.59.12,1.41,1.41,0,0,1-.58-0.12,1.53,1.53,0,0,1-.47-0.32,1.55,1.55,0,0,1-.32-0.47,1.38,1.38,0,0,1-.12-0.57A1.47,1.47,0,0,1,21.74.92,1.5,1.5,0,0,1,22.06.44,1.52,1.52,0,0,1,22.53.12,1.42,1.42,0,0,1,23.11,0a1.47,1.47,0,0,1,.59.12,1.55,1.55,0,0,1,.48.32,1.51,1.51,0,0,1,.33.48A1.43,1.43,0,0,1,24.63,1.52ZM24.28,4.36v9.75H21.93V4.36h2.35Z"/><path class="cls-2" d="M31.81,14.11H29.68L25.8,4.36h2a0.73,0.73,0,0,1,.43.12,0.63,0.63,0,0,1,.24.31L30.3,10q0.16,0.46.27,0.89c0.07,0.29.14,0.58,0.19,0.87,0.06-.29.12-0.58,0.19-0.87A8.5,8.5,0,0,1,31.23,10l1.93-5.21a0.65,0.65,0,0,1,.24-0.31,0.68,0.68,0,0,1,.41-0.12h1.85Z"/><path class="cls-2" d="M38,12.12V10.45a0.65,0.65,0,0,1,.09-0.35,0.77,0.77,0,0,1,.31-0.27l3.45-1.78a4.54,4.54,0,0,1,1-.34l-0.52-.15a3.12,3.12,0,0,1-.46-0.19L38.41,5.6a0.77,0.77,0,0,1-.31-0.27A0.65,0.65,0,0,1,38,5V3.31l7.52,3.92V8.18Z"/></g></svg>