<svg id="Layer_1" data-name="Layer 1" xmlns="http://www.w3.org/2000/svg" viewBox="0 0 5.46 23.15"><defs><style>.cls-1{opacity:0.5;}.cls-2{fill:#999494;}</style></defs><title>code-components</title><g class="cls-1"><path class="cls-2" d="M0,2.72A2.77,2.77,0,0,1,.21,1.66,2.54,2.54,0,0,1,.79.8,2.84,2.84,0,0,1,1.66.22,2.72,2.72,0,0,1,2.74,0,2.68,2.68,0,0,1,3.8.22,2.65,2.65,0,0,1,5.24,1.66a2.74,2.74,0,0,1,0,2.13,2.74,2.74,0,0,1-.58.85,2.6,2.6,0,0,1-.86.57,2.77,2.77,0,0,1-1.06.21,2.82,2.82,0,0,1-1.08-.21A2.7,2.7,0,0,1,.79,4.64,2.54,2.54,0,0,1,.21,3.79,2.75,2.75,0,0,1,0,2.72ZM0.13,15.27a2.38,2.38,0,0,1,.72-1.72A2.44,2.44,0,0,1,1.68,13a2.91,2.91,0,0,1,1.06-.19,2.7,2.7,0,0,1,1.19.24,2.44,2.44,0,0,1,.85.67,2.79,2.79,0,0,1,.5,1,4.1,4.1,0,0,1,.16,1.16,6.91,6.91,0,0,1-.26,1.82,9.38,9.38,0,0,1-.76,1.91,11.18,11.18,0,0,1-2.93,3.51l-0.77-.7A0.84,0.84,0,0,1,.4,21.78a0.68,0.68,0,0,1,.1-0.32,1.43,1.43,0,0,1,.24-0.32l0.49-.53a7.78,7.78,0,0,0,.58-0.72A7,7,0,0,0,2.34,19a4,4,0,0,0,.35-1,2.52,2.52,0,0,1-1-.21,2.39,2.39,0,0,1-.8-0.57,2.64,2.64,0,0,1-.52-0.85A2.91,2.91,0,0,1,.13,15.27Z"/></g></svg>