<svg id="Layer_1" data-name="Layer 1" xmlns="http://www.w3.org/2000/svg" viewBox="0 0 53.87 15.8"><defs><style>.cls-1{opacity:0.5;}.cls-2{fill:#999494;}</style></defs><title>code-components</title><g class="cls-1"><path class="cls-2" d="M0.68,5.84A4.24,4.24,0,0,1,0,3.6,3.91,3.91,0,0,1,.5,1.68,5.61,5.61,0,0,1,2,0L2.74,0.47a0.34,0.34,0,0,1,.14.14,0.38,0.38,0,0,1,0,.17,0.36,0.36,0,0,1,0,.17,0.71,0.71,0,0,1-.09.14,3.55,3.55,0,0,0-.27.35,3.35,3.35,0,0,0-.27.43,2.9,2.9,0,0,0-.2.52A2.2,2.2,0,0,0,2,3a2.65,2.65,0,0,0,.11.73,3.23,3.23,0,0,0,.37.8,0.51,0.51,0,0,1,.09.28,0.46,0.46,0,0,1-.36.45Z"/><path class="cls-2" d="M4.84,15.61V5.35H6.29a0.77,0.77,0,0,1,.53.14A0.81,0.81,0,0,1,7,6L7.17,7.21a4.9,4.9,0,0,1,1.29-1.5,2.72,2.72,0,0,1,1.66-.55,2.14,2.14,0,0,1,1.26.35L11.06,7.36a0.38,0.38,0,0,1-.13.25,0.44,0.44,0,0,1-.27.08,1.68,1.68,0,0,1-.41-0.07,2.73,2.73,0,0,0-.69-0.07A2.09,2.09,0,0,0,8.24,8a3.27,3.27,0,0,0-.93,1.24v6.39H4.84Z"/><path class="cls-2" d="M17.25,5.19A5,5,0,0,1,19,5.5a3.92,3.92,0,0,1,1.41.91,4.13,4.13,0,0,1,.92,1.46,5.52,5.52,0,0,1,.33,2,3.57,3.57,0,0,1,0,.46,0.74,0.74,0,0,1-.09.29,0.36,0.36,0,0,1-.17.15,0.74,0.74,0,0,1-.28,0H14.82a3.53,3.53,0,0,0,.85,2.32,2.65,2.65,0,0,0,2,.74,3.38,3.38,0,0,0,1-.14,4.77,4.77,0,0,0,.76-0.31L20,13.07a1,1,0,0,1,.48-0.14,0.53,0.53,0,0,1,.26.06,0.57,0.57,0,0,1,.19.17l0.72,0.9a4.09,4.09,0,0,1-.92.8,5.17,5.17,0,0,1-1.07.52,5.79,5.79,0,0,1-1.13.27,8,8,0,0,1-1.12.08,5.49,5.49,0,0,1-2-.35,4.45,4.45,0,0,1-1.6-1,4.93,4.93,0,0,1-1.07-1.72,6.66,6.66,0,0,1-.39-2.37,5.68,5.68,0,0,1,.34-2,4.76,4.76,0,0,1,1-1.61A4.6,4.6,0,0,1,15.24,5.6,5.1,5.1,0,0,1,17.25,5.19Zm0,1.77a2.28,2.28,0,0,0-1.69.61,3,3,0,0,0-.78,1.73h4.64a3.07,3.07,0,0,0-.13-0.9,2.08,2.08,0,0,0-.4-0.75,1.89,1.89,0,0,0-.68-0.5A2.3,2.3,0,0,0,17.3,7H17.25Z"/><path class="cls-2" d="M31.74,15.61H30.63a1.19,1.19,0,0,1-.55-0.11,0.67,0.67,0,0,1-.3-0.42l-0.22-.73a8.42,8.42,0,0,1-.76.61,4.65,4.65,0,0,1-.78.45,3.92,3.92,0,0,1-.85.27,5.07,5.07,0,0,1-1,.09,3.92,3.92,0,0,1-1.2-.18A2.6,2.6,0,0,1,24,15.06a2.4,2.4,0,0,1-.62-0.87A3.11,3.11,0,0,1,23.18,13a2.39,2.39,0,0,1,.31-1.15,2.87,2.87,0,0,1,1-1A6.49,6.49,0,0,1,26.38,10a12.1,12.1,0,0,1,2.93-.3V9.15a2.3,2.3,0,0,0-.44-1.54,1.59,1.59,0,0,0-1.26-.5,3.08,3.08,0,0,0-1,.14,3.85,3.85,0,0,0-.7.32l-0.54.31a1.1,1.1,0,0,1-.55.14,0.72,0.72,0,0,1-.43-0.13,1,1,0,0,1-.29-0.32l-0.45-.79a6.1,6.1,0,0,1,4.27-1.62,4.14,4.14,0,0,1,1.61.29,3.4,3.4,0,0,1,1.19.82,3.5,3.5,0,0,1,.75,1.25,4.82,4.82,0,0,1,.25,1.6V15.6h0Zm-4.8-1.54a3.33,3.33,0,0,0,.7-0.07,2.7,2.7,0,0,0,.61-0.21,3.29,3.29,0,0,0,.55-0.34A5.08,5.08,0,0,0,29.34,13V11.26a10,10,0,0,0-1.81.14,4.76,4.76,0,0,0-1.17.35,1.51,1.51,0,0,0-.62.49,1.1,1.1,0,0,0-.18.61,1.08,1.08,0,0,0,.38.94,1.66,1.66,0,0,0,1,.28h0Z"/><path class="cls-2" d="M41.38,7.52a1.25,1.25,0,0,1-.21.22,0.49,0.49,0,0,1-.3.08A0.68,0.68,0,0,1,40.5,7.7l-0.43-.26a3.2,3.2,0,0,0-.59-0.26,2.73,2.73,0,0,0-.86-0.12,2.61,2.61,0,0,0-1.14.23,2.16,2.16,0,0,0-.82.68A3,3,0,0,0,36.17,9,5.73,5.73,0,0,0,36,10.45,5.53,5.53,0,0,0,36.18,12a3.12,3.12,0,0,0,.5,1.08,2.17,2.17,0,0,0,.8.66,2.43,2.43,0,0,0,1.06.22,2.63,2.63,0,0,0,1-.14,3,3,0,0,0,.62-0.32l0.44-.32A0.66,0.66,0,0,1,41,13a0.5,0.5,0,0,1,.45.23l0.71,0.9a4.42,4.42,0,0,1-.89.8,4.8,4.8,0,0,1-1,.52,5,5,0,0,1-1.06.27,7.51,7.51,0,0,1-1.09.08,4.55,4.55,0,0,1-1.79-.35,4.18,4.18,0,0,1-1.47-1,5,5,0,0,1-1-1.67,6.41,6.41,0,0,1-.37-2.25,6.52,6.52,0,0,1,.33-2.09,4.73,4.73,0,0,1,1-1.67A4.38,4.38,0,0,1,36.4,5.66a5.37,5.37,0,0,1,2.14-.4,5.09,5.09,0,0,1,2,.37,4.92,4.92,0,0,1,1.55,1.06Z"/><path class="cls-2" d="M47.08,15.77a2.7,2.7,0,0,1-2-.76,2.9,2.9,0,0,1-.72-2.08V7.2h-1a0.47,0.47,0,0,1-.49-0.45,0.46,0.46,0,0,1,0-.07v-1l1.65-.27L45,2.61a0.49,0.49,0,0,1,.19-0.31,0.59,0.59,0,0,1,.36-0.11h1.28V5.42h2.7V7.18h-2.7v5.56a1.09,1.09,0,0,0,.24.75,0.81,0.81,0,0,0,.64.27,1.17,1.17,0,0,0,.38,0l0.27-.12,0.21-.12a0.35,0.35,0,0,1,.18,0,0.29,0.29,0,0,1,.18,0,0.89,0.89,0,0,1,.15.17l0.74,1.2a3.75,3.75,0,0,1-1.24.68A4.62,4.62,0,0,1,47.08,15.77Z"/><path class="cls-2" d="M53.18,0.29a4.55,4.55,0,0,1,.52,1.12,4,4,0,0,1,.17,1.12,3.89,3.89,0,0,1-.5,1.91,5.83,5.83,0,0,1-1.46,1.68l-0.77-.47A0.34,0.34,0,0,1,51,5.5a0.38,0.38,0,0,1,0-.17A0.43,0.43,0,0,1,51.13,5l0.28-.35a3.13,3.13,0,0,0,.26-0.43,2.65,2.65,0,0,0,.2-0.51,2.32,2.32,0,0,0,.07-0.6,2.64,2.64,0,0,0-.11-0.72,3.42,3.42,0,0,0-.37-0.82A0.46,0.46,0,0,1,51.74.86Z"/></g></svg>