<svg id="Layer_1" data-name="Layer 1" xmlns="http://www.w3.org/2000/svg" viewBox="0 0 5.46 20.55"><defs><style>.cls-1{opacity:0.5;}.cls-2{fill:#ed3429;}</style></defs><title>code-components</title><g class="cls-1"><path class="cls-2" d="M0,2.42a2.23,2.23,0,0,1,.21-1A2.26,2.26,0,0,1,.79.7,2.92,2.92,0,0,1,1.66.19,3,3,0,0,1,2.74,0,3,3,0,0,1,3.8.19,2.79,2.79,0,0,1,4.66.7a2.43,2.43,0,0,1,.58.77,2.2,2.2,0,0,1,0,1.9,2.45,2.45,0,0,1-.58.76,2.65,2.65,0,0,1-.86.5,3.09,3.09,0,0,1-1.06.18,3.14,3.14,0,0,1-1.08-.18,2.76,2.76,0,0,1-.87-0.5A2.28,2.28,0,0,1,.21,3.37,2.21,2.21,0,0,1,0,2.42ZM0.1,13.59a1.91,1.91,0,0,1,.19-0.84,2.12,2.12,0,0,1,.53-0.69,2.5,2.5,0,0,1,.83-0.46,3.22,3.22,0,0,1,1.06-.17,3,3,0,0,1,1.19.22,2.43,2.43,0,0,1,.85.59,2.4,2.4,0,0,1,.5.87,3.27,3.27,0,0,1,.16,1,5.51,5.51,0,0,1-.26,1.62,7.87,7.87,0,0,1-.77,1.7,9.91,9.91,0,0,1-1.24,1.65,10.61,10.61,0,0,1-1.69,1.47l-0.77-.62a0.72,0.72,0,0,1-.32-0.59,0.56,0.56,0,0,1,.1-0.29A1.25,1.25,0,0,1,.7,18.76l0.49-.47a7,7,0,0,0,.58-0.64,6.22,6.22,0,0,0,.53-0.78A3.27,3.27,0,0,0,2.65,16a2.77,2.77,0,0,1-1-.18,2.4,2.4,0,0,1-.8-0.5A2.32,2.32,0,0,1,.1,13.59Z"/></g></svg>