<svg id="Layer_1" data-name="Layer 1" xmlns="http://www.w3.org/2000/svg" viewBox="0 0 9 29.72"><defs><style>.cls-1{opacity:0.5;}.cls-2{fill:#ed3429;}</style></defs><title>code-components</title><g class="cls-1"><path class="cls-2" d="M6.84,18.22A9.77,9.77,0,0,0,7,19.73q0.12,0.75.27,1.51T7.5,22.75a10.26,10.26,0,0,1,.12,1.55,6,6,0,0,1-.4,2.22A4.39,4.39,0,0,1,6,28.23a5.72,5.72,0,0,1-2.07,1.1A9.87,9.87,0,0,1,1,29.72H0V28a0.68,0.68,0,0,1,.1-0.37,0.78,0.78,0,0,1,.25-0.26,1.27,1.27,0,0,1,.32-0.14,1,1,0,0,1,.29,0H1.12a2.53,2.53,0,0,0,1.93-.71,2.69,2.69,0,0,0,.67-1.92,12.7,12.7,0,0,0-.11-1.69q-0.11-.81-0.22-1.57c-0.08-.51-0.15-1-0.23-1.5a10.21,10.21,0,0,1-.11-1.49,3.45,3.45,0,0,1,.19-1.14,3.31,3.31,0,0,1,.55-1,3.54,3.54,0,0,1,.88-0.78,4.32,4.32,0,0,1,1.17-.5,3.83,3.83,0,0,1-1.17-.5,3.75,3.75,0,0,1-.88-0.78,3.19,3.19,0,0,1-.55-1,3.49,3.49,0,0,1-.19-1.15A10.21,10.21,0,0,1,3.16,10c0.07-.49.15-1,0.23-1.5s0.15-1,.22-1.57a12.7,12.7,0,0,0,.11-1.69,2.71,2.71,0,0,0-.67-1.94,2.52,2.52,0,0,0-1.93-.71H1a1,1,0,0,1-.29,0A1.25,1.25,0,0,1,.35,2.44,0.8,0.8,0,0,1,.1,2.19,0.64,0.64,0,0,1,0,1.83V0H1A9.89,9.89,0,0,1,3.94.39,5.65,5.65,0,0,1,6,1.5,4.45,4.45,0,0,1,7.22,3.22a6,6,0,0,1,.4,2.22A10.26,10.26,0,0,1,7.5,7q-0.12.76-.27,1.51T7,10a9.62,9.62,0,0,0-.12,1.5,2.41,2.41,0,0,0,.51,1.59A2,2,0,0,0,9,13.71V16a2,2,0,0,0-1.65.62A2.41,2.41,0,0,0,6.84,18.22Z"/></g></svg>