<svg id="Layer_1" data-name="Layer 1" xmlns="http://www.w3.org/2000/svg" viewBox="0 0 11.95 39.61"><defs><style>.cls-1{opacity:0.5;}.cls-2{fill:#ed3429;}</style></defs><title>code-components</title><g class="cls-1"><path class="cls-2" d="M2.88,24.27a3.21,3.21,0,0,0-.68-2.12A2.7,2.7,0,0,0,0,21.33v-3a2.7,2.7,0,0,0,2.2-.82,3.21,3.21,0,0,0,.68-2.1,12.86,12.86,0,0,0-.16-2q-0.16-1-.36-2T2,9.36A13.47,13.47,0,0,1,1.84,7.3a8,8,0,0,1,.53-3A5.92,5.92,0,0,1,4,2,7.52,7.52,0,0,1,6.75.52,13.16,13.16,0,0,1,10.67,0h1.27V2.36a0.87,0.87,0,0,1-.13.48,1.09,1.09,0,0,1-.34.33,1.73,1.73,0,0,1-.42.19,1.36,1.36,0,0,1-.38.06H10.45a3.36,3.36,0,0,0-2.57.94A3.61,3.61,0,0,0,7,6.94a17,17,0,0,0,.14,2.25q0.14,1.08.3,2.09t0.3,2a13.72,13.72,0,0,1,.14,2,4.66,4.66,0,0,1-.25,1.54,4.15,4.15,0,0,1-.74,1.31,5.34,5.34,0,0,1-1.18,1,5,5,0,0,1-1.55.66,5.54,5.54,0,0,1,1.55.67,5,5,0,0,1,1.18,1,4.27,4.27,0,0,1,.74,1.32,4.59,4.59,0,0,1,.26,1.58,13.73,13.73,0,0,1-.14,2q-0.14,1-.3,2t-0.3,2.09A17,17,0,0,0,7,32.7a3.58,3.58,0,0,0,.89,2.56,3.37,3.37,0,0,0,2.57.94h0.22a1.36,1.36,0,0,1,.38.06,1.69,1.69,0,0,1,.42.19,1,1,0,0,1,.34.34,0.92,0.92,0,0,1,.13.49v2.33H10.68a13.16,13.16,0,0,1-3.92-.52A7.64,7.64,0,0,1,4,37.62a5.84,5.84,0,0,1-1.62-2.29,8,8,0,0,1-.53-3A13.49,13.49,0,0,1,2,30.27q0.16-1,.36-2t0.36-2A13,13,0,0,0,2.88,24.27Z"/></g></svg>