<svg id="Layer_1" xmlns="http://www.w3.org/2000/svg" viewBox="-105 197 400 400"><style>.st0{fill:#231F20;}</style><path class="st0" d="M9.6 316.8c5.9 0 10.6-4.8 10.6-10.6 0-5.9-4.8-10.6-10.6-10.6S-1 300.3-1 306.1c-.1 5.8 4.7 10.7 10.6 10.7zm0-15.4c2.6 0 4.6 2.1 4.6 4.6s-2.1 4.6-4.6 4.6S5 308.5 5 306s2-4.6 4.6-4.6zm45.3 15.4c5.9 0 10.6-4.8 10.6-10.6 0-5.9-4.8-10.6-10.6-10.6s-10.6 4.8-10.6 10.6c-.1 5.7 4.7 10.6 10.6 10.6zm0-15.4c2.6 0 4.6 2.1 4.6 4.6s-2.1 4.6-4.6 4.6-4.6-2.1-4.6-4.6 2-4.6 4.6-4.6zm38.5 15.4c5.9 0 10.6-4.8 10.6-10.6 0-5.9-4.8-10.6-10.6-10.6s-10.6 4.8-10.6 10.6c0 5.7 4.7 10.6 10.6 10.6zm0-15.4c2.6 0 4.6 2.1 4.6 4.6s-2.1 4.6-4.6 4.6c-2.6 0-4.6-2.1-4.6-4.6s2-4.6 4.6-4.6z"/><path class="st0" d="M255.8 255.7H-17.5c-19.5 0-35.3 15.8-35.3 35.3v18.8h-25.8c-12.5 0-22.7 10.2-22.7 22.7V467c0 12.5 10.2 22.7 22.7 22.7h25.8v13.2c0 19.5 15.9 35.4 35.4 35.4h273.2c19.5 0 35.4-15.9 35.4-35.4V291c-.1-19.5-15.8-35.3-35.4-35.3zM-46.8 291c0-16.2 13.1-29.3 29.3-29.3h273.2c16.2 0 29.4 13.2 29.4 29.4v57.3H-46.8V291zm-31.8 24.8h25.8L-53 351v.7l-.1 14.3h-41.1c-.4 0-.8.1-1.1.2v-33.7c-.1-9.2 7.4-16.7 16.7-16.7zm0 167.9c-9.2 0-16.7-7.5-16.7-16.7v-95.2c.3.1.7.2 1.1.2h41l-.8 111.6-24.6.1zm334.4 48.5H-17.5c-16.2 0-29.4-13.2-29.4-29.4V354.3H285v148.5c.1 16.2-13.1 29.3-29.2 29.4z"/><path class="st0" d="M126.4 398.3H2.8c-1.7 0-3 1.3-3 3s1.3 3 3 3h123.5c1.7 0 3-1.3 3-3s-1.3-3-2.9-3zm0 32.5H2.8c-1.7 0-3 1.3-3 3s1.3 3 3 3h123.5c1.7 0 3-1.3 3-3 0-1.8-1.3-3-2.9-3zM79.3 463H2.8c-1.7 0-3 1.3-3 3s1.3 3 3 3h76.5c1.7 0 3-1.3 3-3s-1.3-3-3-3zM-66.9 345.5c3.9 0 7.1-3.2 7.1-7.1s-3.2-7.1-7.1-7.1-7.1 3.2-7.1 7.1 3.2 7.1 7.1 7.1zm309.8 49.9l-.3-.3c-.5-.7-1.4-1.2-2.4-1.2h-64.7c-.2 0-.4 0-.6.1-.1 0-.2.1-.3.1-.1 0-.2.1-.3.1-.1 0-.2.1-.3.2-.1 0-.1.1-.2.1-.3.2-.6.5-.8.8 0 .1-.1.1-.1.2-.1.1-.1.2-.2.3 0 .1-.1.2-.1.3 0 .1-.1.2-.1.3 0 .2-.1.4-.1.6v66.2c0 .1.1.2.1.3s.1.2.1.3.1.2.2.3c0 .1.1.1.1.2.1.2.2.3.4.4.1.1.3.3.5.4.1 0 .1.1.2.1.1.1.2.1.3.2.1 0 .2.1.3.1.1 0 .2.1.3.1.2 0 .4.1.6.1h64.7c.6 0 1.2-.2 1.6-.5.4-.1.8-.4 1.1-.7 1.1-1.1 1.2-2.7.3-3.9v-61.2c.8-1.3.8-3-.3-4zm-38.8 34.4l-25.6 25.5v-51.1l25.6 25.6zM182.8 400h51.4l-25.7 25.6-25.7-25.6zm25.6 34l25.5 25.5h-51.1l25.6-25.5zm4.2-4.1l24.6-24.5v49.1l-24.6-24.6z"/></svg>