<svg id="Asurion" xmlns="http://www.w3.org/2000/svg" viewBox="0 0 89.58 29"><defs><style>.cls-1{fill:#909c9d;}</style></defs><title>Untitled-1</title><path class="cls-1" d="M28.14,12.71v4.21a5.42,5.42,0,0,1-.4,2.68,2.19,2.19,0,0,1-1.92,1.05A1.75,1.75,0,0,1,24,19.4a3.63,3.63,0,0,1-.08-1V14.07a1.42,1.42,0,0,0-1.27-1.35H21.49v5.73c0,1.49,0,2.42.67,3.27a3.26,3.26,0,0,0,2.76,1.15,4.39,4.39,0,0,0,3.21-1.25h0a1,1,0,0,0,1,1h1.4V12.71H28.14Z"/><path class="cls-1" d="M43.06,9.78a1.39,1.39,0,1,1-1.39-1.39,1.39,1.39,0,0,1,1.39,1.39"/><path class="cls-1" d="M6.56,21.86h0s0,0.06,0,.11a0.77,0.77,0,0,0,.68.67H9.44A2.08,2.08,0,0,1,9,21V15.77c0-1.07,0-2-1.19-2.72a6,6,0,0,0-3-.63c-0.64,0-3,0-3.95,1.73A2.83,2.83,0,0,0,.57,15l2.37,0.49a1,1,0,0,1,.23-0.6,2.11,2.11,0,0,1,1.77-.63,1.46,1.46,0,0,1,1.58.8A0.65,0.65,0,0,1,6,16c-0.48.13-1,.24-2.43,0.54A4.07,4.07,0,0,0,.36,18.43,3,3,0,0,0,0,19.78c0,1.7,1.35,3.09,3.59,3.09A4.67,4.67,0,0,0,6.56,21.86Zm-2.4-1c-1,0-1.61-.4-1.61-1.17,0-1.05,1.13-1.25,2-1.37a6.85,6.85,0,0,0,2.08-.6v1.09a2,2,0,0,1-.14.89,2.46,2.46,0,0,1-2.32,1.15"/><path class="cls-1" d="M49.91,12.42a5,5,0,0,0-5.06,5.22A5,5,0,0,0,50,22.93a5,5,0,0,0,5-5.3,5,5,0,0,0-5.14-5.22M50,20.75c-1.43,0-2.68-1.13-2.68-3.17,0-1.82,1.07-3,2.56-3,1.67,0,2.62,1.39,2.66,3S51.74,20.75,50,20.75"/><path class="cls-1" d="M18.8,17.79c-0.59-.55-1.15-0.7-3.18-1.25-1.24-.33-2-0.59-1.9-1.3,0-.51.6-1,1.73-0.86a3,3,0,0,1,2,.86L19,13.78l-0.08-.06a5.62,5.62,0,0,0-3.18-1.23c-2.71-.24-4.36,1.17-4.51,2.85-0.08.89,0.25,2.17,2.55,2.93,0.35,0.13,1.94.57,2.27,0.68a1.06,1.06,0,0,1,1,.95c0,0.49-.71,1.11-2.07,1a3.53,3.53,0,0,1-2.43-1.12l-1.74,1.34A6.48,6.48,0,0,0,14.89,23c3.06,0.27,4.61-1.45,4.74-3a2.69,2.69,0,0,0-.82-2.18"/><path class="cls-1" d="M35.4,14.12V13.81a1.18,1.18,0,0,0-1.13-1.1H33.1v9.92h2.3V19c0-1.65,0-2.66,1-3.43a3.63,3.63,0,0,1,2.14-.6V12.5a3.08,3.08,0,0,0-3.17,1.63"/><path class="cls-1" d="M41.62,12.71a1.18,1.18,0,0,0-1.13,1.18h0v8.74h2.36V12.71H41.62Z"/><path class="cls-1" d="M65,13.61a3.25,3.25,0,0,0-2.6-1.19,4.12,4.12,0,0,0-2.28.69,2.76,2.76,0,0,0-.78.77h0a1.18,1.18,0,0,0-1.13-1.18H57v9.92h2.4V18.33a5.68,5.68,0,0,1,.38-2.48,2.08,2.08,0,0,1,1.83-1.11,1.62,1.62,0,0,1,1.63,1.33,7,7,0,0,1,.08,1.51v4.07a1,1,0,0,0,1,1h1.4V16.8A5.21,5.21,0,0,0,65,13.61"/><path class="cls-1" d="M71.19,24.09a10.64,10.64,0,0,1-1.06-1.72V22.31a10.23,10.23,0,0,0,1.43-6.6,11.45,11.45,0,0,0-1-3.68l0-.06,0,0a10.93,10.93,0,0,1,1.26-1.68l0.08-.09,0,0.12a4.27,4.27,0,0,0,.31,1,13.25,13.25,0,0,1,1.13,4.26,12.28,12.28,0,0,1-1.77,7.86,4.13,4.13,0,0,0-.31.67l0,0.1Z"/><path class="cls-1" d="M78.33,27.56a11.15,11.15,0,0,1-1.16-.06H77.07l0.07-.09A4.11,4.11,0,0,0,77.4,27a13.24,13.24,0,0,1,2.83-3.09,15.7,15.7,0,0,1,7.48-3.56h0a4.18,4.18,0,0,0,.76-0.19l0.12,0,0,0.12a11,11,0,0,1-.91,2v0h0a13.93,13.93,0,0,0-6.2,3.07A12.84,12.84,0,0,0,79.3,27.5l0,0h0c-0.31,0-.62,0-0.92,0"/><path class="cls-1" d="M88.11,13.61l-0.16,0a15.62,15.62,0,0,1-9.3-5.34L78.21,7.7l-0.09-.11H78.5a10.92,10.92,0,0,1,2.21.23h0a13.9,13.9,0,0,0,6,3.63h0a10.86,10.86,0,0,1,1.35,2l0.05,0.11Z"/><path class="cls-1" d="M73.83,27.44a1.07,1.07,0,0,1-.54-0.15l-0.06,0,0,0a1.08,1.08,0,0,1-.27-1.44L73,25.58l0.05-.08v0A16.84,16.84,0,0,0,75.35,15a18.27,18.27,0,0,0-1.56-5.89,1.07,1.07,0,0,1,.53-1.41,1,1,0,0,1,.44-0.1,1.08,1.08,0,0,1,.53.14h0l0.05,0,0,0,0,0a1,1,0,0,1,.2.19L76.2,8.69a20.93,20.93,0,0,0,12.48,7.13h0l0.1,0a1.07,1.07,0,0,1,.75,1,0.62,0.62,0,0,1,0,.1v0.12l0,0.08v0l0,0.07,0,0.09h0l0,0.07v0l0,0.06,0,0,0,0.05-0.06.06-0.07.06,0,0h0l-0.07,0h0l-0.07,0h0l-0.07,0-0.09,0-0.09,0H88.66a21.06,21.06,0,0,0-10.13,4.78,18.71,18.71,0,0,0-3.61,3.89v0l-0.07.13-0.09.16a1.07,1.07,0,0,1-.92.53M77.39,14c0,0.29.06,0.52,0.08,0.73a20.69,20.69,0,0,1-.11,5L77.18,21l1-.79a23.33,23.33,0,0,1,4.9-2.87l1.12-.48-1.12-.49a23.13,23.13,0,0,1-4.88-2.87l-1-.77Z"/></svg>