<?xml version="1.0" encoding="utf-8"?>
<!-- Generator: Adobe Illustrator 19.1.0, SVG Export Plug-In . SVG Version: 6.00 Build 0)  -->
<svg version="1.1" id="Asurion" xmlns="http://www.w3.org/2000/svg" xmlns:xlink="http://www.w3.org/1999/xlink" x="0px" y="0px"
	 viewBox="30 0.6 89.5 20" style="enable-background:new 30 0.6 89.5 20;" xml:space="preserve">
<style type="text/css">
	.st0{fill:#909C9D;}
</style>
<title>Untitled-1</title>
<path class="st0" d="M58.1,5.7v4.2c0.1,0.9,0,1.8-0.4,2.7c-0.4,0.7-1.1,1.1-1.9,1c-0.8,0.1-1.6-0.5-1.8-1.2c-0.1-0.3-0.1-0.7-0.1-1
	V7.1c0-0.7-0.6-1.3-1.3-1.4h-1.2v5.7c0,1.5,0,2.4,0.7,3.3c0.7,0.8,1.7,1.2,2.8,1.1c1.2,0,2.4-0.4,3.2-1.2l0,0c0,0.6,0.4,1,1,1h1.4
	V5.7H58.1z"/>
<path class="st0" d="M73.1,2.8c0,0.8-0.6,1.4-1.4,1.4c-0.8,0-1.4-0.6-1.4-1.4c0-0.8,0.6-1.4,1.4-1.4l0,0C72.4,1.4,73.1,2,73.1,2.8"
	/>
<path class="st0" d="M36.6,14.9L36.6,14.9c0,0,0,0.1,0,0.1c0,0.4,0.3,0.6,0.7,0.7h2.2c-0.4-0.5-0.5-1.1-0.4-1.6V8.8
	c0-1.1,0-2-1.2-2.7c-0.9-0.5-2-0.7-3-0.6c-0.6,0-3,0-4,1.7c-0.1,0.3-0.2,0.6-0.3,0.9l2.4,0.5c0-0.2,0.1-0.4,0.2-0.6
	c0.5-0.5,1.1-0.7,1.8-0.6c0.6-0.1,1.3,0.2,1.6,0.8c0.2,0.3,0,0.7-0.3,0.9C36.2,9,36.1,9,36,9c-0.5,0.1-1,0.2-2.4,0.5
	c-1.3,0.1-2.5,0.8-3.2,1.9c-0.2,0.4-0.3,0.9-0.4,1.4c0,1.7,1.4,3.1,3.6,3.1C34.7,15.9,35.7,15.5,36.6,14.9z M34.2,13.9
	c-1,0-1.6-0.4-1.6-1.2c0-1,1.1-1.2,2-1.4c0.7-0.1,1.4-0.3,2.1-0.6v1.1c0,0.3,0,0.6-0.1,0.9C36,13.5,35.1,13.9,34.2,13.9"/>
<path class="st0" d="M79.9,5.4c-2.8,0-5,2.2-5.1,4.9c0,0.1,0,0.2,0,0.3c-0.2,2.8,1.9,5.1,4.7,5.3c0.2,0,0.3,0,0.5,0c2.8,0,5-2.2,5-5
	c0-0.1,0-0.2,0-0.3c0.1-2.8-2-5.1-4.8-5.2C80.1,5.4,80,5.4,79.9,5.4 M80,13.8c-1.4,0-2.7-1.1-2.7-3.2c0-1.8,1.1-3,2.6-3
	c1.7,0,2.6,1.4,2.7,3S81.7,13.8,80,13.8"/>
<path class="st0" d="M48.8,10.8c-0.6-0.5-1.1-0.7-3.2-1.2c-1.2-0.3-2-0.6-1.9-1.3c0-0.5,0.6-1,1.7-0.9c0.8,0,1.5,0.3,2,0.9L49,6.8
	l-0.1-0.1c-0.9-0.7-2-1.2-3.2-1.2c-2.7-0.2-4.4,1.2-4.5,2.9c-0.1,0.9,0.2,2.2,2.5,2.9c0.4,0.1,1.9,0.6,2.3,0.7c0.5,0,0.9,0.4,1,1
	c0,0.5-0.7,1.1-2.1,1c-0.9,0-1.8-0.4-2.4-1.1l-1.7,1.3c1.1,1.1,2.5,1.8,4.1,1.9c3.1,0.3,4.6-1.5,4.7-3
	C49.7,12.2,49.4,11.4,48.8,10.8"/>
<path class="st0" d="M65.4,7.1V6.8c0-0.6-0.5-1.1-1.1-1.1h-1.2v9.9h2.3V12c0-1.6,0-2.7,1-3.4C67,8.2,67.8,7.9,68.5,8V5.5
	C67.2,5.3,66,6,65.4,7.1"/>
<path class="st0" d="M71.6,5.7c-0.6,0-1.1,0.5-1.1,1.2l0,0v8.7h2.4V5.7H71.6z"/>
<path class="st0" d="M95,6.6c-0.6-0.8-1.6-1.2-2.6-1.2c-0.8,0-1.6,0.2-2.3,0.7c-0.3,0.2-0.6,0.5-0.8,0.8l0,0c0-0.6-0.5-1.2-1.1-1.2
	H87v9.9h2.4v-4.3c-0.1-0.8,0.1-1.7,0.4-2.5c0.4-0.7,1.1-1.1,1.8-1.1c0.8,0,1.5,0.5,1.6,1.3c0.1,0.5,0.1,1,0.1,1.5v4.1
	c0,0.6,0.4,1,1,1h1.4V9.8C95.8,8.7,95.6,7.6,95,6.6"/>
<path class="st0" d="M101.2,17.1c-0.4-0.5-0.8-1.1-1.1-1.7v-0.1c1.2-2,1.7-4.3,1.4-6.6c-0.1-1.3-0.5-2.5-1-3.7V5l0,0
	c0.4-0.6,0.8-1.2,1.3-1.7l0.1-0.1v0.1c0.1,0.3,0.2,0.7,0.3,1c0.6,1.3,1,2.8,1.1,4.3c0.3,2.7-0.3,5.5-1.8,7.9
	C101.4,16.7,101.3,16.9,101.2,17.1l0.1,0.1L101.2,17.1z"/>
<path class="st0" d="M108.3,20.6c-0.4,0-0.8,0-1.2-0.1h-0.1l0.1-0.1c0.1-0.1,0.2-0.3,0.3-0.4c0.8-1.2,1.7-2.2,2.8-3.1
	c2.1-1.8,4.7-3.1,7.5-3.6l0,0c0.3,0,0.5-0.1,0.8-0.2h0.1v0.1c-0.2,0.7-0.5,1.4-0.9,2l0,0l0,0c-2.3,0.5-4.4,1.5-6.2,3.1
	c-0.8,0.6-1.5,1.3-2.2,2.1l0,0l0,0C109,20.5,108.7,20.5,108.3,20.6"/>
<path class="st0" d="M118.1,6.6h-0.2c-3.6-0.6-6.9-2.5-9.3-5.3l-0.4-0.6l-0.1-0.1h0.4c0.7,0,1.5,0.1,2.2,0.2l0,0
	c1.7,1.7,3.7,3,6,3.6l0,0c0.5,0.6,1,1.3,1.3,2L118.1,6.6L118.1,6.6z"/>
<path class="st0" d="M103.8,20.4c-0.2,0-0.4-0.1-0.5-0.1h-0.1l0,0c-0.5-0.3-0.6-1-0.3-1.4l0-0.3l0.1-0.1l0,0
	c1.9-3.2,2.7-6.8,2.3-10.5c-0.2-2-0.7-4-1.6-5.9c-0.2-0.5,0-1.2,0.5-1.4c0.1-0.1,0.3-0.1,0.4-0.1c0.2,0,0.4,0,0.5,0.1l0,0h0.1l0,0
	l0,0c0.1,0.1,0.1,0.1,0.2,0.2l0.7,0.8c3.2,3.8,7.6,6.3,12.5,7.1l0,0h0.1c0.4,0.1,0.7,0.5,0.8,1c0,0,0,0.1,0,0.1V10v0.1l0,0v0.1v0.1
	l0,0v0.1l0,0v0.1l0,0v0l-0.1,0.1l-0.1,0.1l0,0l0,0h-0.1l0,0h-0.1l0,0h-0.1h-0.1H119h-0.3c-3.7,0.6-7.2,2.3-10.1,4.8
	c-1.4,1.1-2.6,2.4-3.6,3.9l0,0l-0.1,0.1l-0.1,0.2c-0.2,0.3-0.5,0.5-0.9,0.5 M107.4,7c0,0.3,0.1,0.5,0.1,0.7c0.2,1.7,0.1,3.3-0.1,5
	l-0.2,1.3l1-0.8c1.5-1.2,3.2-2.1,4.9-2.9l1.1-0.5l-1.1-0.5c-1.7-0.8-3.4-1.7-4.9-2.9l-1-0.8L107.4,7z"/>
</svg>
