<?xml version="1.0" encoding="utf-8"?>
<!-- Generator: Adobe Illustrator 19.1.0, SVG Export Plug-In . SVG Version: 6.00 Build 0)  -->
<svg version="1.1" id="Brightbytes" xmlns="http://www.w3.org/2000/svg" xmlns:xlink="http://www.w3.org/1999/xlink" x="0px"
	 y="0px" viewBox="46 -3.1 121.5 24" style="enable-background:new 46 -3.1 121.5 24;" xml:space="preserve">
<style type="text/css">
	.st0{fill:#909C9D;}
</style>
<title>Untitled-1</title>
<path class="st0" d="M74.5,17.4c0,0.6-0.4,1-1,1h-4.9c-0.6,0-1-0.4-1-1s0.4-1,1-1h4.9C74,16.4,74.5,16.8,74.5,17.4"/>
<path class="st0" d="M73.2,19.9c0,0.6-0.4,1-1,1H70c-0.6,0-1-0.4-1-1s0.4-1,1-1h2.2C72.7,18.9,73.2,19.4,73.2,19.9"/>
<path class="st0" d="M58.8,17.4c0,0.6-0.4,1-1,1h-4.9c-0.6,0-1-0.4-1-1s0.4-1,1-1h4.9C58.3,16.4,58.8,16.8,58.8,17.4"/>
<path class="st0" d="M57.5,19.9c0,0.6-0.4,1-1,1h-2.2c-0.6,0-1-0.4-1-1s0.4-1,1-1h2.2C57,18.9,57.5,19.4,57.5,19.9"/>
<path class="st0" d="M71.2-3.1c-2.4,0-4.7,0.9-6.4,2.6c0.6,0.6,1.2,1.3,1.6,2.1c2.5-2.7,6.7-2.8,9.4-0.2s2.8,6.7,0.2,9.4
	c-2.5,2.7-6.7,2.8-9.4,0.2c-1.3-1.2-2.1-3-2.1-4.8V6l0,0c-0.1-5.1-4.4-9.2-9.5-9.1C50-2.9,45.9,1.3,46,6.4c0.1,5.1,4.4,9.2,9.5,9.1
	c2.3-0.1,4.6-1,6.2-2.6c-0.6-0.6-1.2-1.3-1.6-2.1c-2.5,2.7-6.7,2.8-9.4,0.2S48,4.3,50.5,1.6s6.7-2.8,9.4-0.2c1.3,1.2,2.1,3,2.1,4.8
	v0.1l0,0c0.1,5.1,4.3,9.2,9.4,9.2c5.1-0.1,9.2-4.3,9.2-9.4C80.4,1,76.2-3.1,71.2-3.1"/>
<path class="st0" d="M92.8,8.6c0-1.1,0-2-0.1-2.8h1.4l0.1,1.8h0.1c0.3-1.1,1.3-1.9,2.5-2c0.1,0,0.3,0,0.4,0v1.5c-0.2,0-0.4,0-0.6,0
	c-1.1,0-2.1,0.9-2.2,2.1c0,0.2-0.1,0.5,0,0.8v4.8h-1.6V8.6z"/>
<rect x="98.4" y="5.8" class="st0" width="1.6" height="8.9"/>
<path class="st0" d="M107.8,9.4c0-0.2,0-0.5-0.1-0.7c-0.3-1-1.2-1.8-2.3-1.7c-1.5,0-2.7,1.3-2.7,3.4c0,1.8,0.9,3.2,2.6,3.2
	c1,0,1.9-0.7,2.2-1.7c0.1-0.3,0.1-0.6,0.1-0.9V9.4z M109.5,13.5c0,2.1-0.4,3.3-1.3,4.1c-0.9,0.7-2.1,1.1-3.3,1.1c-1,0-2.1-0.2-3-0.7
	l0.4-1.3c0.8,0.5,1.7,0.7,2.6,0.7c1.7,0,2.9-0.9,2.9-3.1v-1l0,0c-0.6,1-1.7,1.6-2.8,1.5c-2.2,0-3.8-1.9-3.8-4.4c0-3,2-4.7,4-4.7
	c1.2-0.1,2.2,0.5,2.8,1.5l0,0l0.1-1.4h1.4c-0.1,0.6-0.1,1.4-0.1,2.4L109.5,13.5L109.5,13.5z"/>
<path class="st0" d="M110.9,1.7h1.6v5.6l0,0c0.3-0.5,0.7-0.9,1.2-1.2c0.5-0.3,1.1-0.4,1.7-0.4c1.2,0,3.1,0.7,3.1,3.8v5.3h-1.6V9.6
	c0-1.4-0.5-2.6-2.1-2.6c-1,0-1.9,0.7-2.2,1.6c-0.1,0.3-0.1,0.5-0.1,0.8v5.4h-1.6V1.7z"/>
<path class="st0" d="M122.1,3.7v2.1h2.3v1.2h-2.3v4.8c0,1.1,0.3,1.7,1.2,1.7c0.3,0,0.6,0,0.9-0.1l0.1,1.2c-0.5,0.2-1,0.2-1.4,0.2
	c-0.7,0-1.3-0.2-1.8-0.7c-0.5-0.7-0.7-1.5-0.6-2.3V7.1h-1.4V5.8h1.4V4.2L122.1,3.7z"/>
<path class="st0" d="M128.4,12.8c0.4,0,0.7,0,1.1,0c1.3,0,2.4-0.5,2.4-1.8s-1.1-1.7-2.5-1.7h-1L128.4,12.8L128.4,12.8z M128.4,7.3
	h0.9c1.5,0,2.3-0.6,2.3-1.5s-0.7-1.4-2-1.4c-0.4,0-0.8,0-1.2,0.1L128.4,7.3L128.4,7.3z M125.6,2.5c1.2-0.2,2.4-0.3,3.6-0.3
	c1.3-0.1,2.6,0.1,3.7,0.7c0.9,0.5,1.5,1.4,1.5,2.5c0,1.2-0.8,2.3-2,2.6l0,0c1.4,0.3,2.5,1.5,2.5,3c0,1-0.5,2-1.3,2.7
	c-0.9,0.7-2.4,1.1-4.9,1.1c-1,0-2-0.1-3-0.2V2.5H125.6z"/>
<path class="st0" d="M138.1,5.8l1.3,4.5c0.2,0.5,0.3,1.2,0.4,1.7h0.1c0.1-0.5,0.3-1.2,0.4-1.7l1.1-4.4h3l-2.1,6
	c-1.3,3.6-2.2,5-3.2,5.9c-0.8,0.7-1.7,1.1-2.7,1.2l-0.6-2.4c0.4-0.1,0.8-0.3,1.2-0.5c0.5-0.3,0.9-0.7,1.2-1.1
	c0.1-0.1,0.1-0.3,0.1-0.4c0-0.2,0-0.3-0.1-0.5L135,5.8H138.1z"/>
<path class="st0" d="M149.1,3.3v2.4h2v2.1h-2v3.3c0,1.1,0.3,1.6,1.1,1.6c0.3,0,0.6,0,0.8-0.1v2.1c-0.6,0.2-1.2,0.3-1.8,0.2
	c-0.8,0-1.5-0.3-2.1-0.8c-0.6-0.8-0.9-1.7-0.8-2.7V7.8h-1.2V5.8h1.2V4.1L149.1,3.3z"/>
<path class="st0" d="M157.5,9.2c0.1-0.9-0.5-1.7-1.4-1.8c-0.1,0-0.1,0-0.2,0c-1,0.1-1.7,0.9-1.7,1.8C154.2,9.2,157.5,9.2,157.5,9.2z
	 M154.2,11.2c0.1,1.2,1.2,1.7,2.6,1.7c0.8,0,1.7-0.1,2.5-0.4l0.4,1.9c-1,0.4-2.2,0.6-3.3,0.6c-3.1,0-4.8-1.8-4.8-4.6
	c-0.2-2.5,1.7-4.7,4.2-4.8c0.1,0,0.2,0,0.3,0c2.9,0,4,2.3,4,4.5c0,0.4,0,0.7-0.1,1.1H154.2L154.2,11.2z"/>
<path class="st0" d="M161.2,12.3c0.7,0.4,1.6,0.6,2.4,0.7c0.8,0,1.2-0.3,1.2-0.7s-0.3-0.7-1.3-1c-1.9-0.6-2.6-1.6-2.6-2.7
	c0-1.7,1.4-3,3.7-3c0.9,0,1.7,0.2,2.5,0.5l-0.5,2c-0.6-0.3-1.3-0.5-2-0.5c-0.7,0-1.1,0.3-1.1,0.7s0.4,0.7,1.5,1.1
	c1.7,0.6,2.4,1.5,2.4,2.8c0,1.7-1.3,2.9-3.9,2.9c-1,0-2-0.2-2.9-0.6L161.2,12.3z"/>
<path class="st0" d="M83.6,2.5c1-0.2,2-0.3,2.9-0.3C87.8,2.1,89,2.4,90,3.1c0.7,0.5,1.1,1.4,1,2.2c-0.1,1.3-0.9,2.4-2.1,2.7v0.1
	c1.5,0.3,2.6,1.6,2.6,3.1c0,0.9-0.4,1.9-1.1,2.5c-0.8,0.8-2.3,1.2-4.3,1.2c-0.8,0-1.7,0-2.5-0.1L83.6,2.5L83.6,2.5z M85.2,7.6h1.5
	c1.7,0,2.7-0.9,2.7-2.1c0-1.4-1.1-2-2.7-2c-0.5,0-1,0-1.4,0.1L85.2,7.6L85.2,7.6z M85.2,13.6c0.4,0.1,0.9,0.1,1.3,0.1
	c1.7,0,3.2-0.6,3.2-2.4s-1.5-2.4-3.2-2.4h-1.3V13.6L85.2,13.6z"/>
<path class="st0" d="M100.2,3.3c0,0.6-0.4,1-1,1s-1-0.4-1-1s0.4-1,1-1S100.2,2.8,100.2,3.3"/>
</svg>
