<svg id="Brightbytes" xmlns="http://www.w3.org/2000/svg" viewBox="0 0 121.55 29"><defs><style>.cls-1{fill:#909c9d;}</style></defs><title>Untitled-1</title><path class="cls-1" d="M28.49,24.36a1,1,0,0,1-1,1h-4.9a1,1,0,1,1,0-2h4.9a1,1,0,0,1,1,1"/><path class="cls-1" d="M27.21,26.93a1,1,0,0,1-1,1H24a1,1,0,0,1,0-2h2.19a1,1,0,0,1,1,1"/><path class="cls-1" d="M12.75,24.36a1,1,0,0,1-1,1H6.85a1,1,0,1,1,0-2h4.9a1,1,0,0,1,1,1"/><path class="cls-1" d="M11.47,26.93a1,1,0,0,1-1,1H8.3a1,1,0,0,1,0-2h2.19a1,1,0,0,1,1,1"/><path class="cls-1" d="M25.17,3.92a9.24,9.24,0,0,0-6.44,2.61,9.27,9.27,0,0,1,1.64,2.12,6.62,6.62,0,1,1-1.82,4.57V13h0a9.27,9.27,0,1,0-2.83,6.88,9.35,9.35,0,0,1-1.64-2.12,6.62,6.62,0,1,1,1.82-4.57v0.12h0a9.27,9.27,0,1,0,9.27-9.38"/><path class="cls-1" d="M46.82,15.63c0-1.05,0-2-.07-2.79h1.42l0.07,1.77H48.3a2.7,2.7,0,0,1,2.49-2,3.29,3.29,0,0,1,.44,0v1.53a2.36,2.36,0,0,0-.55,0,2.27,2.27,0,0,0-2.18,2.07,4.78,4.78,0,0,0-.05.75v4.77H46.82V15.63Z"/><rect class="cls-1" x="52.38" y="12.84" width="1.63" height="8.94"/><path class="cls-1" d="M61.83,16.37a2.11,2.11,0,0,0-.09-0.72,2.32,2.32,0,0,0-2.27-1.74c-1.55,0-2.66,1.31-2.66,3.38,0,1.76.91,3.22,2.64,3.22a2.34,2.34,0,0,0,2.25-1.66A2.86,2.86,0,0,0,61.83,18V16.37Zm1.63,4.1c0,2.07-.42,3.31-1.28,4.1a4.9,4.9,0,0,1-3.27,1.07,5.75,5.75,0,0,1-3-.74l0.4-1.26a4.89,4.89,0,0,0,2.63.72c1.66,0,2.88-.87,2.88-3.14v-1h0A3.17,3.17,0,0,1,59,21.75c-2.22,0-3.81-1.88-3.81-4.36,0-3,2-4.73,4-4.73A3,3,0,0,1,62,14.19h0l0.06-1.35h1.44c-0.06.63-.07,1.37-0.07,2.44v5.19Z"/><path class="cls-1" d="M64.9,8.66h1.62v5.6h0a3.06,3.06,0,0,1,1.16-1.16,3.32,3.32,0,0,1,1.66-.44c1.2,0,3.12.74,3.12,3.8v5.32H70.88V16.65c0-1.44-.54-2.64-2.07-2.64a2.36,2.36,0,0,0-2.18,1.61,2.08,2.08,0,0,0-.11.78v5.39H64.9V8.66Z"/><path class="cls-1" d="M76.14,10.7v2.14h2.33v1.24H76.14V18.9c0,1.11.31,1.74,1.22,1.74a3,3,0,0,0,.94-0.11l0.07,1.24a4.54,4.54,0,0,1-1.44.22,2.31,2.31,0,0,1-1.75-.68A3.49,3.49,0,0,1,74.55,19V14.08H73.16V12.84h1.39V11.18Z"/><path class="cls-1" d="M82.4,19.79a9.23,9.23,0,0,0,1.09,0c1.28,0,2.4-.5,2.4-1.81s-1.13-1.74-2.53-1.74h-1v3.51Zm0-5.52h0.92c1.5,0,2.27-.61,2.27-1.54s-0.72-1.44-2-1.44a7.59,7.59,0,0,0-1.2.07v2.9ZM79.61,9.49a24.71,24.71,0,0,1,3.64-.26,7,7,0,0,1,3.7.7,2.7,2.7,0,0,1,1.48,2.46,2.82,2.82,0,0,1-2,2.64v0a3.09,3.09,0,0,1,2.48,3,3.34,3.34,0,0,1-1.29,2.66c-0.91.72-2.42,1.13-4.9,1.13a22,22,0,0,1-3-.18V9.49Z"/><path class="cls-1" d="M92.12,12.75l1.35,4.45c0.15,0.52.33,1.2,0.44,1.68H94c0.11-.5.26-1.16,0.39-1.7l1.13-4.43h3l-2.11,6c-1.29,3.6-2.16,5-3.18,5.93a5,5,0,0,1-2.7,1.24L89.9,23.5A4.38,4.38,0,0,0,91.12,23a3.22,3.22,0,0,0,1.16-1.13,0.84,0.84,0,0,0,.15-0.41A1.14,1.14,0,0,0,92.32,21L89,12.75h3.12Z"/><path class="cls-1" d="M103.06,10.31v2.44h2v2.07h-2v3.27c0,1.09.28,1.59,1.11,1.59A3.46,3.46,0,0,0,105,19.6l0,2.12a5.94,5.94,0,0,1-1.81.24,3,3,0,0,1-2.12-.78,3.74,3.74,0,0,1-.78-2.68v-3.7H99.1V12.75h1.2V11.07Z"/><path class="cls-1" d="M111.52,16.24a1.63,1.63,0,0,0-1.59-1.83,1.86,1.86,0,0,0-1.74,1.83h3.33Zm-3.31,1.92c0.07,1.16,1.24,1.72,2.55,1.72a7.51,7.51,0,0,0,2.49-.39l0.37,1.9a8.52,8.52,0,0,1-3.27.57c-3.07,0-4.82-1.78-4.82-4.6a4.53,4.53,0,0,1,4.57-4.82c2.92,0,4,2.27,4,4.51a6.73,6.73,0,0,1-.09,1.11h-5.82Z"/><path class="cls-1" d="M115.23,19.34a5.49,5.49,0,0,0,2.42.67c0.85,0,1.2-.28,1.2-0.74s-0.28-.7-1.31-1.05c-1.88-.63-2.61-1.64-2.59-2.72,0-1.7,1.44-3,3.68-3a6,6,0,0,1,2.53.54L120.68,15a4.5,4.5,0,0,0-2-.52c-0.68,0-1.07.28-1.07,0.72s0.35,0.66,1.46,1.05c1.72,0.59,2.42,1.48,2.44,2.79,0,1.7-1.31,2.94-3.9,2.94a6.37,6.37,0,0,1-2.92-.65Z"/><path class="cls-1" d="M37.63,9.48a14.2,14.2,0,0,1,2.94-.28,5.06,5.06,0,0,1,3.41.91A2.63,2.63,0,0,1,45,12.32a3,3,0,0,1-2.11,2.74v0.05a3.18,3.18,0,0,1,2.57,3.11,3.29,3.29,0,0,1-1.07,2.5c-0.85.79-2.26,1.17-4.3,1.17a18.34,18.34,0,0,1-2.5-.15V9.48Zm1.61,5.11H40.7c1.69,0,2.68-.91,2.68-2.11,0-1.44-1.09-2-2.72-2a6.79,6.79,0,0,0-1.43.11v4Zm0,6a8.81,8.81,0,0,0,1.35.08c1.67,0,3.2-.61,3.2-2.43s-1.46-2.41-3.22-2.41H39.24v4.75Z"/><path class="cls-1" d="M54.19,10.33a1,1,0,0,1-1,1,1,1,0,0,1-1-1,1,1,0,0,1,1-1,1,1,0,0,1,1,1"/></svg>