<svg id="Experticity" xmlns="http://www.w3.org/2000/svg" viewBox="0 0 97.18 29"><defs><style>.cls-1{fill:#909c9d;}</style></defs><title>Untitled-1</title><path class="cls-1" d="M78.14,19.21l-0.49.29c-1.9,1-2.67.66-2.32-.18l3.56-6.54a0.21,0.21,0,0,0-.23-0.34c-0.17,0-1.48.17-1.7,0.21a0.43,0.43,0,0,0-.34.26C76.56,13,74.7,16.45,74,17.78c-2.12,1.5-4.26,2.63-6.05,2.45S66.22,18.29,66.81,17a6.92,6.92,0,0,1,2.06-2.4,3.13,3.13,0,0,1,1.45-.7,0.49,0.49,0,0,1,.5.7,12.49,12.49,0,0,1-.92,1.51c0,0.06-.09.23,0.14,0.23A7.42,7.42,0,0,0,72,16a0.49,0.49,0,0,0,.23-0.17,3.13,3.13,0,0,0,.79-2,1.42,1.42,0,0,0-.95-1.19h0a4.25,4.25,0,0,0-1.25-.18c-3.82,0-6.16,4.08-6.16,4.08a6.45,6.45,0,0,0-.83,2.22,13,13,0,0,1-1.15.7c-1.9,1-2.61.73-2.26-.11L64,12.76a0.21,0.21,0,0,0-.23-0.34c-0.17,0-1.48.17-1.7,0.21a0.43,0.43,0,0,0-.34.26c-0.08.12-2.35,4.36-2.81,5.24a25.22,25.22,0,0,1-2.52,1.3c-0.26.11-1.71,0.6-.92-0.79,1-1.82,3.33-6.1,5.12-9.31l9.66-.57c0.31,0,.4.17,0.21,0.41l-1,1.25c-0.18.24-.09,0.43,0.21,0.4L83.4,9.56c-1.8,3.26-4.2,7.7-5.26,9.64M8.46,15.69a6.86,6.86,0,0,1,1.22-1.09A3.17,3.17,0,0,1,11.3,14a0.64,0.64,0,0,1,.57.93,4.88,4.88,0,0,1-2.15,1.48,19.39,19.39,0,0,1-2.23.83,6.44,6.44,0,0,1,1-1.59m29.67-.29c0.38-.43,1.68-1.45,2.55-1.31a0.6,0.6,0,0,1,.46,1,3.5,3.5,0,0,1-1.53,1.25,13,13,0,0,1-2.77,1.09,6.27,6.27,0,0,1,1.28-2M96.74,7.76l-10.27.5,1.6-2.9A0.22,0.22,0,0,0,87.83,5l-2.09.5a0.54,0.54,0,0,0-.35.28s-0.6,1.1-1.41,2.6L73.51,8.9c-0.31,0-.4-0.17-0.21-0.41l1-1.3c0.2-.24.09-0.41-0.21-0.38L61.19,8.22l1.57-2.84A0.22,0.22,0,0,0,62.52,5l-2.09.5a0.54,0.54,0,0,0-.35.28L58.62,8.51l-7.93.86c-0.31,0-.44.15-0.44,0.32s0.12,0.28.43,0.26l7.4-.43-4.74,8.77c-2.67,1.73-3.27,1.6-3.27,1.6-2.87.26,2.55-5,2.55-5,0.64-1.3,0-1.71,0-1.71C49,13.9,48.18,13,48.18,13a0.06,0.06,0,0,1,0,0,2.5,2.5,0,0,0,0-1.3A1.2,1.2,0,0,0,46.75,11a1.47,1.47,0,0,0-1.3,1.36,2.59,2.59,0,0,0,.67,1.85A11.13,11.13,0,0,1,41.85,19a9.06,9.06,0,0,1-2.41,1c-0.66.14-3.07,0.63-2.78-1.5a27.88,27.88,0,0,0,3.93-1.27,6.28,6.28,0,0,0,2.52-1.79,1.76,1.76,0,0,0-.58-2.83c-1.21-.53-3.64,0-5.29,1.21a7.26,7.26,0,0,0-2.86,3.52,5.38,5.38,0,0,0-.2.66c-0.58.14-1.25,0.31-2,.5A8.24,8.24,0,0,0,33.57,15a2.29,2.29,0,0,0-2.43-2.57,6.45,6.45,0,0,0-4.45,2.29,1.52,1.52,0,0,0-.5-2.23,0.25,0.25,0,0,0-.34.15s-1.6,2.93-3.45,6.28c-0.76.4-3.36,1.64-3.7,0.55a9.81,9.81,0,0,1-.35-1.65c1.33-1,5.47-5.14,5.47-5.14,0.2-.21-0.09-0.21-0.11-0.21H21.94a0.68,0.68,0,0,0-.49.21,38.43,38.43,0,0,1-3.32,3.39c-0.15-1.53-.31-3.27-0.32-3.36s-0.06-.28-0.29-0.28l-1.8.08a0.23,0.23,0,0,0-.21.31c0,0.15.38,2.93,0.63,4.77a17.12,17.12,0,0,1-2.46,1.45,13.15,13.15,0,0,1-4.52,1.07c-1.18,0-2.22-.6-2-1.56a27,27,0,0,0,3.38-1.09c1.1-.47,3-1.42,3.36-2.61A1.69,1.69,0,0,0,13,12.71a5.18,5.18,0,0,0-4.05.38A8.19,8.19,0,0,0,5.4,16a6.83,6.83,0,0,0-.95,2c-1.53.29-3.65,0.52-3.82,0.53C-0.1,18.61-.1,18.62.15,18.9c0.49,0.55.86,1.07,1.27,1,0,0,1.45-.31,3.1-0.7A2.81,2.81,0,0,0,5.4,21a5.28,5.28,0,0,0,4.37.93,17.68,17.68,0,0,0,6.56-2.75c0.08,0.63.29,1.7,0.34,1.91a1.21,1.21,0,0,0,1.24.86,8.75,8.75,0,0,0,3.5-1.19c-2.12,3.87-4.22,7.7-4.29,7.84-0.18.37,0,.43,0.29,0.38s1.68-.37,1.91-0.46A0.8,0.8,0,0,0,19.83,28c0.14-.26,3.53-6.54,5.07-9.43a12.42,12.42,0,0,1,2.29-2.84c1-.9,2.32-1.86,3.44-1.62a0.89,0.89,0,0,1,.58,1.22h0a7,7,0,0,1-2.63,3.9,17,17,0,0,0-2.26.69c-1,.43-1.6,1-1.54,1.56s0.81,0.73,1.94.6A7.52,7.52,0,0,0,29.57,21a13.28,13.28,0,0,0,1.22-.84c1.44-.44,2.48-0.75,3.22-1a3,3,0,0,0,.57,1.64A3.65,3.65,0,0,0,37.77,22,8,8,0,0,0,42,20.6a18.63,18.63,0,0,0,5.33-5.69,4.2,4.2,0,0,0,2.14.35h0a14,14,0,0,0-2.84,4.83C46,22.32,48.78,22,50.18,21.45a18.51,18.51,0,0,0,1.9-.92c-0.83,1.64,1.28,1.39,2.32,1.13a15.75,15.75,0,0,0,3.5-1.39c0,0.08-.38,1.12.28,1.47a3.09,3.09,0,0,0,1.67,0,17.23,17.23,0,0,0,2-.61,19.24,19.24,0,0,0,2-.89C64.4,21.45,65.79,22,67.38,22a10,10,0,0,0,4.77-1.51c0.28-.15.53-0.32,0.76-0.47a3.19,3.19,0,0,0-.15.46,1.15,1.15,0,0,0,.34,1.28,3.09,3.09,0,0,0,1.67,0,16.26,16.26,0,0,0,2-.61L77.22,21c-0.24,1.15,1.56.93,2.49,0.69a16,16,0,0,0,3.59-1.44,2.18,2.18,0,0,0-.08.24,1.15,1.15,0,0,0,.34,1.28,3.09,3.09,0,0,0,1.67,0,17.23,17.23,0,0,0,2-.61c0.31-.12.64-0.24,1.07-0.44C86.24,24.55,84.1,28.41,84,28.6,83.82,29,84,29,84.3,29s1.7-.37,1.93-0.46a0.81,0.81,0,0,0,.52-0.47s8-14.84,8.13-15.12,0-.44-0.31-0.41-1.42.2-1.59,0.24a0.53,0.53,0,0,0-.38.28c-0.24.46-1.57,2.84-3.1,5.62-0.49.32-1,.69-1.41,0.89-1.9,1-2.67.66-2.32-.18l3.56-6.54a0.21,0.21,0,0,0-.23-0.34c-0.17,0-1.48.17-1.7,0.21a0.43,0.43,0,0,0-.34.26c-0.08.12-2.26,4.16-2.78,5.17a21.89,21.89,0,0,1-2.63,1.36c-0.26.11-1.71,0.6-.92-0.79,1-1.82,3.35-6.1,5.12-9.31l10.85-1c0.31,0,.47-0.12.47-0.32S97,7.74,96.74,7.76"/></svg>