<?xml version="1.0" encoding="utf-8"?>
<!-- Generator: Adobe Illustrator 19.1.0, SVG Export Plug-In . SVG Version: 6.00 Build 0)  -->
<svg version="1.1" id="Experticity" xmlns="http://www.w3.org/2000/svg" xmlns:xlink="http://www.w3.org/1999/xlink" x="0px"
	 y="0px" viewBox="34 -2 97.2 24" style="enable-background:new 34 -2 97.2 24;" xml:space="preserve">
<style type="text/css">
	.st0{fill:#909C9D;}
</style>
<title>Untitled-1</title>
<path class="st0" d="M112.1,12.2l-0.5,0.3c-1.9,1-2.7,0.7-2.3-0.2l3.6-6.5c0.1-0.1,0.1-0.2,0-0.3c-0.1-0.1-0.1-0.1-0.2,0
	c-0.2,0-1.5,0.2-1.7,0.2c-0.2,0-0.3,0.1-0.3,0.3c-0.1,0.1-1.9,3.5-2.6,4.9c-2.1,1.5-4.3,2.6-6.1,2.5s-1.7-1.9-1.1-3.2
	c0.5-0.9,1.2-1.8,2.1-2.4c0.4-0.4,0.9-0.6,1.4-0.7c0.3,0,0.5,0.2,0.5,0.4c0,0.1,0,0.2,0,0.3c-0.3,0.5-0.6,1-0.9,1.5
	c0,0.1-0.1,0.2,0.1,0.2c0.7,0,1.3-0.1,2-0.3c0.1,0,0.2-0.1,0.2-0.2c0.5-0.6,0.8-1.3,0.8-2c-0.1-0.5-0.4-1-0.9-1.2l0,0
	c-0.4-0.1-0.8-0.2-1.2-0.2c-3.8,0-6.2,4.1-6.2,4.1c-0.4,0.7-0.7,1.4-0.8,2.2c-0.4,0.3-0.8,0.5-1.2,0.7c-1.9,1-2.6,0.7-2.3-0.1
	L98,5.8c0.1-0.1,0.1-0.2,0-0.3c-0.1-0.1-0.1-0.1-0.2,0c-0.2,0-1.5,0.2-1.7,0.2c-0.2,0-0.3,0.1-0.3,0.3c-0.1,0.1-2.3,4.4-2.8,5.2
	c-0.8,0.5-1.7,0.9-2.5,1.3c-0.3,0.1-1.7,0.6-0.9-0.8c1-1.8,3.3-6.1,5.1-9.3l9.7-0.6c0.3,0,0.4,0.2,0.2,0.4l-1,1.2
	c-0.2,0.2-0.1,0.4,0.2,0.4l13.7-1.3C115.6,5.8,113.2,10.3,112.1,12.2 M42.5,8.7c0.4-0.4,0.8-0.8,1.2-1.1c0.5-0.3,1-0.6,1.6-0.6
	c0.4,0,0.6,0.3,0.6,0.6c0,0.1,0,0.2-0.1,0.3c-0.6,0.7-1.3,1.2-2.2,1.5c-0.7,0.3-1.5,0.6-2.2,0.8C41.7,9.7,42.1,9.1,42.5,8.7
	 M72.2,8.4c0.4-0.4,1.7-1.4,2.5-1.3c0.3,0,0.6,0.3,0.6,0.6c0,0.2-0.1,0.3-0.2,0.4c-0.4,0.6-0.9,1-1.5,1.2c-0.9,0.5-1.8,0.8-2.8,1.1
	C71.2,9.6,71.6,9,72.2,8.4 M130.7,0.8l-10.3,0.5l1.6-2.9c0.1-0.1,0.1-0.2,0-0.3C122-2,121.9-2,121.8-2l-2.1,0.5
	c-0.2,0-0.3,0.1-0.3,0.3c0,0-0.6,1.1-1.4,2.6l-10.5,0.5c-0.3,0-0.4-0.2-0.2-0.4l1-1.3c0.2-0.2,0.1-0.4-0.2-0.4L95.2,1.2l1.6-2.8
	c0.1-0.1,0.1-0.2,0.1-0.3C96.8-2,96.6-2.1,96.5-2l0,0l-2.1,0.5c-0.2,0-0.3,0.1-0.3,0.3l-1.5,2.7l-7.9,0.9c-0.3,0-0.4,0.1-0.4,0.3
	s0.1,0.3,0.4,0.3l7.4-0.4l-4.7,8.8c-2.7,1.7-3.3,1.6-3.3,1.6c-2.9,0.3,2.5-5,2.5-5c0.6-1.3,0-1.7,0-1.7C83,6.9,82.2,6,82.2,6l0,0
	c0.1-0.4,0.1-0.9,0-1.3c-0.2-0.6-0.8-0.9-1.4-0.7c-0.7,0.1-1.3,0.7-1.3,1.4c0,0.7,0.2,1.3,0.7,1.9c-0.9,2-2.4,3.6-4.3,4.8
	c-0.8,0.4-1.6,0.8-2.4,1c-0.7,0.1-3.1,0.6-2.8-1.5c1.3-0.3,2.7-0.8,3.9-1.3c1-0.4,1.8-1,2.5-1.8C77.8,7.7,77.8,6.6,77,6
	c-0.2-0.1-0.3-0.3-0.5-0.3c-1.2-0.5-3.6,0-5.3,1.2c-1.3,0.8-2.3,2.1-2.9,3.5c-0.1,0.2-0.1,0.4-0.2,0.7c-0.6,0.1-1.2,0.3-2,0.5
	c0.7-1,1.2-2.2,1.4-3.5c0.2-1.3-0.7-2.4-2-2.6c-0.1,0-0.3,0-0.4,0c-1.7,0.1-3.3,1-4.5,2.3C61.2,7,61,6.1,60.4,5.6
	c-0.1,0-0.1-0.1-0.2-0.1c-0.1-0.1-0.3,0-0.3,0.1c0,0,0,0,0,0c0,0-1.6,2.9-3.5,6.3c-0.8,0.4-3.4,1.6-3.7,0.5
	c-0.2-0.5-0.3-1.1-0.3-1.6c1.3-1,5.5-5.1,5.5-5.1c0.2-0.2-0.1-0.2-0.1-0.2h-1.8c-0.2,0-0.4,0.1-0.5,0.2c-1,1.2-2.1,2.3-3.3,3.4
	c-0.1-1.5-0.3-3.3-0.3-3.4c0-0.1-0.1-0.3-0.3-0.3l-1.8,0.1c-0.1,0-0.2,0.1-0.2,0.2c0,0,0,0.1,0,0.1c0,0.1,0.4,2.9,0.6,4.8
	c-0.8,0.6-1.6,1-2.5,1.5c-1.4,0.6-3,1-4.5,1.1c-1.2,0-2.2-0.6-2-1.6c1.1-0.3,2.3-0.7,3.4-1.1c1.1-0.5,3-1.4,3.4-2.6
	C48.2,7,47.8,6.1,47,5.7c-1.3-0.4-2.8-0.3-4,0.4c-1.4,0.6-2.7,1.6-3.5,2.9c-0.4,0.6-0.7,1.3-1,2c-1.5,0.3-3.6,0.5-3.8,0.5
	c-0.7,0.1-0.7,0.1-0.5,0.4c0.5,0.5,0.9,1.1,1.3,1c0,0,1.5-0.3,3.1-0.7c0.1,0.7,0.4,1.3,0.9,1.8c1.2,0.9,2.8,1.3,4.4,0.9
	c2.4-0.5,4.6-1.4,6.6-2.8c0.1,0.6,0.3,1.7,0.3,1.9c0.2,0.5,0.7,0.9,1.2,0.9c1.2-0.1,2.4-0.5,3.5-1.2c-2.1,3.9-4.2,7.7-4.3,7.8
	c-0.2,0.4,0,0.4,0.3,0.4s1.7-0.4,1.9-0.5c0.2-0.1,0.4-0.3,0.5-0.5c0.1-0.3,3.5-6.5,5.1-9.4c0.6-1.1,1.4-2,2.3-2.8
	c1-0.9,2.3-1.9,3.4-1.6c0.5,0.1,0.8,0.6,0.6,1.1c0,0,0,0.1,0,0.1l0,0c-0.4,1.6-1.3,2.9-2.6,3.9c-0.8,0.2-1.5,0.4-2.3,0.7
	c-1,0.4-1.6,1-1.5,1.6s0.8,0.7,1.9,0.6c1-0.2,2-0.5,2.8-1.1c0.4-0.3,0.8-0.5,1.2-0.8c1.4-0.4,2.5-0.8,3.2-1c0,0.6,0.2,1.2,0.6,1.6
	c0.8,0.9,2,1.4,3.2,1.2c1.5-0.1,3-0.5,4.2-1.4c2.2-1.5,4-3.4,5.3-5.7c0.7,0.3,1.4,0.4,2.1,0.4l0,0c-1.3,1.4-2.2,3-2.8,4.8
	c-0.6,2.2,2.1,1.9,3.5,1.4c0.7-0.3,1.3-0.6,1.9-0.9c-0.8,1.6,1.3,1.4,2.3,1.1c1.2-0.3,2.4-0.8,3.5-1.4c0,0.1-0.4,1.1,0.3,1.5
	c0.5,0.2,1.1,0.2,1.7,0c0.7-0.2,1.3-0.4,2-0.6c0.7-0.3,1.4-0.6,2-0.9c0.6,1.2,1.9,1.8,3.5,1.8c1.7-0.1,3.3-0.6,4.8-1.5
	c0.3-0.1,0.5-0.3,0.8-0.5c-0.1,0.1-0.1,0.3-0.2,0.5c-0.2,0.5,0,1,0.3,1.3c0.5,0.2,1.1,0.2,1.7,0c0.7-0.2,1.3-0.4,2-0.6l0.5-0.1
	c-0.2,1.1,1.6,0.9,2.5,0.7c1.3-0.3,2.5-0.8,3.6-1.4c0,0.1-0.1,0.2-0.1,0.2c-0.2,0.5,0,1,0.3,1.3c0.5,0.2,1.1,0.2,1.7,0
	c0.7-0.2,1.3-0.4,2-0.6c0.3-0.1,0.6-0.2,1.1-0.4c-2.1,3.8-4.2,7.7-4.3,7.9c-0.2,0.4,0,0.4,0.3,0.4s1.7-0.4,1.9-0.5
	c0.2-0.1,0.4-0.2,0.5-0.5c0,0,8-14.8,8.1-15.1c0.1-0.3,0-0.4-0.3-0.4s-1.4,0.2-1.6,0.2c-0.2,0-0.3,0.1-0.4,0.3
	c-0.2,0.5-1.6,2.8-3.1,5.6c-0.5,0.3-1,0.7-1.4,0.9c-1.9,1-2.7,0.7-2.3-0.2l3.6-6.5c0.1-0.1,0.1-0.2,0-0.3c-0.1-0.1-0.1-0.1-0.2,0
	c-0.2,0-1.5,0.2-1.7,0.2c-0.2,0-0.3,0.1-0.3,0.3c-0.1,0.1-2.3,4.2-2.8,5.2c-0.8,0.5-1.7,1-2.6,1.4c-0.3,0.1-1.7,0.6-0.9-0.8
	c1-1.8,3.3-6.1,5.1-9.3l10.8-1c0.3,0,0.5-0.1,0.5-0.3S131,0.7,130.7,0.8"/>
</svg>
