<svg id="Facebook" xmlns="http://www.w3.org/2000/svg" viewBox="0 0 82.6 29"><defs><style>.cls-1{fill:#909c9d;}</style></defs><title>Untitled-1</title><path class="cls-1" d="M6.46,9.51c-1,0-1.25.43-1.25,1.38v1.58H7.81L7.55,15H5.21v7.74H2.1V15H0V12.48H2.1V10.94C2.1,8.37,3.14,7,6,7a14.65,14.65,0,0,1,1.82.11v2.4H6.46Z"/><path class="cls-1" d="M8,17.3c0-2.88,1.36-5,4.22-5a3.06,3.06,0,0,1,3,1.79V12.48h3V22.77h-3V21.21a3,3,0,0,1-3,1.77C9.38,23,8,20.82,8,17.95V17.3ZM11.13,18c0,1.54.56,2.55,2,2.55,1.28,0,1.92-.93,1.92-2.4v-1c0-1.47-.65-2.4-1.92-2.4-1.45,0-2,1-2,2.55V18Z"/><path class="cls-1" d="M24.67,12.26a5.69,5.69,0,0,1,3,.69L27,15.16a4.9,4.9,0,0,0-2.08-.48c-1.69,0-2.42,1-2.42,2.64v0.61c0,1.66.74,2.64,2.42,2.64A4.9,4.9,0,0,0,27,20.09l0.69,2.21a5.69,5.69,0,0,1-3,.69c-3.65,0-5.32-2-5.32-5.12V17.38C19.35,14.23,21,12.26,24.67,12.26Z"/><path class="cls-1" d="M28.06,18V17.1c0-2.92,1.66-4.84,5.06-4.84,3.2,0,4.61,1.95,4.61,4.8V18.7H31.18c0.06,1.41.69,2,2.42,2a8.84,8.84,0,0,0,3.31-.63l0.56,2.14a10,10,0,0,1-4,.76C29.53,23,28.06,21,28.06,18Zm3.11-1.34h3.76V16.41a1.72,1.72,0,0,0-1.82-2C31.72,14.4,31.18,15.29,31.18,16.67Z"/><path class="cls-1" d="M49.27,17.95c0,2.88-1.38,5-4.24,5A3.19,3.19,0,0,1,42,21.21v1.56H39V7.31L42.14,7V13.9A3.11,3.11,0,0,1,45,12.26c2.85,0,4.24,2.16,4.24,5v0.65Zm-3.11-.71c0-1.45-.56-2.53-2.05-2.53-1.28,0-2,.91-2,2.38v1.08c0,1.47.69,2.38,2,2.38,1.49,0,2.05-1.08,2.05-2.53V17.23Z"/><path class="cls-1" d="M50.31,17.88V17.36c0-3,1.69-5.1,5.12-5.1s5.12,2.14,5.12,5.1v0.52c0,3-1.69,5.1-5.12,5.1S50.31,20.84,50.31,17.88Zm7.14-.74c0-1.36-.56-2.44-2-2.44s-2,1.08-2,2.44v1c0,1.36.56,2.44,2,2.44s2-1.08,2-2.44v-1Z"/><path class="cls-1" d="M61.6,17.88V17.36c0-3,1.69-5.1,5.12-5.1s5.12,2.14,5.12,5.1v0.52c0,3-1.69,5.1-5.12,5.1S61.6,20.84,61.6,17.88Zm7.14-.74c0-1.36-.56-2.44-2-2.44s-2,1.08-2,2.44v1c0,1.36.56,2.44,2,2.44s2-1.08,2-2.44v-1Z"/><path class="cls-1" d="M76.12,17.38l3.07-4.91H82.5l-3.22,5.08,3.35,5.21H79.32l-3.2-5v5H73V7.31L76.12,7V17.38Z"/></svg>