<?xml version="1.0" encoding="utf-8"?>
<!-- Generator: Adobe Illustrator 19.1.0, SVG Export Plug-In . SVG Version: 6.00 Build 0)  -->
<svg version="1.1" id="Facebook" xmlns="http://www.w3.org/2000/svg" xmlns:xlink="http://www.w3.org/1999/xlink" x="0px" y="0px"
	 viewBox="26 0 82.6 16" style="enable-background:new 26 0 82.6 16;" xml:space="preserve">
<style type="text/css">
	.st0{fill:#909C9D;}
</style>
<title>Untitled-1</title>
<path class="st0" d="M32.5,2.5c-1,0-1.2,0.4-1.2,1.4v1.6h2.6L33.5,8h-2.3v7.7h-3.1V8H26V5.5h2.1V3.9c0-2.6,1-3.9,3.9-3.9
	c0.6,0,1.2,0,1.8,0.1v2.4H32.5z"/>
<path class="st0" d="M34,10.3c0-2.9,1.4-5,4.2-5c1.3-0.1,2.5,0.6,3,1.8V5.5h3v10.3h-3v-1.6c-0.5,1.2-1.7,1.9-3,1.8
	c-2.8,0-4.2-2.2-4.2-5V10.3z M37.1,11c0,1.5,0.6,2.5,2,2.5c1.3,0,1.9-0.9,1.9-2.4v-1c0-1.5-0.6-2.4-1.9-2.4c-1.5,0-2,1-2,2.5V11z"/>
<path class="st0" d="M50.7,5.3c1-0.1,2.1,0.2,3,0.7L53,8.2c-0.6-0.3-1.4-0.5-2.1-0.5c-1.7,0-2.4,1-2.4,2.6v0.6
	c0,1.7,0.7,2.6,2.4,2.6c0.7,0,1.4-0.2,2.1-0.5l0.7,2.2c-0.9,0.5-2,0.7-3,0.7c-3.7,0-5.3-2-5.3-5.1v-0.5C45.3,7.2,47,5.3,50.7,5.3z"
	/>
<path class="st0" d="M54.1,11v-0.9c0-2.9,1.7-4.8,5.1-4.8c3.2,0,4.6,1.9,4.6,4.8v1.6h-6.5c0.1,1.4,0.7,2,2.4,2
	c1.1,0,2.3-0.2,3.3-0.6l0.6,2.1c-1.3,0.5-2.6,0.8-4,0.8C55.5,16,54.1,14,54.1,11z M57.2,9.7h3.8V9.4c0.2-0.9-0.5-1.8-1.4-2
	c-0.1,0-0.3,0-0.4,0C57.7,7.4,57.2,8.3,57.2,9.7L57.2,9.7z"/>
<path class="st0" d="M75.3,11c0,2.9-1.4,5-4.2,5c-1.3,0.1-2.5-0.6-3-1.7v1.6h-3V0.3L68.1,0v6.9c0.6-1,1.7-1.7,2.9-1.6
	c2.8,0,4.2,2.2,4.2,5L75.3,11L75.3,11z M72.2,10.2c0-1.4-0.6-2.5-2.1-2.5c-1.3,0-2,0.9-2,2.4v1.1c0,1.5,0.7,2.4,2,2.4
	c1.5,0,2.1-1.1,2.1-2.5V10.2L72.2,10.2z"/>
<path class="st0" d="M76.3,10.9v-0.5c0-3,1.7-5.1,5.1-5.1s5.1,2.1,5.1,5.1v0.5c0,3-1.7,5.1-5.1,5.1S76.3,13.8,76.3,10.9z M83.4,10.1
	c0-1.4-0.6-2.4-2-2.4c-1.4,0-2,1.1-2,2.4v1c0,1.4,0.6,2.4,2,2.4c1.4,0,2-1.1,2-2.4V10.1z"/>
<path class="st0" d="M87.6,10.9v-0.5c0-3,1.7-5.1,5.1-5.1s5.1,2.1,5.1,5.1v0.5c0,3-1.7,5.1-5.1,5.1S87.6,13.8,87.6,10.9z M94.7,10.1
	c0-1.4-0.6-2.4-2-2.4s-2,1.1-2,2.4v1c0,1.4,0.6,2.4,2,2.4s2-1.1,2-2.4V10.1z"/>
<path class="st0" d="M102.1,10.4l3.1-4.9h3.3l-3.2,5.1l3.3,5.2h-3.3l-3.2-5v5H99V0.3l3.1-0.3V10.4z"/>
</svg>
