<?xml version="1.0" encoding="utf-8"?>
<!-- Generator: Adobe Illustrator 19.1.0, SVG Export Plug-In . SVG Version: 6.00 Build 0)  -->
<svg version="1.1" id="Layer_1" xmlns="http://www.w3.org/2000/svg" xmlns:xlink="http://www.w3.org/1999/xlink" x="0px" y="0px"
	 viewBox="17 -2.1 63.1 21.2" style="enable-background:new 17 -2.1 63.1 21.2;" xml:space="preserve">
<style type="text/css">
	.st0{fill:#909C9D;}
</style>
<g id="Microsoft">
</g>
<g id="Experticity">
</g>
<g id="Asurion">
</g>
<g id="Facebook">
</g>
<g id="Brightbytes">
</g>
<g id="Little_Caesars">
</g>
<g id="Xbox">
</g>
<g id="Invision">
	<path class="st0" d="M46.7,14.4h2V5.6h-2V14.4z M54.1,9.2c-1-0.3-2-0.6-2-1.2l0,0c0-0.5,0.5-0.9,1.2-0.9c0.4,0,0.8,0.1,1.3,0.2l0,0
		l0,0h0.1c0.3,0.1,1.2,0.2,1.9-0.9c-0.9-0.6-2.1-1-3.3-1c-1.8,0-3.1,1-3.1,2.7l0,0c0,1.7,1.5,2.2,2.8,2.6c1,0.3,2,0.6,2,1.2l0,0
		c0,0.6-0.5,1-1.4,1c-0.6,0-1.2-0.2-1.8-0.5c-0.2-0.1-1.1-0.4-1.9,0.8c1.1,0.9,2.5,1.3,3.7,1.3c1.8,0,3.3-0.9,3.3-2.8l0,0
		C56.9,10.1,55.4,9.6,54.1,9.2z M41.2,12l-2.4-6.5h-2.2l3.6,8.9H42l3.6-8.9h-2.1L41.2,12z M66.3,5.4c-2.7,0-4.7,2.1-4.7,4.6
		s2,4.6,4.7,4.6c2.7,0,4.7-2.1,4.7-4.6C71,7.4,69,5.4,66.3,5.4z M66.3,12.8c-1.6,0-2.7-1.3-2.7-2.9s1-2.8,2.7-2.8
		c1.6,0,2.7,1.3,2.7,2.9S67.9,12.8,66.3,12.8z M77,5.4c-1.4,0-2.2,0.7-2.8,1.6V5.6h-2v8.8h2v-5c0-1.4,0.8-2.2,2-2.2
		c1.2,0,1.9,0.8,1.9,2.2v5h2V8.8C80.2,6.7,79,5.4,77,5.4z M58.2,14.4h2V5.6h-2V14.4z"/>
	<path class="st0" d="M36.3-2.1H18.9c-1,0-1.9,0.9-1.9,2v17.3c0,1.1,0.9,1.9,1.9,1.9h17.3c1.1,0,1.9-0.9,1.9-1.9V-0.1
		C38.2-1.2,37.3-2.1,36.3-2.1z M24.1,2.1c0.7,0,1.3,0.6,1.3,1.3s-0.6,1.3-1.3,1.3c-0.7,0-1.3-0.6-1.3-1.3
		C22.8,2.6,23.4,2.1,24.1,2.1z M32.7,14.3c-1.3,0-1.9-0.8-1.9-1.8c0-0.3,0-0.6,0.1-1l0.6-2.2c0.1-0.2,0.1-0.5,0.1-0.7
		c0-0.7-0.4-1.2-1.1-1.2c-0.9,0-1.5,0.6-1.8,1.9l-1.2,4.9h-2.1l0.4-1.5c-0.6,1-1.5,1.7-2.6,1.7c-1.3,0-1.9-0.7-1.9-1.9
		c0-0.3,0-0.6,0.1-1l1-4h-1.5l0.5-1.7H25l-1.4,5.7c-0.1,0.4-0.1,0.7-0.1,0.9c0,0.4,0.2,0.5,0.5,0.5c0.2,0,1.5,0,2.3-1.6l0.9-3.8
		h-1.7L26,5.8h3.3l-0.4,1.9c0.6-1.1,1.7-2.1,2.8-2.1c1.2,0,2.2,0.9,2.2,2.5c0,0.4-0.1,0.9-0.2,1.4L33,11.7c-0.1,0.2-0.1,0.4-0.1,0.6
		c0,0.4,0.2,0.6,0.4,0.6c0.3,0,0.6-0.2,1.1-1.4l0.8,0.3C34.7,13.5,33.9,14.3,32.7,14.3z"/>
</g>
<g id="Oculus">
</g>
<g id="Samsung">
</g>
</svg>
