<?xml version="1.0" encoding="utf-8"?>
<!-- Generator: Adobe Illustrator 19.1.0, SVG Export Plug-In . SVG Version: 6.00 Build 0)  -->
<svg version="1.1" id="Little_Caesars" xmlns="http://www.w3.org/2000/svg" xmlns:xlink="http://www.w3.org/1999/xlink" x="0px"
	 y="0px" viewBox="23 -7 75.9 29" style="enable-background:new 23 -7 75.9 29;" xml:space="preserve">
<style type="text/css">
	.st0{fill:#909C9D;}
</style>
<title>Untitled-1</title>
<path class="st0" d="M84.3,9.6c0.4-0.1,0.8-0.5,0.9-0.9c0-2.4,0-5,0-7.6c0-1-1.8-0.2-1.2-1.4c0.6-0.2,1.3-0.5,1.9-0.6
	c0.4-0.1,1.2-0.6,1.4,0.1v9.2c0,0.5,0.2,1,0.7,1.2c0.2,0.1,0.4,0.2,0.4,0.5c0.1,0.2,0,0.5-0.3,0.5c0,0,0,0,0,0c-1.1-0.1-3-0.1-3.8,0
	C83.4,10.2,84.3,9.6,84.3,9.6z"/>
<path class="st0" d="M83.6,10.3c-0.4,0.5-1,0.7-1.6,0.6c-0.7-0.1-1.3-0.6-1.6-1.3c-0.1-1.9-0.1-3.9,0-5.8c-0.7,0-1.4,0-2.1,0
	c-0.1,1.6-0.1,3.2,0,4.8c0,0.2,0.2,0.4,0.4,0.4c0.5-0.1,0.6-1,1.2-0.7c0.2,0.2,0.3,0.6,0.2,0.9c-0.2,0.8-0.8,1.5-1.6,1.7
	c-0.7,0.2-1.4-0.1-1.9-0.6c-0.4-0.6-0.6-1.3-0.5-2c0-1.5,0.2-2.9,0.2-4.4c-0.3-0.2-1.1,0.1-1.2-0.4c-0.2-0.7,0.7-0.6,1-1.1
	c0.5-0.6,0.8-1.2,1.1-1.9c0.3-0.1,0.7-0.1,1,0l0.1,0.2v1.8c0.6,0.1,1.3,0.1,1.9,0c0.5-0.6,0.8-1.3,1-2c0.2-0.2,0.6-0.2,0.8-0.2
	c0.2,0,0.3,0.2,0.3,0.4v1.8c1.1,0,1.7-0.2,1.8,0.4c0,0.3-0.1,0.6-0.3,0.8c-0.5,0.2-0.9,0.2-1.4,0.1c-0.1,1.6-0.1,3.1,0.1,4.7
	C82.6,8.9,82.9,9,83,8.9c0.2-0.3,0.4-0.6,0.8-0.7c0.2,0,0.4,0.1,0.4,0.3c0,0.3,0,0.7-0.1,1L83.6,10.3z"/>
<path class="st0" d="M71.6,9.9c0.3-0.3,1-0.4,1-0.8V4.4c-0.2-0.4-0.6-0.6-1-0.6c-0.5,0-0.7-0.6-0.2-0.8c0.7-0.1,1.4-0.3,2-0.6
	c0.3-0.3,0.7-0.3,1-0.1c0.4,0.5,0.2,0.2,0.1,1.7v4.9c0.1,0.8,1,0.5,1.4,1.1c0.1,0.2,0,0.5-0.3,0.6c-1.2-0.1-2.4-0.1-3.7,0
	c-0.2,0-0.5-0.1-0.5-0.3C71.4,10.2,71.5,10,71.6,9.9z"/>
<path class="st0" d="M70.5,10.9c-2.2-0.5-4.5-0.3-6.6-0.2c-0.2,0-0.5-0.1-0.6-0.3c-0.3-1,1.1-0.7,1.3-1.6l0.1-0.9V1.2
	c0-0.8-0.8-1-1.3-1.3c-0.1-0.2-0.1-0.4,0-0.6C63.6-0.9,63.7-1,63.9-1c1.4,0.1,2.8,0.1,4.1,0c0.2,0,0.4,0.2,0.4,0.4
	c0.1,0.8-0.9,0.7-1.2,1.4C67,3.1,66.9,5.4,67,7.7c0,0.5,0,1.2,0.7,1.4c1.6,0.4,2.4-1.4,3.2-2.3c0.2-0.2,0.5-0.3,0.8-0.2
	c0.3,0.2,0.4,0.6,0.2,0.9c-0.3,0.8-0.5,1.6-0.7,2.5C71.2,10,71.3,11,70.5,10.9z"/>
<path class="st0" d="M74.8,0.7c0.1,0.2,0.1,0.5,0,0.8C74.5,1.8,74.1,2,73.6,2c-0.5,0-1-0.3-1.3-0.8c-0.1-0.4,0.2-0.8,0.6-0.9
	C73.5,0.1,74.3,0.2,74.8,0.7z"/>
<path class="st0" d="M93.4,3.7c0.5,0.9,0.7,1.9,0.5,2.9c0,0.2-0.1,0.3-0.3,0.3h-3.1c-0.2-0.1-0.3-0.2-0.3-0.4c0.1-0.8,1.2-0.4,1.6-1
	c0.2-0.6,0.1-1.2-0.3-1.7c-0.2-0.2-0.5-0.3-0.8-0.2C89.9,4,90,5,89.9,5.8c0,1.1,0,2.8,1.2,3.4c0.4,0.1,0.8,0,1.1-0.2
	c0.4-0.3,0.7-1.2,1.3-0.8c0.2,0.2,0.3,0.6,0.1,0.9c-0.4,0.9-1.1,1.5-2,1.7c-0.9,0.2-1.8-0.1-2.5-0.7c-1.4-1.4-1.5-4-0.8-5.8
	c0.4-1.1,1.4-1.9,2.6-2.1C92,2.2,93,2.7,93.4,3.7z"/>
<path class="st0" d="M84.3,9.6c0.4-0.1,0.8-0.5,0.9-0.9c0-2.4,0-5,0-7.6c0-1-1.8-0.2-1.2-1.4c0.6-0.2,1.3-0.5,1.9-0.6
	c0.4-0.1,1.2-0.6,1.4,0.1v9.2c0,0.5,0.2,1,0.7,1.2c0.2,0.1,0.4,0.2,0.4,0.5c0.1,0.2,0,0.5-0.3,0.5c0,0,0,0,0,0c-1.1-0.1-3-0.1-3.8,0
	C83.4,10.2,84.3,9.6,84.3,9.6z"/>
<path class="st0" d="M83.6,10.3c-0.4,0.5-1,0.7-1.6,0.6c-0.7-0.1-1.3-0.6-1.6-1.3c-0.1-1.9-0.1-3.9,0-5.8c-0.7,0-1.4,0-2.1,0
	c-0.1,1.6-0.1,3.2,0,4.8c0,0.2,0.2,0.4,0.4,0.4c0.5-0.1,0.6-1,1.2-0.7c0.2,0.2,0.3,0.6,0.2,0.9c-0.2,0.8-0.8,1.5-1.6,1.7
	c-0.7,0.2-1.4-0.1-1.9-0.6c-0.4-0.6-0.6-1.3-0.5-2c0-1.5,0.2-2.9,0.2-4.4c-0.3-0.2-1.1,0.1-1.2-0.4c-0.2-0.7,0.7-0.6,1-1.1
	c0.5-0.6,0.8-1.2,1.1-1.9c0.3-0.1,0.7-0.1,1,0l0.1,0.2v1.8c0.6,0.1,1.3,0.1,1.9,0c0.5-0.6,0.8-1.3,1-2c0.2-0.2,0.6-0.2,0.8-0.2
	c0.2,0,0.3,0.2,0.3,0.4v1.8c1.1,0,1.7-0.2,1.8,0.4c0,0.3-0.1,0.6-0.3,0.8c-0.5,0.2-0.9,0.2-1.4,0.1c-0.1,1.6-0.1,3.1,0.1,4.7
	C82.6,8.9,82.9,9,83,8.9c0.2-0.3,0.4-0.6,0.8-0.7c0.2,0,0.4,0.1,0.4,0.3c0,0.3,0,0.7-0.1,1L83.6,10.3z"/>
<path class="st0" d="M71.6,9.9c0.3-0.3,1-0.4,1-0.8V4.4c-0.2-0.4-0.6-0.6-1-0.6c-0.5,0-0.7-0.6-0.2-0.8c0.7-0.1,1.4-0.3,2-0.6
	c0.3-0.3,0.7-0.3,1-0.1c0.4,0.5,0.2,0.2,0.1,1.7v4.9c0.1,0.8,1,0.5,1.4,1.1c0.1,0.2,0,0.5-0.3,0.6c-1.2-0.1-2.4-0.1-3.7,0
	c-0.2,0-0.5-0.1-0.5-0.3C71.4,10.2,71.5,10,71.6,9.9z"/>
<path class="st0" d="M70.5,10.9c-2.2-0.5-4.5-0.3-6.6-0.2c-0.2,0-0.5-0.1-0.6-0.3c-0.3-1,1.1-0.7,1.3-1.6l0.1-0.9V1.2
	c0-0.8-0.8-1-1.3-1.3c-0.1-0.2-0.1-0.4,0-0.6C63.6-0.9,63.7-1,63.9-1c1.4,0.1,2.8,0.1,4.1,0c0.2,0,0.4,0.2,0.4,0.4
	c0.1,0.8-0.9,0.7-1.2,1.4C67,3.1,66.9,5.4,67,7.7c0,0.5,0,1.2,0.7,1.4c1.6,0.4,2.4-1.4,3.2-2.3c0.2-0.2,0.5-0.3,0.8-0.2
	c0.3,0.2,0.4,0.6,0.2,0.9c-0.3,0.8-0.5,1.6-0.7,2.5C71.2,10,71.3,11,70.5,10.9z"/>
<path class="st0" d="M74.8,0.7c0.1,0.2,0.1,0.5,0,0.8C74.5,1.8,74.1,2,73.6,2c-0.5,0-1-0.3-1.3-0.8c-0.1-0.4,0.2-0.8,0.6-0.9
	C73.5,0.1,74.3,0.2,74.8,0.7z"/>
<path class="st0" d="M93.4,3.7c0.5,0.9,0.7,1.9,0.5,2.9c0,0.2-0.1,0.3-0.3,0.3h-3.1c-0.2-0.1-0.3-0.2-0.3-0.4c0.1-0.8,1.2-0.4,1.6-1
	c0.2-0.6,0.1-1.2-0.3-1.7c-0.2-0.2-0.5-0.3-0.8-0.2C89.9,4,90,5,89.9,5.8c0,1.1,0,2.8,1.2,3.4c0.4,0.1,0.8,0,1.1-0.2
	c0.4-0.3,0.7-1.2,1.3-0.8c0.2,0.2,0.3,0.6,0.1,0.9c-0.4,0.9-1.1,1.5-2,1.7c-0.9,0.2-1.8-0.1-2.5-0.7c-1.4-1.4-1.5-4-0.8-5.8
	c0.4-1.1,1.4-1.9,2.6-2.1C92,2.2,93,2.7,93.4,3.7z"/>
<path class="st0" d="M62.3,18.2c0.7-1.4,2.3-2,3.8-2.3c0.1-0.5,0.1-1.1-0.2-1.6c-0.3-0.2-0.6-0.3-0.9-0.1c-0.7,0.4-0.8,1.4-1.5,1.8
	c-0.2,0.1-0.5-0.1-0.6-0.3c0-0.7,0.1-1.4,0.3-2c0-0.3,0.2-0.6,0.5-0.8c1.3,0.1,2.9-0.5,3.8,0.6c1.2,1.5,0.6,3.7,0.8,5.5
	c0.1,0.6,0.5,1.2,1.1,1.4c0.1,0.2,0.1,0.4,0,0.6L69,21.3c-0.8-0.1-1.8,0.1-2.6-0.1c-0.3-0.3-0.4-0.8-0.3-1.2v-2.7
	c-0.7,0-1.3,0.4-1.6,1c-0.2,0.4-0.2,0.9-0.1,1.3c0.2,0.9,1.6,0.2,1.4,1.3c-0.5,0.6-1.3,0.9-2,0.6c-0.8-0.2-1.4-0.7-1.6-1.5
	C62.1,19.4,62.2,18.8,62.3,18.2z"/>
<path class="st0" d="M62,18.7c-0.3,0.7-0.6,1.5-0.8,2.3c-0.3,0.6-1,0.2-1.5,0.3c-1.4,0.4-2.9,0-3.8-1.2c-1.6-2-2-4.7-1.2-7.1
	c0.5-1.8,2-3.2,3.8-3.5c0.9-0.2,1.6,0.6,2.5,0.3c0.2-0.1,0.5-0.1,0.8,0c0.5,0.8-0.4,1.5-0.5,2.3c-0.1,0.6-0.3,1.1-0.8,1.5
	c-0.2,0.1-0.5,0-0.7-0.2c-0.2-0.8,0.3-1.9-0.7-2.4c-0.4-0.1-0.8,0-1.1,0.2c-1.3,1.4-1.3,3.4-1.2,5.3c0.2,1.4,0.4,3,1.8,3.6
	c1.6,0,1.6-1.9,2.8-2.6C62.1,17.1,62.4,17.8,62,18.7z"/>
<path class="st0" d="M96,12.9l1.3,0.1c0.3-0.2,0.7-0.2,0.9,0.1c0.1,0.1,0.1,0.2,0.1,0.3c0,0.9,0.3,1.7,0.1,2.5
	c-0.1,0.2-0.4,0.3-0.6,0.2c-0.7-0.5-0.6-2.1-1.9-1.8c-0.2,0.1-0.4,0.3-0.5,0.5c-0.1,0.3,0,0.6,0.2,0.9c1.3,0.8,3.5,1.5,3.2,3.4
	c0,1-0.6,1.8-1.5,2.2c-1.1,0.6-2.3-0.3-3.4,0.1c-0.8-0.4-0.3-1.1-0.5-1.9c-0.1-0.4-0.1-0.8,0-1.2c0.2-0.2,0.5-0.2,0.7-0.1
	c0.6,0.7,1,1.9,2.1,1.9c0.3,0,0.6-0.3,0.7-0.6c0-0.4-0.3-0.8-0.7-1c-1-0.5-2.2-1-2.6-2.1c-0.1-0.5-0.1-1.1,0-1.6
	C93.9,13.6,94.9,12.9,96,12.9z"/>
<path class="st0" d="M93.2,14.7c-0.1,0.3-0.4,0.5-0.7,0.5c-0.4,0-0.8-0.5-1.2-0.1c-0.4,0.5-0.6,1.1-0.6,1.8c-0.2,1-0.2,2,0,2.9
	c0.3,0.5,1.5,0.4,1.2,1.2c-0.5,0.5-1.3,0.2-1.9,0.2c-0.8,0-1.6,0-2.4-0.1c-0.1-0.3-0.1-0.6,0.2-0.8c0.4-0.1,0.7-0.4,0.8-0.7
	c0.1-1.6,0-3.2-0.1-4.7c-0.3-0.6-1.7-0.1-1.3-1.1c0.4-0.5,1.2-0.3,1.7-0.6c0.4-0.2,1-0.6,1.4,0c0.1,0.5,0.2,1,0.1,1.5h0.1
	c0.2-0.7,0.7-1.2,1.3-1.6c0.5-0.2,1-0.1,1.4,0.1C93.5,13.6,93.6,14.2,93.2,14.7z"/>
<path class="st0" d="M87.3,21.2c-0.7-0.1-1.4-0.1-2.2,0c-0.2,0-0.4-0.2-0.4-0.4c-0.1-1.1,0-2.4-0.1-3.6c-0.6,0.1-1.2,0.4-1.5,1
	c-0.2,0.4-0.3,0.9-0.1,1.3c0.2,0.9,1.6,0.2,1.4,1.2c-0.5,0.6-1.4,0.9-2.2,0.6c-0.6-0.2-1.1-0.7-1.3-1.3c-0.4-0.9-0.1-1.9,0.5-2.6
	c0.9-0.8,2-1.3,3.2-1.5c0.2-0.6,0-1.3-0.5-1.8c-1.3-0.3-1.3,1.5-2.3,1.9c-0.3,0-0.5-0.2-0.5-0.4c0.1-0.8,0.2-1.6,0.5-2.4
	c0.3-0.5,1.1-0.1,1.6-0.3c0.9-0.3,1.9,0,2.5,0.7c1.2,1.7,0.4,4.3,0.9,6.2c0.2,0.2,0.4,0.4,0.7,0.4C87.9,20.4,87.9,21.4,87.3,21.2z"
	/>
<path class="st0" d="M74.3,14.2c0.5,0.9,0.7,2,0.5,3.1c-0.3,0.5-0.9,0.3-1.3,0.3h-2c-0.2-0.1-0.3-0.2-0.3-0.4
	c0.2-0.8,1.3-0.4,1.7-1.1c0.1-0.6,0-1.2-0.4-1.7c-0.2-0.2-0.5-0.3-0.8-0.2c-0.8,0.5-0.8,1.4-0.8,2.2c0,1.3,0,2.8,1.2,3.4
	c0.4,0.1,0.8,0,1.1-0.2c0.5-0.3,0.7-1.2,1.3-0.7c0.4,0.5-0.1,1.1-0.3,1.5c-1,1.2-2.8,1.4-4,0.5c-0.3-0.2-0.6-0.6-0.8-0.9
	c-0.8-1.7-0.8-3.6,0-5.3c0.5-0.9,1.4-1.6,2.4-1.8C72.9,12.8,73.8,13.3,74.3,14.2z"/>
<path class="st0" d="M79,13c0.3-0.1,0.6,0,0.8,0.1c0.1,0.7,0.3,1.4,0.3,2.1c0.1,0.3,0,0.7-0.3,0.9c-0.9,0.2-0.8-1-1.3-1.5
	c-0.2-0.3-0.6-0.5-1-0.4c-0.3,0.1-0.4,0.3-0.5,0.6c0,0.4,0.2,0.8,0.5,1c1,0.6,2.5,1,2.9,2.3c0.5,1.4-0.2,2.8-1.6,3.3
	c-0.5,0.2-1,0.2-1.5,0.1c-0.5-0.2-1.1-0.2-1.7-0.1c-0.8-0.3-0.3-1.4-0.6-2c-0.1-0.3-0.1-0.7,0-1.1c0.2-0.2,0.5-0.2,0.7-0.1
	c0.6,0.7,1.1,2,2.3,1.8c0.3-0.1,0.5-0.3,0.5-0.5c-0.1-0.5-0.4-1-0.9-1.2c-1-0.4-2.2-1-2.5-2.1c-0.2-0.9,0-1.8,0.6-2.5
	C76.5,12.7,77.8,12.8,79,13z"/>
<path class="st0" d="M62.3,18.2c0.7-1.4,2.3-2,3.8-2.3c0.1-0.5,0.1-1.1-0.2-1.6c-0.3-0.2-0.6-0.3-0.9-0.1c-0.7,0.4-0.8,1.4-1.5,1.8
	c-0.2,0.1-0.5-0.1-0.6-0.3c0-0.7,0.1-1.4,0.3-2c0-0.3,0.2-0.6,0.5-0.8c1.3,0.1,2.9-0.5,3.8,0.6c1.2,1.5,0.6,3.7,0.8,5.5
	c0.1,0.6,0.5,1.2,1.1,1.4c0.1,0.2,0.1,0.4,0,0.6L69,21.3c-0.8-0.1-1.8,0.1-2.6-0.1c-0.3-0.3-0.4-0.8-0.3-1.2v-2.7
	c-0.7,0-1.3,0.4-1.6,1c-0.2,0.4-0.2,0.9-0.1,1.3c0.2,0.9,1.6,0.2,1.4,1.3c-0.5,0.6-1.3,0.9-2,0.6c-0.8-0.2-1.4-0.7-1.6-1.5
	C62.1,19.4,62.2,18.8,62.3,18.2z"/>
<path class="st0" d="M62,18.7c-0.3,0.7-0.6,1.5-0.8,2.3c-0.3,0.6-1,0.2-1.5,0.3c-1.4,0.4-2.9,0-3.8-1.2c-1.6-2-2-4.7-1.2-7.1
	c0.5-1.8,2-3.2,3.8-3.5c0.9-0.2,1.6,0.6,2.5,0.3c0.2-0.1,0.5-0.1,0.8,0c0.5,0.8-0.4,1.5-0.5,2.3c-0.1,0.6-0.3,1.1-0.8,1.5
	c-0.2,0.1-0.5,0-0.7-0.2c-0.2-0.8,0.3-1.9-0.7-2.4c-0.4-0.1-0.8,0-1.1,0.2c-1.3,1.4-1.3,3.4-1.2,5.3c0.2,1.4,0.4,3,1.8,3.6
	c1.6,0,1.6-1.9,2.8-2.6C62.1,17.1,62.4,17.8,62,18.7z"/>
<path class="st0" d="M96,12.9l1.3,0.1c0.3-0.2,0.7-0.2,0.9,0.1c0.1,0.1,0.1,0.2,0.1,0.3c0,0.9,0.3,1.7,0.1,2.5
	c-0.1,0.2-0.4,0.3-0.6,0.2c-0.7-0.5-0.6-2.1-1.9-1.8c-0.2,0.1-0.4,0.3-0.5,0.5c-0.1,0.3,0,0.6,0.2,0.9c1.3,0.8,3.5,1.5,3.2,3.4
	c0,1-0.6,1.8-1.5,2.2c-1.1,0.6-2.3-0.3-3.4,0.1c-0.8-0.4-0.3-1.1-0.5-1.9c-0.1-0.4-0.1-0.8,0-1.2c0.2-0.2,0.5-0.2,0.7-0.1
	c0.6,0.7,1,1.9,2.1,1.9c0.3,0,0.6-0.3,0.7-0.6c0-0.4-0.3-0.8-0.7-1c-1-0.5-2.2-1-2.6-2.1c-0.1-0.5-0.1-1.1,0-1.6
	C93.9,13.6,94.9,12.9,96,12.9z"/>
<path class="st0" d="M93.2,14.7c-0.1,0.3-0.4,0.5-0.7,0.5c-0.4,0-0.8-0.5-1.2-0.1c-0.4,0.5-0.6,1.1-0.6,1.8c-0.2,1-0.2,2,0,2.9
	c0.3,0.5,1.5,0.4,1.2,1.2c-0.5,0.5-1.3,0.2-1.9,0.2c-0.8,0-1.6,0-2.4-0.1c-0.1-0.3-0.1-0.6,0.2-0.8c0.4-0.1,0.7-0.4,0.8-0.7
	c0.1-1.6,0-3.2-0.1-4.7c-0.3-0.6-1.7-0.1-1.3-1.1c0.4-0.5,1.2-0.3,1.7-0.6c0.4-0.2,1-0.6,1.4,0c0.1,0.5,0.2,1,0.1,1.5h0.1
	c0.2-0.7,0.7-1.2,1.3-1.6c0.5-0.2,1-0.1,1.4,0.1C93.5,13.6,93.6,14.2,93.2,14.7z"/>
<path class="st0" d="M87.3,21.2c-0.7-0.1-1.4-0.1-2.2,0c-0.2,0-0.4-0.2-0.4-0.4c-0.1-1.1,0-2.4-0.1-3.6c-0.6,0.1-1.2,0.4-1.5,1
	c-0.2,0.4-0.3,0.9-0.1,1.3c0.2,0.9,1.6,0.2,1.4,1.2c-0.5,0.6-1.4,0.9-2.2,0.6c-0.6-0.2-1.1-0.7-1.3-1.3c-0.4-0.9-0.1-1.9,0.5-2.6
	c0.9-0.8,2-1.3,3.2-1.5c0.2-0.6,0-1.3-0.5-1.8c-1.3-0.3-1.3,1.5-2.3,1.9c-0.3,0-0.5-0.2-0.5-0.4c0.1-0.8,0.2-1.6,0.5-2.4
	c0.3-0.5,1.1-0.1,1.6-0.3c0.9-0.3,1.9,0,2.5,0.7c1.2,1.7,0.4,4.3,0.9,6.2c0.2,0.2,0.4,0.4,0.7,0.4C87.9,20.4,87.9,21.4,87.3,21.2z"
	/>
<path class="st0" d="M74.3,14.2c0.5,0.9,0.7,2,0.5,3.1c-0.3,0.5-0.9,0.3-1.3,0.3h-2c-0.2-0.1-0.3-0.2-0.3-0.4
	c0.2-0.8,1.3-0.4,1.7-1.1c0.1-0.6,0-1.2-0.4-1.7c-0.2-0.2-0.5-0.3-0.8-0.2c-0.8,0.5-0.8,1.4-0.8,2.2c0,1.3,0,2.8,1.2,3.4
	c0.4,0.1,0.8,0,1.1-0.2c0.5-0.3,0.7-1.2,1.3-0.7c0.4,0.5-0.1,1.1-0.3,1.5c-1,1.2-2.8,1.4-4,0.5c-0.3-0.2-0.6-0.6-0.8-0.9
	c-0.8-1.7-0.8-3.6,0-5.3c0.5-0.9,1.4-1.6,2.4-1.8C72.9,12.8,73.8,13.3,74.3,14.2z"/>
<path class="st0" d="M79,13c0.3-0.1,0.6,0,0.8,0.1c0.1,0.7,0.3,1.4,0.3,2.1c0.1,0.3,0,0.7-0.3,0.9c-0.9,0.2-0.8-1-1.3-1.5
	c-0.2-0.3-0.6-0.5-1-0.4c-0.3,0.1-0.4,0.3-0.5,0.6c0,0.4,0.2,0.8,0.5,1c1,0.6,2.5,1,2.9,2.3c0.5,1.4-0.2,2.8-1.6,3.3
	c-0.5,0.2-1,0.2-1.5,0.1c-0.5-0.2-1.1-0.2-1.7-0.1c-0.8-0.3-0.3-1.4-0.6-2c-0.1-0.3-0.1-0.7,0-1.1c0.2-0.2,0.5-0.2,0.7-0.1
	c0.6,0.7,1.1,2,2.3,1.8c0.3-0.1,0.5-0.3,0.5-0.5c-0.1-0.5-0.4-1-0.9-1.2c-1-0.4-2.2-1-2.5-2.1c-0.2-0.9,0-1.8,0.6-2.5
	C76.5,12.7,77.8,12.8,79,13z"/>
<path class="st0" d="M37.7,3.2C37.9,3,38,2.7,38,2.4c0-0.3-0.1-0.6-0.3-0.8c-0.1,0-0.3,0-0.3,0.1c0,0,0,0,0,0c0.1,0.2,0.1,0.4,0,0.7
	c-0.2,0.4-0.8,0.3-1,0.6c0,0.1,0.1,0.3,0.2,0.3C37,3.5,37.3,3.5,37.7,3.2z"/>
<path class="st0" d="M37.7,3.2C37.9,3,38,2.7,38,2.4c0-0.3-0.1-0.6-0.3-0.8c-0.1,0-0.3,0-0.3,0.1c0,0,0,0,0,0c0.1,0.2,0.1,0.4,0,0.7
	c-0.2,0.4-0.8,0.3-1,0.6c0,0.1,0.1,0.3,0.2,0.3C37,3.5,37.3,3.5,37.7,3.2z"/>
<path class="st0" d="M34.5,20.1c0.6,0.4,1.1,0.8,1.7,1.1h1.6c0.2-0.3,0.5-0.6,0.6-1c0.1-0.2,0.2-0.4,0.3-0.6l0.8,1.6h1.1l-0.1-0.1
	c0.6-0.7,1.1-1.5,1.5-2.4c1.4-2.3,2.3-4.9,2.7-7.6c0.1,0.6,0.2,1.2,0.2,1.8c0,2.4-0.3,4.8-0.7,7.1c0.2,0.1,0.4,0.1,0.5,0.1
	c0.1-0.2,0.1-0.4,0.1-0.6c0.5-3.4,1-6.8,0.2-10.1c0.3,0.3,0.6,0.6,0.9,1c0.3-0.1,0.6-0.3,0.8-0.5l2.5-1.8l0.8-0.6V7.3
	c-0.3-1.1-0.7-2.1-1.1-3.2c-0.2-0.1-0.2,0.2-0.3,0.3c-0.1,0.1-0.2,0.2-0.3,0.2c-0.1,0-0.2-0.2-0.2-0.3c0.1-0.9,0.3-1.7,0.6-2.5
	c0.9,1.9,1.6,3.9,2.2,6c0,0.3-0.3,0.3-0.4,0.5l-2.4,1.8c-0.5,0.4-0.9,0.8-1.4,1.2l4.3,6v-1.8l-0.3-0.4l-2.6-3.8
	c1-0.8,1.9-1.5,2.9-2.3V4.8C51,4.2,50.8,3.6,50.5,3l-1.1-2.5L48.1-2c-0.1-0.2-0.3-0.4-0.5-0.4c-0.2,0-0.3,0.2-0.4,0.3
	c0.1,0.4,0.2,0.7,0.4,1l-0.7,0.4c-0.3-0.3-0.6-0.4-1-0.4c-0.1,0.1-0.2,0.2-0.3,0.4c0.1,0.3,0.3,0.5,0.6,0.6l-0.1,0.2
	c-0.3,0.4-0.6,0.9-0.8,1.3c-0.1,0.3-0.4,0.7-0.1,1c-0.9,1.4-2,2.7-3.2,3.8c-0.1,0.1-0.1,0.2-0.2,0.3c0.2,0.2,0.5,0.4,0.8,0.4
	c1.1-0.2,2.2-0.6,3.3-1.1C46.4,5.6,47,5.3,47.6,5c0.1,0.1,0.3,0.3,0.4,0.4c0.2,0,0.4,0,0.6,0C48.8,6,49,6.6,49.1,7.3
	c-0.9,0.7-1.8,1.3-2.8,1.8c-0.6-0.6-1.1-1.3-1.8-1.8c-0.5,0.2-1,0.4-1.6,0.4c-1.5,0-3-0.4-4.3-1.1c1.1-0.3,2.1-0.8,3.1-1.4L42,4.9
	c0.1-0.2,0.1-0.3,0-0.5c-0.2-0.2-0.4-0.4-0.7-0.6c0.5-0.5,0.9-0.9,1.4-1.5c0.9-1.1,1.6-2.4,2.1-3.7c0.4-0.8,0.4-1.6,0.2-2.5
	c-0.2-0.2-0.4-0.4-0.7-0.3c-0.2,0-0.4,0-0.6,0c-1,0.2-1.9,0.5-2.8,0.9c-1.8,0.9-3.5,2.1-5,3.5c0-0.2,0-0.4,0.1-0.6
	c0-0.1,0-0.2-0.1-0.2c-0.2,0-0.3,0-0.4,0.1C35,0,34.7,0.6,34.8,1.2c0,0.1,0,0.2-0.1,0.3c-0.1-0.1-0.1-0.2-0.1-0.3
	c0-0.2,0-0.5-0.1-0.7c-0.1-0.1-0.2-0.1-0.3,0c-0.2,0.5-0.4,1.1-0.4,1.7c-0.1-0.3-0.2-0.5-0.2-0.8c0-0.1-0.1-0.1-0.2-0.1
	c-0.2,0.2-0.3,0.4-0.4,0.7c-0.1,0.6-0.1,1.1,0.2,1.6c0,0.2-0.2,0-0.4,0.1c-0.3,0.1-0.4,0.4-0.5,0.7c0.1,0,0.2,0,0.2,0.1
	c0.1,0.1,0.1,0.3,0,0.4c-0.4,1.1-0.7,2.2-1,3.4c0,0.1,0.1,0.1,0.2,0.2c0.2,0,0.3,0,0.4,0.1c0,0.1,0,0.2-0.1,0.3l-0.5-0.2
	c-0.1,0-0.1,0-0.2,0.1l0.3,1.3c-0.1,0.2-0.1,0.5,0,0.7c0,0.1,0.2,0,0.2,0.1s-0.5,0.4-0.3,0.7c0.1,0.1,0.2,0.1,0.3,0.2
	c-0.1,0.5,0,0.9,0.4,1.3c0.1,0,0.2,0,0.2,0.1c0,0.5,0.1,0.9,0.2,1.4c0.4,0,0.8-0.3,1-0.7c0.9,0.8,1.9,1.4,3,2c0,0.7-0.2,1.3-0.5,1.9
	c-1.2-0.7-2.3-1.6-3.3-2.6c-0.1,0.4,0.1,0.9,0.5,1.1c0.1,0.2,0.2,0.5,0.3,0.8c0.2,0.3,0.5,0.5,0.8,0.6c0.7,0.6,1.4,1.2,2.2,1.7
	l0.8-1.8c0.2-0.5,0.3-1.1,0.4-1.7c0.2-0.1,0.5-0.3,0.7-0.4c0.1-0.2,0.1-0.5-0.1-0.8c0-0.1-0.1-0.1-0.2-0.1c0,0,0,0,0,0l-1,0.5
	c-1.4-0.7-2.7-1.6-3.7-2.9c-0.1-0.1-0.1-0.2-0.1-0.3c0.1,0.1,0.3,0.1,0.4,0.1c0-0.2,0-0.4,0-0.7c-0.1-0.3-0.1-0.7,0-1
	c0.3,0,0.6,0.1,0.8,0.4c0.2,0,0-0.2,0.1-0.4c-0.1-0.4-0.3-0.8-0.7-1c0-0.1,0.1-0.2,0.2-0.3c0.2-0.2,0.3-0.6,0.2-0.9
	c-0.3-0.2-0.2,0.2-0.4,0.3c-0.1,0.1-0.3,0.1-0.4,0c-0.1-0.3,0.4-0.3,0.5-0.6c0.1-0.2,0.1-0.3,0.1-0.5c0-0.1,0-0.3,0-0.4
	c0.1-0.1,0.3,0,0.5-0.1c0.5-0.2,0.8-0.7,0.8-1.2c0-0.1,0-0.3-0.1-0.3c-0.2,0.1-0.2,0.2-0.4,0.3l-0.8,0.1c0-0.2,0-0.4,0.1-0.6
	c0.2-0.1,0.4-0.3,0.5-0.6c0,0,0.1-0.1,0.2-0.1C35.3,4.9,35.6,5,36,5c0.3-0.1,0.5-0.3,0.7-0.6c0.1-0.4,0-0.8-0.3-1.1
	c-0.1-0.1-0.2-0.2-0.3-0.1S36,4,35.6,4.1c-0.1,0-0.3,0-0.4-0.1c-0.1-0.2-0.1-0.3-0.1-0.5c-0.1,0-0.2,0.2-0.3,0.2
	c-0.2,0.1-0.3,0.1-0.5,0.1c0-0.1,0-0.2,0.1-0.3c1-1.3,2.1-2.4,3.4-3.5c1.6-1.3,3.3-2.3,5.2-3C43.3-3,43.6-3,43.9-3
	C44-2.8,44-2.6,44-2.5c-0.6,2.3-1.9,4.3-3.8,5.7c-0.3,0.1-0.4,0.4-0.5,0.7l1,0.8c-0.6,0.3-1.2,0.6-1.8,0.8c-0.5,0.2-0.9,0.3-1.4,0.3
	c-0.1-0.3-0.1-0.5-0.2-0.8c-0.1,0-0.2-0.1-0.2,0c-0.2,0-0.3,0.1-0.3,0.3c0.1,1,0.3,2,0.5,2.9c0.1,0.2,0,0.4,0.3,0.4
	c0.2,0,0.3,0,0.4-0.1c0-0.4,0-0.9-0.1-1.3c0.5,0.2,0.9,0.4,1.4,0.6c1.4,0.5,2.9,0.7,4.3,0.6c0.3,0,0.6,0,0.8,0
	c0.1,0.1,0.1,0.2,0,0.2C44.2,8.8,44,8.9,43.9,9c0,0.5,0,1.1,0,1.6c0,0.2-0.1,0.4-0.2,0.6c-0.1,0.1-0.1-0.1-0.2-0.1
	c-0.1,0-0.1,0.1-0.1,0.2c0,0.2,0,0.4,0.2,0.5c0,0.2,0,0.3-0.1,0.5c-0.2-0.1,0-0.2,0-0.4c0-0.2-0.2-0.3-0.3-0.3c-0.1,0-0.2,0-0.2,0.1
	c0,0.1,0,0.1,0.2,0.2c-0.2,0.1-0.2,0.3-0.2,0.5c-0.1,0.1-0.1,0.1-0.2,0.1c-0.1,0-0.2,0-0.2-0.1c-0.1-0.3,0.3-0.3,0.2-0.6
	c-0.1,0-0.1,0-0.2,0c-0.3,0.1-0.4,0.3-0.4,0.6c0,0.1,0,0.2,0.1,0.3c0.1,0.2,0.4,0,0.3,0.3c-0.1,0-0.3,0.1-0.3,0.2
	c-0.1,0.1-0.1,0.3-0.1,0.4c0.1,0.2,0.3,0.4,0.5,0.4c-0.2,0-0.2,0.3-0.3,0.4s0-0.2,0-0.3c-0.1-0.1-0.2-0.1-0.3,0
	c-0.1,0.1-0.2,0.2-0.2,0.4c0,0.1,0.1,0.2,0.2,0.3c0.1,0.1,0.3,0.1,0.4,0.1c0,0.1,0.1,0.3,0.2,0.4c-0.5,1.3-1.2,2.5-1.9,3.7l-0.7,1
	c-0.3-0.5-0.6-1.1-0.8-1.7c0.1-0.3,0.1-0.5,0.2-0.8c-0.2-0.1-0.5-0.2-0.8-0.1c-0.2,1.3-0.7,2.4-1.5,3.5c-1.5-0.8-2.8-1.8-3.9-3.1
	l-0.4-0.8c-0.1-0.3-0.5-0.6-0.2-0.9c0-0.1-0.1-0.3-0.1-0.6c0.1-0.1,0-0.2-0.1-0.3c0,0-0.1,0-0.1,0c-0.1,0-0.3,0-0.4,0l-1.6-3.4
	l-0.6-1.3c0.2-0.3,0.2-0.8,0-1.1c-0.1-0.1-0.2-0.2-0.2-0.3c0.2-0.1,0.3-0.2,0.4-0.3c0.1-0.3,0-0.5-0.2-0.7c-0.2-0.1-0.4-0.1-0.6-0.1
	C30,7.5,30.6,7,31.2,6.4c0.6-0.8,1-1.7,1.1-2.7c0.1-0.7,0-1.4-0.3-2l-1.4,1c-0.3,0.2-0.7,0.4-1.1,0.6c-0.1-1.2,0-2.5,0.2-3.7l0,0
	c-1.3,1.1-2.5,2.2-3.5,3.5l-0.5-0.6c-0.1-0.1-0.2-0.2-0.3-0.2c-0.1,0-0.2,0.1-0.2,0.2c0.1,0.5,0.2,1,0.4,1.4c-0.7,0.9-1.3,1.9-1.8,3
	v8.1c0.3,0.5,0.6,0.9,1.1,1.2c0.5,0.3,1.1,0.4,1.7,0.1c0.5-0.3,0.8-0.8,0.9-1.4c0.1-1.7-0.1-3.4,0.5-5.1c0.1,0.3,0.3,0.5,0.5,0.7
	c0.1,0,0.3,0.1,0.4,0.2l2.2,4.6c-0.1,0.1-0.2,0.2-0.3,0.4c-0.1,0.3-0.1,0.5-0.1,0.8c-0.1,0.3,0,0.6,0.3,0.7c0,0.3,0.2,0.5,0.5,0.5
	c0,0.2,0.2,0.4,0.5,0.4c0.2,0,0.3-0.1,0.5-0.1l1.3,2.8H35C34.7,20.7,34.6,20.3,34.5,20.1z M46.9,0.5c0.3,0.1,0.5,0.3,0.6,0.6
	c-0.3,0.1-0.6,0.4-1,0.5l-0.3-0.4C46.4,0.9,46.7,0.7,46.9,0.5z M47.7,3.9c-1.4,1-3,1.7-4.7,2.2c0.5-0.5,0.9-1,1.4-1.4
	c0,0.2,0,0.3,0.1,0.4c0.1,0.1,0.3,0.1,0.4,0.1c0.3-0.1,0.5-0.3,0.6-0.6c0-0.1,0-0.3-0.1-0.4c-0.1-0.1-0.2-0.1-0.3-0.1
	c-0.1,0-0.3,0-0.4,0c0.5-0.6,0.9-1.2,1.3-1.7c0.5,0.4,1,0.8,1.5,1.3C47.8,3.8,47.8,3.9,47.7,3.9z M48.1,2.4c0,0.1-0.1,0.3-0.1,0.4
	c-0.2-0.2-0.5-0.4-0.7-0.6c0.3-0.2,0.6-0.3,0.9-0.5C48.1,1.9,48.1,2.1,48.1,2.4L48.1,2.4z M47.6-0.1c0.1-0.1,0.2-0.2,0.3-0.2
	c0.1,0.2,0.2,0.5,0.3,0.7C48,0.2,47.8,0.1,47.6-0.1z M32.8,10.8c0,0.2,0,0.4-0.1,0.6c-0.2-0.4-0.4-0.8-0.5-1.2c0-0.3,0.4-0.1,0.5,0
	C32.9,10.4,32.9,10.6,32.8,10.8z M33,8l-0.4,0.2c-0.2-0.2,0-0.4,0-0.7c0-0.1,0-0.3,0.1-0.4c0.2,0.1,0.4,0.3,0.5,0.5
	C33.2,7.8,33.1,7.9,33,8z M33.4,6c-0.1,0.1-0.2,0-0.3,0c-0.1-0.2,0-0.5,0.1-0.7c0.1,0,0.2,0,0.2,0.1C33.5,5.6,33.5,5.8,33.4,6
	L33.4,6z M43.3,13.2c-0.1-0.1,0-0.1,0-0.2C43.3,13,43.3,13.1,43.3,13.2L43.3,13.2z M43.4,12.4c0.2,0.2,0.1,0.5-0.1,0.5
	c-0.1-0.1-0.2-0.1-0.3-0.1C43.1,12.6,43.2,12.5,43.4,12.4L43.4,12.4z M43.1,13.6L43.1,13.6c0.1,0.2,0,0.4-0.4,0.3
	C42.8,13.8,43,13.7,43.1,13.6L43.1,13.6z M42.4,13.5c-0.1-0.1-0.1-0.3,0-0.4c0.1,0.1,0.2,0.2,0.2,0.4C42.6,13.5,42.5,13.5,42.4,13.5
	L42.4,13.5z M42.4,14.6c0-0.4,0.1-0.5,0.3,0.1C42.7,14.6,42.6,14.6,42.4,14.6L42.4,14.6z M28.7,6.9c-1,0.9-1.7,2-2,3.3
	c-0.2,1.2-0.3,2.5-0.3,3.7c0,0.4,0,0.8-0.2,1.2c-0.1,0.1-0.3,0.2-0.4,0.2c-0.3-0.1-0.6-0.3-0.8-0.6c-1.4-2-1.5-4.6-0.4-6.8
	C25,7.2,25.5,6.4,26,5.6c0.2,0,0.3,0.1,0.3,0.3c-0.1,0.1-0.2,0.3-0.2,0.5c0,0.1,0.1,0.3,0.2,0.3c0.1,0,0.3,0,0.4-0.2
	c0.4-0.4,0.8-0.7,1.2-1.1c0.1-0.1,0.1-0.2,0-0.4C27.8,5,27.6,5,27.5,5c-0.1,0-0.2,0-0.2-0.1c-0.2-0.2-0.3-0.4-0.4-0.7
	c0.5-0.7,1-1.3,1.5-1.9l0.1,0.1c-0.1,0.8-0.1,1.6,0,2.5c1-0.2,2-0.6,2.8-1.3C31.3,5.3,29.9,6.1,28.7,6.9z M31.3,16.8
	c-0.1,0-0.1-0.1-0.1-0.2c0.1-0.2,0.3-0.3,0.5-0.3c0.1,0.1,0.1,0.2,0,0.3c0,0,0,0,0,0C31.6,16.6,31.5,16.7,31.3,16.8L31.3,16.8z
	 M31.8,17.6c-0.2,0-0.3-0.2-0.3-0.3c0.1-0.2,0.3-0.3,0.5-0.4c0.1-0.1,0.2-0.1,0.3,0c0,0,0,0,0,0c0.1,0.1,0.1,0.2,0.1,0.4
	C32.3,17.5,32.1,17.6,31.8,17.6L31.8,17.6z"/>
<path class="st0" d="M34.5,20.1c0.6,0.4,1.1,0.8,1.7,1.1h1.6c0.2-0.3,0.5-0.6,0.6-1c0.1-0.2,0.2-0.4,0.3-0.6l0.8,1.6h1.1l-0.1-0.1
	c0.6-0.7,1.1-1.5,1.5-2.4c1.4-2.3,2.3-4.9,2.7-7.6c0.1,0.6,0.2,1.2,0.2,1.8c0,2.4-0.3,4.8-0.7,7.1c0.2,0.1,0.4,0.1,0.5,0.1
	c0.1-0.2,0.1-0.4,0.1-0.6c0.5-3.4,1-6.8,0.2-10.1c0.3,0.3,0.6,0.6,0.9,1c0.3-0.1,0.6-0.3,0.8-0.5l2.5-1.8l0.8-0.6V7.3
	c-0.3-1.1-0.7-2.1-1.1-3.2c-0.2-0.1-0.2,0.2-0.3,0.3c-0.1,0.1-0.2,0.2-0.3,0.2c-0.1,0-0.2-0.2-0.2-0.3c0.1-0.9,0.3-1.7,0.6-2.5
	c0.9,1.9,1.6,3.9,2.2,6c0,0.3-0.3,0.3-0.4,0.5l-2.4,1.8c-0.5,0.4-0.9,0.8-1.4,1.2l4.3,6v-1.8l-0.3-0.4l-2.6-3.8
	c1-0.8,1.9-1.5,2.9-2.3V4.8C51,4.2,50.8,3.6,50.5,3l-1.1-2.5L48.1-2c-0.1-0.2-0.3-0.4-0.5-0.4c-0.2,0-0.3,0.2-0.4,0.3
	c0.1,0.4,0.2,0.7,0.4,1l-0.7,0.4c-0.3-0.3-0.6-0.4-1-0.4c-0.1,0.1-0.2,0.2-0.3,0.4c0.1,0.3,0.3,0.5,0.6,0.6l-0.1,0.2
	c-0.3,0.4-0.6,0.9-0.8,1.3c-0.1,0.3-0.4,0.7-0.1,1c-0.9,1.4-2,2.7-3.2,3.8c-0.1,0.1-0.1,0.2-0.2,0.3c0.2,0.2,0.5,0.4,0.8,0.4
	c1.1-0.2,2.2-0.6,3.3-1.1C46.4,5.6,47,5.3,47.6,5c0.1,0.1,0.3,0.3,0.4,0.4c0.2,0,0.4,0,0.6,0C48.8,6,49,6.6,49.1,7.3
	c-0.9,0.7-1.8,1.3-2.8,1.8c-0.6-0.6-1.1-1.3-1.8-1.8c-0.5,0.2-1,0.4-1.6,0.4c-1.5,0-3-0.4-4.3-1.1c1.1-0.3,2.1-0.8,3.1-1.4L42,4.9
	c0.1-0.2,0.1-0.3,0-0.5c-0.2-0.2-0.4-0.4-0.7-0.6c0.5-0.5,0.9-0.9,1.4-1.5c0.9-1.1,1.6-2.4,2.1-3.7c0.4-0.8,0.4-1.6,0.2-2.5
	c-0.2-0.2-0.4-0.4-0.7-0.3c-0.2,0-0.4,0-0.6,0c-1,0.2-1.9,0.5-2.8,0.9c-1.8,0.9-3.5,2.1-5,3.5c0-0.2,0-0.4,0.1-0.6
	c0-0.1,0-0.2-0.1-0.2c-0.2,0-0.3,0-0.4,0.1C35,0,34.7,0.6,34.8,1.2c0,0.1,0,0.2-0.1,0.3c-0.1-0.1-0.1-0.2-0.1-0.3
	c0-0.2,0-0.5-0.1-0.7c-0.1-0.1-0.2-0.1-0.3,0c-0.2,0.5-0.4,1.1-0.4,1.7c-0.1-0.3-0.2-0.5-0.2-0.8c0-0.1-0.1-0.1-0.2-0.1
	c-0.2,0.2-0.3,0.4-0.4,0.7c-0.1,0.6-0.1,1.1,0.2,1.6c0,0.2-0.2,0-0.4,0.1c-0.3,0.1-0.4,0.4-0.5,0.7c0.1,0,0.2,0,0.2,0.1
	c0.1,0.1,0.1,0.3,0,0.4c-0.4,1.1-0.7,2.2-1,3.4c0,0.1,0.1,0.1,0.2,0.2c0.2,0,0.3,0,0.4,0.1c0,0.1,0,0.2-0.1,0.3l-0.5-0.2
	c-0.1,0-0.1,0-0.2,0.1l0.3,1.3c-0.1,0.2-0.1,0.5,0,0.7c0,0.1,0.2,0,0.2,0.1s-0.5,0.4-0.3,0.7c0.1,0.1,0.2,0.1,0.3,0.2
	c-0.1,0.5,0,0.9,0.4,1.3c0.1,0,0.2,0,0.2,0.1c0,0.5,0.1,0.9,0.2,1.4c0.4,0,0.8-0.3,1-0.7c0.9,0.8,1.9,1.4,3,2c0,0.7-0.2,1.3-0.5,1.9
	c-1.2-0.7-2.3-1.6-3.3-2.6c-0.1,0.4,0.1,0.9,0.5,1.1c0.1,0.2,0.2,0.5,0.3,0.8c0.2,0.3,0.5,0.5,0.8,0.6c0.7,0.6,1.4,1.2,2.2,1.7
	l0.8-1.8c0.2-0.5,0.3-1.1,0.4-1.7c0.2-0.1,0.5-0.3,0.7-0.4c0.1-0.2,0.1-0.5-0.1-0.8c0-0.1-0.1-0.1-0.2-0.1c0,0,0,0,0,0l-1,0.5
	c-1.4-0.7-2.7-1.6-3.7-2.9c-0.1-0.1-0.1-0.2-0.1-0.3c0.1,0.1,0.3,0.1,0.4,0.1c0-0.2,0-0.4,0-0.7c-0.1-0.3-0.1-0.7,0-1
	c0.3,0,0.6,0.1,0.8,0.4c0.2,0,0-0.2,0.1-0.4c-0.1-0.4-0.3-0.8-0.7-1c0-0.1,0.1-0.2,0.2-0.3c0.2-0.2,0.3-0.6,0.2-0.9
	c-0.3-0.2-0.2,0.2-0.4,0.3c-0.1,0.1-0.3,0.1-0.4,0c-0.1-0.3,0.4-0.3,0.5-0.6c0.1-0.2,0.1-0.3,0.1-0.5c0-0.1,0-0.3,0-0.4
	c0.1-0.1,0.3,0,0.5-0.1c0.5-0.2,0.8-0.7,0.8-1.2c0-0.1,0-0.3-0.1-0.3c-0.2,0.1-0.2,0.2-0.4,0.3l-0.8,0.1c0-0.2,0-0.4,0.1-0.6
	c0.2-0.1,0.4-0.3,0.5-0.6c0,0,0.1-0.1,0.2-0.1C35.3,4.9,35.6,5,36,5c0.3-0.1,0.5-0.3,0.7-0.6c0.1-0.4,0-0.8-0.3-1.1
	c-0.1-0.1-0.2-0.2-0.3-0.1S36,4,35.6,4.1c-0.1,0-0.3,0-0.4-0.1c-0.1-0.2-0.1-0.3-0.1-0.5c-0.1,0-0.2,0.2-0.3,0.2
	c-0.2,0.1-0.3,0.1-0.5,0.1c0-0.1,0-0.2,0.1-0.3c1-1.3,2.1-2.4,3.4-3.5c1.6-1.3,3.3-2.3,5.2-3C43.3-3,43.6-3,43.9-3
	C44-2.8,44-2.6,44-2.5c-0.6,2.3-1.9,4.3-3.8,5.7c-0.3,0.1-0.4,0.4-0.5,0.7l1,0.8c-0.6,0.3-1.2,0.6-1.8,0.8c-0.5,0.2-0.9,0.3-1.4,0.3
	c-0.1-0.3-0.1-0.5-0.2-0.8c-0.1,0-0.2-0.1-0.2,0c-0.2,0-0.3,0.1-0.3,0.3c0.1,1,0.3,2,0.5,2.9c0.1,0.2,0,0.4,0.3,0.4
	c0.2,0,0.3,0,0.4-0.1c0-0.4,0-0.9-0.1-1.3c0.5,0.2,0.9,0.4,1.4,0.6c1.4,0.5,2.9,0.7,4.3,0.6c0.3,0,0.6,0,0.8,0
	c0.1,0.1,0.1,0.2,0,0.2C44.2,8.8,44,8.9,43.9,9c0,0.5,0,1.1,0,1.6c0,0.2-0.1,0.4-0.2,0.6c-0.1,0.1-0.1-0.1-0.2-0.1
	c-0.1,0-0.1,0.1-0.1,0.2c0,0.2,0,0.4,0.2,0.5c0,0.2,0,0.3-0.1,0.5c-0.2-0.1,0-0.2,0-0.4c0-0.2-0.2-0.3-0.3-0.3c-0.1,0-0.2,0-0.2,0.1
	c0,0.1,0,0.1,0.2,0.2c-0.2,0.1-0.2,0.3-0.2,0.5c-0.1,0.1-0.1,0.1-0.2,0.1c-0.1,0-0.2,0-0.2-0.1c-0.1-0.3,0.3-0.3,0.2-0.6
	c-0.1,0-0.1,0-0.2,0c-0.3,0.1-0.4,0.3-0.4,0.6c0,0.1,0,0.2,0.1,0.3c0.1,0.2,0.4,0,0.3,0.3c-0.1,0-0.3,0.1-0.3,0.2
	c-0.1,0.1-0.1,0.3-0.1,0.4c0.1,0.2,0.3,0.4,0.5,0.4c-0.2,0-0.2,0.3-0.3,0.4s0-0.2,0-0.3c-0.1-0.1-0.2-0.1-0.3,0
	c-0.1,0.1-0.2,0.2-0.2,0.4c0,0.1,0.1,0.2,0.2,0.3c0.1,0.1,0.3,0.1,0.4,0.1c0,0.1,0.1,0.3,0.2,0.4c-0.5,1.3-1.2,2.5-1.9,3.7l-0.7,1
	c-0.3-0.5-0.6-1.1-0.8-1.7c0.1-0.3,0.1-0.5,0.2-0.8c-0.2-0.1-0.5-0.2-0.8-0.1c-0.2,1.3-0.7,2.4-1.5,3.5c-1.5-0.8-2.8-1.8-3.9-3.1
	l-0.4-0.8c-0.1-0.3-0.5-0.6-0.2-0.9c0-0.1-0.1-0.3-0.1-0.6c0.1-0.1,0-0.2-0.1-0.3c0,0-0.1,0-0.1,0c-0.1,0-0.3,0-0.4,0l-1.6-3.4
	l-0.6-1.3c0.2-0.3,0.2-0.8,0-1.1c-0.1-0.1-0.2-0.2-0.2-0.3c0.2-0.1,0.3-0.2,0.4-0.3c0.1-0.3,0-0.5-0.2-0.7c-0.2-0.1-0.4-0.1-0.6-0.1
	C30,7.5,30.6,7,31.2,6.4c0.6-0.8,1-1.7,1.1-2.7c0.1-0.7,0-1.4-0.3-2l-1.4,1c-0.3,0.2-0.7,0.4-1.1,0.6c-0.1-1.2,0-2.5,0.2-3.7l0,0
	c-1.3,1.1-2.5,2.2-3.5,3.5l-0.5-0.6c-0.1-0.1-0.2-0.2-0.3-0.2c-0.1,0-0.2,0.1-0.2,0.2c0.1,0.5,0.2,1,0.4,1.4c-0.7,0.9-1.3,1.9-1.8,3
	v8.1c0.3,0.5,0.6,0.9,1.1,1.2c0.5,0.3,1.1,0.4,1.7,0.1c0.5-0.3,0.8-0.8,0.9-1.4c0.1-1.7-0.1-3.4,0.5-5.1c0.1,0.3,0.3,0.5,0.5,0.7
	c0.1,0,0.3,0.1,0.4,0.2l2.2,4.6c-0.1,0.1-0.2,0.2-0.3,0.4c-0.1,0.3-0.1,0.5-0.1,0.8c-0.1,0.3,0,0.6,0.3,0.7c0,0.3,0.2,0.5,0.5,0.5
	c0,0.2,0.2,0.4,0.5,0.4c0.2,0,0.3-0.1,0.5-0.1l1.3,2.8H35C34.7,20.7,34.6,20.3,34.5,20.1z M46.9,0.5c0.3,0.1,0.5,0.3,0.6,0.6
	c-0.3,0.1-0.6,0.4-1,0.5l-0.3-0.4C46.4,0.9,46.7,0.7,46.9,0.5z M47.7,3.9c-1.4,1-3,1.7-4.7,2.2c0.5-0.5,0.9-1,1.4-1.4
	c0,0.2,0,0.3,0.1,0.4c0.1,0.1,0.3,0.1,0.4,0.1c0.3-0.1,0.5-0.3,0.6-0.6c0-0.1,0-0.3-0.1-0.4c-0.1-0.1-0.2-0.1-0.3-0.1
	c-0.1,0-0.3,0-0.4,0c0.5-0.6,0.9-1.2,1.3-1.7c0.5,0.4,1,0.8,1.5,1.3C47.8,3.8,47.8,3.9,47.7,3.9z M48.1,2.4c0,0.1-0.1,0.3-0.1,0.4
	c-0.2-0.2-0.5-0.4-0.7-0.6c0.3-0.2,0.6-0.3,0.9-0.5C48.1,1.9,48.1,2.1,48.1,2.4L48.1,2.4z M47.6-0.1c0.1-0.1,0.2-0.2,0.3-0.2
	c0.1,0.2,0.2,0.5,0.3,0.7C48,0.2,47.8,0.1,47.6-0.1z M32.8,10.8c0,0.2,0,0.4-0.1,0.6c-0.2-0.4-0.4-0.8-0.5-1.2c0-0.3,0.4-0.1,0.5,0
	C32.9,10.4,32.9,10.6,32.8,10.8z M33,8l-0.4,0.2c-0.2-0.2,0-0.4,0-0.7c0-0.1,0-0.3,0.1-0.4c0.2,0.1,0.4,0.3,0.5,0.5
	C33.2,7.8,33.1,7.9,33,8z M33.4,6c-0.1,0.1-0.2,0-0.3,0c-0.1-0.2,0-0.5,0.1-0.7c0.1,0,0.2,0,0.2,0.1C33.5,5.6,33.5,5.8,33.4,6
	L33.4,6z M43.3,13.2c-0.1-0.1,0-0.1,0-0.2C43.3,13,43.3,13.1,43.3,13.2L43.3,13.2z M43.4,12.4c0.2,0.2,0.1,0.5-0.1,0.5
	c-0.1-0.1-0.2-0.1-0.3-0.1C43.1,12.6,43.2,12.5,43.4,12.4L43.4,12.4z M43.1,13.6L43.1,13.6c0.1,0.2,0,0.4-0.4,0.3
	C42.8,13.8,43,13.7,43.1,13.6L43.1,13.6z M42.4,13.5c-0.1-0.1-0.1-0.3,0-0.4c0.1,0.1,0.2,0.2,0.2,0.4C42.6,13.5,42.5,13.5,42.4,13.5
	L42.4,13.5z M42.4,14.6c0-0.4,0.1-0.5,0.3,0.1C42.7,14.6,42.6,14.6,42.4,14.6L42.4,14.6z M28.7,6.9c-1,0.9-1.7,2-2,3.3
	c-0.2,1.2-0.3,2.5-0.3,3.7c0,0.4,0,0.8-0.2,1.2c-0.1,0.1-0.3,0.2-0.4,0.2c-0.3-0.1-0.6-0.3-0.8-0.6c-1.4-2-1.5-4.6-0.4-6.8
	C25,7.2,25.5,6.4,26,5.6c0.2,0,0.3,0.1,0.3,0.3c-0.1,0.1-0.2,0.3-0.2,0.5c0,0.1,0.1,0.3,0.2,0.3c0.1,0,0.3,0,0.4-0.2
	c0.4-0.4,0.8-0.7,1.2-1.1c0.1-0.1,0.1-0.2,0-0.4C27.8,5,27.6,5,27.5,5c-0.1,0-0.2,0-0.2-0.1c-0.2-0.2-0.3-0.4-0.4-0.7
	c0.5-0.7,1-1.3,1.5-1.9l0.1,0.1c-0.1,0.8-0.1,1.6,0,2.5c1-0.2,2-0.6,2.8-1.3C31.3,5.3,29.9,6.1,28.7,6.9z M31.3,16.8
	c-0.1,0-0.1-0.1-0.1-0.2c0.1-0.2,0.3-0.3,0.5-0.3c0.1,0.1,0.1,0.2,0,0.3c0,0,0,0,0,0C31.6,16.6,31.5,16.7,31.3,16.8L31.3,16.8z
	 M31.8,17.6c-0.2,0-0.3-0.2-0.3-0.3c0.1-0.2,0.3-0.3,0.5-0.4c0.1-0.1,0.2-0.1,0.3,0c0,0,0,0,0,0c0.1,0.1,0.1,0.2,0.1,0.4
	C32.3,17.5,32.1,17.6,31.8,17.6L31.8,17.6z"/>
<polygon class="st0" points="51.2,21.2 51.2,20.8 50.4,21.2 "/>
<polygon class="st0" points="51.2,21.2 51.2,20.8 50.4,21.2 "/>
<path class="st0" d="M28.1,4.1c0.1-0.1,0.1-0.3,0-0.5c-0.2-0.3-0.6,0.1-0.8,0.3c-0.1,0.1-0.1,0.3,0,0.4c0.1,0.1,0.2,0.1,0.3,0.1
	C27.9,4.4,28,4.2,28.1,4.1z"/>
<path class="st0" d="M28.1,4.1c0.1-0.1,0.1-0.3,0-0.5c-0.2-0.3-0.6,0.1-0.8,0.3c-0.1,0.1-0.1,0.3,0,0.4c0.1,0.1,0.2,0.1,0.3,0.1
	C27.9,4.4,28,4.2,28.1,4.1z"/>
<path class="st0" d="M30.1,4.7c-0.1,0-0.3,0-0.4,0.1c-0.2,0.1-0.3,0.3-0.3,0.5c0,0.1,0.1,0.2,0.2,0.3c0.1,0.1,0.3,0.1,0.4,0
	c0.2-0.1,0.3-0.2,0.4-0.4C30.4,5,30.3,4.8,30.1,4.7z"/>
<path class="st0" d="M30.1,4.7c-0.1,0-0.3,0-0.4,0.1c-0.2,0.1-0.3,0.3-0.3,0.5c0,0.1,0.1,0.2,0.2,0.3c0.1,0.1,0.3,0.1,0.4,0
	c0.2-0.1,0.3-0.2,0.4-0.4C30.4,5,30.3,4.8,30.1,4.7z"/>
<path class="st0" d="M28.6,5.6c-0.1-0.1-0.3-0.1-0.4,0c-0.2,0.1-0.3,0.3-0.3,0.5c0,0.1,0.1,0.3,0.2,0.3c0.2,0,0.4-0.1,0.5-0.2
	c0.1-0.1,0.2-0.3,0.2-0.4C28.7,5.7,28.6,5.7,28.6,5.6z"/>
<path class="st0" d="M28.6,5.6c-0.1-0.1-0.3-0.1-0.4,0c-0.2,0.1-0.3,0.3-0.3,0.5c0,0.1,0.1,0.3,0.2,0.3c0.2,0,0.4-0.1,0.5-0.2
	c0.1-0.1,0.2-0.3,0.2-0.4C28.7,5.7,28.6,5.7,28.6,5.6z"/>
<path class="st0" d="M26,7.8c0.2-0.1,0.3-0.2,0.3-0.3c0.1-0.2,0-0.4-0.1-0.6c-0.2-0.2-0.5,0.1-0.6,0.2c-0.1,0.2-0.1,0.4,0,0.6
	C25.8,7.8,25.9,7.9,26,7.8z"/>
<path class="st0" d="M26,7.8c0.2-0.1,0.3-0.2,0.3-0.3c0.1-0.2,0-0.4-0.1-0.6c-0.2-0.2-0.5,0.1-0.6,0.2c-0.1,0.2-0.1,0.4,0,0.6
	C25.8,7.8,25.9,7.9,26,7.8z"/>
<path class="st0" d="M27.1,6.9c-0.2,0-0.4,0-0.5,0.2c-0.1,0.2-0.1,0.5,0,0.7c0.1,0.1,0.2,0.1,0.3,0.1c0.2-0.1,0.4-0.3,0.4-0.6
	C27.4,7.2,27.3,7,27.1,6.9z"/>
<path class="st0" d="M27.1,6.9c-0.2,0-0.4,0-0.5,0.2c-0.1,0.2-0.1,0.5,0,0.7c0.1,0.1,0.2,0.1,0.3,0.1c0.2-0.1,0.4-0.3,0.4-0.6
	C27.4,7.2,27.3,7,27.1,6.9z"/>
<path class="st0" d="M25.2,9.5c0.2-0.1,0.3-0.2,0.3-0.3c0.1-0.3,0.1-0.6-0.1-0.8c-0.1-0.1-0.3-0.1-0.5-0.1c-0.1,0.1-0.3,0.2-0.3,0.4
	c-0.1,0.2,0,0.5,0.2,0.7C25,9.6,25.1,9.6,25.2,9.5z"/>
<path class="st0" d="M25.2,9.5c0.2-0.1,0.3-0.2,0.3-0.3c0.1-0.3,0.1-0.6-0.1-0.8c-0.1-0.1-0.3-0.1-0.5-0.1c-0.1,0.1-0.3,0.2-0.3,0.4
	c-0.1,0.2,0,0.5,0.2,0.7C25,9.6,25.1,9.6,25.2,9.5z"/>
<path class="st0" d="M26.2,9.2c-0.1-0.1-0.3-0.1-0.4,0c-0.2,0.2-0.3,0.6-0.2,0.9c0,0.2,0.2,0.3,0.3,0.3c0.1,0,0.3,0,0.4-0.1
	c0.1-0.2,0.2-0.4,0.2-0.6C26.5,9.5,26.4,9.3,26.2,9.2z"/>
<path class="st0" d="M26.2,9.2c-0.1-0.1-0.3-0.1-0.4,0c-0.2,0.2-0.3,0.6-0.2,0.9c0,0.2,0.2,0.3,0.3,0.3c0.1,0,0.3,0,0.4-0.1
	c0.1-0.2,0.2-0.4,0.2-0.6C26.5,9.5,26.4,9.3,26.2,9.2z"/>
<path class="st0" d="M24.9,10.7c-0.1,0-0.2,0-0.3,0c-0.1,0.1-0.2,0.3-0.3,0.5c0,0.3,0.1,0.5,0.3,0.7c0.1,0.1,0.3,0,0.4,0
	c0.1-0.1,0.2-0.3,0.2-0.5C25.2,11.1,25.1,10.9,24.9,10.7z"/>
<path class="st0" d="M24.9,10.7c-0.1,0-0.2,0-0.3,0c-0.1,0.1-0.2,0.3-0.3,0.5c0,0.3,0.1,0.5,0.3,0.7c0.1,0.1,0.3,0,0.4,0
	c0.1-0.1,0.2-0.3,0.2-0.5C25.2,11.1,25.1,10.9,24.9,10.7z"/>
<path class="st0" d="M25.3,12.2c-0.1,0.1-0.2,0.2-0.2,0.4c-0.1,0.3,0,0.6,0.3,0.8c0.1,0.1,0.3,0.1,0.4,0c0.1-0.1,0.2-0.3,0.2-0.5
	c0-0.2-0.1-0.5-0.3-0.6C25.6,12.1,25.4,12.1,25.3,12.2z"/>
<path class="st0" d="M25.3,12.2c-0.1,0.1-0.2,0.2-0.2,0.4c-0.1,0.3,0,0.6,0.3,0.8c0.1,0.1,0.3,0.1,0.4,0c0.1-0.1,0.2-0.3,0.2-0.5
	c0-0.2-0.1-0.5-0.3-0.6C25.6,12.1,25.4,12.1,25.3,12.2z"/>
<path class="st0" d="M46.7,3c-0.4-0.1-0.7,0.1-0.9,0.4c-0.1,0.1,0,0.3,0.1,0.4C46,4,46.2,4,46.3,4c0.3-0.1,0.6-0.4,0.7-0.7
	C47,3.1,46.8,3,46.7,3z"/>
<path class="st0" d="M46.7,3c-0.4-0.1-0.7,0.1-0.9,0.4c-0.1,0.1,0,0.3,0.1,0.4C46,4,46.2,4,46.3,4c0.3-0.1,0.6-0.4,0.7-0.7
	C47,3.1,46.8,3,46.7,3z"/>
<path class="st0" d="M44.6,21L44.6,21C44.6,21,44.6,21,44.6,21z"/>
<path class="st0" d="M44.6,21L44.6,21C44.6,21,44.6,21,44.6,21z"/>
<path class="st0" d="M46,20.8L46,20.8z"/>
<path class="st0" d="M46,20.8L46,20.8z"/>
<path class="st0" d="M44.6,21l-0.3,0.2h0.4L44.6,21z"/>
<path class="st0" d="M44.6,21l-0.3,0.2h0.4L44.6,21z"/>
<path class="st0" d="M45.6,21l0.4-0.2l0,0c0,0,0.1,0.2,0.2,0.5h0.5l-0.6-1.1c0,0-1.2,0.7-1.2,0.7l0.2,0.4h0.5L45.6,21z"/>
<path class="st0" d="M45.6,21l0.4-0.2l0,0c0,0,0.1,0.2,0.2,0.5h0.5l-0.6-1.1c0,0-1.2,0.7-1.2,0.7l0.2,0.4h0.5L45.6,21z"/>
<path class="st0" d="M49.6,20.7c-0.3-0.7-0.8-1.4-1.1-2c0,0-1.2,0.7-1.2,0.7l0.6,1.1c0.1,0,0.3-0.1,0.4-0.2l-0.4-0.8l0.4-0.2l0,0
	c0,0.1,0.5,1,0.6,1.2l-1.1,0.7l-0.9-1.6l-0.4,0.2l0.8,1.4h1.4L49.6,20.7z"/>
<path class="st0" d="M49.6,20.7c-0.3-0.7-0.8-1.4-1.1-2c0,0-1.2,0.7-1.2,0.7l0.6,1.1c0.1,0,0.3-0.1,0.4-0.2l-0.4-0.8l0.4-0.2l0,0
	c0,0.1,0.5,1,0.6,1.2l-1.1,0.7l-0.9-1.6l-0.4,0.2l0.8,1.4h1.4L49.6,20.7z"/>
<path class="st0" d="M48.3,19.3L48.3,19.3z"/>
<path class="st0" d="M48.3,19.3L48.3,19.3z"/>
<path class="st0" d="M46.9,19.6L46.9,19.6C46.9,19.6,46.9,19.6,46.9,19.6z"/>
<path class="st0" d="M46.9,19.6L46.9,19.6C46.9,19.6,46.9,19.6,46.9,19.6z"/>
<path class="st0" d="M49.2,18.2l-0.4,0.2l1.1,2l1.2-0.7v-0.6l-1.1,0.6L49.2,18.2z"/>
<path class="st0" d="M49.2,18.2l-0.4,0.2l1.1,2l1.2-0.7v-0.6l-1.1,0.6L49.2,18.2z"/>
<path class="st0" d="M50.7,18L50.7,18z"/>
<path class="st0" d="M50.7,18L50.7,18z"/>
<path class="st0" d="M49.6,18l0.6,1.1c0.1,0,0.3-0.1,0.4-0.1l-0.4-0.8l0.4-0.2l0,0c0,0.1,0.4,0.8,0.6,1.1v-1l-0.4-0.8
	C50.8,17.4,49.6,18.1,49.6,18z"/>
<path class="st0" d="M49.6,18l0.6,1.1c0.1,0,0.3-0.1,0.4-0.1l-0.4-0.8l0.4-0.2l0,0c0,0.1,0.4,0.8,0.6,1.1v-1l-0.4-0.8
	C50.8,17.4,49.6,18.1,49.6,18z"/>
<path class="st0" d="M49.2,18.2L49.2,18.2C49.2,18.2,49.2,18.2,49.2,18.2z"/>
<path class="st0" d="M49.2,18.2L49.2,18.2C49.2,18.2,49.2,18.2,49.2,18.2z"/>
<path class="st0" d="M23.4,8.1v-9.6c1.6-1.3,3.4-2.4,5.3-3.3h-1C26-4,24.5-3,23.2-1.8V8.6C23.2,8.4,23.3,8.3,23.4,8.1z"/>
<path class="st0" d="M51.6,18.8l0.1,0.2v-1l-0.1-0.2V18.8L51.6,18.8z"/>
<path class="st0" d="M51.6,8.8v7.3l0.1,0.2V8.6l0,0L51.6,8.8z"/>
<path class="st0" d="M38-6.7c3,0.1,5.9,0.8,8.6,2h0.7c-6.2-3-13.4-3-19.6,0h1C31.6-6.1,34.8-6.8,38-6.7z"/>
<path class="st0" d="M51.6-1.5V6l0.1,0.4v-8.3C50.4-3,48.9-4,47.3-4.7h-0.7C48.4-3.9,50.1-2.8,51.6-1.5z"/>
<path class="st0" d="M23.2,13.8v7.8h0.1v-7.4C23.3,14.1,23.2,14,23.2,13.8z"/>
<path class="st0" d="M51.6,20.6l0.1-0.1v-1l-0.1,0.1V20.6L51.6,20.6z"/>
<path class="st0" d="M52,22V-1.6l-0.1-0.1l-0.1-0.1v23.5H23.2V-1.8l-0.1,0.1L23-1.6V22H52z"/>
<polygon class="st0" points="48,21.6 47.5,21.6 47,21.6 46.4,21.6 45.9,21.6 45.4,21.6 44.9,21.6 44.4,21.6 43.8,21.6 43.6,21.6 
	40.8,21.6 39.7,21.6 35.2,21.6 33.8,21.6 23.3,21.6 23.3,21.6 51.6,21.6 51.6,21.6 49.7,21.6 "/>
<path class="st0" d="M33.6,21.2h-9.8v-6c-0.2-0.3-0.3-0.6-0.5-0.9v7.4h10.5L33.6,21.2z"/>
<path class="st0" d="M37.8,21.2c-0.1,0.1-0.1,0.2-0.2,0.2c-0.3,0.2-0.6,0.2-0.9,0.1l-0.5-0.3H35l0.2,0.4h4.5l-0.2-0.4L37.8,21.2
	L37.8,21.2z"/>
<path class="st0" d="M51.2,15.5l0.4,0.5V8.8l-0.4,0.3V15.5z"/>
<path class="st0" d="M51.2,19.2L51.2,19.2L51.2,19.2L51.2,19.2z"/>
<polygon class="st0" points="44.7,21.2 44.9,21.6 45.4,21.6 45.2,21.2 "/>
<path class="st0" d="M45.7,21.2l0.2,0.4h0.5l-0.2-0.4H45.7z"/>
<path class="st0" d="M44.3,21.2h-3.6l0.2,0.4h2.7l0.2-0.1l0.1,0.1h0.5l-0.2-0.3L44.3,21.2z"/>
<path class="st0" d="M51.2,18.1l0.4,0.7v-0.9l-0.4-0.5C51.2,17.3,51.2,18.1,51.2,18.1z"/>
<path class="st0" d="M46.8,21.2l0.2,0.4h0.6l-0.2-0.4C47.3,21.2,46.8,21.2,46.8,21.2z"/>
<path class="st0" d="M51.2-1.3v6.1c0.1,0.4,0.3,0.8,0.4,1.1v-7.4c-1.5-1.4-3.2-2.5-5-3.3h-1.3C47.4-3.9,49.4-2.7,51.2-1.3z"/>
<path class="st0" d="M51.2,20.8l0.4-0.2v-1l-0.4,0.2V20.8L51.2,20.8z"/>
<path class="st0" d="M48,21.6h1.7l0.7-0.4h-1.7L48,21.6z"/>
<path class="st0" d="M37.5-6.2c2.7,0,5.3,0.5,7.8,1.5h1.3c-2.7-1.2-5.6-1.8-8.6-2c-3.2-0.1-6.4,0.6-9.3,2h1
	C32.2-5.7,34.8-6.2,37.5-6.2z"/>
<path class="st0" d="M23.8,7v-8.3c1.8-1.5,3.8-2.6,6-3.4h-1c-1.9,0.8-3.8,1.9-5.4,3.3v9.6c0.1-0.2,0.2-0.5,0.3-0.7L23.8,7z"/>
<polygon class="st0" points="51.6,21.6 51.7,21.6 51.7,20.5 51.6,20.6 "/>
<polygon class="st0" points="51.6,17.9 51.7,18 51.7,16.2 51.6,16.1 "/>
<path class="st0" d="M23.4,8.1c-0.1,0.2-0.1,0.3-0.2,0.5v5.2c0,0.1,0.1,0.3,0.1,0.4L23.4,8.1z"/>
<path class="st0" d="M51.6,8.8l0.1-0.1l0,0V6.4L51.6,6V8.8L51.6,8.8z"/>
<path class="st0" d="M36.7,21.5c0.3,0.1,0.6,0.1,0.9-0.1c0.1-0.1,0.1-0.1,0.2-0.2h-1.6L36.7,21.5z"/>
<polygon class="st0" points="51.2,17.3 51.6,17.9 51.6,16.1 51.2,15.5 "/>
<polygon class="st0" points="39.5,21.2 39.7,21.6 40.8,21.6 40.6,21.2 "/>
<path class="st0" d="M33.6,21.2l0.2,0.4h1.3L35,21.2H33.6z"/>
<polygon class="st0" points="51.2,20.8 51.2,21.2 50.4,21.2 49.7,21.6 51.6,21.6 51.6,20.6 "/>
<path class="st0" d="M23.8,15.2V7l-0.1,0.3c-0.1,0.2-0.2,0.5-0.3,0.7v6.1C23.5,14.5,23.6,14.9,23.8,15.2z"/>
<path class="st0" d="M51.2,9.1l0.4-0.3V6c-0.1-0.4-0.2-0.8-0.4-1.1V9.1L51.2,9.1z"/>
<path class="st0" d="M43.6,21.6h0.3l-0.1-0.1L43.6,21.6z"/>
<path class="st0" d="M45.2,21.2l0.2,0.4h0.5l-0.2-0.4C45.7,21.2,45.2,21.2,45.2,21.2z"/>
<path class="st0" d="M44.3,21.2l-0.1,0.1l0.2,0.3h0.6l-0.2-0.4H44.3z"/>
<path class="st0" d="M46.2,21.2l0.2,0.4H47l-0.2-0.4H46.2z"/>
<path class="st0" d="M47.3,21.2l0.2,0.4H48l0.7-0.4H47.3z"/>
<path class="st0" d="M51.6,19.5l0.1-0.1V19l-0.1-0.2V19.5L51.6,19.5z"/>
<path class="st0" d="M51.2,19.1L51.2,19.1L51.2,19.1v0.7l0.4-0.2v-0.8l-0.4-0.7V19.1L51.2,19.1z"/>
</svg>
