<svg id="Little_Caesars" data-name="Little Caesars" xmlns="http://www.w3.org/2000/svg" viewBox="0 0 75.85 29"><defs><style>.cls-1{fill:#909c9d;}</style></defs><title>Untitled-1</title><path class="cls-1" d="M61.34,16.61a1.1,1.1,0,0,0,.86-0.91c0-2.39,0-5,0-7.57,0-1-1.82-.2-1.2-1.41a18.62,18.62,0,0,1,1.95-.64c0.43-.14,1.19-0.55,1.4.12l0,9.22A1.23,1.23,0,0,0,65,16.62a0.63,0.63,0,0,1,.43.45,0.43,0.43,0,0,1-.28.55c-1.07-.08-3-0.06-3.83,0C60.43,17.16,61.34,16.61,61.34,16.61Z"/><path class="cls-1" d="M60.59,17.32a1.77,1.77,0,0,1-1.62.56,2,2,0,0,1-1.57-1.31,44,44,0,0,1,0-5.8,15.6,15.6,0,0,0-2.09,0,35.31,35.31,0,0,0,0,4.75,0.47,0.47,0,0,0,.42.41c0.47-.09.55-1,1.19-0.66a0.76,0.76,0,0,1,.21.86,2.37,2.37,0,0,1-1.59,1.71,1.91,1.91,0,0,1-1.9-.64,3.1,3.1,0,0,1-.52-2c0-1.47.16-2.89,0.17-4.37-0.33-.19-1.09.1-1.18-0.4-0.21-.74.73-0.64,1-1.07a5.55,5.55,0,0,0,1.07-1.95,1.26,1.26,0,0,1,1,0l0.14,0.24V9.45a6.35,6.35,0,0,0,1.91,0,4.92,4.92,0,0,0,1-2,1,1,0,0,1,.85-0.17,0.43,0.43,0,0,1,.33.38v1.8c1.09,0,1.7-.18,1.76.43a0.86,0.86,0,0,1-.34.77,2.52,2.52,0,0,1-1.42.13,26.07,26.07,0,0,0,.11,4.69c0.1,0.44.34,0.49,0.51,0.42a1.29,1.29,0,0,1,.76-0.66,0.44,0.44,0,0,1,.45.31,1.83,1.83,0,0,1-.14,1Z"/><path class="cls-1" d="M48.56,16.92c0.31-.33.95-0.44,1-0.84l0-4.66a1.08,1.08,0,0,0-1-.62c-0.52,0-.67-0.56-0.17-0.76a6.8,6.8,0,0,0,2-.62A0.86,0.86,0,0,1,51.4,9.3c0.38,0.48.16,0.24,0.13,1.67l0,4.94c0.07,0.81,1,.55,1.35,1.1a0.54,0.54,0,0,1-.26.62,19.09,19.09,0,0,0-3.66,0A0.43,0.43,0,0,1,48.56,16.92Z"/><path class="cls-1" d="M47.49,17.85c-2.15-.55-4.45-0.29-6.58-0.24a0.71,0.71,0,0,1-.59-0.31c-0.28-1,1.12-.74,1.35-1.57l0.12-.85,0-6.71c0-.78-0.81-1-1.33-1.32a0.54,0.54,0,0,1,0-.59A0.81,0.81,0,0,1,40.87,6,19.06,19.06,0,0,0,45,6a0.51,0.51,0,0,1,.45.38c0.09,0.81-.95.72-1.19,1.4A45,45,0,0,0,44,14.7c0,0.54,0,1.24.66,1.43,1.59,0.43,2.4-1.36,3.21-2.28a0.79,0.79,0,0,1,.78-0.19,0.65,0.65,0,0,1,.24.88A16.16,16.16,0,0,0,48.23,17S48.34,18,47.49,17.85Z"/><path class="cls-1" d="M51.82,7.69a0.73,0.73,0,0,1,0,.76A1.49,1.49,0,0,1,50.58,9a1.26,1.26,0,0,1-1.26-.76,0.78,0.78,0,0,1,.57-0.86A1.69,1.69,0,0,1,51.82,7.69Z"/><path class="cls-1" d="M70.44,10.66a4.79,4.79,0,0,1,.5,2.95,0.39,0.39,0,0,1-.31.34l-3.09,0a0.46,0.46,0,0,1-.31-0.43c0.14-.83,1.19-0.37,1.59-1a1.92,1.92,0,0,0-.29-1.74,0.67,0.67,0,0,0-.76-0.21C66.95,11,67,12,66.92,12.84c0,1.14,0,2.83,1.19,3.35A1.26,1.26,0,0,0,69.23,16c0.45-.26.67-1.19,1.31-0.76a0.75,0.75,0,0,1,.12.86,2.92,2.92,0,0,1-2,1.73,2.79,2.79,0,0,1-2.49-.69c-1.4-1.45-1.47-4-.76-5.8A3.29,3.29,0,0,1,68,9.26,2.52,2.52,0,0,1,70.44,10.66Z"/><path class="cls-1" d="M61.34,16.61a1.1,1.1,0,0,0,.86-0.91c0-2.39,0-5,0-7.57,0-1-1.82-.2-1.2-1.41a18.62,18.62,0,0,1,1.95-.64c0.43-.14,1.19-0.55,1.4.12l0,9.22A1.23,1.23,0,0,0,65,16.62a0.63,0.63,0,0,1,.43.45,0.43,0.43,0,0,1-.28.55c-1.07-.08-3-0.06-3.83,0C60.43,17.16,61.34,16.61,61.34,16.61Z"/><path class="cls-1" d="M60.59,17.32a1.77,1.77,0,0,1-1.62.56,2,2,0,0,1-1.57-1.31,44,44,0,0,1,0-5.8,15.6,15.6,0,0,0-2.09,0,35.31,35.31,0,0,0,0,4.75,0.47,0.47,0,0,0,.42.41c0.47-.09.55-1,1.19-0.66a0.76,0.76,0,0,1,.21.86,2.37,2.37,0,0,1-1.59,1.71,1.91,1.91,0,0,1-1.9-.64,3.1,3.1,0,0,1-.52-2c0-1.47.16-2.89,0.17-4.37-0.33-.19-1.09.1-1.18-0.4-0.21-.74.73-0.64,1-1.07a5.55,5.55,0,0,0,1.07-1.95,1.26,1.26,0,0,1,1,0l0.14,0.24V9.45a6.35,6.35,0,0,0,1.91,0,4.92,4.92,0,0,0,1-2,1,1,0,0,1,.85-0.17,0.43,0.43,0,0,1,.33.38v1.8c1.09,0,1.7-.18,1.76.43a0.86,0.86,0,0,1-.34.77,2.52,2.52,0,0,1-1.42.13,26.07,26.07,0,0,0,.11,4.69c0.1,0.44.34,0.49,0.51,0.42a1.29,1.29,0,0,1,.76-0.66,0.44,0.44,0,0,1,.45.31,1.83,1.83,0,0,1-.14,1Z"/><path class="cls-1" d="M48.56,16.92c0.31-.33.95-0.44,1-0.84l0-4.66a1.08,1.08,0,0,0-1-.62c-0.52,0-.67-0.56-0.17-0.76a6.8,6.8,0,0,0,2-.62A0.86,0.86,0,0,1,51.4,9.3c0.38,0.48.16,0.24,0.13,1.67l0,4.94c0.07,0.81,1,.55,1.35,1.1a0.54,0.54,0,0,1-.26.62,19.09,19.09,0,0,0-3.66,0A0.43,0.43,0,0,1,48.56,16.92Z"/><path class="cls-1" d="M47.49,17.85c-2.15-.55-4.45-0.29-6.58-0.24a0.71,0.71,0,0,1-.59-0.31c-0.28-1,1.12-.74,1.35-1.57l0.12-.85,0-6.71c0-.78-0.81-1-1.33-1.32a0.54,0.54,0,0,1,0-.59A0.81,0.81,0,0,1,40.87,6,19.06,19.06,0,0,0,45,6a0.51,0.51,0,0,1,.45.38c0.09,0.81-.95.72-1.19,1.4A45,45,0,0,0,44,14.7c0,0.54,0,1.24.66,1.43,1.59,0.43,2.4-1.36,3.21-2.28a0.79,0.79,0,0,1,.78-0.19,0.65,0.65,0,0,1,.24.88A16.16,16.16,0,0,0,48.23,17S48.34,18,47.49,17.85Z"/><path class="cls-1" d="M51.82,7.69a0.73,0.73,0,0,1,0,.76A1.49,1.49,0,0,1,50.58,9a1.26,1.26,0,0,1-1.26-.76,0.78,0.78,0,0,1,.57-0.86A1.69,1.69,0,0,1,51.82,7.69Z"/><path class="cls-1" d="M70.44,10.66a4.79,4.79,0,0,1,.5,2.95,0.39,0.39,0,0,1-.31.34l-3.09,0a0.46,0.46,0,0,1-.31-0.43c0.14-.83,1.19-0.37,1.59-1a1.92,1.92,0,0,0-.29-1.74,0.67,0.67,0,0,0-.76-0.21C66.95,11,67,12,66.92,12.84c0,1.14,0,2.83,1.19,3.35A1.26,1.26,0,0,0,69.23,16c0.45-.26.67-1.19,1.31-0.76a0.75,0.75,0,0,1,.12.86,2.92,2.92,0,0,1-2,1.73,2.79,2.79,0,0,1-2.49-.69c-1.4-1.45-1.47-4-.76-5.8A3.29,3.29,0,0,1,68,9.26,2.52,2.52,0,0,1,70.44,10.66Z"/><path class="cls-1" d="M39.32,25.25c0.69-1.35,2.3-2,3.75-2.28a2.18,2.18,0,0,0-.21-1.59,0.79,0.79,0,0,0-.93-0.09c-0.74.43-.76,1.38-1.5,1.76a0.51,0.51,0,0,1-.59-0.31,5.64,5.64,0,0,1,.29-2,0.86,0.86,0,0,1,.5-0.78c1.28,0.07,2.87-.52,3.78.59,1.19,1.47.59,3.73,0.78,5.54a1.61,1.61,0,0,0,1.09,1.38,0.54,0.54,0,0,1,0,.57L46,28.27c-0.85-.09-1.8.07-2.59-0.07A1.43,1.43,0,0,1,43.12,27V24.28a1.86,1.86,0,0,0-1.57,1,1.72,1.72,0,0,0-.1,1.28c0.21,0.88,1.63.22,1.39,1.31a1.71,1.71,0,0,1-2,.59A2.35,2.35,0,0,1,39.21,27,4,4,0,0,1,39.32,25.25Z"/><path class="cls-1" d="M39,25.71A17.48,17.48,0,0,0,38.25,28c-0.31.59-1,.21-1.54,0.31a3.45,3.45,0,0,1-3.75-1.19A7.68,7.68,0,0,1,31.76,20a4.94,4.94,0,0,1,3.78-3.54c0.93-.19,1.59.59,2.45,0.29a0.83,0.83,0,0,1,.78,0c0.55,0.81-.4,1.47-0.5,2.26a2.27,2.27,0,0,1-.76,1.45,0.61,0.61,0,0,1-.66-0.19c-0.24-.81.26-1.92-0.69-2.37a1.13,1.13,0,0,0-1.09.24c-1.35,1.35-1.35,3.42-1.24,5.32,0.22,1.35.41,2.95,1.81,3.56,1.61,0,1.64-1.92,2.75-2.57C39.06,24.13,39.38,24.82,39,25.71Z"/><path class="cls-1" d="M73,19.86L74.33,20a0.62,0.62,0,0,1,1,.39c0,0.88.33,1.66,0.12,2.49a0.52,0.52,0,0,1-.64.17c-0.69-.55-0.59-2.14-1.9-1.83a0.75,0.75,0,0,0-.48.52,1,1,0,0,0,.24.86c1.28,0.76,3.49,1.45,3.21,3.42a2.45,2.45,0,0,1-1.47,2.21c-1.12.64-2.28-.31-3.44,0.07-0.81-.36-0.29-1.14-0.52-1.88a1.84,1.84,0,0,1,0-1.23,0.58,0.58,0,0,1,.69-0.1c0.62,0.69,1,1.88,2.11,1.9a0.82,0.82,0,0,0,.69-0.57,1.2,1.2,0,0,0-.69-1c-1-.52-2.19-1-2.64-2.09a3.48,3.48,0,0,1,0-1.64A2.53,2.53,0,0,1,73,19.86Z"/><path class="cls-1" d="M70.24,21.69a0.87,0.87,0,0,1-.69.54c-0.4,0-.75-0.51-1.21-0.14a3,3,0,0,0-.57,1.76,7.53,7.53,0,0,0,0,2.92c0.31,0.55,1.5.36,1.19,1.23-0.47.55-1.31,0.17-1.95,0.24a21.19,21.19,0,0,1-2.4-.09,0.71,0.71,0,0,1,.19-0.83,1.22,1.22,0,0,0,.83-0.72,26.15,26.15,0,0,0-.14-4.73c-0.33-.59-1.71-0.07-1.33-1.12,0.45-.45,1.19-0.31,1.73-0.62,0.38-.17,1-0.59,1.36,0a5.85,5.85,0,0,1,.14,1.47h0.07A3.12,3.12,0,0,1,68.74,20a1.55,1.55,0,0,1,1.36.14A1.2,1.2,0,0,1,70.24,21.69Z"/><path class="cls-1" d="M64.3,28.24a13.52,13.52,0,0,0-2.16,0,0.59,0.59,0,0,1-.45-0.43c-0.12-1.14,0-2.37-.09-3.59a2,2,0,0,0-1.54,1A1.46,1.46,0,0,0,60,26.56c0.24,0.86,1.64.19,1.45,1.23a2.06,2.06,0,0,1-2.23.62,2.22,2.22,0,0,1-1.35-1.26,2.46,2.46,0,0,1,.52-2.61A6.18,6.18,0,0,1,61.57,23a1.73,1.73,0,0,0-.48-1.76c-1.33-.29-1.35,1.47-2.28,1.85a0.54,0.54,0,0,1-.55-0.43,10.19,10.19,0,0,1,.5-2.4c0.33-.55,1.09-0.09,1.62-0.31a2.5,2.5,0,0,1,2.54.71c1.23,1.66.36,4.29,0.93,6.22a1.05,1.05,0,0,0,.7.4C64.88,27.38,64.9,28.36,64.3,28.24Z"/><path class="cls-1" d="M51.33,21.24a4.68,4.68,0,0,1,.47,3.06c-0.26.52-.9,0.26-1.35,0.31l-2,0a0.49,0.49,0,0,1-.33-0.43c0.17-.83,1.35-0.37,1.69-1.11a1.91,1.91,0,0,0-.37-1.67,0.63,0.63,0,0,0-.76-0.19c-0.78.45-.76,1.4-0.83,2.23,0,1.28,0,2.78,1.24,3.4a1.21,1.21,0,0,0,1.09-.21c0.47-.26.69-1.24,1.35-0.74,0.4,0.52-.07,1.09-0.33,1.52a2.84,2.84,0,0,1-4.75-.45,6.31,6.31,0,0,1,0-5.32,3.33,3.33,0,0,1,2.4-1.76A2.58,2.58,0,0,1,51.33,21.24Z"/><path class="cls-1" d="M56,20a0.85,0.85,0,0,1,.78.14,18.93,18.93,0,0,1,.33,2.07,0.73,0.73,0,0,1-.31.9c-0.9.17-.76-1-1.26-1.47a0.94,0.94,0,0,0-1-.36,0.76,0.76,0,0,0-.5.57,1,1,0,0,0,.52,1c1,0.57,2.45,1,2.87,2.26a2.59,2.59,0,0,1-3.11,3.35,2.81,2.81,0,0,0-1.71-.1c-0.81-.26-0.31-1.38-0.57-2a1.39,1.39,0,0,1,0-1.07,0.61,0.61,0,0,1,.71-0.12c0.64,0.71,1.09,2,2.28,1.83a0.69,0.69,0,0,0,.52-0.55,1.49,1.49,0,0,0-.93-1.16c-1-.43-2.16-1-2.49-2.14a2.88,2.88,0,0,1,.64-2.52C53.52,19.69,54.85,19.83,56,20Z"/><path class="cls-1" d="M39.32,25.25c0.69-1.35,2.3-2,3.75-2.28a2.18,2.18,0,0,0-.21-1.59,0.79,0.79,0,0,0-.93-0.09c-0.74.43-.76,1.38-1.5,1.76a0.51,0.51,0,0,1-.59-0.31,5.64,5.64,0,0,1,.29-2,0.86,0.86,0,0,1,.5-0.78c1.28,0.07,2.87-.52,3.78.59,1.19,1.47.59,3.73,0.78,5.54a1.61,1.61,0,0,0,1.09,1.38,0.54,0.54,0,0,1,0,.57L46,28.27c-0.85-.09-1.8.07-2.59-0.07A1.43,1.43,0,0,1,43.12,27V24.28a1.86,1.86,0,0,0-1.57,1,1.72,1.72,0,0,0-.1,1.28c0.21,0.88,1.63.22,1.39,1.31a1.71,1.71,0,0,1-2,.59A2.35,2.35,0,0,1,39.21,27,4,4,0,0,1,39.32,25.25Z"/><path class="cls-1" d="M39,25.71A17.48,17.48,0,0,0,38.25,28c-0.31.59-1,.21-1.54,0.31a3.45,3.45,0,0,1-3.75-1.19A7.68,7.68,0,0,1,31.76,20a4.94,4.94,0,0,1,3.78-3.54c0.93-.19,1.59.59,2.45,0.29a0.83,0.83,0,0,1,.78,0c0.55,0.81-.4,1.47-0.5,2.26a2.27,2.27,0,0,1-.76,1.45,0.61,0.61,0,0,1-.66-0.19c-0.24-.81.26-1.92-0.69-2.37a1.13,1.13,0,0,0-1.09.24c-1.35,1.35-1.35,3.42-1.24,5.32,0.22,1.35.41,2.95,1.81,3.56,1.61,0,1.64-1.92,2.75-2.57C39.06,24.13,39.38,24.82,39,25.71Z"/><path class="cls-1" d="M73,19.86L74.33,20a0.62,0.62,0,0,1,1,.39c0,0.88.33,1.66,0.12,2.49a0.52,0.52,0,0,1-.64.17c-0.69-.55-0.59-2.14-1.9-1.83a0.75,0.75,0,0,0-.48.52,1,1,0,0,0,.24.86c1.28,0.76,3.49,1.45,3.21,3.42a2.45,2.45,0,0,1-1.47,2.21c-1.12.64-2.28-.31-3.44,0.07-0.81-.36-0.29-1.14-0.52-1.88a1.84,1.84,0,0,1,0-1.23,0.58,0.58,0,0,1,.69-0.1c0.62,0.69,1,1.88,2.11,1.9a0.82,0.82,0,0,0,.69-0.57,1.2,1.2,0,0,0-.69-1c-1-.52-2.19-1-2.64-2.09a3.48,3.48,0,0,1,0-1.64A2.53,2.53,0,0,1,73,19.86Z"/><path class="cls-1" d="M70.24,21.69a0.87,0.87,0,0,1-.69.54c-0.4,0-.75-0.51-1.21-0.14a3,3,0,0,0-.57,1.76,7.53,7.53,0,0,0,0,2.92c0.31,0.55,1.5.36,1.19,1.23-0.47.55-1.31,0.17-1.95,0.24a21.19,21.19,0,0,1-2.4-.09,0.71,0.71,0,0,1,.19-0.83,1.22,1.22,0,0,0,.83-0.72,26.15,26.15,0,0,0-.14-4.73c-0.33-.59-1.71-0.07-1.33-1.12,0.45-.45,1.19-0.31,1.73-0.62,0.38-.17,1-0.59,1.36,0a5.85,5.85,0,0,1,.14,1.47h0.07A3.12,3.12,0,0,1,68.74,20a1.55,1.55,0,0,1,1.36.14A1.2,1.2,0,0,1,70.24,21.69Z"/><path class="cls-1" d="M64.3,28.24a13.52,13.52,0,0,0-2.16,0,0.59,0.59,0,0,1-.45-0.43c-0.12-1.14,0-2.37-.09-3.59a2,2,0,0,0-1.54,1A1.46,1.46,0,0,0,60,26.56c0.24,0.86,1.64.19,1.45,1.23a2.06,2.06,0,0,1-2.23.62,2.22,2.22,0,0,1-1.35-1.26,2.46,2.46,0,0,1,.52-2.61A6.18,6.18,0,0,1,61.57,23a1.73,1.73,0,0,0-.48-1.76c-1.33-.29-1.35,1.47-2.28,1.85a0.54,0.54,0,0,1-.55-0.43,10.19,10.19,0,0,1,.5-2.4c0.33-.55,1.09-0.09,1.62-0.31a2.5,2.5,0,0,1,2.54.71c1.23,1.66.36,4.29,0.93,6.22a1.05,1.05,0,0,0,.7.4C64.88,27.38,64.9,28.36,64.3,28.24Z"/><path class="cls-1" d="M51.33,21.24a4.68,4.68,0,0,1,.47,3.06c-0.26.52-.9,0.26-1.35,0.31l-2,0a0.49,0.49,0,0,1-.33-0.43c0.17-.83,1.35-0.37,1.69-1.11a1.91,1.91,0,0,0-.37-1.67,0.63,0.63,0,0,0-.76-0.19c-0.78.45-.76,1.4-0.83,2.23,0,1.28,0,2.78,1.24,3.4a1.21,1.21,0,0,0,1.09-.21c0.47-.26.69-1.24,1.35-0.74,0.4,0.52-.07,1.09-0.33,1.52a2.84,2.84,0,0,1-4.75-.45,6.31,6.31,0,0,1,0-5.32,3.33,3.33,0,0,1,2.4-1.76A2.58,2.58,0,0,1,51.33,21.24Z"/><path class="cls-1" d="M56,20a0.85,0.85,0,0,1,.78.14,18.93,18.93,0,0,1,.33,2.07,0.73,0.73,0,0,1-.31.9c-0.9.17-.76-1-1.26-1.47a0.94,0.94,0,0,0-1-.36,0.76,0.76,0,0,0-.5.57,1,1,0,0,0,.52,1c1,0.57,2.45,1,2.87,2.26a2.59,2.59,0,0,1-3.11,3.35,2.81,2.81,0,0,0-1.71-.1c-0.81-.26-0.31-1.38-0.57-2a1.39,1.39,0,0,1,0-1.07,0.61,0.61,0,0,1,.71-0.12c0.64,0.71,1.09,2,2.28,1.83a0.69,0.69,0,0,0,.52-0.55,1.49,1.49,0,0,0-.93-1.16c-1-.43-2.16-1-2.49-2.14a2.88,2.88,0,0,1,.64-2.52C53.52,19.69,54.85,19.83,56,20Z"/><path class="cls-1" d="M14.65,10.25A0.94,0.94,0,0,0,15,9.41a1.55,1.55,0,0,0-.31-0.82,0.23,0.23,0,0,0-.31.15,1.08,1.08,0,0,1,0,.66c-0.19.38-.77,0.3-1,0.65a0.46,0.46,0,0,0,.22.34A1.09,1.09,0,0,0,14.65,10.25Z"/><path class="cls-1" d="M14.65,10.25A0.94,0.94,0,0,0,15,9.41a1.55,1.55,0,0,0-.31-0.82,0.23,0.23,0,0,0-.31.15,1.08,1.08,0,0,1,0,.66c-0.19.38-.77,0.3-1,0.65a0.46,0.46,0,0,0,.22.34A1.09,1.09,0,0,0,14.65,10.25Z"/><path class="cls-1" d="M11.49,27.09c0.56,0.38,1.12.77,1.71,1.13h1.65a5.17,5.17,0,0,0,.62-1c0.13-.21.16-0.43,0.28-0.64l0.77,1.62h1.13l-0.06-.13a16.87,16.87,0,0,0,1.54-2.38,19.36,19.36,0,0,0,2.69-7.63A9.91,9.91,0,0,1,22,19.87,43.66,43.66,0,0,1,21.33,27a1.17,1.17,0,0,0,.55.12A1.74,1.74,0,0,0,22,26.56c0.53-3.4,1-6.82.23-10.15,0.29,0.31.58,0.63,0.86,1a4,4,0,0,0,.82-0.47l2.46-1.76,0.83-.63V14.33c-0.33-1.06-.66-2.11-1.07-3.16-0.19-.06-0.19.21-0.28,0.3a0.36,0.36,0,0,1-.31.16,0.32,0.32,0,0,1-.22-0.29,21.31,21.31,0,0,1,.58-2.54,41,41,0,0,1,2.18,6c0.05,0.3-.27.3-0.44,0.48l-2.36,1.83a15.82,15.82,0,0,0-1.37,1.18l4.3,6V22.54l-0.29-.39-2.58-3.77c1-.79,1.92-1.48,2.87-2.28V11.83c-0.22-.6-0.46-1.2-0.7-1.8L26.39,7.53,25.09,5a0.68,0.68,0,0,0-.51-0.43,0.5,0.5,0,0,0-.39.34,3.35,3.35,0,0,0,.37,1l-0.71.38a1.39,1.39,0,0,0-1-.42,0.54,0.54,0,0,0-.26.41,1.1,1.1,0,0,0,.57.59l-0.1.21a5.41,5.41,0,0,0-.84,1.34c-0.07.3-.41,0.69-0.11,1a18.93,18.93,0,0,1-3.2,3.83,0.54,0.54,0,0,0-.16.31,1.05,1.05,0,0,0,.8.38,14.93,14.93,0,0,0,3.28-1.1C23.43,12.6,24,12.27,24.58,12a3.14,3.14,0,0,0,.43.36,1.32,1.32,0,0,0,.59,0c0.18,0.65.39,1.29,0.5,1.94a16.72,16.72,0,0,1-2.78,1.78c-0.58-.61-1.13-1.26-1.77-1.82a4,4,0,0,1-1.57.43,8.84,8.84,0,0,1-4.34-1.11,12.32,12.32,0,0,0,3.09-1.42L19,11.95a0.62,0.62,0,0,0,0-.48,3.06,3.06,0,0,0-.65-0.61A17.46,17.46,0,0,0,19.7,9.41a13,13,0,0,0,2.09-3.7A3.48,3.48,0,0,0,22,3.24a0.82,0.82,0,0,0-.7-0.34,2.37,2.37,0,0,0-.58,0,10.85,10.85,0,0,0-2.79.91,18.77,18.77,0,0,0-5,3.52A2.81,2.81,0,0,1,13,6.76a0.19,0.19,0,0,0-.11-0.21,0.78,0.78,0,0,0-.43.13,1.62,1.62,0,0,0-.68,1.47,0.39,0.39,0,0,1-.09.31,0.29,0.29,0,0,1-.13-0.26,3.56,3.56,0,0,0-.08-0.7,0.21,0.21,0,0,0-.29,0,4,4,0,0,0-.37,1.72,4.17,4.17,0,0,1-.19-0.82,0.16,0.16,0,0,0-.2-0.07,1.19,1.19,0,0,0-.37.7,2.47,2.47,0,0,0,.2,1.63c0,0.19-.25,0-0.36.13a0.84,0.84,0,0,0-.46.67,0.42,0.42,0,0,1,.24.1,0.62,0.62,0,0,1,0,.44,24.45,24.45,0,0,0-1,3.38c0,0.14.12,0.14,0.21,0.19a0.48,0.48,0,0,1,.42.12,0.34,0.34,0,0,1-.09.26l-0.5-.16a0.14,0.14,0,0,0-.17.09l0.28,1.34a1.58,1.58,0,0,0,0,.69C8.84,18,9,17.94,9,18.06s-0.48.43-.27,0.73A2.79,2.79,0,0,1,9,19a1.24,1.24,0,0,0,.37,1.26,0.48,0.48,0,0,1,.23.07,3.27,3.27,0,0,0,.24,1.38,1.13,1.13,0,0,0,1-.69,17.75,17.75,0,0,0,3,2,3.23,3.23,0,0,1-.53,1.85A16.52,16.52,0,0,1,10,22.28a1.09,1.09,0,0,0,.5,1.1,1.67,1.67,0,0,1,.27.75,2.73,2.73,0,0,0,.77.62c0.72,0.57,1.4,1.19,2.2,1.7l0.75-1.84a7.19,7.19,0,0,0,.41-1.7,8.08,8.08,0,0,0,.7-0.41,0.66,0.66,0,0,0-.06-0.75,0.18,0.18,0,0,0-.24-0.11l-1,.47a10.38,10.38,0,0,1-3.69-2.85,0.36,0.36,0,0,1-.13-0.3,1,1,0,0,0,.41.14,2.57,2.57,0,0,0,0-.66,1.47,1.47,0,0,1,0-1,1.14,1.14,0,0,1,.79.35c0.19,0,0-.25.08-0.37a1.52,1.52,0,0,0-.65-1,0.58,0.58,0,0,1,.22-0.29,0.87,0.87,0,0,0,.23-0.91c-0.26-.25-0.25.24-0.42,0.32a0.45,0.45,0,0,1-.37,0c-0.15-.34.37-0.34,0.49-0.57a0.66,0.66,0,0,0,.11-0.52A1.81,1.81,0,0,1,11.33,14c0.14-.08.32,0,0.47-0.11a1.47,1.47,0,0,0,.82-1.18,0.32,0.32,0,0,0-.15-0.34c-0.15.07-.2,0.24-0.35,0.3l-0.83.15a0.9,0.9,0,0,1,.07-0.55,1.6,1.6,0,0,0,.52-0.58s0.09-.14.18-0.09A1,1,0,0,0,13,12a1,1,0,0,0,.67-0.58,1.14,1.14,0,0,0-.27-1.11c-0.08-.06-0.16-0.21-0.28-0.08S13,11,12.6,11.08A0.6,0.6,0,0,1,12.21,11a1.35,1.35,0,0,1-.11-0.48c-0.12,0-.16.16-0.29,0.21a1,1,0,0,1-.53.13,0.48,0.48,0,0,1,.11-0.28,23.2,23.2,0,0,1,3.4-3.46,17.21,17.21,0,0,1,5.22-3A2.17,2.17,0,0,1,20.89,4a0.71,0.71,0,0,1,.07.53,10.22,10.22,0,0,1-3.77,5.69,0.81,0.81,0,0,0-.45.71l1,0.78a9.29,9.29,0,0,1-1.83.83,7.8,7.8,0,0,1-1.43.34,3.53,3.53,0,0,0-.25-0.77A0.5,0.5,0,0,0,14,12.06a0.34,0.34,0,0,0-.32.27,23.14,23.14,0,0,0,.5,2.95c0.07,0.16.05,0.44,0.29,0.45a0.55,0.55,0,0,0,.41-0.14,5.9,5.9,0,0,0-.14-1.31c0.45,0.19.92,0.43,1.4,0.6a10.7,10.7,0,0,0,4.34.61c0.28,0,.56,0,0.84,0a0.21,0.21,0,0,1,0,.24,3.17,3.17,0,0,0-.41.31,10,10,0,0,1,0,1.6,0.92,0.92,0,0,1-.17.56c-0.11.06-.1-0.11-0.2-0.11s-0.11.09-.13,0.17a0.51,0.51,0,0,0,.17.51,1,1,0,0,1-.07.45c-0.24-.06,0-0.25,0-0.4a0.31,0.31,0,0,0-.31-0.27,0.23,0.23,0,0,0-.23.14c0,0.06,0,.11.19,0.2a0.63,0.63,0,0,0-.23.52,0.37,0.37,0,0,1-.24.12,0.24,0.24,0,0,1-.24-0.13c-0.14-.29.31-0.34,0.21-0.6a0.18,0.18,0,0,0-.19,0,0.69,0.69,0,0,0-.44.61,0.4,0.4,0,0,0,.13.32c0.08,0.16.44,0,.34,0.28a0.43,0.43,0,0,0-.34.17,0.48,0.48,0,0,0-.11.41,0.59,0.59,0,0,0,.52.4c-0.24,0-.15.3-0.27,0.41s0-.2,0-0.31a0.2,0.2,0,0,0-.26,0,0.4,0.4,0,0,0-.15.39,0.37,0.37,0,0,0,.19.28,1,1,0,0,0,.42.08,0.45,0.45,0,0,0,.21.36,32,32,0,0,1-1.86,3.66l-0.74,1c-0.28-.53-0.58-1.14-0.82-1.68a3,3,0,0,0,.16-0.83,1.14,1.14,0,0,0-.8-0.11,8.67,8.67,0,0,1-1.46,3.48,16.61,16.61,0,0,1-3.92-3.06l-0.37-.79c-0.13-.29-0.48-0.62-0.2-0.93,0-.14-0.07-0.27-0.08-0.59A0.23,0.23,0,0,0,9.41,22,1.38,1.38,0,0,1,9,22L7.42,18.61,6.84,17.35a1.11,1.11,0,0,0,0-1.11c-0.06-.11-0.2-0.18-0.25-0.28A1.08,1.08,0,0,0,7,15.67a0.86,0.86,0,0,0-.16-0.72,1.1,1.1,0,0,0-.56-0.09,9.59,9.59,0,0,0,1.91-1.43,5,5,0,0,0,1.15-2.7,4.13,4.13,0,0,0-.29-2l-1.41,1a7.77,7.77,0,0,1-1.08.63,17.87,17.87,0,0,1,.16-3.68l0,0A24.7,24.7,0,0,0,3.18,10.2L2.66,9.56a0.41,0.41,0,0,0-.28-0.17,0.18,0.18,0,0,0-.17.16A9.55,9.55,0,0,0,2.58,11,17.91,17.91,0,0,0,.79,14v8.13a3.65,3.65,0,0,0,1.07,1.19,1.79,1.79,0,0,0,1.69.15,1.83,1.83,0,0,0,.9-1.35c0.14-1.68-.07-3.36.47-5.06a1.66,1.66,0,0,0,.54.67,0.9,0.9,0,0,1,.37.22L8,22.56a1.59,1.59,0,0,0-.32.38,3.83,3.83,0,0,0-.1.8,0.71,0.71,0,0,0,.27.74,0.59,0.59,0,0,0,.49.51,0.55,0.55,0,0,0,.48.44,2.28,2.28,0,0,1,.5-0.06l1.34,2.83H12C11.74,27.68,11.57,27.28,11.49,27.09ZM23.93,7.47a1.4,1.4,0,0,1,.6.56c-0.33.15-.63,0.38-1,0.5l-0.29-.39A3.12,3.12,0,0,1,23.93,7.47Zm0.78,3.46a16.51,16.51,0,0,1-4.66,2.17c0.48-.46.94-1,1.43-1.41a0.54,0.54,0,0,0,.13.43,0.53,0.53,0,0,0,.41.11,0.83,0.83,0,0,0,.63-0.55,0.37,0.37,0,0,0-.06-0.36,0.38,0.38,0,0,0-.3-0.15,1.22,1.22,0,0,1-.41,0c0.47-.56.9-1.16,1.34-1.74a16.34,16.34,0,0,1,1.49,1.29A0.18,0.18,0,0,1,24.71,10.93Zm0.36-1.58a1,1,0,0,1-.14.42,6.62,6.62,0,0,1-.68-0.65c0.27-.18.58-0.33,0.86-0.5A1.83,1.83,0,0,1,25.07,9.34ZM24.62,6.9a0.55,0.55,0,0,1,.31-0.22,4,4,0,0,1,.32.7A5.08,5.08,0,0,1,24.62,6.9ZM9.85,17.82a3.43,3.43,0,0,1-.09.56,4.34,4.34,0,0,1-.53-1.21c0-.26.43-0.11,0.55,0A0.77,0.77,0,0,1,9.85,17.82ZM10,15L9.6,15.2c-0.22-.17,0-0.45,0-0.66a0.9,0.9,0,0,1,.11-0.37,1.8,1.8,0,0,1,.49.46A0.4,0.4,0,0,1,10,15Zm0.4-2c-0.07.1-.22,0-0.28,0a0.77,0.77,0,0,1,.1-0.71,0.24,0.24,0,0,1,.24.1A0.87,0.87,0,0,1,10.43,13Zm9.89,7.17c-0.11-.06,0-0.14,0-0.21A0.22,0.22,0,0,1,20.32,20.17Zm0.1-.75c0.18,0.17.07,0.52-.1,0.48A0.53,0.53,0,0,0,20,19.77,0.75,0.75,0,0,1,20.42,19.43Zm-0.33,1.15h0.07c0,0.16-.08.36-0.5,0.32A0.81,0.81,0,0,0,20.09,20.58Zm-0.62-.1a0.37,0.37,0,0,1,0-.41,0.41,0.41,0,0,1,.21.35A0.2,0.2,0,0,1,19.47,20.47Zm0,1.09c0-.42.11-0.48,0.3,0.08A0.51,0.51,0,0,0,19.49,21.56ZM5.66,13.94a5.92,5.92,0,0,0-2,3.35A17.3,17.3,0,0,0,3.38,21a2.65,2.65,0,0,1-.2,1.21,0.5,0.5,0,0,1-.42.2A1.3,1.3,0,0,1,2,21.76,6.58,6.58,0,0,1,1.64,15,17.55,17.55,0,0,1,3,12.6a0.31,0.31,0,0,1,.29.31,1.14,1.14,0,0,0-.22.48,0.55,0.55,0,0,0,.22.34,0.36,0.36,0,0,0,.36-0.17c0.39-.37.78-0.72,1.18-1.07a0.35,0.35,0,0,0,0-.36A0.27,0.27,0,0,0,4.52,12a0.18,0.18,0,0,1-.22-0.05,2.82,2.82,0,0,1-.4-0.69A17.52,17.52,0,0,1,5.42,9.35L5.5,9.42a18.85,18.85,0,0,0,0,2.46,6.62,6.62,0,0,0,2.81-1.29C8.26,12.27,6.85,13.1,5.66,13.94Zm2.65,9.81a0.21,0.21,0,0,1-.12-0.25,0.49,0.49,0,0,1,.53-0.28,0.19,0.19,0,0,1,0,.29A0.73,0.73,0,0,1,8.31,23.76Zm0.49,0.88a0.4,0.4,0,0,1-.32-0.33A1.43,1.43,0,0,1,9,23.87a0.21,0.21,0,0,1,.31,0,0.54,0.54,0,0,1,.14.36A0.72,0.72,0,0,1,8.79,24.64Z"/><path class="cls-1" d="M11.49,27.09c0.56,0.38,1.12.77,1.71,1.13h1.65a5.17,5.17,0,0,0,.62-1c0.13-.21.16-0.43,0.28-0.64l0.77,1.62h1.13l-0.06-.13a16.87,16.87,0,0,0,1.54-2.38,19.36,19.36,0,0,0,2.69-7.63A9.91,9.91,0,0,1,22,19.87,43.66,43.66,0,0,1,21.33,27a1.17,1.17,0,0,0,.55.12A1.74,1.74,0,0,0,22,26.56c0.53-3.4,1-6.82.23-10.15,0.29,0.31.58,0.63,0.86,1a4,4,0,0,0,.82-0.47l2.46-1.76,0.83-.63V14.33c-0.33-1.06-.66-2.11-1.07-3.16-0.19-.06-0.19.21-0.28,0.3a0.36,0.36,0,0,1-.31.16,0.32,0.32,0,0,1-.22-0.29,21.31,21.31,0,0,1,.58-2.54,41,41,0,0,1,2.18,6c0.05,0.3-.27.3-0.44,0.48l-2.36,1.83a15.82,15.82,0,0,0-1.37,1.18l4.3,6V22.54l-0.29-.39-2.58-3.77c1-.79,1.92-1.48,2.87-2.28V11.83c-0.22-.6-0.46-1.2-0.7-1.8L26.39,7.53,25.09,5a0.68,0.68,0,0,0-.51-0.43,0.5,0.5,0,0,0-.39.34,3.35,3.35,0,0,0,.37,1l-0.71.38a1.39,1.39,0,0,0-1-.42,0.54,0.54,0,0,0-.26.41,1.1,1.1,0,0,0,.57.59l-0.1.21a5.41,5.41,0,0,0-.84,1.34c-0.07.3-.41,0.69-0.11,1a18.93,18.93,0,0,1-3.2,3.83,0.54,0.54,0,0,0-.16.31,1.05,1.05,0,0,0,.8.38,14.93,14.93,0,0,0,3.28-1.1C23.43,12.6,24,12.27,24.58,12a3.14,3.14,0,0,0,.43.36,1.32,1.32,0,0,0,.59,0c0.18,0.65.39,1.29,0.5,1.94a16.72,16.72,0,0,1-2.78,1.78c-0.58-.61-1.13-1.26-1.77-1.82a4,4,0,0,1-1.57.43,8.84,8.84,0,0,1-4.34-1.11,12.32,12.32,0,0,0,3.09-1.42L19,11.95a0.62,0.62,0,0,0,0-.48,3.06,3.06,0,0,0-.65-0.61A17.46,17.46,0,0,0,19.7,9.41a13,13,0,0,0,2.09-3.7A3.48,3.48,0,0,0,22,3.24a0.82,0.82,0,0,0-.7-0.34,2.37,2.37,0,0,0-.58,0,10.85,10.85,0,0,0-2.79.91,18.77,18.77,0,0,0-5,3.52A2.81,2.81,0,0,1,13,6.76a0.19,0.19,0,0,0-.11-0.21,0.78,0.78,0,0,0-.43.13,1.62,1.62,0,0,0-.68,1.47,0.39,0.39,0,0,1-.09.31,0.29,0.29,0,0,1-.13-0.26,3.56,3.56,0,0,0-.08-0.7,0.21,0.21,0,0,0-.29,0,4,4,0,0,0-.37,1.72,4.17,4.17,0,0,1-.19-0.82,0.16,0.16,0,0,0-.2-0.07,1.19,1.19,0,0,0-.37.7,2.47,2.47,0,0,0,.2,1.63c0,0.19-.25,0-0.36.13a0.84,0.84,0,0,0-.46.67,0.42,0.42,0,0,1,.24.1,0.62,0.62,0,0,1,0,.44,24.45,24.45,0,0,0-1,3.38c0,0.14.12,0.14,0.21,0.19a0.48,0.48,0,0,1,.42.12,0.34,0.34,0,0,1-.09.26l-0.5-.16a0.14,0.14,0,0,0-.17.09l0.28,1.34a1.58,1.58,0,0,0,0,.69C8.84,18,9,17.94,9,18.06s-0.48.43-.27,0.73A2.79,2.79,0,0,1,9,19a1.24,1.24,0,0,0,.37,1.26,0.48,0.48,0,0,1,.23.07,3.27,3.27,0,0,0,.24,1.38,1.13,1.13,0,0,0,1-.69,17.75,17.75,0,0,0,3,2,3.23,3.23,0,0,1-.53,1.85A16.52,16.52,0,0,1,10,22.28a1.09,1.09,0,0,0,.5,1.1,1.67,1.67,0,0,1,.27.75,2.73,2.73,0,0,0,.77.62c0.72,0.57,1.4,1.19,2.2,1.7l0.75-1.84a7.19,7.19,0,0,0,.41-1.7,8.08,8.08,0,0,0,.7-0.41,0.66,0.66,0,0,0-.06-0.75,0.18,0.18,0,0,0-.24-0.11l-1,.47a10.38,10.38,0,0,1-3.69-2.85,0.36,0.36,0,0,1-.13-0.3,1,1,0,0,0,.41.14,2.57,2.57,0,0,0,0-.66,1.47,1.47,0,0,1,0-1,1.14,1.14,0,0,1,.79.35c0.19,0,0-.25.08-0.37a1.52,1.52,0,0,0-.65-1,0.58,0.58,0,0,1,.22-0.29,0.87,0.87,0,0,0,.23-0.91c-0.26-.25-0.25.24-0.42,0.32a0.45,0.45,0,0,1-.37,0c-0.15-.34.37-0.34,0.49-0.57a0.66,0.66,0,0,0,.11-0.52A1.81,1.81,0,0,1,11.33,14c0.14-.08.32,0,0.47-0.11a1.47,1.47,0,0,0,.82-1.18,0.32,0.32,0,0,0-.15-0.34c-0.15.07-.2,0.24-0.35,0.3l-0.83.15a0.9,0.9,0,0,1,.07-0.55,1.6,1.6,0,0,0,.52-0.58s0.09-.14.18-0.09A1,1,0,0,0,13,12a1,1,0,0,0,.67-0.58,1.14,1.14,0,0,0-.27-1.11c-0.08-.06-0.16-0.21-0.28-0.08S13,11,12.6,11.08A0.6,0.6,0,0,1,12.21,11a1.35,1.35,0,0,1-.11-0.48c-0.12,0-.16.16-0.29,0.21a1,1,0,0,1-.53.13,0.48,0.48,0,0,1,.11-0.28,23.2,23.2,0,0,1,3.4-3.46,17.21,17.21,0,0,1,5.22-3A2.17,2.17,0,0,1,20.89,4a0.71,0.71,0,0,1,.07.53,10.22,10.22,0,0,1-3.77,5.69,0.81,0.81,0,0,0-.45.71l1,0.78a9.29,9.29,0,0,1-1.83.83,7.8,7.8,0,0,1-1.43.34,3.53,3.53,0,0,0-.25-0.77A0.5,0.5,0,0,0,14,12.06a0.34,0.34,0,0,0-.32.27,23.14,23.14,0,0,0,.5,2.95c0.07,0.16.05,0.44,0.29,0.45a0.55,0.55,0,0,0,.41-0.14,5.9,5.9,0,0,0-.14-1.31c0.45,0.19.92,0.43,1.4,0.6a10.7,10.7,0,0,0,4.34.61c0.28,0,.56,0,0.84,0a0.21,0.21,0,0,1,0,.24,3.17,3.17,0,0,0-.41.31,10,10,0,0,1,0,1.6,0.92,0.92,0,0,1-.17.56c-0.11.06-.1-0.11-0.2-0.11s-0.11.09-.13,0.17a0.51,0.51,0,0,0,.17.51,1,1,0,0,1-.07.45c-0.24-.06,0-0.25,0-0.4a0.31,0.31,0,0,0-.31-0.27,0.23,0.23,0,0,0-.23.14c0,0.06,0,.11.19,0.2a0.63,0.63,0,0,0-.23.52,0.37,0.37,0,0,1-.24.12,0.24,0.24,0,0,1-.24-0.13c-0.14-.29.31-0.34,0.21-0.6a0.18,0.18,0,0,0-.19,0,0.69,0.69,0,0,0-.44.61,0.4,0.4,0,0,0,.13.32c0.08,0.16.44,0,.34,0.28a0.43,0.43,0,0,0-.34.17,0.48,0.48,0,0,0-.11.41,0.59,0.59,0,0,0,.52.4c-0.24,0-.15.3-0.27,0.41s0-.2,0-0.31a0.2,0.2,0,0,0-.26,0,0.4,0.4,0,0,0-.15.39,0.37,0.37,0,0,0,.19.28,1,1,0,0,0,.42.08,0.45,0.45,0,0,0,.21.36,32,32,0,0,1-1.86,3.66l-0.74,1c-0.28-.53-0.58-1.14-0.82-1.68a3,3,0,0,0,.16-0.83,1.14,1.14,0,0,0-.8-0.11,8.67,8.67,0,0,1-1.46,3.48,16.61,16.61,0,0,1-3.92-3.06l-0.37-.79c-0.13-.29-0.48-0.62-0.2-0.93,0-.14-0.07-0.27-0.08-0.59A0.23,0.23,0,0,0,9.41,22,1.38,1.38,0,0,1,9,22L7.42,18.61,6.84,17.35a1.11,1.11,0,0,0,0-1.11c-0.06-.11-0.2-0.18-0.25-0.28A1.08,1.08,0,0,0,7,15.67a0.86,0.86,0,0,0-.16-0.72,1.1,1.1,0,0,0-.56-0.09,9.59,9.59,0,0,0,1.91-1.43,5,5,0,0,0,1.15-2.7,4.13,4.13,0,0,0-.29-2l-1.41,1a7.77,7.77,0,0,1-1.08.63,17.87,17.87,0,0,1,.16-3.68l0,0A24.7,24.7,0,0,0,3.18,10.2L2.66,9.56a0.41,0.41,0,0,0-.28-0.17,0.18,0.18,0,0,0-.17.16A9.55,9.55,0,0,0,2.58,11,17.91,17.91,0,0,0,.79,14v8.13a3.65,3.65,0,0,0,1.07,1.19,1.79,1.79,0,0,0,1.69.15,1.83,1.83,0,0,0,.9-1.35c0.14-1.68-.07-3.36.47-5.06a1.66,1.66,0,0,0,.54.67,0.9,0.9,0,0,1,.37.22L8,22.56a1.59,1.59,0,0,0-.32.38,3.83,3.83,0,0,0-.1.8,0.71,0.71,0,0,0,.27.74,0.59,0.59,0,0,0,.49.51,0.55,0.55,0,0,0,.48.44,2.28,2.28,0,0,1,.5-0.06l1.34,2.83H12C11.74,27.68,11.57,27.28,11.49,27.09ZM23.93,7.47a1.4,1.4,0,0,1,.6.56c-0.33.15-.63,0.38-1,0.5l-0.29-.39A3.12,3.12,0,0,1,23.93,7.47Zm0.78,3.46a16.51,16.51,0,0,1-4.66,2.17c0.48-.46.94-1,1.43-1.41a0.54,0.54,0,0,0,.13.43,0.53,0.53,0,0,0,.41.11,0.83,0.83,0,0,0,.63-0.55,0.37,0.37,0,0,0-.06-0.36,0.38,0.38,0,0,0-.3-0.15,1.22,1.22,0,0,1-.41,0c0.47-.56.9-1.16,1.34-1.74a16.34,16.34,0,0,1,1.49,1.29A0.18,0.18,0,0,1,24.71,10.93Zm0.36-1.58a1,1,0,0,1-.14.42,6.62,6.62,0,0,1-.68-0.65c0.27-.18.58-0.33,0.86-0.5A1.83,1.83,0,0,1,25.07,9.34ZM24.62,6.9a0.55,0.55,0,0,1,.31-0.22,4,4,0,0,1,.32.7A5.08,5.08,0,0,1,24.62,6.9ZM9.85,17.82a3.43,3.43,0,0,1-.09.56,4.34,4.34,0,0,1-.53-1.21c0-.26.43-0.11,0.55,0A0.77,0.77,0,0,1,9.85,17.82ZM10,15L9.6,15.2c-0.22-.17,0-0.45,0-0.66a0.9,0.9,0,0,1,.11-0.37,1.8,1.8,0,0,1,.49.46A0.4,0.4,0,0,1,10,15Zm0.4-2c-0.07.1-.22,0-0.28,0a0.77,0.77,0,0,1,.1-0.71,0.24,0.24,0,0,1,.24.1A0.87,0.87,0,0,1,10.43,13Zm9.89,7.17c-0.11-.06,0-0.14,0-0.21A0.22,0.22,0,0,1,20.32,20.17Zm0.1-.75c0.18,0.17.07,0.52-.1,0.48A0.53,0.53,0,0,0,20,19.77,0.75,0.75,0,0,1,20.42,19.43Zm-0.33,1.15h0.07c0,0.16-.08.36-0.5,0.32A0.81,0.81,0,0,0,20.09,20.58Zm-0.62-.1a0.37,0.37,0,0,1,0-.41,0.41,0.41,0,0,1,.21.35A0.2,0.2,0,0,1,19.47,20.47Zm0,1.09c0-.42.11-0.48,0.3,0.08A0.51,0.51,0,0,0,19.49,21.56ZM5.66,13.94a5.92,5.92,0,0,0-2,3.35A17.3,17.3,0,0,0,3.38,21a2.65,2.65,0,0,1-.2,1.21,0.5,0.5,0,0,1-.42.2A1.3,1.3,0,0,1,2,21.76,6.58,6.58,0,0,1,1.64,15,17.55,17.55,0,0,1,3,12.6a0.31,0.31,0,0,1,.29.31,1.14,1.14,0,0,0-.22.48,0.55,0.55,0,0,0,.22.34,0.36,0.36,0,0,0,.36-0.17c0.39-.37.78-0.72,1.18-1.07a0.35,0.35,0,0,0,0-.36A0.27,0.27,0,0,0,4.52,12a0.18,0.18,0,0,1-.22-0.05,2.82,2.82,0,0,1-.4-0.69A17.52,17.52,0,0,1,5.42,9.35L5.5,9.42a18.85,18.85,0,0,0,0,2.46,6.62,6.62,0,0,0,2.81-1.29C8.26,12.27,6.85,13.1,5.66,13.94Zm2.65,9.81a0.21,0.21,0,0,1-.12-0.25,0.49,0.49,0,0,1,.53-0.28,0.19,0.19,0,0,1,0,.29A0.73,0.73,0,0,1,8.31,23.76Zm0.49,0.88a0.4,0.4,0,0,1-.32-0.33A1.43,1.43,0,0,1,9,23.87a0.21,0.21,0,0,1,.31,0,0.54,0.54,0,0,1,.14.36A0.72,0.72,0,0,1,8.79,24.64Z"/><polygon class="cls-1" points="28.21 28.21 28.21 27.78 27.43 28.21 28.21 28.21"/><polygon class="cls-1" points="28.21 28.21 28.21 27.78 27.43 28.21 28.21 28.21"/><path class="cls-1" d="M5.13,11.06a0.46,0.46,0,0,0,0-.46c-0.25-.28-0.62.08-0.76,0.3a0.49,0.49,0,0,0,0,.42,0.35,0.35,0,0,0,.29.11A0.68,0.68,0,0,0,5.13,11.06Z"/><path class="cls-1" d="M5.13,11.06a0.46,0.46,0,0,0,0-.46c-0.25-.28-0.62.08-0.76,0.3a0.49,0.49,0,0,0,0,.42,0.35,0.35,0,0,0,.29.11A0.68,0.68,0,0,0,5.13,11.06Z"/><path class="cls-1" d="M7.14,11.71a0.52,0.52,0,0,0-.42.05,0.59,0.59,0,0,0-.33.53,0.3,0.3,0,0,0,.17.27,0.48,0.48,0,0,0,.38,0,0.66,0.66,0,0,0,.39-0.44A0.41,0.41,0,0,0,7.14,11.71Z"/><path class="cls-1" d="M7.14,11.71a0.52,0.52,0,0,0-.42.05,0.59,0.59,0,0,0-.33.53,0.3,0.3,0,0,0,.17.27,0.48,0.48,0,0,0,.38,0,0.66,0.66,0,0,0,.39-0.44A0.41,0.41,0,0,0,7.14,11.71Z"/><path class="cls-1" d="M5.56,12.61a0.49,0.49,0,0,0-.4,0,0.69,0.69,0,0,0-.34.54,0.33,0.33,0,0,0,.25.29,0.62,0.62,0,0,0,.48-0.19,0.55,0.55,0,0,0,.18-0.42A0.32,0.32,0,0,0,5.56,12.61Z"/><path class="cls-1" d="M5.56,12.61a0.49,0.49,0,0,0-.4,0,0.69,0.69,0,0,0-.34.54,0.33,0.33,0,0,0,.25.29,0.62,0.62,0,0,0,.48-0.19,0.55,0.55,0,0,0,.18-0.42A0.32,0.32,0,0,0,5.56,12.61Z"/><path class="cls-1" d="M3,14.81a0.64,0.64,0,0,0,.34-0.33,0.55,0.55,0,0,0-.11-0.61c-0.2-.2-0.48.07-0.56,0.25a0.55,0.55,0,0,0,0,.61A0.31,0.31,0,0,0,3,14.81Z"/><path class="cls-1" d="M3,14.81a0.64,0.64,0,0,0,.34-0.33,0.55,0.55,0,0,0-.11-0.61c-0.2-.2-0.48.07-0.56,0.25a0.55,0.55,0,0,0,0,.61A0.31,0.31,0,0,0,3,14.81Z"/><path class="cls-1" d="M4.15,13.94a0.47,0.47,0,0,0-.51.21,0.59,0.59,0,0,0,0,.66,0.32,0.32,0,0,0,.27.07,0.67,0.67,0,0,0,.44-0.57A0.4,0.4,0,0,0,4.15,13.94Z"/><path class="cls-1" d="M4.15,13.94a0.47,0.47,0,0,0-.51.21,0.59,0.59,0,0,0,0,.66,0.32,0.32,0,0,0,.27.07,0.67,0.67,0,0,0,.44-0.57A0.4,0.4,0,0,0,4.15,13.94Z"/><path class="cls-1" d="M2.24,16.53a0.56,0.56,0,0,0,.33-0.33,0.8,0.8,0,0,0-.09-0.79A0.4,0.4,0,0,0,2,15.36a0.78,0.78,0,0,0-.31.41,0.69,0.69,0,0,0,.16.7A0.43,0.43,0,0,0,2.24,16.53Z"/><path class="cls-1" d="M2.24,16.53a0.56,0.56,0,0,0,.33-0.33,0.8,0.8,0,0,0-.09-0.79A0.4,0.4,0,0,0,2,15.36a0.78,0.78,0,0,0-.31.41,0.69,0.69,0,0,0,.16.7A0.43,0.43,0,0,0,2.24,16.53Z"/><path class="cls-1" d="M3.23,16.21a0.42,0.42,0,0,0-.39,0,0.81,0.81,0,0,0-.22.87,0.47,0.47,0,0,0,.31.32,0.39,0.39,0,0,0,.37-0.07,0.76,0.76,0,0,0,.2-0.57A0.67,0.67,0,0,0,3.23,16.21Z"/><path class="cls-1" d="M3.23,16.21a0.42,0.42,0,0,0-.39,0,0.81,0.81,0,0,0-.22.87,0.47,0.47,0,0,0,.31.32,0.39,0.39,0,0,0,.37-0.07,0.76,0.76,0,0,0,.2-0.57A0.67,0.67,0,0,0,3.23,16.21Z"/><path class="cls-1" d="M1.89,17.73a0.41,0.41,0,0,0-.34,0,0.65,0.65,0,0,0-.26.46,0.76,0.76,0,0,0,.27.7A0.46,0.46,0,0,0,2,18.85a0.72,0.72,0,0,0,.19-0.5A0.77,0.77,0,0,0,1.89,17.73Z"/><path class="cls-1" d="M1.89,17.73a0.41,0.41,0,0,0-.34,0,0.65,0.65,0,0,0-.26.46,0.76,0.76,0,0,0,.27.7A0.46,0.46,0,0,0,2,18.85a0.72,0.72,0,0,0,.19-0.5A0.77,0.77,0,0,0,1.89,17.73Z"/><path class="cls-1" d="M2.3,19.2a0.53,0.53,0,0,0-.22.35,0.84,0.84,0,0,0,.28.83,0.4,0.4,0,0,0,.44-0.05A0.71,0.71,0,0,0,3,19.85a0.85,0.85,0,0,0-.27-0.61A0.41,0.41,0,0,0,2.3,19.2Z"/><path class="cls-1" d="M2.3,19.2a0.53,0.53,0,0,0-.22.35,0.84,0.84,0,0,0,.28.83,0.4,0.4,0,0,0,.44-0.05A0.71,0.71,0,0,0,3,19.85a0.85,0.85,0,0,0-.27-0.61A0.41,0.41,0,0,0,2.3,19.2Z"/><path class="cls-1" d="M23.68,10a0.8,0.8,0,0,0-.9.42,0.34,0.34,0,0,0,.12.41,0.48,0.48,0,0,0,.44.16A0.93,0.93,0,0,0,24,10.26,0.34,0.34,0,0,0,23.68,10Z"/><path class="cls-1" d="M23.68,10a0.8,0.8,0,0,0-.9.42,0.34,0.34,0,0,0,.12.41,0.48,0.48,0,0,0,.44.16A0.93,0.93,0,0,0,24,10.26,0.34,0.34,0,0,0,23.68,10Z"/><path class="cls-1" d="M21.58,28h0S21.59,28,21.58,28Z"/><path class="cls-1" d="M21.58,28h0S21.59,28,21.58,28Z"/><path class="cls-1" d="M23,27.76h0Z"/><path class="cls-1" d="M23,27.76h0Z"/><path class="cls-1" d="M21.58,28l-0.31.19h0.41Z"/><path class="cls-1" d="M21.58,28l-0.31.19h0.41Z"/><path class="cls-1" d="M22.59,28L23,27.76h0s0.1,0.23.22,0.45h0.54l-0.63-1.09s-1.22.72-1.19,0.67l0.24,0.41h0.52Z"/><path class="cls-1" d="M22.59,28L23,27.76h0s0.1,0.23.22,0.45h0.54l-0.63-1.09s-1.22.72-1.19,0.67l0.24,0.41h0.52Z"/><path class="cls-1" d="M26.6,27.68c-0.35-.67-0.76-1.35-1.14-2,0,0-1.22.72-1.19,0.67l0.65,1.13a2.46,2.46,0,0,0,.37-0.18l-0.37-.76,0.41-.23h0c0,0.08.49,1,.59,1.18l-1.1.66-0.9-1.57-0.41.25,0.8,1.39h1.38Z"/><path class="cls-1" d="M26.6,27.68c-0.35-.67-0.76-1.35-1.14-2,0,0-1.22.72-1.19,0.67l0.65,1.13a2.46,2.46,0,0,0,.37-0.18l-0.37-.76,0.41-.23h0c0,0.08.49,1,.59,1.18l-1.1.66-0.9-1.57-0.41.25,0.8,1.39h1.38Z"/><path class="cls-1" d="M25.34,26.3h0Z"/><path class="cls-1" d="M25.34,26.3h0Z"/><path class="cls-1" d="M23.92,26.57h0S23.93,26.56,23.92,26.57Z"/><path class="cls-1" d="M23.92,26.57h0S23.93,26.56,23.92,26.57Z"/><path class="cls-1" d="M26.24,25.24l-0.41.25,1.14,2,1.24-.71V26.18l-1.07.64Z"/><path class="cls-1" d="M26.24,25.24l-0.41.25,1.14,2,1.24-.71V26.18l-1.07.64Z"/><path class="cls-1" d="M27.65,25h0Z"/><path class="cls-1" d="M27.65,25h0Z"/><path class="cls-1" d="M26.59,25l0.65,1.13A2.47,2.47,0,0,0,27.61,26l-0.37-.76L27.65,25h0c0,0.07.41,0.83,0.56,1.12v-1l-0.43-.75S26.56,25.06,26.59,25Z"/><path class="cls-1" d="M26.59,25l0.65,1.13A2.47,2.47,0,0,0,27.61,26l-0.37-.76L27.65,25h0c0,0.07.41,0.83,0.56,1.12v-1l-0.43-.75S26.56,25.06,26.59,25Z"/><path class="cls-1" d="M26.24,25.24h0S26.25,25.23,26.24,25.24Z"/><path class="cls-1" d="M26.24,25.24h0S26.25,25.23,26.24,25.24Z"/><path class="cls-1" d="M0.36,15.1l0-9.56a23.35,23.35,0,0,1,5.3-3.28h-1A20.21,20.21,0,0,0,.19,5.19V15.61Q0.27,15.36.36,15.1Z"/><path class="cls-1" d="M28.6,25.78L28.73,26V25l-0.13-.18v0.92Z"/><path class="cls-1" d="M28.6,15.75v7.32l0.13,0.18V15.64l0,0Z"/><path class="cls-1" d="M15,0.3a24.62,24.62,0,0,1,8.6,2h0.7a22.27,22.27,0,0,0-19.57,0h1A20.74,20.74,0,0,1,15,.3Z"/><path class="cls-1" d="M28.6,5.54V13l0.13,0.42V5.13a20.52,20.52,0,0,0-4.45-2.86h-0.7A17.21,17.21,0,0,1,28.6,5.54Z"/><path class="cls-1" d="M0.19,20.83V28.6H0.31l0-7.37C0.28,21.09.23,21,.19,20.83Z"/><path class="cls-1" d="M28.6,27.57l0.13-.07v-1l-0.13.08v1Z"/><path class="cls-1" d="M29,29V5.37l-0.12-.12-0.14-.13V28.6H0.19V5.19l-0.07.06L0,5.37V29H29Z"/><polygon class="cls-1" points="25.02 28.6 24.53 28.6 23.97 28.6 23.41 28.6 22.88 28.6 22.4 28.6 21.91 28.6 21.36 28.6 20.84 28.6 20.57 28.6 17.83 28.6 16.69 28.6 12.16 28.6 10.82 28.6 0.3 28.6 0.3 28.61 28.6 28.61 28.6 28.6 26.73 28.6 25.02 28.6"/><path class="cls-1" d="M10.64,28.21H0.79v-6a6.44,6.44,0,0,1-.46-0.94l0,7.37H10.82Z"/><path class="cls-1" d="M14.84,28.21a2.55,2.55,0,0,1-.2.22,1,1,0,0,1-.89.11l-0.55-.32H12l0.18,0.39h4.53l-0.18-.39H14.84Z"/><path class="cls-1" d="M28.21,22.54l0.39,0.53V15.75l-0.39.34v6.45Z"/><path class="cls-1" d="M28.24,26.16l0-.07v0.08Z"/><polygon class="cls-1" points="21.69 28.21 21.91 28.6 22.4 28.6 22.17 28.21 21.69 28.21"/><path class="cls-1" d="M22.69,28.21l0.19,0.39h0.53l-0.2-.39H22.69Z"/><path class="cls-1" d="M21.28,28.21H17.64l0.18,0.39h2.74l0.21-.12,0.07,0.12h0.52l-0.19-.33Z"/><path class="cls-1" d="M28.21,25.09l0.39,0.69V24.86l-0.39-.55v0.78Z"/><path class="cls-1" d="M23.75,28.21L24,28.6h0.56l-0.22-.39H23.75Z"/><path class="cls-1" d="M28.21,5.72v6.11q0.21,0.58.39,1.15V5.54a17.21,17.21,0,0,0-5-3.28H22.25A21.4,21.4,0,0,1,28.21,5.72Z"/><path class="cls-1" d="M28.21,27.78l0.39-.22v-1l-0.39.23v1Z"/><path class="cls-1" d="M25,28.6h1.71l0.7-.39H25.69Z"/><path class="cls-1" d="M14.5,0.79a21.37,21.37,0,0,1,7.75,1.48h1.33A24.62,24.62,0,0,0,15,.3a20.74,20.74,0,0,0-9.29,2h1A21.39,21.39,0,0,1,14.5.79Z"/><path class="cls-1" d="M0.79,14V5.72a21.31,21.31,0,0,1,6-3.45h-1A23.35,23.35,0,0,0,.39,5.54l0,9.56q0.13-.37.29-0.74Z"/><polygon class="cls-1" points="28.6 28.6 28.73 28.6 28.73 27.5 28.6 27.57 28.6 28.6"/><polygon class="cls-1" points="28.6 24.86 28.73 25.04 28.73 23.25 28.6 23.07 28.6 24.86"/><path class="cls-1" d="M0.36,15.1q-0.09.26-.17,0.51v5.22c0,0.13.09,0.26,0.14,0.39Z"/><path class="cls-1" d="M28.6,15.75l0.1-.08,0,0V13.4L28.6,13v2.77Z"/><path class="cls-1" d="M13.74,28.54a1,1,0,0,0,.89-0.11,2.55,2.55,0,0,0,.2-0.22H13.19Z"/><polygon class="cls-1" points="28.21 24.31 28.6 24.86 28.6 23.07 28.21 22.54 28.21 24.31"/><polygon class="cls-1" points="16.51 28.21 16.69 28.6 17.83 28.6 17.64 28.21 16.51 28.21"/><path class="cls-1" d="M10.64,28.21l0.18,0.39h1.34L12,28.21H10.64Z"/><polygon class="cls-1" points="28.21 27.78 28.21 28.21 27.43 28.21 26.73 28.6 28.6 28.6 28.6 27.57 28.21 27.78"/><path class="cls-1" d="M0.79,22.16V14l-0.14.33q-0.16.37-.29,0.74l0,6.13A6.44,6.44,0,0,0,.79,22.16Z"/><path class="cls-1" d="M28.21,16.09l0.39-.34V13q-0.18-.58-0.39-1.15v4.26Z"/><path class="cls-1" d="M20.57,28.6h0.28l-0.07-.12Z"/><path class="cls-1" d="M22.17,28.21L22.4,28.6h0.49l-0.19-.39H22.17Z"/><path class="cls-1" d="M21.28,28.21l-0.11.06,0.19,0.33h0.56l-0.22-.39H21.28Z"/><path class="cls-1" d="M23.22,28.21l0.2,0.39H24l-0.22-.39H23.22Z"/><path class="cls-1" d="M24.31,28.21l0.22,0.39H25l0.67-.39H24.31Z"/><path class="cls-1" d="M28.6,26.54l0.13-.08V26l-0.13-.24v0.75Z"/><path class="cls-1" d="M28.21,26.1l0,0.07,0,0v0.59l0.39-.23V25.78l-0.39-.69v1Z"/></svg>