<?xml version="1.0" encoding="utf-8"?>
<!-- Generator: Adobe Illustrator 19.1.0, SVG Export Plug-In . SVG Version: 6.00 Build 0)  -->
<svg version="1.1" id="Microsoft" xmlns="http://www.w3.org/2000/svg" xmlns:xlink="http://www.w3.org/1999/xlink" x="0px" y="0px"
	 viewBox="34 -1.4 98.4 21" style="enable-background:new 34 -1.4 98.4 21;" xml:space="preserve">
<style type="text/css">
	.st0{fill:#909C9D;}
</style>
<title>Untitled-1</title>
<path id="path5056" class="st0" d="M132.4,8.2V6.4h-2.1V3.8h-0.1l-2,0.6l0,0v2h-3.2V5.3c0-0.4,0.1-0.9,0.3-1.2
	c0.3-0.3,0.6-0.4,1-0.4c0.3,0,0.6,0.1,0.9,0.2h0.1V2.1l0,0C126.9,2,126.4,2,126,2c-0.6,0-1.2,0.1-1.7,0.4c-0.5,0.3-0.9,0.7-1.2,1.1
	c-0.3,0.5-0.4,1.1-0.4,1.7v1.2h-1.5v1.7h1.5v7.3h2.2V8.2h3.2v4.6c0,1.9,0.9,2.9,2.7,2.9c0.3,0,0.6,0,0.9-0.1c0.2,0,0.5-0.1,0.7-0.2
	l0,0v-1.8l-0.1,0.1c-0.1,0.1-0.3,0.1-0.4,0.2c-0.1,0-0.3,0.1-0.4,0.1c-0.3,0-0.7-0.1-0.9-0.3c-0.2-0.3-0.3-0.8-0.3-1.2V8.2H132.4
	L132.4,8.2z M116.5,13.9c-0.7,0-1.4-0.2-1.8-0.8c-0.5-0.6-0.7-1.4-0.6-2.1c0-0.8,0.2-1.6,0.7-2.2c0.4-0.5,1.1-0.8,1.8-0.8
	c0.7,0,1.3,0.2,1.8,0.8c0.5,0.6,0.7,1.4,0.6,2.2c0.1,0.8-0.2,1.6-0.6,2.2C117.8,13.7,117.1,14,116.5,13.9 M116.6,6.2
	c-1.3-0.1-2.6,0.4-3.6,1.3c-0.9,1-1.3,2.2-1.3,3.5c-0.1,1.2,0.4,2.5,1.3,3.4c0.9,0.9,2.1,1.3,3.3,1.2c1.3,0.1,2.5-0.4,3.4-1.3
	c0.9-1,1.3-2.2,1.3-3.5c0.1-1.2-0.4-2.5-1.2-3.4C119,6.6,117.8,6.2,116.6,6.2 M108.3,6.2c-0.9,0-1.8,0.2-2.5,0.8c-0.6,0.5-1,1.2-1,2
	c0,0.4,0.1,0.8,0.2,1.1c0.1,0.3,0.4,0.6,0.6,0.8c0.4,0.3,0.8,0.5,1.3,0.7c0.4,0.1,0.7,0.3,1.1,0.5c0.2,0.1,0.3,0.2,0.5,0.4
	c0.1,0.2,0.1,0.3,0.1,0.5c0,0.6-0.4,0.9-1.4,0.9c-0.4,0-0.8-0.1-1.2-0.2c-0.4-0.1-0.8-0.3-1.2-0.6l-0.1-0.1v2.1l0,0
	c0.4,0.2,0.7,0.3,1.1,0.4c0.4,0.1,0.8,0.1,1.2,0.1c0.9,0.1,1.9-0.2,2.6-0.8c0.6-0.5,1-1.2,1-2c0-0.6-0.2-1.1-0.5-1.5
	c-0.5-0.5-1.1-0.9-1.8-1.1c-0.5-0.2-0.9-0.4-1.3-0.7C107,9.4,107,9.1,107,8.8c0-0.3,0.1-0.5,0.3-0.6c0.3-0.2,0.6-0.3,0.9-0.3
	c0.4,0,0.7,0.1,1.1,0.2c0.4,0.1,0.7,0.2,1,0.4l0.1,0.1v-2l0,0c-0.3-0.1-0.7-0.2-1-0.3C109.1,6.2,108.7,6.2,108.3,6.2 M99.3,13.9
	c-0.7,0-1.4-0.2-1.8-0.8c-0.5-0.6-0.7-1.4-0.7-2.1c0-0.8,0.2-1.6,0.7-2.2C97.9,8.2,98.6,8,99.2,8c0.7,0,1.3,0.2,1.8,0.8
	c0.5,0.6,0.7,1.4,0.6,2.2c0,0.8-0.2,1.6-0.7,2.2C100.6,13.7,99.9,14,99.3,13.9 M99.3,6.2c-1.3-0.1-2.6,0.4-3.5,1.3
	c-0.9,1-1.3,2.2-1.3,3.5c-0.1,1.2,0.4,2.5,1.2,3.4c0.9,0.9,2.1,1.3,3.3,1.2c1.3,0.1,2.5-0.4,3.4-1.3c0.9-1,1.3-2.2,1.3-3.5
	c0.1-1.2-0.4-2.5-1.2-3.4C101.7,6.6,100.5,6.2,99.3,6.2 M91.3,8V6.4h-2.1v9h2.1v-4.6c0-0.7,0.2-1.4,0.5-1.9c0.3-0.5,0.8-0.7,1.4-0.7
	c0.2,0,0.4,0,0.6,0.1c0.2,0,0.3,0.1,0.5,0.2l0.1,0.1V6.4l0,0c-0.8-0.3-1.6-0.1-2.2,0.4C91.8,7.1,91.5,7.5,91.3,8L91.3,8L91.3,8z
	 M85.4,6.2c-0.9,0-1.8,0.2-2.6,0.6c-0.7,0.4-1.3,1-1.7,1.8c-0.4,0.8-0.6,1.7-0.6,2.6c0,0.8,0.2,1.6,0.6,2.3c0.4,0.7,0.9,1.2,1.6,1.6
	c0.7,0.4,1.5,0.6,2.3,0.6c0.9,0,1.8-0.2,2.6-0.6l0,0v-1.9l-0.1,0.1c-0.3,0.2-0.6,0.4-1,0.5c-0.3,0.1-0.7,0.2-1,0.2
	c-0.7,0-1.5-0.2-2-0.8c-0.5-0.6-0.8-1.4-0.7-2.2c0-0.8,0.2-1.6,0.8-2.2C84,8.2,84.7,8,85.5,8c0.7,0,1.4,0.3,2,0.7l0.1,0.1v-2l0,0
	c-0.3-0.2-0.7-0.3-1-0.3C86.2,6.3,85.8,6.3,85.4,6.2 M79.1,6.5H77v9h2.1L79.1,6.5L79.1,6.5z M78,2.6c-0.3,0-0.7,0.1-0.9,0.4
	c-0.2,0.2-0.4,0.5-0.4,0.9c0,0.3,0.1,0.6,0.4,0.9C77.3,4.9,77.7,5,78,5c0.3,0,0.7-0.1,0.9-0.4c0.2-0.2,0.4-0.5,0.4-0.9
	c0-0.3-0.1-0.6-0.3-0.8C78.7,2.7,78.4,2.6,78,2.6 M72.7,5.8v9.7h2.2V2.9h-3l-3.8,9.3l-3.7-9.4h-3.1v12.6h2V5.8h0.1l3.9,9.7h1.5
	L72.7,5.8L72.7,5.8L72.7,5.8z"/>
<path id="path5058" class="st0" d="M44,8.6H34v-10h10V8.6z"/>
<path id="path5060" class="st0" d="M55,8.6H45v-10h10V8.6z"/>
<path id="path5062" class="st0" d="M44,19.7H34v-10h10V19.7z"/>
<path id="path5064" class="st0" d="M55,19.7H45v-10h10V19.7z"/>
</svg>
