<svg id="Microsoft" xmlns="http://www.w3.org/2000/svg" viewBox="0 0 98.36 29"><defs><style>.cls-1{fill:#909c9d;}</style></defs><title>Untitled-1</title><path id="path5056" class="cls-1" d="M98.36,15.17V13.44H96.22V10.75l-0.07,0-2,.62h0v2H90.9V12.3a1.8,1.8,0,0,1,.35-1.2,1.24,1.24,0,0,1,1-.4,2.29,2.29,0,0,1,.93.21l0.08,0V9.12h0A3.64,3.64,0,0,0,92,9a3.5,3.5,0,0,0-1.69.41,2.89,2.89,0,0,0-1.16,1.15,3.42,3.42,0,0,0-.41,1.68v1.25h-1.5v1.73h1.5v7.29H90.9V15.17h3.18V19.8c0,1.91.9,2.87,2.67,2.87a4.38,4.38,0,0,0,.91-0.1,2.52,2.52,0,0,0,.66-0.21l0,0V20.6l-0.09.06a1.5,1.5,0,0,1-.43.19,1.64,1.64,0,0,1-.42.07,1.15,1.15,0,0,1-.91-0.33,1.79,1.79,0,0,1-.29-1.16V15.17h2.15Zm-15.9,5.75a2.28,2.28,0,0,1-1.83-.77A3.26,3.26,0,0,1,80,18a3.39,3.39,0,0,1,.66-2.23A2.24,2.24,0,0,1,82.45,15a2.21,2.21,0,0,1,1.76.75,3.32,3.32,0,0,1,.64,2.21,3.54,3.54,0,0,1-.61,2.23,2.15,2.15,0,0,1-1.78.75m0.1-7.7A4.71,4.71,0,0,0,79,14.52a4.86,4.86,0,0,0-1.27,3.54A4.6,4.6,0,0,0,79,21.43a4.49,4.49,0,0,0,3.32,1.25,4.58,4.58,0,0,0,3.44-1.31,4.84,4.84,0,0,0,1.27-3.5,4.72,4.72,0,0,0-1.19-3.4,4.38,4.38,0,0,0-3.3-1.24m-8.24,0a3.88,3.88,0,0,0-2.49.77,2.45,2.45,0,0,0-1,2,2.8,2.8,0,0,0,.21,1.12,2.25,2.25,0,0,0,.64.84,5.58,5.58,0,0,0,1.31.73,9.73,9.73,0,0,1,1.09.51,1.51,1.51,0,0,1,.48.39,0.88,0.88,0,0,1,.13.51c0,0.61-.45.9-1.39,0.9a3.81,3.81,0,0,1-1.17-.21,4.41,4.41,0,0,1-1.2-.61l-0.09-.06v2.07l0,0a5.33,5.33,0,0,0,1.14.35,6.11,6.11,0,0,0,1.22.14,4.12,4.12,0,0,0,2.63-.77,2.5,2.5,0,0,0,1-2,2.36,2.36,0,0,0-.53-1.55,4.51,4.51,0,0,0-1.79-1.14,4.61,4.61,0,0,1-1.27-.66A0.93,0.93,0,0,1,73,15.81a0.77,0.77,0,0,1,.33-0.64,1.46,1.46,0,0,1,.91-0.26,3.74,3.74,0,0,1,1.09.17,3.49,3.49,0,0,1,1,.44l0.09,0.06v-2h0a4.69,4.69,0,0,0-1-.27,5.91,5.91,0,0,0-1.06-.11m-9.05,7.7a2.28,2.28,0,0,1-1.83-.77A3.26,3.26,0,0,1,62.78,18a3.39,3.39,0,0,1,.66-2.23A2.24,2.24,0,0,1,65.25,15a2.21,2.21,0,0,1,1.76.75,3.32,3.32,0,0,1,.64,2.21A3.54,3.54,0,0,1,67,20.16a2.15,2.15,0,0,1-1.78.75m0.1-7.7a4.71,4.71,0,0,0-3.51,1.3,4.86,4.86,0,0,0-1.27,3.54,4.6,4.6,0,0,0,1.24,3.37,4.49,4.49,0,0,0,3.32,1.25,4.58,4.58,0,0,0,3.44-1.31,4.84,4.84,0,0,0,1.27-3.5,4.72,4.72,0,0,0-1.19-3.4,4.38,4.38,0,0,0-3.3-1.24m-8,1.78V13.44H55.2v9h2.12V17.84a3.22,3.22,0,0,1,.53-1.92,1.62,1.62,0,0,1,1.37-.72,2.49,2.49,0,0,1,.64.09,1.62,1.62,0,0,1,.49.2l0.09,0.06V13.42h0a2.4,2.4,0,0,0-2.25.38A2.87,2.87,0,0,0,57.34,15h0ZM51.4,13.22a5.24,5.24,0,0,0-2.58.62,4.18,4.18,0,0,0-1.7,1.75,5.57,5.57,0,0,0-.58,2.59,4.78,4.78,0,0,0,.57,2.32,4,4,0,0,0,1.59,1.6,4.72,4.72,0,0,0,2.32.56,5.08,5.08,0,0,0,2.56-.6l0,0V20.12l-0.09.07a4,4,0,0,1-1,.54,3.14,3.14,0,0,1-1,.2,2.61,2.61,0,0,1-2-.77A3,3,0,0,1,48.74,18a3.12,3.12,0,0,1,.76-2.2,2.6,2.6,0,0,1,2-.82,3.41,3.41,0,0,1,2,.7l0.09,0.06v-2l0,0a3.5,3.5,0,0,0-1-.33,5.86,5.86,0,0,0-1.19-.13m-6.33.22H43v9h2.12v-9ZM44,9.6a1.28,1.28,0,0,0-.9.35,1.17,1.17,0,0,0-.38.88,1.14,1.14,0,0,0,.37.87A1.29,1.29,0,0,0,44,12a1.31,1.31,0,0,0,.91-0.35,1.13,1.13,0,0,0,.38-0.87A1.19,1.19,0,0,0,45,10,1.26,1.26,0,0,0,44,9.6m-5.29,3.18v9.68h2.16V9.87h-3L34.1,19.22l-3.7-9.35H27.29V22.46h2V12.77H29.4l3.9,9.68h1.54l3.84-9.68h0.07Z"/><path id="path5058" class="cls-1" d="M10,15.65H0v-10H10v10Z"/><path id="path5060" class="cls-1" d="M21,15.65H11v-10H21v10Z"/><path id="path5062" class="cls-1" d="M10,26.67H0v-10H10v10Z"/><path id="path5064" class="cls-1" d="M21,26.67H11v-10H21v10Z"/></svg>