<?xml version="1.0" encoding="utf-8"?>
<!-- Generator: Adobe Illustrator 19.1.0, SVG Export Plug-In . SVG Version: 6.00 Build 0)  -->
<svg version="1.1" id="Layer_1" xmlns="http://www.w3.org/2000/svg" xmlns:xlink="http://www.w3.org/1999/xlink" x="0px" y="0px"
	 viewBox="34 -2 97.8 20.9" style="enable-background:new 34 -2 97.8 20.9;" xml:space="preserve">
<style type="text/css">
	.st0{fill:#909C9D;}
</style>
<g id="Microsoft">
</g>
<g id="Experticity">
</g>
<g id="Asurion">
</g>
<g id="Facebook">
</g>
<g id="Brightbytes">
</g>
<g id="Little_Caesars">
</g>
<g id="Xbox">
</g>
<g id="Invision">
</g>
<g id="Oculus">
	<path class="st0" d="M128.9,5.7c-0.3-0.1-0.7-0.1-1-0.1c-0.2,0-0.3,0.1-0.5,0.1c-0.1,0-0.2,0.1-0.4,0.2c-0.2,0.1-0.3,0.3-0.3,0.5
		s0,0.3,0.1,0.5s0.3,0.3,0.5,0.3c0.2,0.1,0.3,0.1,0.5,0.2c0.2,0.1,0.4,0.1,0.6,0.1c0.5,0.1,0.9,0.2,1.4,0.4c0.8,0.3,1.6,0.8,1.9,1.7
		c0.1,0.4,0.2,0.8,0.1,1.2c-0.1,0.5-0.3,0.9-0.5,1.3c-0.2,0.3-0.5,0.5-0.8,0.7c-0.4,0.3-0.9,0.4-1.4,0.5c-0.4,0.1-0.8,0.1-1.2,0.1
		c-0.5,0-1-0.1-1.4-0.2c-0.8-0.2-1.6-0.7-2.3-1.2c0.4-0.5,0.8-1,1.1-1.5c0.4,0.3,0.9,0.6,1.4,0.8c0.3,0.1,0.7,0.2,1,0.2s0.6,0,1,0
		c0.2,0,0.5-0.1,0.7-0.2s0.3-0.2,0.4-0.3c0.1-0.1,0.2-0.3,0.2-0.4c0-0.2,0-0.3-0.1-0.5c-0.1-0.2-0.2-0.3-0.4-0.4
		c-0.2-0.1-0.4-0.2-0.7-0.3c-0.3-0.1-0.6-0.1-0.8-0.2c-0.8-0.2-1.7-0.4-2.4-1c-0.3-0.3-0.6-0.6-0.7-1s-0.1-0.9,0-1.3
		c0.1-0.4,0.3-0.7,0.5-1c0.3-0.4,0.7-0.7,1.2-0.9c0.4-0.1,0.7-0.2,1.1-0.3c0.5-0.1,1-0.1,1.5,0c0.9,0.1,1.7,0.5,2.4,1
		c-0.4,0.5-0.7,1-1.1,1.5C129.9,6,129.4,5.8,128.9,5.7z M111.3-0.7h-2.1v13.8h2.1V-0.7z M122.4,13.2c0-3,0-6,0-8.9
		c-0.7,0-1.4,0-2.1,0c0,0.6,0,3.7,0,4.2c0,0.2,0,0.5,0,0.7s0,0.3-0.1,0.5c-0.1,0.3-0.2,0.6-0.3,0.8c-0.4,0.6-1.1,0.9-1.8,0.9
		c-0.7,0-1.4-0.3-1.8-0.9c-0.2-0.3-0.2-0.5-0.3-0.8c-0.1-0.4-0.1-0.8-0.1-1.2c0-0.3,0-0.5,0-0.8c0-0.4,0-0.9,0-1.3
		c0-0.7,0-1.4,0-2.1c-0.7,0-1.4,0-2.1,0c0,0.7,0,2.9,0,3.6c0,0.3,0,0.7,0,1c0,0.3,0,0.5,0,0.8c0.1,0.6,0.2,1.2,0.4,1.7
		c0.6,1.1,1.7,1.8,2.9,1.9c0.6,0.1,1.2,0,1.8-0.2c0.6-0.2,1.1-0.5,1.6-0.9c0,0.3,0,0.6,0.1,0.9C121.1,13.2,121.7,13.2,122.4,13.2z
		 M96.7,12c-0.5-0.5-1-1-1.5-1.5c-0.4,0.4-0.8,0.6-1.3,0.7s-1,0.1-1.5-0.1s-0.9-0.5-1.2-0.9c-0.3-0.4-0.5-0.9-0.5-1.4s0.1-1,0.3-1.5
		c0.2-0.5,0.6-0.8,1.1-1c0.2-0.1,0.4-0.2,0.6-0.2c0.3,0,0.6-0.1,0.9,0c0.5,0.1,1,0.3,1.4,0.5c0.4-0.5,0.9-1.1,1.3-1.6
		c-0.7-0.6-1.6-0.9-2.5-1s-1.9,0-2.7,0.4c-0.8,0.4-1.5,1-2,1.9c-0.4,0.8-0.6,1.8-0.6,2.7s0.3,1.8,0.9,2.6c0.5,0.8,1.3,1.3,2.2,1.6
		c0.9,0.3,1.8,0.3,2.7,0.2C95.2,13.1,96.1,12.7,96.7,12z M106.7,13.2c0-3,0-6,0-8.9c-0.7,0-1.4,0-2.1,0c0,0.6,0,3.7,0,4.2
		c0,0.2,0,0.5,0,0.7s0,0.3-0.1,0.5c-0.1,0.3-0.2,0.6-0.3,0.8c-0.4,0.6-1.1,0.9-1.8,0.9c-0.7,0-1.4-0.3-1.8-0.9
		c-0.2-0.3-0.2-0.5-0.3-0.8c-0.1-0.4-0.1-0.8-0.1-1.2c0-0.3,0-0.5,0-0.8c0-0.4,0-0.9,0-1.3c0-0.7,0-1.4,0-2.1c-0.7,0-1.4,0-2.1,0
		c0,0.7,0,2.9,0,3.6c0,0.3,0,0.7,0,1c0,0.3,0,0.5,0,0.8c0.1,0.6,0.2,1.2,0.4,1.7c0.6,1.1,1.7,1.8,2.9,1.9c0.6,0.1,1.2,0,1.8-0.2
		c0.6-0.2,1.1-0.5,1.6-0.9c0,0.3,0,0.6,0.1,0.9C105.5,13.2,106.1,13.2,106.7,13.2z M87,8.7c0,1.2-0.5,2.4-1.3,3.3
		c-0.9,0.9-2.1,1.3-3.3,1.3c-1.2,0-2.4-0.5-3.3-1.4c-0.9-0.9-1.3-2.1-1.3-3.3s0.5-2.4,1.3-3.3C80,4.4,81.2,4,82.4,4
		c1.2,0,2.4,0.5,3.3,1.4C86.6,6.3,87,7.5,87,8.7z M84.9,8.7c0-0.2,0-0.4,0-0.5c0-0.2-0.1-0.3-0.1-0.5c-0.1-0.2-0.1-0.3-0.2-0.4
		c-0.1-0.1-0.2-0.3-0.3-0.4c-0.1-0.1-0.2-0.2-0.4-0.3c-0.1-0.1-0.3-0.2-0.4-0.2c-0.2-0.1-0.3-0.1-0.5-0.1c-0.2,0-0.3-0.1-0.5-0.1
		c-0.2,0-0.4,0-0.5,0c-0.2,0-0.3,0.1-0.5,0.1c-0.2,0.1-0.3,0.1-0.4,0.2c-0.1,0.1-0.3,0.2-0.4,0.3c-0.1,0.1-0.2,0.2-0.3,0.4
		c-0.1,0.1-0.2,0.3-0.2,0.4c-0.1,0.2-0.1,0.3-0.1,0.5S80,8.5,80,8.6c0,0.2,0,0.4,0,0.5c0,0.2,0.1,0.3,0.1,0.5
		c0.1,0.2,0.1,0.3,0.2,0.4c0.1,0.1,0.2,0.3,0.3,0.4s0.2,0.2,0.4,0.3c0.1,0.1,0.3,0.2,0.4,0.2c0.2,0.1,0.3,0.1,0.5,0.1
		c0.2,0,0.3,0.1,0.5,0.1c0.2,0,0.4,0,0.5,0c0.2,0,0.3-0.1,0.5-0.1c0.2-0.1,0.3-0.1,0.4-0.2s0.3-0.2,0.4-0.3c0.1-0.1,0.2-0.2,0.3-0.4
		c0.1-0.1,0.2-0.3,0.2-0.4c0.1-0.2,0.1-0.3,0.1-0.5C84.9,9.1,84.9,8.9,84.9,8.7z M68.9,8.5c0,3.2-1.4,6.2-3.9,8.1
		c-1.2,1-2.6,1.7-4.2,2c-0.9,0.2-1.8,0.3-2.7,0.3c-0.7,0-1.3,0-2,0c-3.1,0-6.3,0-9.4,0c-0.7,0-1.3,0-2,0c-0.9,0-1.8-0.1-2.6-0.3
		c-1.5-0.4-2.9-1-4.2-2c-2.5-2-3.9-5-3.9-8.1c0-3.2,1.4-6.2,3.9-8.1c1.2-1,2.6-1.7,4.2-2C42.9-1.9,43.8-2,44.7-2c0.7,0,1.3,0,2,0
		c3.1,0,6.3,0,9.4,0c0.7,0,1.3,0,2,0c0.9,0,1.8,0.1,2.6,0.3c1.5,0.4,2.9,1,4.2,2C67.4,2.4,68.9,5.4,68.9,8.5z M61.9,8.5
		c0-1.1-0.6-2.2-1.5-2.8c-0.5-0.3-1-0.5-1.5-0.6C58.3,5,57.7,5,57.2,5c-3.8,0-7.6,0-11.4,0c-0.6,0-1.1,0-1.7,0.1S43,5.4,42.6,5.7
		c-1,0.6-1.6,1.7-1.6,2.8s0.6,2.2,1.5,2.8c0.5,0.3,1,0.5,1.5,0.6c0.6,0.1,1.1,0.1,1.7,0.1c3.8,0,7.6,0,11.4,0c0.6,0,1.1,0,1.7-0.1
		c0.6-0.1,1.1-0.3,1.5-0.6C61.3,10.7,61.9,9.7,61.9,8.5z"/>
</g>
<g id="Samsung">
</g>
</svg>
