<?xml version="1.0" encoding="utf-8"?>
<!-- Generator: Adobe Illustrator 19.1.0, SVG Export Plug-In . SVG Version: 6.00 Build 0)  -->
<svg version="1.1" id="Layer_1" xmlns="http://www.w3.org/2000/svg" xmlns:xlink="http://www.w3.org/1999/xlink" x="0px" y="0px"
	 viewBox="34 0.6 98.9 14.6" style="enable-background:new 34 0.6 98.9 14.6;" xml:space="preserve">
<style type="text/css">
	.st0{fill:#909C9D;}
</style>
<g id="Microsoft">
</g>
<g id="Experticity">
</g>
<g id="Asurion">
</g>
<g id="Facebook">
</g>
<g id="Brightbytes">
</g>
<g id="Little_Caesars">
</g>
<g id="Xbox">
</g>
<g id="Invision">
</g>
<g id="Oculus">
</g>
<g id="Samsung">
	<g>
		<path class="st0" d="M88.2,7.4c0,0-1-0.6-1.6-0.8c0,0-1.8-0.9-2.2-1.3c0,0-0.7-0.7-0.3-1.5c0,0,0.2-0.5,0.9-0.5c0,0,1,0.1,1,0.9
			v1.1h3.5V3.6c0,0,0.3-2.8-4.2-2.9c0,0-3.5-0.2-4.5,1.6c0,0-0.4,0.4-0.4,1.9v1.1c0,0,0,1.2,0.6,2c0,0,0.4,0.5,1.2,1.1
			c0,0,1.8,0.9,2.8,1.5c0,0,1.1,0.6,0.9,1.6c0,0-0.1,1-1.1,1c0,0-0.9,0-0.9-1v-1.1h-3.8V12c0,0-0.1,3.2,4.7,3.2c0,0,4.6,0.1,4.8-3.3
			v-1.4C89.8,10.5,90,8.5,88.2,7.4L88.2,7.4z"/>
		<polygon class="st0" points="70.1,1.2 68.9,8.6 68.6,8.6 67.5,1.2 61.6,1.2 61.3,14.7 64.8,14.7 64.8,4.5 65.1,4.5 67,14.7 
			70.6,14.7 72.5,4.6 72.7,4.6 72.8,14.7 76.3,14.7 75.9,1.2 		"/>
		<polygon class="st0" points="49.3,1.2 46.9,14.7 50.7,14.7 52.1,4.2 52.4,4.2 53.8,14.7 57.5,14.7 55.2,1.2 		"/>
		<path class="st0" d="M128.3,7.2v2h1v2.1c0,1-0.9,1.1-0.9,1.1c-1.1,0-1-1-1-1V4c0-0.8,1-0.8,1-0.8c0.9,0,0.9,0.9,0.9,0.9v1.1h3.5
			c0.1-2.2-0.3-2.7-0.3-2.7c-0.9-2-4.2-1.9-4.2-1.9c-5.1,0-4.5,3.9-4.5,3.9v7.1c0.1,3.7,5.1,3.3,5.2,3.3c2.2-0.2,2.9-1,2.9-1
			c0.6-0.5,0.8-1.1,0.8-1.1c0.2-0.4,0.2-1.6,0.2-1.6V7h-4.6V7.2z"/>
		<polygon class="st0" points="116.5,9.4 116.4,9.4 112.8,1.2 108.5,1.2 108.5,14.7 112,14.7 111.7,6.5 111.9,6.5 115.6,14.7 
			119.8,14.7 119.8,1.2 116.3,1.2 		"/>
		<path class="st0" d="M99.9,11.3c0,0,0.1,1.1-1,1.1c0,0-1.1,0.1-1.1-1.1V1.1H94v10.1c0,0-0.4,3.8,5,3.8c0,0,4.7,0.1,4.7-3.6V1.2
			h-3.8L99.9,11.3L99.9,11.3z"/>
		<path class="st0" d="M41.9,7.4c0,0-1-0.6-1.6-0.8c0,0-1.8-0.9-2.2-1.3c0,0-0.7-0.7-0.3-1.5c0,0,0.2-0.5,0.9-0.5c0,0,1,0.1,1,0.9
			v1.1h3.5V3.6c0,0,0.3-2.8-4.2-2.9c0,0-0.3,0-0.8,0c0,0-2.7,0.1-3.6,1.6l0,0c0,0-0.4,0.4-0.4,1.9v1.1c0,0,0,1.2,0.6,2
			c0,0,0.4,0.5,1.2,1.1c0,0,1.8,0.9,2.8,1.5c0,0,1.1,0.6,0.9,1.6c0,0-0.1,1-1.1,1c0,0-0.9,0-0.9-1v-1.1H34V12c0,0-0.1,3.2,4.7,3.2
			c0,0,4.6,0.1,4.8-3.3v-1.4C43.6,10.5,43.7,8.5,41.9,7.4L41.9,7.4z"/>
	</g>
</g>
</svg>
