<svg id="Xbox" xmlns="http://www.w3.org/2000/svg" viewBox="0 0 102.03 29"><defs><style>.cls-1{fill:#909c9d;}</style></defs><title>Untitled-1</title><g id="g4201"><polygon id="polygon3015" class="cls-1" points="90.31 9.69 90.31 19.9 82.79 9.69 81.56 9.68 81.56 22.11 82.94 22.11 82.94 12.13 90.31 22.11 91.69 22.12 91.69 9.69 90.31 9.69"/><path id="path3017" class="cls-1" d="M74.38,9.41c-3.49,0-5.93,2.67-5.93,6.5s2.44,6.5,5.93,6.5,5.92-2.67,5.92-6.5-2.43-6.5-5.92-6.5m0,11.68c-2.66,0-4.53-2.13-4.53-5.19s1.87-5.18,4.53-5.18,4.51,2.13,4.51,5.18S77,21.09,74.38,21.09"/><polygon id="polygon3019" class="cls-1" points="94.64 20.9 94.64 16.3 101.48 16.3 101.48 15.09 94.64 15.09 94.64 10.9 101.94 10.9 101.94 9.69 93.25 9.69 93.25 22.12 102.03 22.12 102.03 20.9 94.64 20.9"/><polygon id="polygon3021" class="cls-1" points="64.55 22.13 60.58 16.74 56.61 22.13 54.97 22.13 59.75 15.61 55.39 9.69 57.02 9.69 60.58 14.52 64.13 9.69 65.76 9.69 61.4 15.61 66.18 22.13 64.55 22.13"/><path id="path3023" class="cls-1" d="M42.69,16.08a3.57,3.57,0,0,0-.81-0.52,2.82,2.82,0,0,0,1.49-2.49c0-.8-0.29-3.38-4-3.38h-5v5.36H32.59c-0.22.28-.71,1-0.9,1.25h2.59v5.82h5c2.73,0,4.43-1.39,4.43-3.63a3.07,3.07,0,0,0-1.07-2.41m-7-5.09h3.65c1,0,2.64.25,2.64,2,0,1.31-1,2.09-2.64,2.09H35.67V11Zm3.65,9.84H35.67V16.3h3.65c1.39,0,3,.38,3,2.17,0,2.05-1.91,2.36-3,2.36"/><path id="path3025" class="cls-1" d="M50.33,9.41c-3.49,0-5.93,2.67-5.93,6.5s2.44,6.5,5.93,6.5,5.92-2.67,5.92-6.5-2.43-6.5-5.92-6.5m0,11.68c-2.66,0-4.52-2.13-4.52-5.19s1.86-5.18,4.52-5.18,4.51,2.13,4.51,5.18S53,21.09,50.33,21.09"/><polygon id="polygon3027" class="cls-1" points="33.6 22.13 28.82 15.61 33.18 9.69 31.54 9.69 27.99 14.52 24.44 9.69 22.81 9.69 27.16 15.61 22.39 22.13 24.02 22.13 27.99 16.74 31.96 22.13 33.6 22.13"/><path class="cls-1" d="M17.9,22.47l0,0Z"/><path class="cls-1" d="M11.23,15.13h0c-0.36-.3-0.72-0.61-1.12-0.93-0.39.31-.76,0.62-1.11,0.93H9c-2.6,2.29-5.92,5.33-5.89,8.17a10.17,10.17,0,0,0,14,0C17.13,20.47,13.82,17.43,11.23,15.13Z"/><path class="cls-1" d="M13,11.69l-0.12.2c1.32,1.6,5.59,6.8,5.21,10.38A9.88,9.88,0,0,0,17,8.81,7.65,7.65,0,0,0,13,11.69Z"/><path class="cls-1" d="M15.47,7.61c0.24,0.15.47,0.31,0.69,0.47Q15.82,7.84,15.47,7.61Z"/><path class="cls-1" d="M16.33,8.21c0.19,0.15.38,0.31,0.56,0.47C16.7,8.51,16.52,8.36,16.33,8.21Z"/><path class="cls-1" d="M4.82,7.58a9.93,9.93,0,0,1,5.3,1.64A9.86,9.86,0,0,1,15.4,7.58h0a10.14,10.14,0,0,0-10.6,0h0Z"/><path class="cls-1" d="M7.39,11.89l-0.12-.2A7.68,7.68,0,0,0,3.2,8.81a9.88,9.88,0,0,0-1,13.45C1.79,18.68,6.07,13.49,7.39,11.89Z"/><path class="cls-1" d="M3.49,8.55l0.33-.28Z"/><path class="cls-1" d="M4.16,8c0.18-.13.36-0.26,0.55-0.37Z"/></g></svg>