<?xml version="1.0" encoding="utf-8"?>
<!-- Generator: Adobe Illustrator 19.1.0, SVG Export Plug-In . SVG Version: 6.00 Build 0)  -->
<svg version="1.1" id="Xbox" xmlns="http://www.w3.org/2000/svg" xmlns:xlink="http://www.w3.org/1999/xlink" x="0px" y="0px"
	 viewBox="36 -0.9 102 20" style="enable-background:new 36 -0.9 102 20;" xml:space="preserve">
<style type="text/css">
	.st0{fill:#909C9D;}
</style>
<title>Untitled-1</title>
<g id="g4201">
	<polygon id="polygon3015" class="st0" points="126.3,2.7 126.3,12.9 118.8,2.7 117.6,2.7 117.6,15.1 118.9,15.1 118.9,5.1 
		126.3,15.1 127.7,15.1 127.7,2.7 	"/>
	<path id="path3017" class="st0" d="M110.4,2.4c-3.5,0-5.9,2.7-5.9,6.5s2.4,6.5,5.9,6.5s5.9-2.7,5.9-6.5S113.9,2.4,110.4,2.4
		 M110.4,14.1c-2.7,0-4.5-2.1-4.5-5.2s1.9-5.2,4.5-5.2s4.5,2.1,4.5,5.2S113,14.1,110.4,14.1"/>
	<polygon id="polygon3019" class="st0" points="130.6,13.9 130.6,9.3 137.5,9.3 137.5,8.1 130.6,8.1 130.6,3.9 137.9,3.9 137.9,2.7 
		129.2,2.7 129.2,15.1 138,15.1 138,13.9 	"/>
	<polygon id="polygon3021" class="st0" points="100.6,15.1 96.6,9.7 92.6,15.1 91,15.1 95.8,8.6 91.4,2.7 93,2.7 96.6,7.5 
		100.1,2.7 101.8,2.7 97.4,8.6 102.2,15.1 	"/>
	<path id="path3023" class="st0" d="M78.7,9.1c-0.2-0.2-0.5-0.4-0.8-0.5c0.9-0.5,1.5-1.4,1.5-2.5c0-0.8-0.3-3.4-4-3.4h-5V8h-1.8
		c-0.2,0.3-0.7,1-0.9,1.2h2.6v5.8h5c2.7,0,4.4-1.4,4.4-3.6C79.7,10.6,79.3,9.7,78.7,9.1 M71.6,4h3.7c1,0,2.6,0.2,2.6,2
		c0,1.3-1,2.1-2.6,2.1h-3.6L71.6,4L71.6,4z M75.3,13.8h-3.6V9.3h3.7c1.4,0,3,0.4,3,2.2C78.3,13.5,76.4,13.8,75.3,13.8"/>
	<path id="path3025" class="st0" d="M86.3,2.4c-3.5,0-5.9,2.7-5.9,6.5s2.4,6.5,5.9,6.5c3.5,0,5.9-2.7,5.9-6.5S89.8,2.4,86.3,2.4
		 M86.3,14.1c-2.7,0-4.5-2.1-4.5-5.2s1.9-5.2,4.5-5.2c2.7,0,4.5,2.1,4.5,5.2S89,14.1,86.3,14.1"/>
	<polygon id="polygon3027" class="st0" points="69.6,15.1 64.8,8.6 69.2,2.7 67.5,2.7 64,7.5 60.4,2.7 58.8,2.7 63.2,8.6 58.4,15.1 
		60,15.1 64,9.7 68,15.1 	"/>
	<path class="st0" d="M53.9,15.5L53.9,15.5z"/>
	<path class="st0" d="M47.2,8.1L47.2,8.1c-0.4-0.3-0.7-0.6-1.1-0.9c-0.4,0.3-0.8,0.6-1.1,0.9l0,0c-2.6,2.3-5.9,5.3-5.9,8.2
		c3.9,3.7,10.1,3.7,14,0C53.1,13.5,49.8,10.4,47.2,8.1z"/>
	<path class="st0" d="M49,4.7l-0.1,0.2c1.3,1.6,5.6,6.8,5.2,10.4c3.2-4.1,2.8-10-1.1-13.5C51.4,2.3,50,3.3,49,4.7z"/>
	<path class="st0" d="M51.5,0.6c0.2,0.2,0.5,0.3,0.7,0.5C51.9,0.9,51.7,0.8,51.5,0.6z"/>
	<path class="st0" d="M52.3,1.2c0.2,0.1,0.4,0.3,0.6,0.5C52.7,1.5,52.5,1.4,52.3,1.2z"/>
	<path class="st0" d="M40.8,0.6c1.9,0,3.7,0.6,5.3,1.6c1.6-1,3.4-1.6,5.3-1.6l0,0C48.1-1.4,44.1-1.4,40.8,0.6L40.8,0.6L40.8,0.6z"/>
	<path class="st0" d="M43.4,4.9l-0.1-0.2c-1-1.4-2.4-2.4-4.1-2.9c-3.8,3.5-4.3,9.4-1,13.4C37.8,11.7,42.1,6.5,43.4,4.9z"/>
	<path class="st0" d="M39.5,1.6l0.3-0.3L39.5,1.6z"/>
	<path class="st0" d="M40.2,1c0.2-0.1,0.4-0.3,0.6-0.4L40.2,1z"/>
</g>
</svg>
