<svg viewBox="0 0 1440 756" xmlns="http://www.w3.org/2000/svg" xmlns:xlink="http://www.w3.org/1999/xlink"><defs><radialGradient cx="75.436%" cy="43.265%" fx="75.436%" fy="43.265%" r="46.044%" id="b"><stop stop-color="#FFF" stop-opacity="0" offset="0%"/><stop stop-color="#FFF" stop-opacity=".035" offset="64.905%"/><stop stop-color="#FFF" offset="100%"/></radialGradient><path id="a" d="M0 0h1440v756H0z"/><path id="d" d="M0 819.505h1441V.215H0z"/><linearGradient x1="50%" y1="1.968%" x2="50%" y2="86.612%" id="e"><stop stop-color="#E8ECF5" stop-opacity=".2" offset="0%"/><stop stop-color="#D1D8EC" stop-opacity="0" offset="100%"/></linearGradient></defs><g fill="none" fill-rule="evenodd"><mask id="c" fill="#fff"><use xlink:href="#a"/></mask><use fill="url(#b)" xlink:href="#a"/><g transform="translate(0 -45.215)" mask="url(#c)"><mask id="f" fill="#fff"><use xlink:href="#d"/></mask><path d="M1295.488 522.103l-22.835-.57c-1.723-.044-3.386-.642-4.74-1.707l-94.737-75.756c-1.41-1.107-3.15-1.854-4.94-1.854h-124.06c-2.04 0-4.002-.634-5.487-2.033l-80.69-74.79-5.222-14.907c-.698 1.264-1.573 2.46-2.625 3.502l-2.954 2.932-5.826 3.98c-2.79 1.904-6.595 1.197-8.512-1.585l-6.986-10.138c-3.168-4.595-10.314-3.018-11.255 2.483l-5.907 34.583c-.716 4.194.452 8.49 3.19 11.745l28.254 33.57c2.82 3.35 2 8.424-1.73 10.717l-29.317 18.01-14.804 138.13-236.69 23.8-118.53-97.977-3.924-17.083c-.287-1.25-.168-2.454.23-3.528l-7.393-.41-14.913-.623c-4.59-.19-7.755-4.677-6.395-9.065l18.356-59.244c.61-1.97.437-4.1-.486-5.945l-22.466-44.932c-.714-1.43-.985-3.038-.776-4.622l3.937-29.92c.445-3.382-1.303-6.674-4.355-8.2l-30.308-15.153c-4.47-2.236-9.875.13-11.262 4.933l-20.61 71.276c-.47 1.62-.413 3.35.16 4.936l19.647 54.48c.878 2.435.097 5.157-1.938 6.755l-5.02 3.945c-2.916 2.29-7.192 1.415-8.97-1.84l-30.873-56.448c-.483-.882-1.127-1.664-1.898-2.308l-48.74-40.617c-2.48-2.065-3.474-5.416-2.526-8.5l9.264-30.11c.738-2.393.31-4.993-1.154-7.026l-32.534-45.187c-.75-1.043-1.74-1.89-2.887-2.468l-105.394-53.18c-1.22-.616-2.262-1.534-3.027-2.667L170 143.216l-58.817-78.103c-1.388-1.84-3.502-2.995-5.8-3.165L82 60.216l-473-41v800h1561l9.284-84.53c.415-3.796 3.457-6.736 7.26-7.066l7.16-.606c4.888-.424 9.002 3.617 8.676 8.51l-.763 11.433c-.324 4.88 3.767 8.91 8.642 8.507l10.203-.843c2.813-.23 5.295-1.93 6.532-4.467l54.555-111.95c.3-.614.518-1.264.65-1.934l20.933-104.6c.975-4.87-2.678-9.443-7.645-9.567" fill="url(#e)" mask="url(#f)"/><g stroke="#8C9DD0" stroke-width="3" opacity=".2" mask="url(#f)"><path d="M958.13 364.96l80.688 74.862c1.484 1.4 3.447 2.18 5.488 2.18h124.057c1.792 0 3.532.6 4.94 1.707l94.738 75.61c1.357 1.064 3.02 1.662 4.743 1.705l22.835.57c4.965.125 8.62 4.698 7.644 9.568l-20.93 104.6c-.135.67-.355 1.32-.654 1.934l-54.554 111.95c-1.237 2.538-3.72 4.236-6.533 4.468l-10.202.844c-4.874.402-8.966-3.625-8.64-8.506l.76-11.43c.327-4.892-3.787-8.925-8.673-8.5l-7.162.62c-3.804.33-6.844 3.303-7.26 7.098l-9.284 84.594M528.13 502.71l-14.914-.622c-4.59-.192-7.755-4.678-6.395-9.066l18.358-59.243c.61-1.97.436-4.1-.487-5.946L502.226 382.9c-.714-1.428-.985-3.037-.776-4.62l3.936-29.92c.444-3.382-1.304-6.674-4.354-8.2l-30.31-15.154c-4.47-2.236-9.873.13-11.262 4.933l-20.61 71.275c-.47 1.62-.413 3.35.16 4.936l19.65 54.483c.876 2.433.096 5.155-1.938 6.753l-5.022 3.945c-2.916 2.293-7.19 1.416-8.97-1.838l-30.872-56.45c-.482-.88-1.125-1.663-1.897-2.306l-48.74-40.618c-2.478-2.065-3.474-5.416-2.525-8.498l9.265-30.11c.736-2.395.31-4.995-1.154-7.028l-32.534-45.186c-.75-1.043-1.742-1.89-2.89-2.468l-105.392-53.18c-1.22-.616-2.262-1.534-3.027-2.667l-52.834-78.27-58.82-78.103c-1.386-1.842-3.5-2.996-5.798-3.166L-390.87 18.71"/></g></g><g mask="url(#c)"><path d="M909.117 188.102c-2.214-1.668-5.382-1.083-6.854 1.266l-20.736 33.09-89.786 152.44-23.794 40.23-92 26.213-86.133 24.54-47.177-11.34c-4.466-1.074-8.503 2.922-7.474 7.4l3.925 17.082L657.617 577l236.688-23.8 14.805-138.13 29.315-18.01c3.732-2.294 4.55-7.368 1.73-10.72l-28.252-33.568c-2.74-3.255-3.906-7.55-3.19-11.744l5.91-34.584c.938-5.5 8.086-7.077 11.252-2.482l6.987 10.14c1.917 2.782 5.722 3.49 8.513 1.587l5.825-3.976 2.952-2.924c3.652-3.615 5.245-8.822 4.242-13.86l-12.096-60.807-23.383-38.64-9.798-7.38z" fill="#D1D8EC"/><path d="M951.293 281.967l-8.362-48.612c-.167-.733-.878-1.1-1.325-1.703L932 218M908.852 339.4l6.627-34.02c.908-4.668 6.926-6.035 9.762-2.22l8.244 11.09c2.27 3.054 6.888 2.915 8.97-.27M609.348 459.85l-19.295 5.587c-.916.265-1.886.286-2.814.06l-45.32-11.007c-3.954-.96-7.536 2.577-6.624 6.543l4.03 17.545c.272 1.18.927 2.237 1.863 3.005l114.424 93.877c1.124.92 2.567 1.358 4.013 1.214l230.268-22.897c2.582-.256 4.628-2.29 4.9-4.87l13.99-132.39c.18-1.685 1.128-3.193 2.572-4.083l27.98-17.242c2.695-1.66 3.422-5.255 1.586-7.834l-3.327-4.67" stroke="#4969C5" stroke-width="3" stroke-linecap="round"/><path d="M780 394l-11.105 18.113c-.71 1.19-1.846 2.067-3.177 2.453L684.45 438.1M827.776 313.433l-12.172 20.4M877.98 229.293L859 261" stroke="#4969C5" stroke-width="3" stroke-linecap="round"/><path d="M919.696 198.548c-.35 0-.7-.122-.985-.37-1.524-1.332-3.04-2.93-4.505-4.474-1.388-1.463-2.823-2.977-4.21-4.197-1.278-1.123-2.82-1.668-4.132-1.466-1.02.16-1.852.77-2.472 1.808l-2.602 4.365c-.424.71-1.345.942-2.057.52-.71-.425-.943-1.346-.518-2.058l2.603-4.364c1.084-1.814 2.668-2.932 4.583-3.232 2.184-.345 4.64.47 6.578 2.178 1.488 1.31 2.97 2.872 4.406 4.384 1.418 1.494 2.882 3.04 4.3 4.278.624.545.69 1.493.144 2.117-.297.34-.713.513-1.13.513" fill="#4969C5"/></g><g mask="url(#c)"><path fill="#FFF" d="M633.5 463.5h-20v-21h31.667v8.5M663.167 463.5H683.5v-21h-32v8.5"/><path fill="#E8EBF5" d="M672 443v16h-7l-13.5-7.5 11.667 12.5H683l.25-21.25M633 443v11l-7 5h-12v4l19 1 12-14-.75-7.25"/><path stroke="#5068B0" stroke-width="3" stroke-linejoin="round" d="M633.5 463.5h-20v-21h31.667v8.5zM663.167 463.5H683.5v-21h-32v8.5z"/><path d="M676 447v12M670 447v12M664 447v7M621 447v12M627 447v12M633 447v7" stroke="#5D74B6" stroke-width="2" stroke-linecap="round"/><g><path d="M752 484c0-6.627-5.373-12-12-12s-12 5.373-12 12v15h-8l-3 7.5h2V519h67.5v-16.5H757l-5-3.5v-15z" fill="#FFF"/><path d="M740.42 472.685S748 484 737.25 488H752s1.375-8.124-4-13c-5.375-4.874-7.58-2.315-7.58-2.315M778 503v10h-14v-10h-7v4h-38v5h38v7h29v-16" fill="#E8EBF5"/><path d="M726 518.935v-7.5M732 518.935v-7.5M738 518.935v-7.5M744 518.947v-7.513M750 518.947v-7.513" stroke="#8C9DD0" stroke-width="2" stroke-linecap="round" stroke-linejoin="round"/><path stroke="#5068B0" stroke-width="3" stroke-linecap="round" stroke-linejoin="round" d="M755.42 511.435v8.066H719.5l-.08-8.065M755.5 499.5h-36l-2.5 7h41.42zM753 494.935V488.5h-25v6.067M728.42 484.435c0-6.578 5.423-12 12-12 6.58 0 11.98 5.4 11.98 11.978M761.5 519.5h25v-17l-23.79-.066M769.5 502.435V463.5"/><path d="M764.42 494.935L774 495M766 483h7M766 471h7M776 489h9M777 476h7M777 464h7" stroke="#5068B0" stroke-width="2" stroke-linecap="round" stroke-linejoin="round"/><path d="M780.5 502.435V457.5" stroke="#5068B0" stroke-width="3" stroke-linecap="round" stroke-linejoin="round"/><path d="M734.5 495v-2M740.5 495v-2M746.5 495v-2" stroke="#8C9DD0" stroke-width="2" stroke-linecap="round" stroke-linejoin="round"/><path d="M740.5 466v6" stroke="#5068B0" stroke-width="3" stroke-linecap="round" stroke-linejoin="round"/></g><g><path fill="#FFF" d="M801.5 389.5h12V341l-12-9.375M782.5 389.5h12v-35l-12-9.056"/><path fill="#E8EBF5" d="M794 389h-6v-39l6 5M813 389h-6v-53l6 5"/><path fill="#FFF" d="M819.5 389.5h12V368l-12-10.5"/><path fill="#E8EBF5" d="M826 364v25h5v-20"/><path d="M783 356h4M802 343h4M783 361h6M783 366h6M783 371h6M820 368h4M820 373h6M820 378h6M820 383h6M783 376h6M783 381h6M803 362h6M803 367h6M803 372h6M803 353h6M803 348h6M803 358h6M803 377h6M803 382h6" stroke="#4969C5" stroke-width="2" stroke-linecap="round"/><path stroke="#5068B0" stroke-width="3" stroke-linejoin="round" d="M801.5 389.5h12V341l-12-9.375zM782.5 389.5h12v-35l-12-9.056zM819.5 389.5h12V368l-12-10.5z"/></g><g><path fill="#FFF" d="M913 350h11l-3-10h-5M897 375h43v-8h-43M905 366h28v-8h-28M909 357h19v-6h-19"/><path fill="#E8EBF5" d="M896.5 375.508H940V371h-43.5M905 367h28v-5h-28M909 358h19.5v-4H909"/><path d="M913 351v3M917 351v3M921 351v3M925 351v3M917 358v3M913 358v3M909 358v3M921 358v3M925 358v3M929 358v3M922 368v3M918 368v3M914 368v3M910 368v3M906 368v3M902 368v3M926 368v3M930 368v3M934 368v3" stroke="#8C9DD0" stroke-width="2" stroke-linecap="round"/><path fill="#E8EBF5" d="M915 349h7.714v-3H915"/><path stroke="#5068B0" stroke-width="3" stroke-linecap="round" stroke-linejoin="round" d="M896.5 375.5h44v-9h-44zM933.5 366v-8.5h-29v8.5M908.5 357v-6.5h20v6.5M921 340h-5l-3 10h11z"/></g><g><path d="M967.71 278.994l-5.11-5.246-8.73 18.062-.383 1.224-.14 1.358c-.847-.878-2.034-1.426-3.352-1.426-1.548 0-2.915.757-3.764 1.918l-.188-1.85-.384-1.224-8.73-18.062-5.11 5.246c-2.638 2.708-3.13 6.848-1.203 10.1l9.778 16.488 6.618-3.06-.194-1.44c.363.33 1.184.603 1.184.806v.214L944.435 309h11.12L952 302.102v-.106c0-.115.448-.303.677-.46l-.132 1.014 6.604 3.046 9.77-16.495c1.93-3.25 1.43-7.398-1.21-10.106" fill="#FFF"/><path d="M947 294s-2.625 3-1 6-5 6-5 6l-5-8s10.375-1.625 1-16c-.715-1.096-3-5-3-5l3-3 10 20zM954.66 297.63s5.342.476 9.34-10.63c1.125-3.125 1-7.875-2-10l1-2s7.5 4.875 7.125 10S959 305 959 305l-6-4 1.66-3.37z" fill="#E8EBF5"/><path d="M954.66 297.63c0-2.575-2.09-4.664-4.665-4.664-2.576 0-4.664 2.09-4.664 4.665 0 2.577 2.09 4.666 4.665 4.666 2.576 0 4.665-2.09 4.665-4.665z" stroke="#5068B0" stroke-width="3" stroke-linecap="round" stroke-linejoin="round"/><path stroke="#5068B0" stroke-width="3" stroke-linecap="round" stroke-linejoin="round" d="M948.095 301.888l-3.66 6.685h11.12l-3.66-6.685M952.518 302.523l6.617 3.06 9.78-16.49c1.927-3.25 1.434-7.392-1.204-10.1l-5.11-5.245-8.73 18.062-.384 1.224M947.01 302.523l-6.617 3.06-9.778-16.49c-1.93-3.25-1.435-7.392 1.202-10.1l5.112-5.245 8.728 18.062.384 1.224"/></g><g><path d="M876 284v-7M828 283v-8" stroke="#4969C5" stroke-width="2" stroke-linecap="round" stroke-linejoin="round"/><path d="M851 281h-4M853 273h-4" stroke="#8C9DD0" stroke-width="2" stroke-linecap="round" stroke-linejoin="round"/><path fill="#FFF" d="M830 308.5h9.5v-27H830"/><path fill="#E8EBF5" d="M838 309h-5v-23l6 11"/><path d="M828 288s7 4.833 7 14v7" stroke="#8C9DD0" stroke-width="2" stroke-linecap="round" stroke-linejoin="round"/><path fill="#FFF" d="M857 308.5l-6-64.25-6 64.25M862.5 308.5V283l8-7.5v33"/><path fill="#E8EBF5" d="M851 249v60h6M867 280v28h3v-32"/><path fill="#FFF" d="M884.5 308.5v-18l-8-7.25v25.25"/><path d="M881 293v2" stroke="#8C9DD0" stroke-width="2" stroke-linecap="round" stroke-linejoin="round"/><path fill="#E8EBF5" d="M884 309h-4v-22l4 3"/><path d="M881 299v2M856 301h-6M852 294h-6M855 287h-4" stroke="#8C9DD0" stroke-width="2" stroke-linecap="round" stroke-linejoin="round"/><path d="M827.5 308.5h12V303c0-10.417-6.167-20.083-12-21.5v27zM857 308.5l-6-64.25-6 64.25zM862.5 308.5V283l8-7.5v33zM884.5 308.5v-18l-8-7.25v25.25z" stroke="#5068B0" stroke-width="3" stroke-linecap="round" stroke-linejoin="round"/></g><g><path fill="#E8EBF5" d="M881 193h8v-5h-8"/><path fill="#FFF" d="M895 208v-7h-11l-3 16.25-3 5.75h37.107L917 208"/><path fill="#E8EBF5" d="M915 208l-1.857 10H901v-10h-4v15h4v-1h15l1-14"/><path fill="#FFF" d="M924.5 204h-6l-3 19h12"/><path d="M889 200v-4" stroke="#5D74B6" stroke-width="2" stroke-linecap="round"/><path d="M882 215h13M883 208h12" stroke="#8C9DD0" stroke-width="2" stroke-linecap="round"/><path stroke="#5068B0" stroke-width="3" stroke-linecap="round" stroke-linejoin="round" d="M884 200l-3 16.5-3 6h18V200zM917 207.5h-21v15h19.107M918.5 203l-3 19.5h12l-3-19.5z"/><path stroke="#5D74B6" stroke-width="2" stroke-linecap="round" stroke-linejoin="round" d="M881 193h8v-5h-8z"/><path d="M882.5 215v-1.5" fill="#5068B0"/></g><g><path fill="#E8EBF5" d="M678 400h37v-5h6v10l-3 1-5-3-6 3-7-3-7 3-6-3-4 2"/><path d="M702.5 393v-4M708.5 393v-4" stroke="#8C9DD0" stroke-width="3" stroke-linecap="round" stroke-linejoin="round"/><path fill="#E8EBF5" d="M690.25 394l5.75-5.5v5.5"/><path stroke="#5068B0" stroke-width="3" stroke-linecap="round" stroke-linejoin="round" d="M681.75 403.48l-10.5-8.98h50.25v8.5M717.5 393v-8.5H694l-5.5 6.25"/><path d="M739.167 402c-1.638 1.98-4.112 3.244-6.886 3.244-2.562 0-4.865-1.07-6.487-2.798-1.622 1.728-3.926 2.798-6.49 2.798-2.562 0-4.865-1.07-6.487-2.798-1.622 1.728-3.926 2.798-6.49 2.798-2.562 0-4.865-1.07-6.487-2.798-1.623 1.728-3.927 2.798-6.49 2.798s-4.866-1.07-6.488-2.798c-1.622 1.728-3.926 2.798-6.49 2.798-2.562 0-4.865-1.07-6.487-2.798-1.622 1.728-3.926 2.798-6.49 2.798-2.773 0-5.246-1.265-6.885-3.244" stroke="#8C9DD0" stroke-width="2" stroke-linecap="round" stroke-linejoin="round"/></g></g></g></svg>
